<svg xmlns="http://www.w3.org/2000/svg" id="Camada_2" data-name="Camada 2" viewBox="0 0 570.47 224.69"><defs><style>      .cls-1 {        fill: #faf2e7;      }    </style></defs><g id="Layer_1" data-name="Layer 1"><g><g><path class="cls-1" d="M150.85,7.46h-7.8V.68h23.06v6.78h-7.8v40.69h-7.46V7.46Z"></path><path class="cls-1" d="M169.71.68h11.05c3.84,0,6.65.89,8.41,2.68,1.76,1.79,2.64,4.53,2.64,8.24v2.92c0,4.93-1.63,8.05-4.88,9.36v.14c1.81.54,3.09,1.65,3.83,3.32.75,1.67,1.12,3.91,1.12,6.71v8.34c0,1.36.04,2.45.14,3.29.09.84.32,1.66.68,2.48h-7.6c-.27-.77-.45-1.49-.54-2.17-.09-.68-.14-1.9-.14-3.66v-8.68c0-2.17-.35-3.68-1.05-4.54-.7-.86-1.91-1.29-3.63-1.29h-2.58v20.35h-7.46V.68ZM179.88,21.02c1.49,0,2.61-.38,3.36-1.15.75-.77,1.12-2.06,1.12-3.87v-3.66c0-1.72-.31-2.96-.92-3.73-.61-.77-1.57-1.15-2.88-1.15h-3.39v13.56h2.71Z"></path><path class="cls-1" d="M197.04.68h20.35v6.78h-12.89v12.55h10.24v6.78h-10.24v14.58h12.89v6.78h-20.35V.68Z"></path><path class="cls-1" d="M221.65.68h7.46v47.47h-7.46V.68Z"></path><path class="cls-1" d="M234.67.68h9.36l7.26,28.42h.14V.68h6.65v47.47h-7.66l-8.95-34.66h-.14v34.66h-6.65V.68Z"></path><path class="cls-1" d="M269.4.68h10.11l7.73,47.47h-7.46l-1.36-9.43v.14h-8.48l-1.36,9.29h-6.92l7.73-47.47ZM277.54,32.42l-3.32-23.47h-.14l-3.26,23.47h6.71Z"></path><path class="cls-1" d="M290.83.68h10.65l4.75,33.98h.14l4.75-33.98h10.65v47.47h-7.05V12.21h-.14l-5.43,35.94h-6.24l-5.43-35.94h-.14v35.94h-6.51V.68Z"></path><path class="cls-1" d="M327.31.68h20.35v6.78h-12.89v12.55h10.24v6.78h-10.24v14.58h12.89v6.78h-20.35V.68Z"></path><path class="cls-1" d="M351.93.68h9.36l7.26,28.42h.14V.68h6.65v47.47h-7.66l-8.95-34.66h-.14v34.66h-6.65V.68Z"></path><path class="cls-1" d="M386.72,7.46h-7.8V.68h23.06v6.78h-7.8v40.69h-7.46V7.46Z"></path><path class="cls-1" d="M407.68,45.71c-1.94-2.08-2.92-5.02-2.92-8.82V11.94c0-3.8.97-6.74,2.92-8.82,1.94-2.08,4.75-3.12,8.41-3.12s6.47,1.04,8.41,3.12c1.94,2.08,2.92,5.02,2.92,8.82v24.96c0,3.8-.97,6.74-2.92,8.82-1.94,2.08-4.75,3.12-8.41,3.12s-6.47-1.04-8.41-3.12ZM419.95,37.37V11.46c0-3.12-1.29-4.68-3.87-4.68s-3.87,1.56-3.87,4.68v25.91c0,3.12,1.29,4.68,3.87,4.68s3.87-1.56,3.87-4.68Z"></path></g><g><path class="cls-1" d="M51.39,64.93l-6.51,23.53,36.19-9.65L12.63,224.69l12.98-98.89-25.61,6.83L18.4,40.66h0s92.1-24.58,92.1-24.58l-17.74,37.82-41.36,11.03Z"></path><g><path class="cls-1" d="M104.83,170.69c-4.55-4.93-6.83-12-6.83-21.21V62.68h17.88v88.1c0,3.9.78,6.72,2.36,8.45,1.57,1.73,3.82,2.6,6.75,2.6s5.17-.87,6.75-2.6c1.57-1.73,2.36-4.55,2.36-8.45V62.68h17.23v86.8c0,9.21-2.28,16.28-6.83,21.21-4.55,4.93-11.16,7.4-19.83,7.4s-15.28-2.46-19.83-7.4Z"></path><path class="cls-1" d="M164,63.49h22.43l17.39,68.11h.32V63.49h15.93v113.78h-18.37l-21.46-83.06h-.32v83.06h-15.93V63.49Z"></path><path class="cls-1" d="M242.79,170.16c-4.37-4.74-6.56-11.43-6.56-20.07v-59.42c0-8.64,2.19-15.33,6.56-20.07,4.37-4.74,10.72-7.11,19.04-7.11s14.67,2.37,19.04,7.11c4.37,4.74,6.56,11.43,6.56,20.07v11.69h-16.43v-12.8c0-6.85-2.9-10.27-8.69-10.27s-8.69,3.43-8.69,10.27v61.79c0,6.74,2.9,10.11,8.69,10.11s8.69-3.37,8.69-10.11v-16.91h16.43v15.65c0,8.64-2.19,15.33-6.56,20.07-4.37,4.74-10.72,7.11-19.04,7.11s-14.67-2.37-19.04-7.11Z"></path><path class="cls-1" d="M297.86,65.07h17.38v110.62h-17.38v-110.62Z"></path><path class="cls-1" d="M333.73,170.01c-4.53-4.84-6.8-11.69-6.8-20.54v-58.16c0-8.85,2.26-15.7,6.8-20.54,4.53-4.84,11.06-7.27,19.6-7.27s15.07,2.42,19.6,7.27c4.53,4.85,6.8,11.69,6.8,20.54v58.16c0,8.85-2.27,15.7-6.8,20.54-4.53,4.85-11.06,7.27-19.6,7.27s-15.07-2.42-19.6-7.27ZM362.34,150.57v-60.37c0-7.27-3-10.9-9.01-10.9s-9.01,3.63-9.01,10.9v60.37c0,7.27,3,10.9,9.01,10.9s9.01-3.63,9.01-10.9Z"></path><g><path class="cls-1" d="M388.76,63.55h22.41l17.38,68.04h.32V63.55h15.91v113.67h-18.35l-21.44-82.98h-.32v82.98h-15.91V63.55Z"></path><path class="cls-1" d="M471.9,63.55h24.2l18.51,113.67h-17.86l-3.25-22.57v.32h-20.3l-3.25,22.25h-16.56l18.51-113.67ZM491.38,139.55l-7.96-56.19h-.32l-7.79,56.19h16.08Z"></path><path class="cls-1" d="M523.21,63.55h17.86v97.44h29.39v16.24h-47.26V63.55Z"></path></g></g></g></g></g></svg>