<svg xmlns="http://www.w3.org/2000/svg" width="12" height="149" viewBox="0 0 12 149" fill="none"><path d="M0.666667 6C0.666667 8.94552 3.05448 11.3333 6 11.3333C8.94552 11.3333 11.3333 8.94552 11.3333 6C11.3333 3.05448 8.94552 0.666666 6 0.666667C3.05448 0.666667 0.666666 3.05448 0.666667 6ZM0.666672 143C0.666673 145.946 3.05449 148.333 6.00001 148.333C8.94552 148.333 11.3333 145.946 11.3333 143C11.3333 140.054 8.94552 137.667 6.00001 137.667C3.05449 137.667 0.666672 140.054 0.666672 143ZM5 6L5.00001 143L7.00001 143L7 6L5 6Z" fill="#9D9D9D"></path></svg>