<svg xmlns="http://www.w3.org/2000/svg" xmlns:xlink="http://www.w3.org/1999/xlink" id="Camada_2" viewBox="0 0 66.64 80.56"><defs><style>      .cls-1 {        fill: url(#Gradiente_sem_nome_3-7);      }      .cls-2 {        fill: url(#Gradiente_sem_nome_3-2);      }      .cls-3 {        fill: url(#Gradiente_sem_nome_3-3);      }      .cls-4 {        fill: url(#Gradiente_sem_nome_3-5);      }      .cls-5 {        fill: url(#Gradiente_sem_nome_3);      }      .cls-6 {        fill: url(#Gradiente_sem_nome_3-4);      }      .cls-7 {        fill: url(#Gradiente_sem_nome_3-6);      }    </style><linearGradient id="Gradiente_sem_nome_3" data-name="Gradiente sem nome 3" x1="0" y1="40.28" x2="66.55" y2="40.28" gradientUnits="userSpaceOnUse"><stop offset="0" stop-color="#fff"></stop><stop offset="1" stop-color="#fff"></stop></linearGradient><linearGradient id="Gradiente_sem_nome_3-2" data-name="Gradiente sem nome 3" x1="37.33" y1="42.06" x2="62.12" y2="42.06" xlink:href="#Gradiente_sem_nome_3"></linearGradient><linearGradient id="Gradiente_sem_nome_3-3" data-name="Gradiente sem nome 3" x1="15.09" y1="15.89" x2="35.12" y2="15.89" xlink:href="#Gradiente_sem_nome_3"></linearGradient><linearGradient id="Gradiente_sem_nome_3-4" data-name="Gradiente sem nome 3" x1="19.07" y1="19.46" x2="32.66" y2="19.46" xlink:href="#Gradiente_sem_nome_3"></linearGradient><linearGradient id="Gradiente_sem_nome_3-5" data-name="Gradiente sem nome 3" x1="59.09" y1="28.23" x2="66.64" y2="28.23" xlink:href="#Gradiente_sem_nome_3"></linearGradient><linearGradient id="Gradiente_sem_nome_3-6" data-name="Gradiente sem nome 3" x1="23.03" y1="22.99" x2="30.23" y2="22.99" xlink:href="#Gradiente_sem_nome_3"></linearGradient><linearGradient id="Gradiente_sem_nome_3-7" data-name="Gradiente sem nome 3" x1="26.18" y1="69.23" x2="66.55" y2="69.23" xlink:href="#Gradiente_sem_nome_3"></linearGradient></defs><g id="Camada_1-2" data-name="Camada_1"><g><path class="cls-5" d="M35.1,26.63c2.45-.56,4.89-1.12,7.34-1.69,1.48-.35,2.99-.6,4.38-1.3.82-.41,1.53-.97,2.09-1.66.78-.95,1.16-2.13,1.62-3.26.56-1.39,1.17-2.76,1.73-4.14.13-.32.21-.29.44-.09.96.84,1.99,1.62,3.1,2.23.94.52,1.89,1.03,2.92,1.41,2.15.8,4.34,1.27,6.62,1.38.09,0,.18,0,.27,0,.64,0,.96-.26.95-.74-.01-.45-.33-.67-.95-.68-2.79-.03-5.43-.73-7.91-1.98-3.13-1.58-5.7-3.86-7.85-6.63-2.09-2.7-3.63-5.69-4.76-8.89-.17-.48-.54-.69-.96-.54-.39.14-.57.56-.41,1,.44,1.24.94,2.46,1.52,3.64.87,1.76,1.82,3.48,3.01,5.05.75.99,1.53,1.96,2.4,2.85.59.6.63.62.24,1.36-.32.6-.39,1.28-.7,1.88-.68,1.3-1.15,2.7-1.76,4.03-.2.42-.43.81-.7,1.18-.74,1.04-1.84,1.52-3.01,1.86-.82.24-1.65.43-2.47.63-2.33.54-4.67,1.07-7,1.6-2.48.56-4.97,1.11-7.45,1.67-4,.9-7.77,2.35-11.21,4.64-1.65,1.1-3.18,2.34-4.54,3.79-1.75,1.87-3.15,3.96-4.11,6.34-.99,2.43-1.76,4.93-2.51,7.45-.61,2.07-1.07,4.18-1.62,6.27-.2.76-.38,1.56-.5,2.36-.13.93-.44,1.84-.57,2.76-.14.97-.41,1.91-.53,2.88-.28,2.16-.72,4.29-.99,6.45-.22,1.7-.53,3.38-.67,5.09-.02.19-.04.38-.06.57-.1.68-.25,1.36-.28,2.05-.03.76-.1,1.51-.19,2.26-.06.52.07.75.56.83.44.08.79-.17.86-.62.04-.29.07-.59.09-.88.27-2.91.62-5.8,1.03-8.69.27-1.91.53-3.81.86-5.71.35-2.03.76-4.05,1.17-6.06.53-2.59,1.14-5.17,1.83-7.73.6-2.22,1.26-4.42,2.02-6.58.59-1.69,1.26-3.35,2.21-4.88,1.4-2.23,3.18-4.11,5.27-5.71,2.45-1.87,5.15-3.26,8.05-4.29,2.47-.88,5.05-1.34,7.59-1.94,1.18-.28,2.37-.55,3.55-.82Z"></path><path class="cls-2" d="M53.76,39.82c-1.13-.75-2.31-1.4-3.54-1.97-3.55-1.66-7.28-2.57-11.13-2.67-.43,0-.79-.01-1.14,0-.41.02-.61.25-.62.65,0,.38.21.66.6.7.22.03.44.01.67.02,1.04.03,2.07.1,3.1.24.99.14,1.97.38,2.94.6,1.92.42,3.69,1.17,5.45,1.97,1.05.47,2,1.11,2.97,1.72.9.57,1.76,1.18,2.57,1.87,1.09.93,2.15,1.9,3.09,2.99.69.81,1.44,1.55,1.94,2.51.23.45.81.6,1.17.37.38-.24.41-.66.08-1.17-.07-.11-.14-.23-.22-.34-2.17-3-4.85-5.46-7.93-7.5Z"></path><path class="cls-3" d="M15.69,19.8c.39.09.66-.12.84-.44.36-.6.76-1.17,1.23-1.68,2.12-2.31,4.73-3.71,7.85-4.15,2.96-.41,5.71.18,8.28,1.68.16.09.31.18.49.17.36.02.61-.12.71-.48.1-.38-.06-.67-.37-.88-.16-.11-.34-.18-.51-.27-1.93-1.1-4.02-1.68-6.23-1.78-2.77-.11-5.38.51-7.79,1.91-2.04,1.18-3.68,2.78-4.94,4.77-.11.17-.2.35-.14.59.08.31.28.49.57.55Z"></path><path class="cls-6" d="M32.22,19.31c.24-.11.41-.27.43-.56.03-.36-.11-.59-.41-.77-1.5-.89-3.11-1.35-4.72-1.34-.59.02-1.05.03-1.51.09-2.89.42-5.13,1.86-6.73,4.29-.32.48-.27.86.12,1.12.37.25.76.13,1.08-.35.52-.8,1.16-1.47,1.93-2.06,2.02-1.53,4.27-1.95,6.72-1.49.85.16,1.63.52,2.38.94.23.13.46.23.71.12Z"></path><path class="cls-4" d="M65.4,30.59c.88.01,1.22-.21,1.24-.66.02-.46-.34-.75-.99-.76-.82-.01-1.53-.32-2.18-.79-1.04-.75-2.06-1.51-3.1-2.27-.22-.16-.46-.3-.74-.22-.24.06-.5.14-.53.45-.04.32.01.62.31.83,1.02.74,2.09,1.41,3.04,2.23.94.82,2.01,1.08,2.96,1.18Z"></path><path class="cls-7" d="M27.52,21.29c-1.99.05-3.33.76-4.3,2.18-.29.42-.25.87.1,1.09.4.26.81.14,1.1-.28.53-.78,1.25-1.29,2.17-1.48.89-.19,1.73-.05,2.53.39.43.23.83.13,1.01-.21.21-.38.06-.81-.36-1.05-.76-.42-1.57-.68-2.26-.65Z"></path><path class="cls-1" d="M66.18,57.99c-.26-.12-.54-.15-.77.1,0,0-.03.03-.03.03-.2.12-.22.33-.25.54-.07.37-.17.73-.21,1.11-.07.63-.19,1.26-.18,1.9,0,.07-.02.15-.02.22-.01.17-.1.33-.05.5-.01.07-.02.14-.04.21-.02.16-.05.33-.07.49.05-.03.09-.07.11-.11-.02.04-.06.08-.11.11-.01.08-.02.16-.03.24.09.17.08.35.06.52.03-.17.03-.34-.06-.52-.3.82-.17,1.71-.43,2.55-.08.26-.18.61-.05.93-.01.09-.03.17-.04.26-.03.36-.15.7-.12,1.06-.24,1.7-.47,3.4-.71,5.1-.06.45-.22.88-.23,1.33-.03.98-.16,1.94-.69,2.77-.83,1.29-2.03,1.88-3.6,1.87-3.81-.04-7.62,0-11.43,0h0c-1.42,0-2.85-.04-4.27-.02-1.38.02-2.7-.21-3.99-.67-1.11-.4-2.15-.94-3.08-1.69-2.81-2.25-4.35-5.16-4.43-8.78-.04-2.03,0-4.07,0-6.1,0-1.07,0-2.14,0-3.21,0-.51-.27-.79-.72-.8-.45,0-.68.25-.68.79-.01,1.4-.23,2.79-.27,4.19,0,.03,0,.06,0,.09-.13.93-.09,1.88-.36,2.79-.14.47-.01.96-.14,1.42-.33,1.29-.32,2.64-.73,3.92-.16.48-.09,1.03-.26,1.51-.39,1.09-.52,2.25-.9,3.34-.4,1.15-.66,2.34-1.12,3.48-.2.5-.02.94.38,1.07.5.17.8-.02,1-.57.96-2.67,1.7-5.39,2.26-8.17.1-.5.21-.99.34-1.58.53,2.13,1.25,4.03,2.64,5.63.64.74,1.31,1.45,2.06,2.07.97.81,2.11,1.35,3.28,1.81,1,.39,2.03.64,3.1.76,1.32.16,2.64.06,3.96.06.92,0,1.84,0,2.76,0,.38,0,.77.04,1.15-.03.1.02.2.04.3.04,3.14,0,6.29.03,9.43,0,2.85-.02,4.98-1.99,5.32-4.84.14-1.19.3-2.38.46-3.57.38-2.85.77-5.69,1.16-8.54.05-.04.05-.08.02-.13.01-.08.02-.15.03-.23.19-.76.22-1.54.3-2.32,0-.03.02-.07.02-.1.1-.71.22-1.42.31-2.13.04-.3-.08-.57-.36-.7Z"></path></g></g></svg>