<svg xmlns="http://www.w3.org/2000/svg" xmlns:xlink="http://www.w3.org/1999/xlink" id="Camada_2" viewBox="0 0 50.89 80.32"><defs><style>      .cls-1 {        fill: url(#Gradiente_sem_nome_3-7);      }      .cls-2 {        fill: #fff;      }      .cls-3 {        fill: url(#Gradiente_sem_nome_3-12);      }      .cls-4 {        fill: url(#Gradiente_sem_nome_3-11);      }      .cls-5 {        fill: url(#Gradiente_sem_nome_3-2);      }      .cls-6 {        fill: url(#Gradiente_sem_nome_3-3);      }      .cls-7 {        fill: url(#Gradiente_sem_nome_3-5);      }      .cls-8 {        fill: url(#Gradiente_sem_nome_3-9);      }      .cls-9 {        fill: url(#Gradiente_sem_nome_3-8);      }      .cls-10 {        fill: url(#Gradiente_sem_nome_3);      }      .cls-11 {        fill: url(#Gradiente_sem_nome_3-4);      }      .cls-12 {        fill: url(#Gradiente_sem_nome_3-10);      }      .cls-13 {        fill: url(#Gradiente_sem_nome_3-13);      }      .cls-14 {        fill: url(#Gradiente_sem_nome_3-6);      }    </style><linearGradient id="Gradiente_sem_nome_3" data-name="Gradiente sem nome 3" x1="0" y1="20.04" x2="50.89" y2="20.04" gradientUnits="userSpaceOnUse"><stop offset="0" stop-color="#fff"></stop><stop offset="1" stop-color="#fff"></stop></linearGradient><linearGradient id="Gradiente_sem_nome_3-2" data-name="Gradiente sem nome 3" x1="26.46" y1="51.01" x2="33.44" y2="51.01" xlink:href="#Gradiente_sem_nome_3"></linearGradient><linearGradient id="Gradiente_sem_nome_3-3" data-name="Gradiente sem nome 3" x1="25.05" y1="56.59" x2="31.89" y2="56.59" xlink:href="#Gradiente_sem_nome_3"></linearGradient><linearGradient id="Gradiente_sem_nome_3-4" data-name="Gradiente sem nome 3" x1="27.56" y1="45.47" x2="34.56" y2="45.47" xlink:href="#Gradiente_sem_nome_3"></linearGradient><linearGradient id="Gradiente_sem_nome_3-5" data-name="Gradiente sem nome 3" x1="23.71" y1="61.97" x2="30.49" y2="61.97" xlink:href="#Gradiente_sem_nome_3"></linearGradient><linearGradient id="Gradiente_sem_nome_3-6" data-name="Gradiente sem nome 3" x1="27.85" y1="39.76" x2="34.06" y2="39.76" xlink:href="#Gradiente_sem_nome_3"></linearGradient><linearGradient id="Gradiente_sem_nome_3-7" data-name="Gradiente sem nome 3" x1="23.78" y1="67.63" x2="29.95" y2="67.63" xlink:href="#Gradiente_sem_nome_3"></linearGradient><linearGradient id="Gradiente_sem_nome_3-8" data-name="Gradiente sem nome 3" x1="25.65" y1="72.56" x2="30.82" y2="72.56" xlink:href="#Gradiente_sem_nome_3"></linearGradient><linearGradient id="Gradiente_sem_nome_3-9" data-name="Gradiente sem nome 3" x1="26.85" y1="34.58" x2="32.17" y2="34.58" xlink:href="#Gradiente_sem_nome_3"></linearGradient><linearGradient id="Gradiente_sem_nome_3-10" data-name="Gradiente sem nome 3" x1="28.64" y1="75.92" x2="32.75" y2="75.92" xlink:href="#Gradiente_sem_nome_3"></linearGradient><linearGradient id="Gradiente_sem_nome_3-11" data-name="Gradiente sem nome 3" x1="25.15" y1="29.77" x2="29.33" y2="29.77" xlink:href="#Gradiente_sem_nome_3"></linearGradient><linearGradient id="Gradiente_sem_nome_3-12" data-name="Gradiente sem nome 3" x1="23.88" y1="26.38" x2="26.61" y2="26.38" xlink:href="#Gradiente_sem_nome_3"></linearGradient><linearGradient id="Gradiente_sem_nome_3-13" data-name="Gradiente sem nome 3" x1="32.7" y1="79.29" x2="34.91" y2="79.29" xlink:href="#Gradiente_sem_nome_3"></linearGradient></defs><g id="Camada_1-2" data-name="Camada_1"><g><path class="cls-10" d="M28.99,18.87c-.31.63-.62,1.25-.96,1.93,0-.42-.01-.78,0-1.13.09-2.82.21-5.64-.14-8.45-.13-1.02-.34-2.03-.68-3.01-.81-2.36-2.57-3.49-4.96-3.74-2.96-.31-5.79.31-8.57,1.25-.86.29-1.69.66-2.47,1.14-2.57,1.56-3.44,3.7-2.7,6.61.37,1.45.96,2.81,1.8,4.03,1.19,1.73,1.88,3.57,1.89,5.68.01,1.82.99,3.27,2.12,4.6,1.19,1.4,2.54,2.64,3.91,3.87.3.26.37.13.48-.14.62-1.53.9-3.14.92-4.78.02-1.4,0-2.8,0-4.22.03-.01.07.03.09.09,1.77,3.98,1.85,7.92-.37,11.75-1.39,2.4-3.41,4.07-6.19,4.67-.08.02-.15.03-.23.04-.2.02-.4.03-.61.02,1.12-.59,2.25-1.17,3.07-2.3-5.5-.34-10.64.62-15.42,3.32,2.55-2.23,5.31-4.08,8.58-5.03,2.4-.7,4.8-.76,7.16.2.83.34.83.34,1.32-.42.43-.66.8-1.35,1.15-2.05.18-.37.08-.54-.22-.74-1.36-.93-2.7-1.89-3.92-3.01-1.32-1.2-2.51-2.5-3.14-4.22-.26-.71-.4-1.46-.5-2.2-.15-1.2-.66-2.22-1.41-3.16-1.4-1.75-2.61-3.63-3.24-5.81-1.02-3.55-.11-6.55,2.67-8.95,2.45-2.12,5.39-3.31,8.48-4.12,2.37-.62,4.77-.8,7.18-.21,3.81.93,6.37,3.87,6.84,7.76.38,3.17-.27,6.19-1.35,9.14-.17.47-.25.89-.14,1.38.63,2.92,1.8,5.56,4.01,7.65.81.77,1.74,1.37,2.76,1.84.18.08.35.16.57.08,3.24-1.15,6.16-.35,8.84,1.57,1.6,1.14,2.65,2.78,3.65,4.43.66,1.09,1.2,2.25,1.61,3.47-.59-.85-1.15-1.72-1.78-2.53-.75-.96-1.57-1.85-2.47-2.68-1.55-1.43-3.32-1.98-5.4-1.52-.91.2-1.84.33-2.79.3-2.03-.07-3.66-.89-5.02-2.38-2.31-2.52-3.85-5.4-4.27-8.83-.05-.37-.06-.74-.09-1.1,0-.04.02-.1,0-.12-.05-.04-.06.02-.07.06Z"></path><path class="cls-5" d="M31.89,52.77c-.44,0-.8-.16-1.12-.46-.62-.6-1.13-.65-1.86-.2-.77.47-1.65.32-2.14-.36-.48-.66-.38-1.55.22-2.09.62-.57,1.51-.53,2.17.08.65.6,1.08.64,1.9.16.59-.35,1.3-.3,1.81.12.51.41.7,1.09.49,1.71-.22.65-.79,1.06-1.47,1.06Z"></path><path class="cls-6" d="M31.89,56.78c-.02.66-.31,1.14-.88,1.42-.61.3-1.2.2-1.72-.24-.82-.71-.97-.73-1.9-.22-.74.41-1.61.2-2.08-.49-.44-.66-.32-1.53.28-2.05.63-.54,1.52-.5,2.13.09.64.62.99.66,1.75.2.53-.32,1.07-.36,1.62-.06.53.29.78.76.8,1.35Z"></path><path class="cls-11" d="M34.56,45.54c-.03.56-.29,1.01-.81,1.28-.58.3-1.14.24-1.64-.17-.45-.37-.92-.55-1.49-.38-.23.07-.41.2-.6.34-.7.51-1.55.44-2.08-.17-.53-.6-.5-1.47.06-2.05.54-.56,1.39-.59,2.05-.07.73.56,1.29.57,2.05.01.52-.38,1.07-.46,1.65-.17.54.28.8.75.81,1.38Z"></path><path class="cls-7" d="M30.49,62.01c-.01.48-.29.93-.82,1.21-.54.28-1.08.22-1.57-.12-.85-.6-1.1-.59-1.89.08-.62.53-1.49.52-2.05-.03-.57-.56-.61-1.44-.11-2.05.51-.61,1.36-.71,2.04-.25.76.53,1.18.5,1.93-.11.49-.4,1.03-.46,1.6-.21.54.23.87.77.87,1.49Z"></path><path class="cls-14" d="M34.06,39.21c0,.96-.94,1.62-1.88,1.29-.91-.32-1.26-.21-1.84.59-.44.59-1.19.76-1.81.4-.62-.36-.86-1.11-.56-1.76.3-.67,1.03-.96,1.74-.71.88.32,1.27.2,1.84-.59.37-.51.97-.7,1.55-.5.57.19.94.7.94,1.29Z"></path><path class="cls-1" d="M29.95,67.46c0,.52-.24.92-.7,1.19-.49.27-.97.25-1.44-.05-.72-.46-1.05-.43-1.65.16-.54.53-1.33.59-1.88.12-.55-.47-.66-1.29-.23-1.87.44-.61,1.22-.74,1.89-.33.76.48,1,.44,1.68-.2.43-.4.94-.53,1.49-.3.54.23.84.65.85,1.28Z"></path><path class="cls-9" d="M29.54,73c-.88-.38-1.39.07-1.77.97-.23.53-.97.64-1.5.36-.5-.26-.74-.88-.55-1.42.19-.55.73-.87,1.31-.78,1.01.16,1.1.12,1.55-.81.26-.54.87-.8,1.44-.61.54.17.89.75.8,1.3-.1.58-.57.99-1.26,1Z"></path><path class="cls-8" d="M28.11,33.97s.16.03.28.07c.86.27,1.13.17,1.58-.6.27-.47.77-.69,1.3-.57.47.1.85.52.9,1,.06.54-.21,1.01-.7,1.23-.25.11-.51.12-.77.05-1.05-.27-1.12-.24-1.68.63-.31.49-.91.68-1.46.45-.51-.21-.79-.76-.68-1.32.1-.54.6-.94,1.24-.94Z"></path><path class="cls-12" d="M31.81,76.13c-.78-.04-1.19.23-1.43.79-.21.5-.66.7-1.12.55-.46-.16-.71-.59-.61-1.05.1-.47.5-.73,1.04-.69.6.04,1-.18,1.27-.72.29-.58.67-.79,1.16-.63.43.14.69.56.61,1.01-.09.51-.46.76-.92.75Z"></path><path class="cls-4" d="M26.09,31.17c-.37-.02-.66-.17-.83-.5-.16-.32-.14-.63.07-.92.21-.3.52-.46.88-.37.66.18,1.13,0,1.47-.6.24-.42.77-.54,1.17-.32.39.21.57.69.42,1.11-.15.42-.58.65-1.04.56-.76-.14-.98-.06-1.39.57-.18.29-.44.42-.75.46Z"></path><path class="cls-2" d="M28.09,53.87c0-.66.5-1.17,1.16-1.18.63,0,1.17.53,1.17,1.18,0,.62-.53,1.17-1.14,1.16-.67,0-1.18-.5-1.19-1.16Z"></path><path class="cls-2" d="M31.79,48.43c0,.69-.47,1.16-1.16,1.16-.63,0-1.14-.51-1.15-1.14,0-.65.51-1.19,1.15-1.19.66,0,1.16.5,1.16,1.17Z"></path><path class="cls-2" d="M28.46,59.43c0,.61-.49,1.13-1.09,1.14-.69.02-1.21-.48-1.22-1.16,0-.66.49-1.16,1.16-1.17.64,0,1.15.52,1.15,1.18Z"></path><path class="cls-2" d="M31.2,41.92c.59,0,1.03.43,1.04,1.01,0,.6-.45,1.06-1.04,1.05-.57,0-1.02-.46-1.02-1.04,0-.59.44-1.02,1.02-1.02Z"></path><path class="cls-2" d="M27.71,64.97c0,.57-.46,1.01-1.04,1.01-.58,0-1.03-.46-1.01-1.02.01-.57.49-1.03,1.03-1.02.57.02,1.02.48,1.02,1.03Z"></path><path class="cls-3" d="M24.45,27.31c-.33-.01-.52-.15-.56-.43-.05-.29.08-.57.38-.58.62-.04,1.12-.27,1.53-.73.15-.17.36-.14.56-.03.2.11.28.28.25.5-.02.22-.13.41-.35.43-.6.07-1.12.31-1.55.73-.07.07-.19.09-.25.11Z"></path><path class="cls-2" d="M31.2,37.12c0,.48-.38.86-.85.86-.46,0-.84-.39-.83-.87,0-.45.37-.81.82-.82.48,0,.86.36.86.83Z"></path><path class="cls-2" d="M29.16,75.25c-.51-.02-.81-.35-.8-.88.01-.48.36-.8.84-.79.47.01.84.41.82.88-.03.46-.4.8-.86.79Z"></path><path class="cls-2" d="M27.81,70.52c0,.51-.33.85-.82.85-.45,0-.82-.36-.83-.82-.01-.47.36-.85.84-.86.46,0,.81.35.81.82Z"></path><path class="cls-2" d="M28.57,31.56c.44.03.79.42.77.87-.02.45-.44.82-.9.79-.45-.03-.78-.41-.76-.87.02-.48.4-.82.89-.79Z"></path><path class="cls-13" d="M33.16,80.32c-.21-.01-.39-.15-.44-.4-.06-.27.04-.52.31-.59.44-.12.72-.37.91-.77.11-.23.33-.32.58-.26.23.06.37.22.39.46.03.26-.1.47-.34.53-.44.11-.72.38-.9.78-.08.19-.26.25-.51.25Z"></path><path class="cls-2" d="M33.08,77.64c.01.36-.25.65-.61.67-.39.01-.65-.22-.67-.59-.02-.36.24-.66.6-.68.33-.02.67.29.69.61Z"></path><path class="cls-2" d="M26.39,28.71c-.34-.01-.62-.32-.6-.68.02-.36.31-.65.67-.6.35.05.59.23.59.63,0,.41-.27.67-.66.66Z"></path></g></g></svg>