<svg xmlns="http://www.w3.org/2000/svg" id="Camada_2" viewBox="0 0 73.91 73.92"><defs><style>      .cls-1 {        fill: #fff;      }    </style></defs><g id="Camada_1-2" data-name="Camada_1"><g id="Target"><path class="cls-1" d="M70.82,22.18l-1.11,1.11c-1.56,1.58-3.58,2.6-5.77,2.93,1.37,3.4,2.07,7.04,2.06,10.7,0,16.02-12.98,29-29,29s-29-12.98-29-29S20.99,7.92,37,7.92c3.67-.01,7.3.69,10.7,2.06.32-2.19,1.35-4.22,2.93-5.77l1.11-1.11C33.03-5.07,11.26,3.48,3.09,22.18c-8.16,18.7.38,40.48,19.09,48.64,18.7,8.16,40.48-.38,48.64-19.09,4.11-9.42,4.11-20.13,0-29.56Z"></path><path class="cls-1" d="M56.43,28.69l-6.41,6.38c.11.61.16,1.23.16,1.85,0,7.28-5.9,13.18-13.18,13.18s-13.18-5.9-13.18-13.18,5.9-13.18,13.18-13.18c.62,0,1.24.05,1.85.16l6.41-6.41c-2.61-1.09-5.42-1.66-8.25-1.66-11.63.01-21.05,9.46-21.04,21.09.01,11.63,9.46,21.05,21.09,21.04,11.63-.01,21.05-9.46,21.04-21.09,0-2.81-.57-5.59-1.66-8.17h0Z"></path><path class="cls-1" d="M72.95,10.29c-.21-1.25-1-2.33-2.13-2.9l-2.85-1.42-1.42-2.85c-.98-1.95-3.35-2.74-5.31-1.76-.38.19-.72.44-1.02.73l-5.85,5.83c-.99.99-1.55,2.33-1.54,3.73v4.18c0,.46.07.91.2,1.35l-17.88,17.88c-1.05,1.01-1.08,2.68-.06,3.73s2.68,1.08,3.73.06c.02-.02.04-.04.06-.06l17.88-17.88c.44.13.89.19,1.35.2h4.18c1.4,0,2.74-.55,3.73-1.54l5.84-5.84c.9-.9,1.31-2.17,1.11-3.43h0Z"></path></g></g></svg>