<svg xmlns="http://www.w3.org/2000/svg" id="Camada_2" viewBox="0 0 96.37 62.43"><defs><style>      .cls-1 {        fill: #fff;      }    </style></defs><g id="Camada_1-2" data-name="Camada_1"><g><g><g><path class="cls-1" d="M37.82.78l1.84,4.3c.36-.21.74-.4,1.14-.55l-1.7-4.25c-.45.11-.88.28-1.28.5Z"></path><path class="cls-1" d="M39.96.14l1.65,4.14c.56-.14,1.14-.2,1.72-.17-.62-1.3-1.13-2.47-1.43-3.18-.2-.48-.66-.79-1.18-.81-.25,0-.51,0-.76.03h0Z"></path><path class="cls-1" d="M43.55,17.81c.09.06,2.07,1.32,4.16.14l-.03-3.8-7.6,2.82c.47.81.71,1.73.72,2.66v5.56h5.42c.4-.47.94-.8,1.54-.94l-.02-2.37c-.6.28-1.25.42-1.92.42-.97,0-1.91-.28-2.74-.78-.2-.13-.25-.39-.12-.59.13-.2.39-.25.59-.12.09.06,2.08,1.33,4.18.12l-.02-2.03c-.59.27-1.24.41-1.89.41-.97,0-1.91-.28-2.74-.78-.2-.13-.25-.39-.12-.59.13-.2.39-.25.59-.12h0Z"></path><path class="cls-1" d="M36.91,1.38c-.43.35-.56.94-.32,1.44.56,1.14,1.02,2.32,1.36,3.54.31-.29.64-.56.98-.8l-1.85-4.31c-.06.05-.12.09-.18.14Z"></path><path class="cls-1" d="M55.43,0c-.52,0-.98.31-1.2.78-.37.83-.92,2.03-1.54,3.32.59-.02,1.17.03,1.74.17L56.09.03c-.19-.02-.39-.03-.6-.03-.02,0-.04,0-.06,0h0Z"></path><path class="cls-1" d="M50.68,2.5c-.86.29-1.76.44-2.67.44-.79,0-1.58-.11-2.34-.34-.49-.15-.96-.36-1.41-.62l-1.3-.75c.49,1.12,1.24,2.8,2.09,4.41,1.19,2.27,2.25,3.83,3.07,4.51.04.03.09.03.13,0,1.27-1.26,3.74-6.47,4.87-8.94l-1.18.7c-.39.24-.81.43-1.25.59h0Z"></path><path class="cls-1" d="M55.26,4.52c.34.13.68.27,1,.44l1.72-4.43c-.34-.15-.68-.27-1.04-.35l-1.69,4.35Z"></path><path class="cls-1" d="M58.19,7.37c-.64-.61-3.17-2.79-5.94-2.37-.13.25-.25.51-.38.76,3,0,5.12,1.65,6.14,2.67.04-.36.1-.71.18-1.06Z"></path><path class="cls-1" d="M44.1,5.67c-.11-.22-.23-.44-.34-.67-2.74-.42-5,1.72-5.58,2.32.07.31.12.63.16.95.94-1.03,2.85-2.6,5.75-2.6h0Z"></path><path class="cls-1" d="M56.65,33.85c.42-.17.63-.64.48-1.07l-1.3-3.73h-5.61c-.09.08-.18.15-.27.22.29.98,1.45,4.23,4.43,5.66.74-.4,1.5-.77,2.28-1.08h0Z"></path><path class="cls-1" d="M57.21,26.51c0-.26-.21-.48-.48-.48h-5.75c.25.71.21,1.49-.12,2.17h5.87c.26,0,.48-.22.48-.48v-1.21Z"></path><path class="cls-1" d="M58.08,11.34c-.11-.57-.16-1.14-.15-1.72-.47-.57-2.84-3.2-6.5-2.99-.94,1.81-1.9,3.45-2.59,4.12-.35.34-.9.36-1.27.05-.85-.71-1.86-2.14-3.01-4.27-1.63-.11-3.25.38-4.55,1.39-.6.45-1.12.98-1.56,1.58.02.61-.03,1.23-.14,1.83-.44,2.25.41,3.86,1.21,4.81.02.03.05.06.07.09l8.37-3.1c.09-.04.2-.04.29,0l8.55,3.11s.05-.06.07-.09c.79-.95,1.65-2.56,1.21-4.81h0Z"></path><path class="cls-1" d="M53.29,21.51c-.76.51-1.66.78-2.58.78-.73,0-1.45-.16-2.12-.46l.02,2.35c.74.07,1.41.42,1.89.99h5.1v-5.56c0-.93.25-1.85.71-2.65l-7.77-2.83.03,3.74c.49.28,2.36,1.16,4.26-.07.2-.13.46-.08.59.12.13.2.08.46-.12.59,0,0,0,0,0,0-.76.51-1.66.78-2.58.78-.74,0-1.47-.17-2.14-.47l.02,2.05c.53.29,2.36,1.13,4.24-.09.2-.13.46-.08.59.12.13.2.08.46-.12.59,0,0,0,0,0,0h0Z"></path><path class="cls-1" d="M59.78,2.86c.24-.51.1-1.11-.34-1.46-.22-.17-.45-.33-.69-.48l-1.73,4.47c.5.31.97.66,1.41,1.04.34-1.23.8-2.43,1.36-3.57Z"></path><path class="cls-1" d="M46.46,39.12c.51.88,1.64,1.18,2.52.67.28-.16.51-.39.67-.67.89-1.54,2.38-2.77,3.85-3.68-2.82-1.61-3.98-4.61-4.34-5.79-.77.23-1.59.13-2.28-.29-.4,1.23-1.54,3.95-4.23,6.02,1.39.9,2.83,2.12,3.8,3.74h0Z"></path><path class="cls-1" d="M46.42,26.97c0,1.07.88,1.93,1.95,1.93,1.07,0,1.93-.88,1.93-1.95,0-1.07-.87-1.93-1.94-1.93-1.07,0-1.94.87-1.94,1.95Z"></path><path class="cls-1" d="M39.11,26.51v1.21c0,.26.21.48.48.48h6.26c-.33-.68-.37-1.46-.12-2.17h-6.14c-.26,0-.48.22-.48.48h0Z"></path><path class="cls-1" d="M39.7,33.85c.75.3,1.47.66,2.17,1.05,2.71-1.96,3.85-4.72,4.22-5.85h-5.44l-1.42,3.71c-.16.43.04.91.47,1.09h0Z"></path></g><g><g><path class="cls-1" d="M61.83,36.51c.31.15.68.02.83-.29,0,0,0,0,0,0,.01-.03,1.47-2.94,6.07-2.36.21.03.43-.06.56-.22,1.46-1.62,3.63-2.41,5.79-2.1.34.05.66-.18.72-.52,0-.03,0-.06,0-.09v-1.44h6.24v1.44c0,.35.29.63.63.62.03,0,.06,0,.09,0,2.16-.33,4.34.46,5.79,2.1.14.17.35.25.56.22,4.56-.58,6.01,2.24,6.07,2.36.16.31.53.43.84.27.3-.15.42-.51.29-.81-.07-.15-1.79-3.6-7.02-3.09-1.56-1.62-3.75-2.48-6-2.36v-1.36c0-.34-.28-.62-.62-.62h-7.48c-.34,0-.62.28-.62.62h0v1.36c-2.25-.12-4.44.74-6,2.36-5.23-.51-6.95,2.94-7.02,3.09-.15.31-.02.68.29.83h0Z"></path><path class="cls-1" d="M95.82,49.42c-.83-.08-2.98-.61-3.61-1.79-.25-.25-.65-.25-.89,0-.05.05-.1.12-.13.19-.5,1.04-1.57,1.67-2.72,1.6-.34-.01-.63.26-.64.6,0,.07,0,.14.03.2,0,.02.54,1.85-1.42,3.46-.26.22-.29.62-.07.88.22.25.6.29.86.08,1.26-.94,1.98-2.44,1.93-4.01.63-.07,1.24-.3,1.76-.66-.44,2.06-1.16,4.04-2.16,5.9l-.85,5.32h-8.37v-3.68c0-.34-.29-.62-.64-.61-.34,0-.61.28-.61.61v3.68h-8.37l-.85-5.32c-.99-1.85-1.72-3.84-2.16-5.9.53.36,1.13.59,1.76.66-.05,1.57.67,3.07,1.93,4.01.27.22.66.18.88-.09.22-.27.18-.66-.09-.88h0c-1.93-1.58-1.44-3.39-1.42-3.46.1-.33-.09-.68-.42-.78-.06-.02-.13-.03-.19-.03-2.26-.02-2.55-1.51-2.87-1.8-.26-.23-.65-.22-.89.04-.03.03-.05.07-.08.1-.64,1.11-2.75,1.58-3.52,1.67-.34.05-.58.36-.53.7.04.33.34.57.67.54,1.21-.15,2.37-.56,3.4-1.19.37,2.35,1.14,4.62,2.3,6.7l.92,5.74c.05.3.31.52.62.52h19.05c.31,0,.57-.22.62-.52l.92-5.74c1.15-2.08,1.93-4.35,2.3-6.7,1.04.64,2.2,1.04,3.4,1.19.34.03.65-.22.68-.56.03-.33-.21-.63-.54-.68h0Z"></path><path class="cls-1" d="M82.03,38.65c-.08-.34-.41-.55-.75-.47-.33.07-.54.39-.47.72.71,2.84,3.03,4.99,5.91,5.47.34.06.66-.17.72-.51.06-.33-.16-.65-.49-.72-2.39-.4-4.31-2.16-4.92-4.5Z"></path><path class="cls-1" d="M75.82,38.65c-.61,2.34-2.53,4.11-4.92,4.5-.34.07-.56.4-.49.73.07.33.38.55.72.49,2.88-.49,5.2-2.64,5.91-5.47.06-.34-.16-.66-.5-.73-.33-.06-.65.15-.72.47Z"></path><path class="cls-1" d="M79.55,43.76c0-.34-.29-.62-.64-.61-.33,0-.6.28-.61.61v4.3c0,.34.29.62.64.61.33,0,.6-.28.61-.61v-4.3Z"></path><path class="cls-1" d="M78.92,50.01c-.34,0-.62.28-.62.62h0v4.3c0,.34.28.62.62.62s.62-.28.62-.62v-4.3c0-.34-.28-.62-.62-.62h0Z"></path></g><g><path class="cls-1" d="M30.23,45.52c-.53,0-.96-.43-.96-.96,0-.24.09-.47.26-.65.11-.12,2.84-3.02,7.28-3.02.53,0,.96.43.96.96s-.43.96-.96.96c-3.58,0-5.86,2.38-5.88,2.41-.18.2-.44.31-.7.31Z"></path><path class="cls-1" d="M13.49,49.32c-.53,0-.96-.43-.96-.96,0-.17.05-.34.13-.48,2.47-4.21,5.46-6.6,8.89-7.11,5.08-.76,9.15,2.93,9.32,3.09.39.36.41.96.05,1.35s-.96.41-1.35.05h0s-3.59-3.23-7.76-2.6c-2.83.43-5.35,2.51-7.51,6.18-.17.29-.49.47-.83.47h0Z"></path><path class="cls-1" d="M24.92,55.88c-1.23,0-2.63-.21-4.17-.74-.5-.17-.76-.72-.59-1.22.17-.5.72-.76,1.22-.59,6.12,2.13,9.41-1.77,9.44-1.81.32-.42.92-.51,1.34-.19s.51.92.19,1.34c-.02.02-.03.04-.05.06-.04.05-1.08,1.3-3.03,2.2-1.37.63-2.85.95-4.36.94h0Z"></path><path class="cls-1" d="M16.38,41.03c-.08,0-.16-.01-.24-.03-.51-.13-.82-.66-.69-1.17,0,0,0,0,0,0l2.42-9.33c.11-.52.61-.85,1.13-.74.52.11.85.61.74,1.13,0,.03-.01.06-.02.09l-2.42,9.33c-.11.42-.49.72-.92.72Z"></path><path class="cls-1" d="M22.17,60.93c-4.86,0-8.92-1.45-11.54-2.71-1.79-.86-3.69-1.48-5.64-1.86-2.23-.43-3.79-1.42-4.51-2.84-.74-1.45-.61-3.29.38-5.45,2.29-7,7.62-15.43,11.69-21.28,1.13-1.62,2.89-2.68,4.85-2.93l5.33-.67c1.99-.25,3.83,1.1,4.17,3.08l.47,2.69c.32,1.82-.89,3.55-2.71,3.87-.44.08-.9.07-1.34-.04l-4.73-1.1c-.51-.12-.83-.64-.71-1.15.12-.51.64-.83,1.15-.71h0l4.73,1.1c.77.18,1.53-.29,1.72-1.06.04-.19.05-.39.02-.58l-.47-2.69c-.17-.97-1.07-1.63-2.05-1.51l-5.33.67c-1.42.18-2.7.95-3.51,2.13-4.01,5.75-9.25,14.04-11.45,20.83-.01.04-.03.07-.04.11-.75,1.63-.9,2.92-.43,3.83.57,1.12,2.04,1.61,3.18,1.84,2.11.41,4.17,1.08,6.11,2.01,4.38,2.12,13.17,4.81,22.78-.94.45-.27,1.04-.12,1.31.33.27.45.12,1.04-.33,1.31-4.65,2.78-9.12,3.74-13.06,3.74h0Z"></path></g></g></g><path class="cls-1" d="M50.79,44.7v4.51h5.47v3.86h-5.47v4.51h-4.51v-4.51h-5.47v-3.86h5.47v-4.51h4.51Z"></path></g></g></svg>