<svg xmlns="http://www.w3.org/2000/svg" id="Camada_2" viewBox="0 0 62.44 96.71"><defs><style>      .cls-1 {        fill: #fff;      }      .cls-2 {        fill: none;        stroke: #fff;        stroke-linecap: round;        stroke-miterlimit: 10;        stroke-width: .25px;      }    </style></defs><g id="Camada_1-2" data-name="Camada_1"><g><path class="cls-1" d="M20.39,46.34s3.08.98,4.21,1.3c1.12.32,3.62.99,6.48,1.13s5.21.27,6.46.17c1.25-.1,2.65-.09,3.11-.3.46-.21,1.27-.56,1.27-.56,0,0,.51,2.44.84,3.15.33.71.6,1.88.8,2.29.2.41,1.63,5.18,1.81,6.23.18,1.05.82,4.11.86,5.5.04,1.39-.02,5.14-.03,5.21,0,.07.67,1.13.67,1.13l3.83,6.46s-.05.52-.2.96c-.15.44-1.53,4.02-3.26,5.13,0,0-1.8,1.53-3.87,2.19-2.07.66-3.7.87-5.1.84-1.39-.03-2.37-.07-2.37-.07l-3.53-3.89-1.61-1.76s-1.72-.94-2.19-1.32c-.47-.39-1.09-1.05-1.09-1.05l.2,2.76.03.52s-2.74,1.53-6.51,2.12c-3.77.59-7.27.16-7.27.16l-3.37-.48-1.64-5.4s-1.05-3.5-.98-5.99c.07-2.49.23-5.56.67-7.19.43-1.63,1.27-4.88,2.24-6.86.98-1.99,3.61-5.89,4.79-7.23,1.18-1.34,3.62-3.84,3.94-4.11s.81-1.05.81-1.05Z"></path><path class="cls-1" d="M43.38,53.07c-.17-.53-.38-1.31-.63-1.84-.33-.71-.84-3.15-.84-3.15,0,0-.81.35-1.27.56-.46.21-1.86.2-3.11.3-1.25.1-3.6-.03-6.46-.17-2.86-.14-5.36-.81-6.48-1.13-1.12-.32-4.21-1.3-4.21-1.3,0,0-.49.78-.81,1.05-.22.18-1.47,1.45-2.6,2.65.92.54,2.97,1.71,3.87,2.11,1.17.52,5.45,2.15,7.27,2.25,1.83.1,3.52.59,6.88.29,3.36-.29,7.11-1.24,7.11-1.24l1.28-.38Z"></path><path class="cls-1" d="M18.74,12.3s-.07-.3.51-.58.56-.57.86-.74c.3-.17,1.24-.35,2.19.05s3.07,1.52,5.22,1.46c2.15-.06,3.04-.31,4.24-1.04,1.2-.72,2.93-1.96,3.91-2.03.98-.07,1.71.14,2.06.71.35.56.57.76.57.76,0,0-1.7.8-2.4,1.5s-2.57,3.09-2.95,4.33c-.38,1.24-1.13,2.87-1.46,5.03-.33,2.15.01,5.88.27,6.95.25,1.07,1.32,3.53,2.99,4.66,1.67,1.14,3.85,1.68,4.8,1.73.95.06,2.25-.06,3.04-.35s1.79-.83,1.79-.83c0,0-1.42,3.9-1.49,4.46-.07.56-.96,4.01-.96,4.01,0,0-1.59.92-4.79.6-3.2-.32-5.12-.86-6.23-.77-1.11.09-2.5.12-3.55.38-1.05.26-3.24.47-4.18.33-.94-.14-1.8-.29-1.8-.29,0,0-.94-1.9-1.51-2.71-.56-.81-2.51-3.49-2.51-3.49l-1.14-1.64s2.01.9,4.13.67c2.12-.23,4.83-.65,6.2-3.23,1.37-2.58,1.43-5.36,1.07-7.47-.36-2.12-.99-5.21-3.07-8.05-2.08-2.84-3.51-4.2-5.81-4.4Z"></path><path class="cls-1" d="M42.5,40.13c-.73.12-2.02.3-2.94.29-1.34,0-2.28-.06-4.01-.58-1.73-.52-4.01-.42-5.58-.42s-4.57.65-6.07.82c-1.2.13-3.05.14-3.74.13.55.91,1.21,2.25,1.21,2.25,0,0,.86.15,1.8.29.94.14,3.13-.07,4.18-.33,1.05-.26,2.44-.29,3.55-.38,1.11-.09,3.03.45,6.23.77,3.2.32,4.79-.6,4.79-.6,0,0,.3-1.16.56-2.24Z"></path><g><path class="cls-2" d="M35.03,3.45s-.85,2.41-.33,3.78c.52,1.37,1.14,2,1.14,2"></path><path class="cls-2" d="M38.31,10.89c-1.85.66-3.41,2.34-4.39,3.97-1.72,2.87-2.55,6.3-2.58,9.63-.03,3.25.54,6.54,3.2,8.7,2.59,2.11,7.07,2.67,9.88.66"></path><path class="cls-2" d="M16.31,34.75s3.26,1.7,7.5-.07c4.24-1.76,5.48-9.33,1.7-16.37-3.08-5.74-5.78-6.07-6.67-5.99-.11,0-.17-.12-.09-.2.15-.15.36-.34.6-.46.46-.23.68-.59.68-.59,0,0,.46-.98,3.2.33,2.74,1.3,6.13,1.57,8.61,0,2.48-1.57,4.66-3.48,6.48-.52,0,0,4.28,1.43,6.82,2.28s7.11,1.04,7.76,9.46c.65,8.41.13,20,1.3,23.54,1.17,3.53,3.39,12.34,4.24,17.1.85,4.76.98,6.85,1.63,8.41.65,1.57.91,2.15.85,3.98-.07,1.83,1.34,6.05,1.39,7.81.05,1.76-.44,4.7-1.27,6.16-.83,1.47-2.59,3.33-2.69,4.16"></path><path class="cls-2" d="M12.95,27.36c.56,2.47,1.6,4.82,2.96,6.95,1.45,2.27,3.19,4.32,4.62,6.61.59.95,1.21,2.16.95,3.3-.27,1.2-1.06,2.18-1.83,3.1,0,0-6.41,5.64-9.08,12.03-2.67,6.39-3.46,13.31-1.83,18.98,1.63,5.67,4.76,14.35,5.48,18.26"></path><path class="cls-2" d="M46.77,25.82s-1.76,6.46-2.61,8.74c-.85,2.28-2.67,7.7-2.54,11.41.13,3.72,1.57,5.61,3.2,11.67,1.63,6.07,1.89,11.74.85,16.24"></path><path class="cls-2" d="M46.25,70.56s4.44,7.44,6.52,11.02,4.96,11.54,5.22,14.67"></path><path class="cls-2" d="M21.37,42.62s2.78.69,6.31-.1c3.52-.78,6.51.1,9.34.44,2.84.34,4.92-.58,4.92-.58"></path><path class="cls-2" d="M20.44,46.34s5.05,2.1,10.87,2.45c5.81.34,9.5.13,10.54-.74"></path><path class="cls-2" d="M26.55,61.01c-1.42,3.3-2.26,7.13-2.05,10.72.13,2.24.76,4.48,2.06,6.31,4.07,5.75,14.24,6.37,17.73-.37"></path><path class="cls-2" d="M30.6,81.38c4.07,4.09,7.68,8.61,11.68,12.78.74.77,1.49,1.54,2.18,2.35"></path><path class="cls-2" d="M35.84,87.04s12.22,1.93,14.9-8.9"></path><path class="cls-2" d="M10.11,76.76c3.92,4.02,11.47,2.88,15.2-.85"></path><path class="cls-2" d="M27.45,79.12s.6,4.88.14,9.57c-.46,4.7-.46,7.37-.46,7.37"></path><path class="cls-2" d="M10.54,84.12s9.92,2.43,17.16-1.75"></path><path class="cls-2" d="M20.15,40.31s3.21.12,6.8-.46,6-.65,8.67.07c2.67.72,6.47.61,6.82.14"></path><path class="cls-2" d="M16.98,49.98s4.97,3.7,12.31,4.58c7.34.88,14.09-1.53,14.09-1.53"></path><path class="cls-2" d="M18.74,12.13s-6.28,2.6-7.91,3.97c-1.63,1.37-4.63,3.33-4.5,10.76.13,7.44-.46,15.85-1.17,19.31-.72,3.46-2.61,8.15-2.8,14.41-.2,6.26-.13,10.83-.59,12.33-.46,1.5-.26,1.63-.39,3.33-.13,1.7-1.37,7.12-1.24,8.58.13,1.46.91,4.27,1.11,4.66.17.34,2.62,2.4,3.46,3.21.26.25.67.32.97.12.21-.13.35-.38.23-.83-.19-.68-.83-1.29-1.29-1.8-.52-.58-1.1-1.12-1.56-1.76-.14-.2-.19-.36-.16-.61.03-.29.05-.6.16-.87.07-.16.18-.32.26-.47.26-.47.52-.97.65-1.5.08-.34.29-.64.61-.78.29-.12.59-.08.61.61.03,1.37-.62,3.04.13,4.13.4.58.77.86,1.03.99.17.09.37-.03.37-.22,0-.49.01-1.39.1-1.94.13-.78.33-1.89.36-4.11s-.36-4.34-1.04-5.74c-.68-1.4-.42-4.14,0-5.61.42-1.47,2.45-7.03,2.92-8.58"></path><path class="cls-2" d="M3.62,85.91s.16,1.26.36,2.27c.2,1.01.65,2.03.65,2.03"></path><path class="cls-2" d="M5.95,92.25s.61.47.64,1.18c.01.31-.32.51-.59.37-.28-.15-.65-.41-1.04-.87"></path><path class="cls-2" d="M4.77,80.12s-.13,1.53-.82,2.71c-.68,1.17-.92,4.2-.92,4.2"></path><path class="cls-2" d="M14.82,32.41s-1.05,5.87-1.83,10.77c-.78,4.89-.85,8.22-1.24,10.76s-1.41,5.99-1.41,5.99"></path><path class="cls-2" d="M38.31.12s-.87,6.76-3.68,6.22"></path><path class="cls-2" d="M24.27,1.36s.71,8.46-3.07,9.38"></path><path class="cls-2" d="M44.89,32.05s.54,3.91,1.08,7.04c.55,3.2.69,6.35.73,9.59.02,1.98.2,3.98.88,5.86,1.05,2.91,2.7,5.6,3.97,8.43,1.52,3.38,5.28,11.54,4.79,13.06-.49,1.52-1.37,3.89-.93,5.35,0,0,.59,2.43.49,3.5-.1,1.08-.11,2.69.48,3.47,0,0,.98.64,1.28-.68.29-1.32.15-2.1,0-2.98-.15-.88.15-1.71.33-1.75"></path><path class="cls-2" d="M59.03,88.51c.44-1.02.15-2.06.1-2.89-.05-.83-.59-1.86-1.61-3.42-1.03-1.57-.78-4.21-.78-4.21"></path></g></g></g></svg>