<svg xmlns="http://www.w3.org/2000/svg" id="Camada_2" viewBox="0 0 89.76 51.46"><defs><style>      .cls-1, .cls-2 {        fill: #fff;      }      .cls-2 {        fill-rule: evenodd;      }    </style></defs><g id="Camada_1-2" data-name="Camada_1"><g><path class="cls-2" d="M4.99.31C2.92,2.62,1.48,4.33.66,5.46c7.54,4.23,12.27,8.17,13.49,12.04.67,2.14-1.05,3.47,1.45,5.46,2.36,1.88,5.34.19,6.95-2.8,1.13-2.1,3.03-1.2,3.32-4.44.08-.84-.28-1.6-.69-2.04-1.07-1.15-3.15-1.08-4.66-1.51-3.39-.97-2.95-3.85-15.53-11.86h0ZM29.28,17.17c-.73-.08-.8.86-.9,1.36-.39,1.88-1.25,3.21-2.56,4-.59.35-1.88.96-1.33,1.85.44.72,1.41.74,2.12.52,2.47-.76,3.68-2.64,3.65-5.63,0-.78-.04-2-.97-2.1h0ZM2.49,48.4c1.94-3.29,7.36-13.85,6.84-17.51-.25-1.76-1.45-3.15-2.25-3.44-.45-.16-1.15-.21-1.94.43-.91.74-.85,2.07-.21,2.96.32.44.69.99.6,2.16-.24,2.95-2.08,7.72-5.54,14.29l2.49,1.1h0ZM9.56,23.95c.82-1.05,2.24-.86,4.29.31,1.9,1.08,3.81,1.47,5.73,1.17,2.61-.41,4.26-.31,5.04.86,1.48,2.22.79,4.5.04,5.41-.98,1.17-2.48.68-3.74,1.31-1.22.62-2.16,1.5-2.82,2.66-2.71,4.28-5.61,9.54-8.7,15.78l-5.47-2.42c2.45-5.82,4.23-10.18,5.35-13.07.53-1.37,1.69-4.67.93-6.04-1.01-1.83-2.63-3.44-.65-5.97Z"></path><path class="cls-1" d="M48.49,51.16c-.44-.21-.48-.56-.42-1.01.39-2.92.92-5.82,1.84-8.62.48-1.44,1.05-2.83,1.95-4.07.08-.11.1-.22.09-.35,0-5,.93-9.82,2.84-14.45.03-.06.05-.12.08-.22-.27.03-.51.05-.76.07-5.24.39-9.8-2.47-11.62-7.4-1.68-4.54-.24-9.62,3.58-12.65,5.69-4.51,14.03-2.6,17.18,3.92.11.24.26.26.47.26,6.51,0,13.03,0,19.54,0,.76,0,.95.25.74.99-.79,2.82-.96,5.71-.92,8.62.01.84.23,1.48.8,2.14,2.48,2.84,4.28,6.08,5.24,9.75,1.21,4.65.71,9.13-1.44,13.42-.1.21-.12.37-.05.6.86,2.62,1.47,5.28,1.39,8.06-.01.39-.08.72-.42.94h-16.94c-.35-.17-.46-.46-.48-.84-.1-1.55-.23-3.1-.36-4.66-.02-.24.07-.62-.1-.7-.19-.1-.43.2-.67.29-.29.11-.42.31-.49.62-.28,1.16-.65,2.3-1.18,3.37-.36.71-.71,1.43-1.39,1.91h-18.49ZM63.86,7.8c.01.09.02.15.04.22.45,1.54.63,3.1.38,4.69-.71,4.57-3.26,7.65-7.58,9.26-.29.11-.46.25-.58.54-2.05,4.75-3.04,9.71-2.98,14.88,0,.17-.01.34-.13.48-1.06,1.33-1.65,2.89-2.15,4.49-.74,2.36-1.2,4.79-1.55,7.24-.05.33.04.38.35.38,5.41,0,10.82-.02,16.22.01.6,0,.89-.21,1.15-.69.71-1.31,1.16-2.71,1.49-4.16.07-.29.21-.48.47-.62.53-.28,1.04-.6,1.56-.88,1.37-.73,2.44-1.76,3.16-3.15.82-1.59,1.15-3.29,1.24-5.05.15-2.65-.19-5.25-.76-7.83-.19-.88-.43-1.75-.68-2.62-.1-.35.05-.64.35-.74.32-.11.62.05.75.39.03.08.05.17.08.26.76,2.53,1.25,5.11,1.41,7.74.12,2.02.06,4.04-.47,6.02-.59,2.23-1.67,4.13-3.62,5.46-.15.1-.16.22-.14.37.14,1.7.27,3.4.39,5.1.02.28.08.4.41.4,4.93-.01,9.87-.01,14.8,0,.31,0,.39-.08.39-.39-.04-2.48-.59-4.85-1.39-7.18-.16-.47-.12-.84.11-1.28,1.99-3.86,2.57-7.91,1.56-12.15-.97-4.05-3-7.54-5.8-10.6-.15-.17-.31-.32-.33-.57-.2-3.25-.09-6.48.66-9.66.07-.31.01-.37-.3-.37-6.05,0-12.1,0-18.15,0-.11,0-.22,0-.35,0ZM63.21,11.29c0-5.59-4.53-10.13-10.11-10.13-5.58,0-10.12,4.55-10.12,10.13,0,5.58,4.56,10.12,10.13,10.11,5.57-.01,10.1-4.55,10.1-10.11Z"></path><path class="cls-1" d="M70.44,24.63c-.02.31-.14.52-.41.6-.28.08-.55.01-.67-.26-.67-1.56-1.91-2.63-3.16-3.68-.19-.16-.28-.35-.24-.59.07-.39.54-.63.86-.38,1.41,1.1,2.72,2.3,3.5,3.96.06.12.09.25.12.34Z"></path><path class="cls-1" d="M77.01,25.27c-.44,0-.7-.38-.56-.79.14-.44.38-.84.65-1.22.78-1.09,1.74-2.01,2.78-2.85.32-.26.68-.23.89.04.21.27.13.62-.19.88-.9.73-1.73,1.52-2.42,2.44-.25.33-.46.69-.62,1.08-.1.26-.29.4-.53.41Z"></path><path class="cls-1" d="M46.3,11.28c0-.65-.02-1.31,0-1.96.04-1.3,1.02-2.29,2.32-2.39,1.19-.09,2.32.8,2.54,2.03.09.48.03.97.03,1.45,0,.22.05.29.28.29,1.08-.01,2.17,0,3.25,0,.2,0,.28-.04.27-.26-.02-.34,0-.68,0-1.02.02-1.41,1.1-2.5,2.45-2.5,1.36,0,2.44,1.1,2.45,2.5,0,1.24,0,2.48,0,3.73,0,1.38-1.08,2.47-2.44,2.48-1.34,0-2.44-1.08-2.46-2.46,0-.36,0-.72,0-1.08,0-.18-.05-.23-.23-.23-1.11,0-2.21,0-3.32,0-.19,0-.26.04-.25.24.01.35,0,.7,0,1.05,0,1.37-1.09,2.46-2.44,2.48-1.31.01-2.41-1.04-2.46-2.38-.02-.65,0-1.31,0-1.96ZM58.74,11.27c0-.61,0-1.22,0-1.83-.01-.79-.57-1.35-1.31-1.34-.74.01-1.28.58-1.28,1.37,0,1.2,0,2.39,0,3.59,0,.81.54,1.39,1.3,1.39.76,0,1.29-.56,1.29-1.39,0-.6,0-1.2,0-1.79ZM47.46,11.29c0,.61,0,1.22,0,1.83,0,.77.54,1.33,1.27,1.34.73,0,1.3-.54,1.3-1.31.01-1.24.01-2.48,0-3.72,0-.77-.57-1.32-1.29-1.32-.73,0-1.27.56-1.28,1.33,0,.62,0,1.24,0,1.86Z"></path><path class="cls-1" d="M45.04,35.16h-6.07l-1.09,6.07h-3.09l1.09-6.07h-6.05l.56-3.12h6.02l1.06-6.02h3.12l-1.06,6.02h6.07l-.56,3.12Z"></path></g></g></svg>