<svg xmlns="http://www.w3.org/2000/svg" xmlns:xlink="http://www.w3.org/1999/xlink" id="Camada_2" data-name="Camada 2" viewBox="0 0 590.44 558.96"><defs><style>      .cls-1 {        fill: url(#linear-gradient-2);      }      .cls-2 {        fill: #fff;      }      .cls-3 {        fill: url(#linear-gradient-3);      }      .cls-4 {        isolation: isolate;      }      .cls-5 {        stroke-width: 3px;      }      .cls-5, .cls-6 {        fill: none;        stroke: #ff7bac;        stroke-miterlimit: 10;      }      .cls-7 {        fill: #ff7bac;      }      .cls-8 {        fill: url(#linear-gradient);      }    </style><linearGradient id="linear-gradient" x1="255.8" y1="200.09" x2="567.45" y2="200.09" gradientTransform="translate(0 560) scale(1 -1)" gradientUnits="userSpaceOnUse"><stop offset="0" stop-color="#000"></stop><stop offset="1" stop-color="#c915ff"></stop></linearGradient><linearGradient id="linear-gradient-2" x1="80.2" y1="459.77" x2="538.23" y2="459.77" gradientTransform="translate(0 560) scale(1 -1)" gradientUnits="userSpaceOnUse"><stop offset="0" stop-color="#60006a"></stop><stop offset="1" stop-color="#fc669a"></stop></linearGradient><linearGradient id="linear-gradient-3" x1="194.48" y1="61.81" x2="99.38" y2="290.03" gradientTransform="translate(0 560) scale(1 -1)" gradientUnits="userSpaceOnUse"><stop offset="0" stop-color="#000"></stop><stop offset="1" stop-color="#e90027"></stop></linearGradient></defs><path class="cls-8" d="M541.18,156.3c79.52,165.9-30.3,361.1-210.85,380.44v26.8c-36.07-30.89-20.19-17.28-74.53-63.83,42.02-34.5,24.58-20.18,74.53-61.18v30.91c126.54-18.72,203.82-152.12,156.03-272.04,35.98,13.54,27.67,10.41,44.04,16.58,3.74-20.09,1.53-8.3,10.78-57.69h0Z"></path><path class="cls-1" d="M135.46,100.96c3.27,19.8,1.63,9.89,7.69,46.5,80.56-102.03,234.15-100.74,313.52-.96l-26.69,15.43c60.48,22.75,39.45,14.84,90.23,33.95,11.82-63.2,6.11-32.65,18.02-96.44l-23.22,13.4C405.48-34.99,183.84-30.43,80.2,120.45c47.28-16.68,35.98-12.7,55.26-19.49Z"></path><path class="cls-3" d="M235.03,499.5c15.54-12.78,7.71-6.35,36.41-29.9-125.92-18.18-204.87-149.5-157.63-271.1l26.77,15.46c-10.52-63.76-6.84-41.5-15.7-95.11-67.36,23.71-46.67,16.43-92.55,32.59l23.2,13.4c-73.44,165.24,40,358.69,224.04,372.78-38.13-32.64-29.02-24.85-44.55-38.12h.01Z"></path><path class="cls-2" d="M154.02,100.96l2.98,3.44-14.18,12.32-16.07-18.5,13.84-12.02,2.98,3.44-9.63,8.36,3.49,4.02,8.5-7.39,2.89,3.33-8.5,7.39,3.72,4.28,9.97-8.66Z"></path><path class="cls-2" d="M180.1,87.49l-8.36-12.09.99,14.02-2.08,1.43-12.54-5.69,8.16,11.85-4.34,2.99-13.89-20.18,3.82-2.63,16.11,7.4-1.27-17.61,3.8-2.61,13.95,20.15-4.34,2.99Z"></path><path class="cls-2" d="M203.32,69.54l-10.22,4.73.26,5.67-5.22,2.42-.48-26.78,5.03-2.33,20.14,17.68-5.35,2.47-4.16-3.86ZM199.91,66.38l-7.43-6.9.45,10.13,6.98-3.23Z"></path><path class="cls-2" d="M229.44,52.64l4.91-1.48,2.86,9.52c-1.97,2.71-5.17,4.81-8.49,5.81-7.3,2.2-14.2-1.25-16.33-8.32-2.13-7.07,1.72-13.75,9.12-15.98,4.08-1.23,7.89-.84,10.94,1.13l-2.48,4.26c-2.24-1.3-4.45-1.55-6.8-.84-4.51,1.36-6.68,5.34-5.34,9.79,1.32,4.39,5.35,6.58,9.79,5.24,1.46-.44,2.74-1.12,3.88-2.27l-2.07-6.87Z"></path><path class="cls-2" d="M260.25,59.02l-5.8-5.91-.27.05-4.81.85,1.19,6.72-5.53.98-4.27-24.13,10.34-1.83c6.38-1.13,10.96,1.51,11.92,6.92.64,3.62-.7,6.59-3.56,8.49l6.73,6.81-5.94,1.05ZM251.6,40.36l-4.5.8,1.49,8.41,4.5-.8c3.38-.6,4.8-2.49,4.34-5.1-.47-2.65-2.45-3.9-5.83-3.31Z"></path><path class="cls-2" d="M290.84,51.18l.39,4.53-18.71,1.6-2.08-24.41,18.27-1.56.39,4.53-12.71,1.08.45,5.3,11.22-.96.38,4.4-11.22.96.48,5.65,13.15-1.12Z"></path><path class="cls-2" d="M296.45,43.08c.04-7.39,5.67-12.64,13.23-12.61,4.19.02,7.69,1.58,9.96,4.39l-3.62,3.34c-1.62-1.9-3.66-2.89-6.08-2.9-4.54-.02-7.78,3.18-7.8,7.8-.02,4.62,3.19,7.86,7.73,7.88,2.43.01,4.47-.96,6.11-2.88l3.59,3.38c-2.3,2.82-5.81,4.35-10.04,4.33-7.52-.04-13.11-5.35-13.07-12.73Z"></path><path class="cls-2" d="M328.03,31.77l5.59.55-2.39,24.39-5.59-.55,2.39-24.39Z"></path><path class="cls-2" d="M361.01,62.01l3.08-14.38-9.54,10.33-2.47-.54-4.45-13.03-3.04,14.06-5.15-1.12,5.19-23.95,4.54.98,5.65,16.8,11.96-12.99,4.5.98-5.12,23.96-5.15-1.11Z"></path><path class="cls-2" d="M392.54,67.9l-1.59,4.26-17.6-6.55,8.54-22.96,17.18,6.39-1.59,4.26-11.95-4.45-1.86,4.99,10.56,3.93-1.54,4.13-10.56-3.93-1.98,5.31,12.37,4.6Z"></path><path class="cls-2" d="M427.94,63.22l-11.25,21.77-4.09-2.12-3.91-18.77-6.83,13.22-4.93-2.55,11.25-21.77,4.13,2.13,3.88,18.75,6.83-13.22,4.93,2.55Z"></path><path class="cls-2" d="M438.35,75.1l-6.53-4.19,2.5-3.89,17.79,11.41-2.5,3.89-6.53-4.19-10.74,16.73-4.73-3.03,10.74-16.73Z"></path><path class="cls-2" d="M449.26,91.46c4.14-5.99,11.82-7.23,18.12-2.88,6.27,4.33,7.87,11.95,3.71,17.97s-11.85,7.21-18.12,2.88c-6.3-4.35-7.85-11.98-3.71-17.97ZM466.42,103.32c2.65-3.83,1.78-8.3-1.79-10.76-3.56-2.46-8.05-1.69-10.7,2.14-2.65,3.83-1.78,8.3,1.79,10.77,3.56,2.46,8.05,1.69,10.7-2.14Z"></path><path class="cls-2" d="M84.5,239.57l.94-7.92,4.72.56-2.57,21.57-4.72-.56.94-7.92-20.29-2.42.68-5.73,20.29,2.42Z"></path><path class="cls-2" d="M61.17,274.29l7.22-4.5v-.28s.23-5.02.23-5.02l-7.01-.3.25-5.76,25.16,1.09-.46,10.78c-.29,6.65-3.95,10.67-9.6,10.42-3.77-.16-6.46-2.17-7.72-5.47l-8.33,5.24.27-6.19ZM81.82,269.76l.2-4.7-8.77-.38-.2,4.7c-.15,3.52,1.42,5.37,4.16,5.49,2.77.12,4.46-1.59,4.61-5.11Z"></path><path class="cls-2" d="M67.33,308.33l-4.66.37-1.51-19.24,25.11-1.97,1.47,18.78-4.66.37-1.02-13.07-5.45.43.9,11.54-4.52.35-.9-11.54-5.81.46,1.06,13.53Z"></path><path class="cls-2" d="M88.98,313.1l1.05,5.67-24.77,4.57-1.05-5.67,24.77-4.57Z"></path><path class="cls-2" d="M98.27,348.49l-24.04,7.51-1.41-4.52,10.89-16.42-14.6,4.56-1.7-5.44,24.04-7.51,1.42,4.55-10.9,16.39,14.6-4.56,1.7,5.44Z"></path><path class="cls-2" d="M90.5,378.63l-5.11-10.38-5.82.4-2.61-5.3,27.5-1.15,2.52,5.11-17.68,21.12-2.67-5.43,3.87-4.36ZM93.67,375.04l6.91-7.81-10.4.71,3.49,7.09Z"></path><path class="cls-2" d="M105.91,414.31l12.62-8.32-14.43.7-1.43-2.17,6.13-12.76-12.36,8.11-2.97-4.53,21.06-13.82,2.62,3.99-7.97,16.39,18.13-.9,2.6,3.96-21.02,13.88-2.97-4.53Z"></path><path class="cls-2" d="M131.42,438.9l-3.57,3.02-12.46-14.74,19.23-16.26,12.17,14.39-3.57,3.02-8.46-10.01-4.18,3.53,7.47,8.84-3.46,2.93-7.47-8.84-4.45,3.76,8.76,10.36Z"></path><path class="cls-2" d="M168.35,445.33l-16.72,18.83-3.54-3.15.86-19.69-10.15,11.43-4.26-3.78,16.73-18.83,3.57,3.17-.89,19.66,10.15-11.43,4.26,3.78Z"></path><path class="cls-2" d="M176.03,456.21l-6.75-4.25,2.53-4.02,18.38,11.59-2.53,4.02-6.75-4.25-10.9,17.29-4.88-3.08,10.9-17.29Z"></path><path class="cls-2" d="M187.94,472.66c2.99-6.86,10.49-9.63,17.71-6.49,7.18,3.13,10.3,10.5,7.3,17.39-3.01,6.89-10.53,9.62-17.71,6.49-7.21-3.15-10.29-10.53-7.3-17.39ZM207.59,481.23c1.91-4.39.15-8.73-3.93-10.5-4.08-1.78-8.46-.12-10.37,4.27s-.15,8.73,3.93,10.5c4.08,1.78,8.46.12,10.37-4.27Z"></path><path class="cls-2" d="M352.82,496.21l1.78,4.27,7.4-3.09,1.25,3-7.4,3.09,2.46,5.88-3.7,1.54-6.74-16.15,12.08-5.04,1.25,3-8.38,3.5Z"></path><path class="cls-2" d="M364.7,487.93l3.74-1.46,6.36,16.3-3.74,1.46-6.36-16.3Z"></path><path class="cls-2" d="M378.72,499.43l.11-3.34c1.76.44,4.06.31,5.98-.47,2.2-.9,2.79-2,2.38-3-1.24-3.03-9.71,2.86-12.17-3.15-1.12-2.75.14-5.94,4.7-7.8,2.02-.82,4.28-1.18,6.15-.84l.02,3.31c-1.84-.25-3.54-.04-4.96.54-2.2.9-2.71,2.08-2.29,3.1,1.22,2.98,9.7-2.88,12.13,3.06,1.11,2.71-.17,5.93-4.75,7.8-2.54,1.04-5.42,1.32-7.3.79Z"></path><path class="cls-2" d="M390.22,477.53l3.65-1.65,7.21,15.94-3.65,1.65-7.21-15.94Z"></path><path class="cls-2" d="M402.42,481.7c-2.43-4.6-.67-9.87,4.16-12.43,4.82-2.54,10.17-1.04,12.61,3.58,2.44,4.62.65,9.88-4.16,12.42-4.84,2.55-10.18,1.02-12.61-3.58ZM415.6,474.75c-1.55-2.94-4.67-3.87-7.41-2.42s-3.73,4.54-2.18,7.48c1.55,2.94,4.67,3.87,7.41,2.42s3.73-4.54,2.18-7.48Z"></path><path class="cls-2" d="M418.86,462.74l3.37-2.17,7.7,11.93,7.3-4.71,1.79,2.77-10.67,6.88-9.49-14.7Z"></path><path class="cls-2" d="M436.91,461.48c-3.22-4.08-2.46-9.58,1.83-12.98,4.27-3.38,9.81-2.88,13.05,1.22,3.24,4.1,2.44,9.6-1.83,12.98-4.29,3.39-9.82,2.86-13.05-1.22ZM448.6,452.24c-2.06-2.61-5.3-2.95-7.72-1.03-2.43,1.92-2.84,5.14-.78,7.75,2.06,2.61,5.3,2.95,7.72,1.03,2.43-1.92,2.84-5.15.78-7.75Z"></path><path class="cls-2" d="M463.77,437.74l2.61-2.58,4.99,5.05c-.34,2.37-1.66,4.77-3.42,6.51-3.87,3.83-9.38,3.96-13.08.21s-3.51-9.25.42-13.13c2.17-2.14,4.7-3.17,7.28-2.95l-.14,3.52c-1.85-.07-3.32.51-4.57,1.75-2.39,2.37-2.43,5.6-.09,7.97,2.3,2.33,5.57,2.36,7.93.03.77-.77,1.36-1.62,1.69-2.73l-3.6-3.64Z"></path><path class="cls-2" d="M463.73,425.27l2.62-3.03,13.23,11.45-2.62,3.03-13.23-11.45Z"></path><path class="cls-2" d="M488.01,416.8l-4.78,6.47,2.1,3.46-2.44,3.3-9.48-16.61,2.35-3.18,18.67,4.17-2.5,3.38-3.93-1ZM484.79,415.99l-7.02-1.77,3.75,6.19,3.27-4.42Z"></path><g class="cls-4"><path class="cls-2" d="M494.87,379.52l15.2,8.67-1.99,3.48-6.23-3.55-3.9,6.84,6.23,3.55-1.99,3.48-15.2-8.67,1.99-3.48,5.99,3.42,3.9-6.84-5.99-3.42,1.99-3.48Z"></path></g><g class="cls-4"><path class="cls-2" d="M504.88,379.41c-4.7-2.23-6.46-7.5-4.11-12.44,2.33-4.92,7.52-6.92,12.24-4.69,4.72,2.24,6.45,7.52,4.11,12.44-2.34,4.94-7.54,6.91-12.24,4.69ZM511.26,365.94c-3-1.42-6.06-.3-7.38,2.5-1.33,2.8-.27,5.87,2.74,7.3,3,1.42,6.06.3,7.38-2.5s.27-5.87-2.74-7.3Z"></path></g><g class="cls-4"><path class="cls-2" d="M527,350.18l-5.73,1.43-.07.19-1.22,3.27,4.57,1.7-1.4,3.76-16.4-6.1,2.62-7.03c1.61-4.34,4.9-6.21,8.57-4.84,2.46.92,3.81,2.82,3.93,5.27l6.62-1.68-1.5,4.04ZM512.39,348.75l-1.14,3.06,5.72,2.13,1.14-3.06c.85-2.3.21-3.86-1.57-4.52-1.8-.67-3.29.1-4.14,2.39Z"></path></g><g class="cls-4"><path class="cls-2" d="M534.27,325.08l-10.19-2.54,7.14,7.06-.44,1.75-9.41,2.86,9.96,2.51-.92,3.65-16.97-4.27.81-3.22,12.13-3.63-8.98-8.85.8-3.19,16.98,4.23-.92,3.65Z"></path></g><g class="cls-4"><path class="cls-2" d="M527.65,314.16c-5.17-.59-8.53-5.01-7.91-10.45.62-5.41,4.88-8.98,10.07-8.39,5.19.59,8.53,5.04,7.91,10.45-.62,5.43-4.9,8.98-10.07,8.39ZM529.34,299.36c-3.3-.38-5.83,1.68-6.18,4.75s1.64,5.64,4.95,6.02c3.3.38,5.83-1.67,6.18-4.75s-1.64-5.64-4.95-6.02Z"></path></g><g class="cls-4"><path class="cls-2" d="M521.03,274.27l17.5-.21.04,3.29-10.52,8.76,10.62-.13.05,3.96-17.49.21-.04-3.32,10.52-8.74-10.62.13-.05-3.96Z"></path></g><g class="cls-4"><path class="cls-2" d="M533.06,256.14l.86,8,3.89,1.13.44,4.08-18.22-5.81-.42-3.94,16.57-9.57.45,4.18-3.56,1.92ZM530.13,257.72l-6.37,3.45,6.95,2.02-.59-5.46Z"></path></g><g class="cls-4"><path class="cls-2" d="M518.13,247.91l-.47-3.98,14.1-1.68-1.03-8.63,3.28-.39,1.5,12.61-17.37,2.07Z"></path></g><g class="cls-4"><path class="cls-7" d="M175.94,238.87c0-5.91,4.54-10.14,10.64-10.14,3.39,0,6.22,1.23,8.06,3.47l-2.91,2.69c-1.32-1.51-2.97-2.3-4.93-2.3-3.67,0-6.27,2.58-6.27,6.27s2.6,6.27,6.27,6.27c1.96,0,3.61-.78,4.93-2.32l2.91,2.69c-1.85,2.27-4.68,3.5-8.09,3.5-6.08,0-10.61-4.23-10.61-10.14Z"></path></g><path class="cls-7" d="M198.42,238.87c0-5.82,4.54-10.14,10.72-10.14s10.72,4.28,10.72,10.14-4.56,10.14-10.72,10.14-10.72-4.31-10.72-10.14ZM215.28,238.87c0-3.72-2.63-6.27-6.13-6.27s-6.13,2.55-6.13,6.27,2.63,6.27,6.13,6.27,6.13-2.55,6.13-6.27Z"></path><path class="cls-7" d="M243.5,229.07v19.6h-3.72l-9.77-11.9v11.9h-4.48v-19.6h3.75l9.74,11.9v-11.9h4.48Z"></path><path class="cls-7" d="M271.58,250.77c-1.29,1.57-3.14,2.41-5.29,2.41-2.91,0-4.96-1.06-7.98-4.26-5.38-.67-9.16-4.73-9.16-10.05,0-5.82,4.54-10.14,10.72-10.14s10.72,4.28,10.72,10.14c0,4.59-2.83,8.23-7,9.58.95,1.01,1.79,1.37,2.77,1.37,1.2,0,2.27-.48,3.19-1.46l2.02,2.41ZM259.88,245.14c3.5,0,6.13-2.55,6.13-6.27s-2.63-6.27-6.13-6.27-6.13,2.55-6.13,6.27,2.63,6.27,6.13,6.27Z"></path><path class="cls-7" d="M276.09,240.04v-10.98h4.54v10.81c0,3.72,1.62,5.26,4.37,5.26s4.37-1.54,4.37-5.26v-10.81h4.48v10.98c0,5.77-3.3,8.96-8.88,8.96s-8.88-3.19-8.88-8.96Z"></path><path class="cls-7" d="M300.56,229.07h4.54v19.6h-4.54v-19.6Z"></path><g class="cls-4"><path class="cls-7" d="M310.76,246.74l1.54-3.42c1.65,1.2,4.12,2.04,6.47,2.04,2.69,0,3.78-.9,3.78-2.1,0-3.67-11.4-1.15-11.4-8.43,0-3.33,2.69-6.1,8.26-6.1,2.46,0,4.98.59,6.8,1.74l-1.4,3.44c-1.82-1.04-3.7-1.54-5.43-1.54-2.69,0-3.72,1.01-3.72,2.24,0,3.61,11.4,1.12,11.4,8.32,0,3.28-2.72,6.08-8.32,6.08-3.11,0-6.24-.92-7.98-2.27Z"></path></g><g class="cls-4"><path class="cls-7" d="M336.54,233.1h-6.27v-3.7h17.08v3.7h-6.27v15.9h-4.54v-15.9Z"></path></g><g class="cls-4"><path class="cls-7" d="M364.32,244.47h-9.1l-1.74,4.2h-4.65l8.74-19.6h4.48l8.76,19.6h-4.76l-1.74-4.2ZM362.89,241.02l-3.11-7.5-3.11,7.5h6.22Z"></path><path class="cls-7" d="M385.26,229.07h8.9c6.41,0,10.81,3.86,10.81,9.8s-4.4,9.8-10.81,9.8h-8.9v-19.6ZM393.94,244.94c3.89,0,6.44-2.32,6.44-6.08s-2.55-6.08-6.44-6.08h-4.14v12.15h4.14Z"></path><path class="cls-7" d="M425.81,245.03v3.64h-15.18v-19.6h14.81v3.64h-10.3v4.26h9.1v3.53h-9.1v4.54h10.67Z"></path></g><g class="cls-4"><path class="cls-7" d="M222.97,272.47c0-5.91,4.54-10.14,10.64-10.14,3.39,0,6.22,1.23,8.06,3.47l-2.91,2.69c-1.32-1.51-2.97-2.3-4.93-2.3-3.67,0-6.27,2.58-6.27,6.27s2.6,6.27,6.27,6.27c1.96,0,3.61-.78,4.93-2.32l2.91,2.69c-1.85,2.27-4.68,3.5-8.09,3.5-6.08,0-10.61-4.23-10.61-10.14Z"></path><path class="cls-7" d="M246.97,262.67h4.54v15.9h9.83v3.7h-14.36v-19.6Z"></path><path class="cls-7" d="M266.12,262.67h4.54v19.6h-4.54v-19.6Z"></path><path class="cls-7" d="M292.72,278.63v3.64h-15.18v-19.6h14.81v3.64h-10.3v4.26h9.1v3.53h-9.1v4.54h10.67Z"></path><path class="cls-7" d="M316.54,262.67v19.6h-3.72l-9.77-11.9v11.9h-4.48v-19.6h3.75l9.74,11.9v-11.9h4.48Z"></path><path class="cls-7" d="M327.49,266.36h-6.27v-3.7h17.08v3.7h-6.27v15.9h-4.54v-15.9Z"></path><path class="cls-7" d="M358.15,278.63v3.64h-15.18v-19.6h14.81v3.64h-10.3v4.26h9.1v3.53h-9.1v4.54h10.67Z"></path><path class="cls-7" d="M362.46,280.34l1.54-3.42c1.65,1.2,4.12,2.04,6.47,2.04,2.69,0,3.78-.9,3.78-2.1,0-3.67-11.4-1.15-11.4-8.43,0-3.33,2.69-6.1,8.26-6.1,2.46,0,4.98.59,6.8,1.74l-1.4,3.44c-1.82-1.04-3.7-1.54-5.43-1.54-2.69,0-3.72,1.01-3.72,2.24,0,3.61,11.4,1.12,11.4,8.32,0,3.28-2.72,6.08-8.32,6.08-3.11,0-6.24-.92-7.98-2.27Z"></path></g><path class="cls-6" d="M329.22,326.94c0-5.73-1.74-11.06-4.72-15.48l5.61-5.61-8.02-8.02-5.72,5.72c-4.3-2.74-9.39-4.33-14.87-4.33s-10.57,1.59-14.87,4.33l-5.72-5.72-8.02,8.02,5.61,5.61c-2.98,4.42-4.72,9.75-4.72,15.48s1.59,10.57,4.33,14.87l-5.22,5.22,8.02,8.02,5.11-5.11c4.42,2.98,9.75,4.72,15.48,4.72s11.06-1.74,15.48-4.72l5.11,5.11,8.02-8.02-5.22-5.22c2.74-4.3,4.33-9.39,4.33-14.87h0Z"></path><g><path class="cls-7" d="M301.51,342.58h-18.44s-.13-10.37,10.11-13.44l8.32,6.28,8.32-6.28c10.24,3.07,10.12,13.44,10.12,13.44h-18.44.01Z"></path><path class="cls-7" d="M301.51,310.29c4.15,0,7.53,3.37,7.53,7.53s-3.37,7.53-7.53,7.53-7.53-3.37-7.53-7.53,3.37-7.53,7.53-7.53h0Z"></path></g><path class="cls-7" d="M193.66,392.3l27.66-.83c.76-.02,1.47-.34,1.99-.9s.8-1.28.78-2.05l-.07-2.42c-.02-.76-.34-1.47-.9-2s-1.28-.8-2.05-.78l-32.94.99c-.76.02-1.47.35-2,.91s-.81,1.29-.79,2.05l.99,32.91c.02.76.34,1.47.9,2s1.28.8,2.05.78l2.42-.07c1.58-.05,2.82-1.37,2.77-2.95l-.83-27.63h.02Z"></path><path class="cls-5" d="M186.06,159.18c61.92-65.8,166.93-68.84,232.35-7,65.37,61.79,68.03,166.47,6.47,231.84-61.55,65.36-165.99,68.81-231.81,7.51"></path></svg>