<svg xmlns="http://www.w3.org/2000/svg" id="Camada_2" data-name="Camada 2" viewBox="0 0 179.52 42.26"><defs><style>      .cls-1 {        fill: #fff;      }    </style></defs><g id="graphics"><g><g><g><path class="cls-1" d="M16.99,32.46s-.02-.02-.02-.02h0c-4.36-5.69-5.73-11.64-5.41-18.59.07-1.43.32-2.87.53-3.93h0c.43-2.25,1.08-4.48,1.91-6.66,2.34,1,7.88,3.69,12.71,8.47-1.8,2.04-3.3,4.23-4.47,6.52,0,0-3.4-3.06-8.73-4.94-.09.89-.12,1.83-.1,2.72,7.78,3.37,12.98,9.21,14.97,12.58.05-.06.09-.12.13-.18-.13-.26-.13-.58.03-.84,1.04-1.72,2.67-5.61,3.8-7.43-1.44,1.29-2.74,2.67-3.93,4.18-1.26-1.6-2.64-3.06-4.18-4.41,2.01-4.12,5.61-8.21,7.32-9.53,0,0,0,0,0,0,1.62-1.44,3.28-2.66,4.84-3.67-.23-.99-.43-1.9-.45-2.44,0-.11,0-.21.03-.32-2.84,1.74-5.4,3.75-7.57,5.89C24.32,5.79,18.77,2.17,12.58,0c-1.55,3.78-2.81,7.32-3.37,11.88-4.75-1.24-7.46-.89-8.68-.79-1.31,6.88-.31,14.69,3.88,20.4,5.94,8.09,15.35,8.71,20.21,9.41-2.04-1.98-6.66-7.17-7.64-8.45ZM6.47,29.99c-4.44-6.05-4.06-13.78-3.75-16.48h.05c1.84,0,3.98.33,6.23.95-.52,11.24,4.78,18.76,8.57,22.67-4.84-1.29-8.57-3.68-11.1-7.14Z"></path><path class="cls-1" d="M40.38,38.52c-2.46-.53-3.09-1.34-3.33-2.78-1.49,1.69-3.3,3.7-4.82,5.16,2.46-.36,6.09-.69,9.84-1.99-.55-.14-1.11-.27-1.7-.39Z"></path><path class="cls-1" d="M33.18,32.8c-.75-.55-1.43-1.11-2-1.63-.83.96-1.76,1.92-2.74,2.73-3.02-2.5-5.56-6.38-6.33-7.62.14-.68.26-1.3.45-1.97-.6-.59-1.35-1.23-2.1-1.82-.5,1.51-.76,2.82-1.03,4.26,3.03,5.53,6.38,8.27,8.97,10.36,1.42-1.13,3.12-2.53,4.78-4.32Z"></path></g><g><path class="cls-1" d="M56.49,13.52c-.32-1.71-1.98-2.83-3.68-2.51-1.71.32-2.83,1.97-2.51,3.68.2,1.08.93,1.92,1.87,2.31.55.23,1.18.31,1.81.19.11-.02.22-.05.33-.08,1.52-.46,2.48-2,2.18-3.6ZM53.91,16.84c-1.5.29-2.96-.7-3.24-2.21-.29-1.5.7-2.96,2.21-3.24,1.5-.29,2.96.7,3.24,2.21.29,1.5-.7,2.96-2.21,3.24Z"></path><path class="cls-1" d="M49.36,26.22c1.02-1.82,1.06-3.07.64-4.01-.42-.94-1.53-1.72-3.13-2.53-1.1-.56-1.69-1.8-1.69-1.8.62.7,1.42,1.27,1.71,1.38.19-.68-.05-1.74-.27-1.93-.22-.2-1.69-1.1-1.69-1.1-.34-.54-.49-2.03-.49-2.03-.45-.36-1.6-1.46-1.75-2.78.41.98,2.36,3.04,3.36,3.13.76.07.89-.36.91-.57,0-.07.05-.13.12-.16l.08-.03c.08-.04.13-.12.11-.21l-.04-.22s.27.01.49-.03c.08-.02.14-.1.12-.18-.03-.15-.02-.32-.01-.42,0-.06.06-.09.11-.08.23.05.51.11.76-.05.11-.07.14-.25.07-.36-.28-.48-.43-1.34-.1-1.71.36-.41.44-.33.61-.82.17-.49.07-1.5.07-1.5.52-.43.08-1.98-.64-2.76-.73-.79-3.81-3.31-5.56-2.45-.24-1.48-2.24-2.52-2.75-2.46-.51.06-3.79,1.7-3.74,3.32.05,1.62,1.78,6.62.82,6.84.41.18,1.13-.04,1.21-.91.46.73-.43,2.47-1.83,2.29.39.71,2.23.88,3.28-.34-.11,1-1.01,1.43-1.01,1.43.65.04,1.5.72,2.07,1.59-.82-.53-2.38-1.35-3.01-.83-.98-.07-2.98.77-4.56,4.89-.05.13-.12.25-.2.36-1.11,1.44-3.01,6.06-4.17,7.98-.21.35-.15.81.15,1.09.29.27.55.43.73.57.26.73,4,4.31,7.52,5.73.17,1.93.55,2.92,3.42,3.54,2.86.62,5.39,1.28,6.69,3.34.31-1.22-.88-5.15-1.57-5.94,1.01.65,1.85,2.76,2.04,3.34.47-.91,1.1-2.53.68-4,.31-2.04,1.22-4.98.43-8.6ZM40.97,29.14c.4.65.05,1.95-.53,2.87-.58.31-.61-.25-1.75.49-2.87-1.82-3.65-4.24-4.93-5.72,1.34-3.3,4.57-6.16,5.34-6.5,0,0-1.1,1.41-1.31,2.17,1.35,2.03,2.74,4.54,2.86,5.36.57.89,3.29,2.94,3.41,4.84-.13-.7-2.21-3.18-3.07-3.5Z"></path><path class="cls-1" d="M52.95,11.77c-1.29.25-2.14,1.49-1.9,2.79.24,1.29,1.49,2.14,2.79,1.9,1.29-.24,2.14-1.49,1.9-2.79-.24-1.29-1.49-2.14-2.79-1.9ZM53.52,14.77c-.36.07-.71-.17-.78-.53-.07-.36.17-.71.53-.78.36-.07.71.17.78.53.07.36-.17.71-.53.78Z"></path><path class="cls-1" d="M52.11,17.49c-.17,1.11-.67,3.03-1.7,4.14.45.8,1.07,2.78-.33,4.66.11.4.35,1.75.31,2.07,1.02-1.4,2.82-5.29,3.13-6.17.23-.66.57-3.28.72-4.57-.06.01-.12.03-.18.04-.68.13-1.35.05-1.96-.18Z"></path></g></g><g><path class="cls-1" d="M63.75,8.8c-1.46,0-3.01.57-3.01,1.96,0,1.24,1.42,1.6,3.11,1.88,2.29.36,4.55.82,4.55,3.4-.02,2.57-2.47,3.4-4.66,3.4-2.03,0-3.96-.74-4.84-2.65l1.18-.69c.74,1.36,2.27,2.01,3.68,2.01s3.24-.44,3.24-2.13c.02-1.42-1.59-1.83-3.3-2.09-2.21-.34-4.35-.85-4.35-3.17-.03-2.39,2.4-3.21,4.38-3.21,1.7,0,3.32.34,4.33,2.08l-1.08.67c-.62-1-1.95-1.46-3.22-1.47Z"></path><path class="cls-1" d="M77,19.25l-.03-1.47c-.64,1.11-1.86,1.64-2.98,1.64-2.32,0-4.14-1.6-4.14-4.24s1.85-4.19,4.16-4.17c1.21,0,2.4.56,2.99,1.6l.02-1.47h1.31v8.08h-1.29l-.03.03ZM74.06,12.28c-1.6,0-2.9,1.15-2.9,2.94s1.29,2.96,2.9,2.96c3.89,0,3.89-5.92.02-5.92l-.02.02Z"></path><path class="cls-1" d="M88.28,11.14v8.08h-1.24l-.07-1.29c-.7.98-1.67,1.41-2.8,1.42-2.04,0-3.5-1.39-3.5-3.75v-4.47h1.34v4.45c0,1.55.92,2.52,2.45,2.5,1.47-.02,2.49-1.18,2.49-2.65v-4.33h1.34l-.02.03ZM83.75,9.85v.08h1.23l1.64-2.13v-.05h-1.65l-1.21,2.09Z"></path><path class="cls-1" d="M98.68,7.75v11.45h-1.26l-.07-1.47c-.65,1.11-1.83,1.64-3.03,1.64-2.31,0-4.09-1.52-4.09-4.19s1.78-4.19,4.07-4.19c1.15,0,2.45.52,3.03,1.62v-4.84h1.33l.02-.02ZM94.43,12.23c-1.57,0-2.85,1.03-2.85,2.93s1.28,2.93,2.85,2.93,2.86-1.18,2.86-2.94-1.28-2.91-2.88-2.91h.02Z"></path><path class="cls-1" d="M108.37,17.93c-.82.96-2.22,1.44-3.48,1.44-2.5,0-4.25-1.65-4.25-4.22s1.75-4.19,4.19-4.19,4.35,1.52,4.04,4.74h-6.87c.15,1.49,1.37,2.42,2.93,2.42.92,0,2.03-.36,2.57-1.01l.9.82h-.02ZM107.59,14.59c-.07-1.57-1.15-2.42-2.73-2.42-1.41,0-2.63.85-2.86,2.4h5.59v.02Z"></path><path class="cls-1" d="M122.87,7.75v11.45h-1.26l-.07-1.47c-.65,1.11-1.83,1.64-3.03,1.64-2.31,0-4.09-1.52-4.09-4.19s1.78-4.19,4.07-4.19c1.14,0,2.45.52,3.03,1.62v-4.84h1.33l.02-.02ZM118.61,12.23c-1.57,0-2.85,1.03-2.85,2.93s1.28,2.93,2.85,2.93,2.86-1.18,2.86-2.94-1.28-2.91-2.88-2.91h.02Z"></path><path class="cls-1" d="M131.96,19.25l-.03-1.47c-.64,1.11-1.86,1.64-2.98,1.64-2.32,0-4.14-1.6-4.14-4.24s1.85-4.19,4.15-4.17c1.21,0,2.41.56,2.99,1.6l.02-1.47h1.31v8.08h-1.29l-.03.03ZM129.02,12.28c-1.6,0-2.9,1.15-2.9,2.94s1.29,2.96,2.9,2.96c3.89,0,3.89-5.92.02-5.92l-.02.02Z"></path></g><g><path class="cls-1" d="M75.17,30.55l-4.85,5.75h-.95l-4.75-5.72v11.28h-5.31v-18.98h5.61l4.99,6.43,4.99-6.43h5.58v18.98h-5.31v-11.31Z"></path><path class="cls-1" d="M101.97,22.9v10.6c.03,5.61-3.39,8.76-8.95,8.76s-8.95-3.01-8.95-8.81v-10.55h5.34v10.55c0,2.98,1.44,4.23,3.61,4.23s3.61-1.3,3.61-4.18v-10.6h5.34Z"></path><path class="cls-1" d="M110.92,22.88v14.43h9.08v4.56h-14.45v-18.98h5.37Z"></path><path class="cls-1" d="M134.56,41.88v-7.19h-6.83v7.19h-5.37v-18.98h5.37v7.21h6.83v-7.21h5.31v18.98h-5.31Z"></path><path class="cls-1" d="M158.91,41.86h-15.18v-18.98h14.8v4.5h-9.52v2.71h8.97v4.37h-8.97v2.87h9.9v4.53Z"></path><path class="cls-1" d="M179.52,41.86h-5.91l-4.42-6.16h-1.87v6.16h-5.37v-18.98h9.27c4.85,0,7.38,3.12,7.38,6.53,0,2.33-.81,4.31-4.01,5.72l4.93,6.4v.33ZM167.32,27.16v4.56h3.96c1.41,0,2.03-1.06,2.03-2.2s-.68-2.36-2.09-2.36h-3.9Z"></path></g><g><path class="cls-1" d="M61.07,1.2c.34,0,.63.11.86.34.23.23.34.51.34.86s-.11.62-.34.85c-.23.23-.52.35-.86.35h-.86v1.33h-.5V1.2h1.35ZM61.07,3.14c.21,0,.38-.07.51-.21s.2-.32.2-.53-.07-.39-.2-.53-.31-.21-.51-.21h-.86v1.47h.86Z"></path><path class="cls-1" d="M64.86,4.6c-.27.27-.61.41-1,.41s-.72-.13-1-.41-.41-.6-.41-1,.14-.73.41-1c.27-.27.6-.41,1-.41s.72.14,1,.41c.27.27.41.6.41,1s-.14.73-.41,1ZM63.86,4.55c.27,0,.49-.09.67-.27.18-.18.27-.41.27-.68s-.09-.5-.27-.68c-.18-.18-.41-.27-.67-.27s-.49.09-.67.27c-.18.18-.27.41-.27.68s.09.5.27.68c.18.18.4.27.67.27ZM63.54,1.89h.45l.54-.7h-.56l-.43.7Z"></path><path class="cls-1" d="M66.16,2.98c0,.1.05.18.16.24.1.06.23.11.37.16.14.04.29.09.44.13.15.04.27.12.37.24.1.12.15.27.15.46,0,.24-.09.44-.28.58-.19.15-.43.22-.72.22-.26,0-.48-.06-.67-.17-.19-.11-.32-.26-.4-.45l.4-.23c.04.13.12.23.24.3.12.08.26.11.42.11.15,0,.28-.03.38-.09s.15-.15.15-.27c0-.1-.05-.19-.16-.25-.1-.06-.23-.11-.37-.16-.15-.04-.29-.09-.44-.13s-.27-.12-.37-.24c-.1-.11-.15-.26-.15-.44,0-.23.09-.42.27-.57s.4-.22.67-.22c.22,0,.41.05.58.15.17.1.3.23.38.41l-.39.22c-.1-.23-.29-.34-.57-.34-.13,0-.24.03-.34.09-.09.06-.14.15-.14.26Z"></path><path class="cls-1" d="M68.15,3.52v-.45h1.95v.45h-1.95Z"></path><path class="cls-1" d="M74.5,3.09v.22c0,.49-.17.89-.5,1.21-.33.32-.78.48-1.33.48s-1.04-.19-1.41-.56c-.37-.38-.56-.83-.56-1.37s.19-1,.56-1.37.84-.56,1.4-.56c.35,0,.66.08.95.25.29.17.51.38.67.65l-.43.25c-.11-.2-.27-.37-.48-.49-.22-.12-.45-.18-.71-.18-.43,0-.78.14-1.05.42s-.41.62-.41,1.04.14.76.41,1.04c.28.28.63.42,1.07.42.37,0,.68-.09.91-.28.23-.18.37-.42.42-.71h-1.37v-.45h1.87Z"></path><path class="cls-1" d="M75.52,2.72c.15-.33.43-.5.83-.5v.49c-.23-.01-.42.05-.59.18s-.25.34-.25.63v1.41h-.46v-2.67h.46v.45Z"></path><path class="cls-1" d="M78.87,2.27h.46v2.67h-.46v-.46c-.23.35-.57.53-1.01.53-.37,0-.69-.14-.96-.41s-.4-.6-.4-1,.13-.72.4-1c.26-.27.58-.41.96-.41.44,0,.78.18,1.01.53v-.46ZM77.92,4.56c.27,0,.5-.09.68-.27.18-.18.27-.41.27-.68s-.09-.5-.27-.68c-.18-.18-.41-.28-.68-.28s-.49.09-.67.28c-.18.18-.27.41-.27.68s.09.5.27.68c.18.18.41.27.67.27Z"></path><path class="cls-1" d="M82.24,1.2h.46v3.73h-.46v-.46c-.23.35-.57.53-1.01.53-.37,0-.69-.14-.96-.41s-.4-.6-.4-1,.13-.72.4-1c.26-.27.58-.41.96-.41.44,0,.78.18,1.01.53v-1.53ZM81.29,4.56c.27,0,.5-.09.68-.27.18-.18.27-.41.27-.68s-.09-.5-.27-.68c-.18-.18-.41-.28-.68-.28s-.49.09-.67.28c-.18.18-.27.41-.27.68s.09.5.27.68c.18.18.41.27.67.27Z"></path><path class="cls-1" d="M85.25,2.27h.46v2.67h-.46v-.38c-.19.3-.48.45-.86.45-.31,0-.56-.1-.75-.3s-.28-.46-.28-.8v-1.64h.46v1.61c0,.22.06.39.18.5.12.12.28.18.49.18.23,0,.42-.07.56-.22.14-.14.21-.37.21-.66v-1.41Z"></path><path class="cls-1" d="M88.63,2.27h.46v2.67h-.46v-.46c-.23.35-.57.53-1.01.53-.37,0-.69-.14-.96-.41s-.4-.6-.4-1,.13-.72.4-1c.26-.27.58-.41.96-.41.44,0,.78.18,1.01.53v-.46ZM87.68,4.56c.27,0,.5-.09.68-.27.18-.18.27-.41.27-.68s-.09-.5-.27-.68c-.18-.18-.41-.28-.68-.28s-.49.09-.67.28c-.18.18-.27.41-.27.68s.09.5.27.68c.18.18.41.27.67.27Z"></path><path class="cls-1" d="M92.25,4.31c-.1.18-.24.33-.41.45-.18.12-.37.2-.59.22v.19c.14.03.24.08.33.15.08.08.13.17.13.27,0,.37-.37.53-1.12.49v-.35c.48.04.72-.02.72-.17,0-.11-.15-.17-.44-.19v-.38c-.35-.05-.64-.2-.87-.46s-.34-.57-.34-.93c0-.4.13-.73.4-1,.27-.27.6-.4,1-.4.26,0,.5.06.71.19.21.13.37.3.47.51l-.39.22c-.07-.14-.17-.26-.31-.34-.14-.09-.3-.13-.48-.13-.27,0-.49.09-.67.27-.18.18-.27.41-.27.68s.09.49.27.67c.18.18.4.27.67.27.18,0,.34-.04.48-.12.14-.08.25-.2.33-.34l.4.23Z"></path><path class="cls-1" d="M94.88,2.27h.46v2.67h-.46v-.46c-.23.35-.57.53-1.01.53-.37,0-.69-.14-.96-.41s-.4-.6-.4-1,.13-.72.4-1c.26-.27.58-.41.96-.41.44,0,.78.18,1.01.53v-.46ZM93.93,4.56c.27,0,.5-.09.68-.27.18-.18.27-.41.27-.68s-.09-.5-.27-.68c-.18-.18-.41-.28-.68-.28s-.49.09-.67.28c-.18.18-.27.41-.27.68s.09.5.27.68c.18.18.41.27.67.27ZM93.93,1.75c-.13-.11-.22-.16-.29-.15s-.1.1-.1.27h-.39c0-.23.04-.4.12-.51.08-.12.19-.17.31-.17.12,0,.25.06.39.15.13.11.23.16.29.15.06,0,.09-.1.09-.27h.39c0,.23-.04.4-.12.51-.08.11-.18.17-.31.16-.12,0-.25-.06-.39-.15Z"></path><path class="cls-1" d="M98.3,4.6c-.27.27-.61.41-1,.41s-.72-.13-1-.41-.41-.6-.41-1,.14-.73.41-1c.27-.27.6-.41,1-.41s.72.14,1,.41c.27.27.41.6.41,1s-.14.73-.41,1ZM97.31,4.55c.27,0,.49-.09.67-.27.18-.18.27-.41.27-.68s-.09-.5-.27-.68c-.18-.18-.41-.27-.67-.27s-.49.09-.67.27c-.18.18-.27.41-.27.68s.09.5.27.68c.18.18.4.27.67.27Z"></path></g></g></g></svg>