<svg xmlns="http://www.w3.org/2000/svg" viewBox="0 0 1529.6 314.1"><defs><style>      .cls-1 {        fill: #1d1d1b;      }      .cls-2 {        fill: #fefefe;      }    </style></defs><g><g id="Camada_2"><g id="Camada_1-2"><g><g><path class="cls-2" d="M1529.6,213.5c-1.8,2.6-4.3,3.1-7.3,3.1-6.5-.2-12.9.2-19.4-.2-12.2-.8-22.8-5.2-31.5-13.7-17.9-17.7-35.6-35.5-53.4-53.3-3.6-3.6-7.7-5.2-12.7-3.9-2.5.6-4.4,2.1-6.2,3.9-17.4,17.4-34.8,34.7-52.1,52.1-8,8-17.4,12.9-28.6,14.7-2.3.4-4.7.6-7.1.5-7.5,0-15,0-22.5,0-3.8,0-6.2-2.1-6.2-5.5,0-3.3,2.4-5.6,6.1-5.6,7.3,0,14.7,0,22,0,10.9,0,20.2-3.9,27.9-11.5,17.6-17.5,35.2-35.1,52.8-52.7,5-5,10.9-7.6,18-7.4,6.4.2,11.7,2.8,16.2,7.3,17.4,17.4,34.9,34.8,52.3,52.2,6.4,6.4,13.9,10.4,22.9,11.6,3.8.5,7.6.5,11.4.4,3.5,0,7.1.1,10.6,0,2.8-.1,5.2.5,7,2.9v5.2h0Z"></path><path class="cls-2" d="M1529.6,55.7c-1.7,2.4-4,3.2-6.9,3.1-5.6-.1-11.2,0-16.8,0-10.9,0-20.2,4-27.8,11.6-17.5,17.4-35,34.9-52.4,52.3-3.7,3.7-8,6.3-13.2,7.1-7.5,1.2-14.2-.7-19.8-5.9-2.1-1.9-4-4-6-6-15.7-15.7-31.4-31.4-47.1-47.1-6.3-6.3-13.7-10.5-22.6-11.9-2.1-.3-4.1-.5-6.2-.5-7.3,0-14.7,0-22,0-3.8,0-6.2-2.1-6.2-5.5,0-3.3,2.4-5.6,6.1-5.6,7.1,0,14.2,0,21.3,0,14.4,0,26.7,5.1,36.9,15.2,17.5,17.5,34.9,34.9,52.4,52.4,2.4,2.4,5.2,3.9,8.7,4.1,3.9.1,7-1.4,9.7-4.1,17.2-17.2,34.4-34.3,51.5-51.5,8.7-8.8,19.1-14.2,31.4-15.6,1.9-.2,3.8-.2,5.7-.2,5.7,0,11.3,0,17,0,2.8,0,4.8.8,6.2,3.2v4.8h0Z"></path><path class="cls-2" d="M702.5,102.8c4.4,0,8.9-.1,13.3.6,6.5,1,12,3.9,16.7,8.5,14.3,14.3,28.7,28.6,43,42.9,4.3,4.4,9.4,7,15.6,7.1,6,0,11.1-2,15.3-6.2,14.3-14.3,28.7-28.6,43-42.9,6.5-6.5,14.2-9.8,23.4-9.7,5.3,0,10.6.3,15.9-.2.8,0,1.2.4,1.6.8,11.2,11.2,22.5,22.2,33.5,33.6,16.6,17.3,16.3,44.5-.5,61.6-10.9,11.1-21.9,21.9-32.9,32.9-.7.7-1.4.9-2.4.8-5.3-.1-10.6,0-15.9-.1-7,0-13.4-2.1-19-6.4-1.2-1-2.3-2.1-3.5-3.1-14.2-14.2-28.4-28.4-42.6-42.6-7.5-7.4-18.5-8.7-27.2-3.3-1.5.9-2.8,2.1-4,3.3-14.1,14.1-28.2,28.1-42.2,42.2-6.7,6.8-14.6,10.2-24.2,10-5.5-.1-11.1-.3-16.6,0-2.5.2-3.9-.7-5.5-2.3-10.6-10.7-21.4-21.3-32-32.1-15.6-15.9-16.3-42.2-1.8-59,1-1.1,2-2.2,3-3.3,10.7-10.7,21.4-21.4,32.1-32.1.8-.8,1.6-1.1,2.9-1.1,3.7.2,7.4,0,11.1,0h0Z"></path><path class="cls-2" d="M702.9,90c.3-.9.8-1.3,1.2-1.7,17.8-17.8,35.6-35.6,53.4-53.3,9.2-9.1,20.2-13.8,33.2-13.5,11.5.3,21.6,4.4,29.8,12.5,18.4,18.2,36.6,36.5,54.9,54.8.3.3,1,.7.8,1.2-.2.6-.9.3-1.4.3-5.3-.1-10.6.2-15.8,1.8-7.1,2.2-13.2,6-18.4,11.3-14.2,14.2-28.3,28.3-42.5,42.4-4.5,4.5-8.9,4.4-13.4,0-14.2-14.2-28.5-28.4-42.7-42.7-6.8-6.8-15-11.1-24.5-12.6-4.1-.6-8.2-.5-12.3-.5h-2.2,0Z"></path><path class="cls-2" d="M876.1,245.6c-.3.8-.8,1.2-1.3,1.6-17.8,17.8-35.7,35.6-53.5,53.5-8.5,8.5-18.7,13.1-30.6,13.4-11.8.3-22.6-3.3-31.1-11.6-18.8-18.4-37.3-37.1-55.9-55.7-.3-.3-.9-.6-.6-1.1.2-.4.8-.2,1.3-.2,4.9-.1,9.8.2,14.7-.7,8.6-1.7,16.1-5.6,22.3-11.8,14.4-14.4,28.8-28.8,43.2-43.2,4.4-4.4,9-4.4,13.4,0,14,13.9,28,27.8,41.8,41.9,9.2,9.3,20.2,13.9,33.2,13.7,1,0,1.9-.2,3,.2h0Z"></path><path class="cls-2" d="M1002.5,201.3c0-30.1-.3-60.1,0-90.1.2-18.9,8.1-34.7,22.2-47.3,10.6-9.4,23-14.6,37-16,2.3-.2,4.6-.2,6.9-.2,17.5,0,35,0,52.5,0,32.5.1,59.5,23.3,64.7,55.4.6,3.5.8,7.1.8,10.7,0,12.3,0,24.6,0,36.8,0,18.2-6.3,34-19.1,47-11,11.1-24.4,17.4-40,19-2.2.2-4.5.3-6.7.3-24.8,0-49.5,0-74.3,0-1.5,0-2.9-.2-4.1-1.1-1.7-1.3-2.6-3.6-2.1-5.7.6-2.4,2.4-4,4.9-4.3.7,0,1.5,0,2.2,0,24.7,0,49.3.1,73.9,0,25.5-.2,47-17.6,52.7-42.4.9-4,1.4-8.1,1.4-12.2,0-12.6,0-25.3,0-37.9-.1-27.5-19.6-50-46.8-54.1-1.8-.3-3.6-.5-5.3-.5-18.9,0-37.8-.2-56.6,0-27.4.2-50.4,21.7-53,48.9-.2,2.5-.3,4.9-.3,7.4v176.5c0,1.1,0,2.3-.3,3.4-.9,2.5-3.3,4.1-5.9,3.8-2.7-.4-4.6-2.4-4.8-5.1,0-.8,0-1.5,0-2.2v-90.1h0,0Z"></path><path class="cls-2" d="M1249.4,144.5v66.1c0,1.1,0,2.2-.3,3.3-.7,2.5-3.2,4.3-5.8,4-2.8-.2-4.8-2.4-5-5.1,0-.9,0-1.7,0-2.6V79c0-5.7-1.6-10.7-5.7-14.7-3.6-3.6-7.9-5.5-13-5.5-7.2,0-14.3,0-21.5,0-1,0-2.1,0-3.1-.2-2.7-.5-4.4-2.7-4.4-5.4s1.8-4.9,4.4-5.4c.2,0,.3,0,.5,0,9.4-.1,18.9-1,28.2.4,15.3,2.2,25.7,14.7,25.7,30.1,0,22.1,0,44.2,0,66.3h0Z"></path><path class="cls-2" d="M1260.6,17.1c0,1.8-.6,3.4-1.8,4.7-3.5,3.5-7,7-10.5,10.5-2.8,2.7-6.6,2.7-9.3,0-3.5-3.5-7.1-7-10.5-10.5-2.6-2.6-2.6-6.6,0-9.2,3.5-3.6,7-7.1,10.6-10.6,2.7-2.6,6.5-2.6,9.2,0,3.6,3.5,7.1,7.1,10.7,10.6,1.2,1.2,1.8,2.8,1.8,4.5h0Z"></path><path class="cls-2" d="M1409.2,270.6c1.8,0,3.6,0,5.3.3,1.8.2,1,1.6,1.2,2.6.2,1.1-.6,1.4-1.5,1.3-2.9-.2-5.9-.5-8.8,0-2.5.5-4.6,1.5-5.3,4.1-.8,3-.9,6,1.3,8.5,1.1,1.2,2.6,1.6,4.2,1.7,3,.1,5.9-.3,8.8-.8.6-.1,1.6-.5,1.6.6,0,1,.8,2.6-.8,3-4.8,1.1-9.6,2.1-14.5.5-1.1-.3-2.1-.8-2.8-1.6-3.3-3.3-3.7-7.4-2.9-11.7.7-3.9,3.1-6.5,7-7.6,2.4-.7,4.8-.8,7.2-.7h0Z"></path><path class="cls-2" d="M1316.7,284.5v-5.5c0-2.2,1.6-3.2,3.4-2,.8.5,1.4.5,2.2.3,2.3-.5,4.6-1,7-1,4.7,0,6.8,2.2,6.8,6.8,0,2.6,0,5.2,0,7.8,0,1.8-1,1.7-2.2,1.7-1.2,0-2.1-.1-2.1-1.7,0-2.2,0-4.5,0-6.7-.1-3.1-1.2-4.1-4.3-4.1-6.1,0-6.4.2-6.4,6.2s0,3.2,0,4.8c0,1.1-.4,1.5-1.5,1.6-2.9.1-3,.1-3-2.9v-5.2h0Z"></path><path class="cls-2" d="M1443.7,284.5v-5.7c0-2,1.6-3,3.2-1.9.9.7,1.7.5,2.5.3,2.8-.6,5.6-1.3,8.6-.8,3.1.6,4.8,2.2,5,5.3.2,3.2,0,6.3,0,9.5,0,.9-.4,1.2-1.3,1.3-2.9.3-3.2,0-3.2-2.8s0-3.8,0-5.7c0-2.9-1.2-4-4.2-4-1.6,0-3.2.3-4.8.5-1.2.2-1.8.8-1.7,2.1,0,2.7,0,5.4,0,8.1,0,1.7-.8,1.8-2.2,1.8s-2.3,0-2.2-1.8c.1-2.1,0-4.1,0-6.2h0Z"></path><path class="cls-2" d="M1471.8,272c1.6-.3,2,.5,2,1.9,0,2.7,0,2.7,2.8,2.7.5,0,1,0,1.6,0,1.2,0,1.9.3,1.9,1.7,0,1.5-.7,1.7-1.9,1.7-4.4,0-4.4,0-4.4,4.4v1c0,3.5,1.2,4.5,4.8,4.1.8,0,1.7-.4,1.8.9,0,1.1.1,2.1-1.4,2.3-.8,0-1.5.2-2.2.3-4.4.5-7-1.6-7.3-6-.1-1.8,0-3.6,0-5.4,0-1.2-.4-1.8-1.6-1.6-1.2.1-1.6-.4-1.6-1.6,0-1.1.2-1.9,1.5-1.7,2.1.2,1.9-1.5,2-2.7,0-1.6.7-2.2,2.2-2h0Z"></path><path class="cls-2" d="M1350.8,276.2c1.2.1,2.4.3,3.6.3,1.8,0,1.7,1.1,1.7,2.3,0,1.6-1.1,1.1-2,1.1-2-.2-4-.3-6,.2-2.2.6-3.3,2.2-3.3,4.9,0,2.8,1.1,4.1,3.5,4.5,2.2.4,4.2-.1,6.4-.4.6,0,1.7-.6,1.7.7,0,.9.5,2.2-1.1,2.5-3,.5-6,1.1-9.1.6-3.1-.5-5.1-2.4-5.7-5.5-1.5-7.2,2.2-11.1,10.3-11.1h0Z"></path><path class="cls-2" d="M1096.3,289.7c1.5-3.3,2.9-6.5,4.4-9.8.3-.6.6-1.3.8-1.9.3-.7.5-1.4,1.5-1.4.9,0,1.1.7,1.4,1.4,1.6,3.5,3.2,6.9,4.7,10.4.2.4.4.8.7,1.3.7-.4.8-1.1,1-1.6,1.3-3.3,2.6-6.5,3.9-9.8.2-.5.4-1,.7-1.4s.8-.4,1.3-.2c.5.2.3.7.1,1-1.9,4.6-3.8,9.2-5.7,13.7-.2.6-.6.9-1.3.9s-1.1-.5-1.4-1.1c-1.6-3.3-3.1-6.7-4.7-10-.2-.5-.3-1.4-.9-1.4s-.8.9-1,1.4c-1.5,3.2-3,6.5-4.5,9.7-.3.6-.5,1.3-1.4,1.3-1,0-1.2-.7-1.5-1.4-1.8-4.3-3.5-8.5-5.3-12.8-.2-.5-.9-1.2,0-1.6.9-.3,1.4.2,1.7,1,1.4,3.4,2.8,6.8,4.2,10.2.2.6.3,1.2,1.1,1.7h0Z"></path><path class="cls-2" d="M1484.3,284.6v-5.7c0-2.2,1.6-3.2,3.4-2,.8.5,1.4.5,2.2.3,1.7-.5,3.4-.7,5.1-1,1.3-.2,1.6.5,1.6,1.6,0,1,.2,2.2-1.4,2.1-1.6,0-3.1.2-4.6.5-1.3.2-1.9.8-1.8,2.2,0,2.7,0,5.4,0,8.1,0,1.9-1.1,1.7-2.4,1.8-1.3,0-2.2-.2-2.1-1.8,0-2,0-4,0-6h0Z"></path><path class="cls-2" d="M1523,281.2c0-3.2,0-6.3,0-9.5,0-1.7.9-1.8,2.2-1.8,1.3,0,2.2,0,2.2,1.8,0,6.3,0,12.7,0,19,0,1.7-.9,1.8-2.2,1.8s-2.2-.1-2.2-1.8c0-3.2,0-6.3,0-9.5h0Z"></path><path class="cls-2" d="M1235.8,298.7c-.6-.3-2.1.6-2.1-.9,0-1.4,1.4-.7,2.2-.8,2.6-.1,4.3-1.3,5.2-3.8.3-.8,0-1.5-.4-2.1-2.2-4.2-4.4-8.5-6.6-12.7-.3-.5-1.2-1.2-.2-1.7.8-.4,1.5,0,1.9.9,1.9,3.8,3.9,7.5,5.8,11.2.2.4.5,1,.8,1.1.6,0,.7-.7.9-1.1,1.8-3.5,3.5-7,5.2-10.5.2-.5.4-1,.8-1.3.4-.4,1-.5,1.4-.2.6.3.2.8,0,1.2-3,5.9-5.9,11.7-8.9,17.6-1.2,2.3-3.2,3.4-6.1,3.2h0Z"></path><path class="cls-2" d="M1143.5,284.5c0-2.1,0-4.1,0-6.2,0-1.7.3-1.9,1.7-1.1.6.4,1.1,0,1.6,0,1.7-.3,3.4-.7,5.1-1,.6-.1,1.4-.1,1.4.8,0,.8-.6.9-1.2.9-1.7.2-3.4.5-5.1.9-1.2.3-1.6.8-1.6,2,0,3.3,0,6.5,0,9.8,0,.8.2,1.8-1.1,1.7-1.1,0-.9-1-.9-1.7,0-2.1,0-4.1,0-6.2h0Z"></path><path class="cls-2" d="M1287.6,286.4c0-1.9-.9-3.3-2.6-4.2-.4-.2-1-.3-1.4-.8,1.3-1,2.6-2,2.8-3.9.4-3.4-1.4-5.6-5.2-6.2-4.6-.7-9.3-.2-14-.4-1.2,0-1.2.8-1.2,1.6,0,6,0,12.1,0,18.1,0,1.2.4,1.8,1.7,1.7,4.3,0,8.5,0,12.8-.1,1.7,0,3.3-.5,4.8-1.3,1.8-1,2.4-2.7,2.3-4.7h0ZM1270.9,275.4c.2-.6.5-.9,1.1-.9,2.5,0,4.9-.2,7.4.2,1.5.3,2.4,1.1,2.3,2.7,0,1.6-1.1,2.2-2.4,2.4-1.3.2-2.6.2-3.9.2h0c-.3,0-.6,0-.9,0-3.6,0-4.4-1.1-3.5-4.7h0ZM1280.4,288.8c-1.5.2-3,.2-4.5.3h0c-.5,0-1.1,0-1.6,0-1.1-.1-2.6.6-3.2-.5-.7-1.2-.3-2.8-.2-4.2,0-.6.5-.7,1-.7,2.8,0,5.7-.2,8.5.3,1.4.2,2.3.9,2.4,2.5,0,1.7-.9,2.4-2.4,2.6h0Z"></path><path class="cls-2" d="M1311,286.8c0-1.4,0-2.9,0-4.3-.2-3.7-1.8-5.4-5.5-6-3.3-.5-6.6-.2-9.8,0-1.2,0-1.1.9-1.1,1.7,0,.9.2,1.4,1.3,1.4,2,0,4,0,6.1,0,1.1,0,2.2,0,3.2.6.9.5,1.6,1.2,1.4,2.2-.2,1.1-1.3.6-2,.6-2.8-.3-5.5-.3-8.3.3-2.7.6-4.1,2.4-4,4.9,0,2.5,1.6,4.1,4.3,4.6,3,.6,6-.2,8.9-.7.8-.2,1.6-.2,2.4.2,2.1,1,3.2.1,3.2-2.2v-3.3h0,0ZM1305,289.3c-1.9.2-3.8.8-5.8.6-1.2-.1-2.7-.3-2.7-2.1,0-1.6,1.3-1.8,2.5-2,1.3-.2,2.5-.2,3.8,0h1.9c.9.1,1.9,0,1.9,1.4,0,1.2-.2,2-1.6,2.1Z"></path><path class="cls-2" d="M1374,276.7c-1.5-.3-3-.5-4.5-.5-1.8,0-3.6.1-5.3.7-3.6,1.1-5.4,3.7-5.3,7.9,0,4.1,1.8,6.7,5.5,7.6,3.3.9,6.6.9,9.9.1,4.2-1,5.8-3.5,5.7-8.4,0-4.2-2-6.6-6-7.5h0ZM1375.5,285.9c0,.5-.2,1-.4,1.5-1.2,2.3-6.5,3.1-9.5,1.5-2.1-1.2-2.8-5.1-1.3-7.3,1.3-2,3.4-1.9,5-2,4.9,0,6.8,2.1,6.2,6.3h0Z"></path><path class="cls-2" d="M1517.2,286.5c0-1.2,0-2.4,0-3.6,0-4-1.8-5.8-5.8-6.4-3.1-.4-6.1-.2-9.1,0-1.3,0-1.4.8-1.4,1.8s.5,1.4,1.5,1.4c2,0,4,0,6.1,0s2.1.2,3,.7c.8.5,1.4,1.2,1.2,2.1-.2,1.1-1.2.7-1.9.6-2.8-.3-5.5-.3-8.3.3-2.7.6-4.1,2.4-4,5,0,2.5,1.6,4,4.3,4.5,2.9.5,5.7-.1,8.6-.7.9-.2,1.8-.4,2.8.2,2,1,3.1,0,3.1-2.2v-3.6h0ZM1511.8,289.2c-2.1.5-4.3.9-6.5.7-1.2-.1-2.5-.5-2.6-2,0-1.6,1.2-1.9,2.5-2.1.7-.1,1.5-.2,1.8-.2,1.8.1,3.1.2,4.4.2.8,0,1.3.3,1.3,1.2,0,.8.3,1.9-.9,2.1h0Z"></path><path class="cls-2" d="M1425.4,285.6c2,0,4,0,6.1,0h0c2,0,4,0,6.1,0s1.4-.1,1.4-1.1c0-3.3-1-6.4-4.8-7.5-3.2-1-6.5-1-9.7,0-3.6,1.1-5.5,4.5-5.1,8.6.5,4.5,2.6,6.8,6.7,7.3,3.5.5,7-.2,10.5-.5,1.6-.2,1.9-1,1.7-2.3-.2-1.6-1.4-.8-2.2-.8-3,.2-5.9.8-8.9.2-1.2-.2-2.2-.8-2.7-1.9-.6-1.2-.3-1.9,1.1-1.9h0ZM1424.4,281c.5-.8,1.2-1.3,2-1.5,1.9-.6,3.8-.6,5.8,0,.6.2,1.2.5,1.6,1,.4.5.8,1.1.5,1.7-.3.7-1,.5-1.5.5-1.2,0-2.4,0-3.6,0-1.3,0-2.5,0-3.8,0-1.3,0-1.6-.6-.9-1.7h0Z"></path><path class="cls-2" d="M1195.4,281.4v-10c0-.6,0-1.4-.9-1.3-.8,0-.8.7-.8,1.3,0,1.5,0,3,0,4.5,0,1.1-.4,1.4-1.5,1.1-1.9-.5-3.8-.8-5.8-.7-7.2.4-10.5,4.5-9,11.3.7,3,2.6,4.8,5.7,5.3,3.1.5,6.1-.3,9.1-.8.6-.1,1.1-.4,1.7,0,1.5,1,1.6,0,1.6-1.1,0-3.2,0-6.3,0-9.5h0ZM1193.7,284.5h0c0,1.4,0,2.9,0,4.3,0,.8-.3,1.3-1.1,1.5-2.9.6-5.8,1.2-8.7.8-2.2-.3-3.8-1.5-4.3-3.6-1.2-5.1.2-9,6.2-9.5,2.2-.2,4.4.1,6.5.6,1.1.2,1.5.8,1.5,1.9,0,1.3,0,2.6,0,4h0Z"></path><path class="cls-2" d="M1229.7,279.3c-1.8-3-5-3.3-8.1-3-1.8.2-3.7.5-5.4.9-1.2.2-1.7,0-1.7-1.3,0-1.4,0-2.9,0-4.3,0-.6.2-1.5-.8-1.6-1.1,0-.9.9-.9,1.5,0,3.2,0,6.5,0,9.7s0,6.5,0,9.7c0,.6-.2,1.7.9,1.4.9-.3,1.7,0,2.5.1,2.7.6,5.4.8,8.1.3,2.3-.4,4.4-1.2,5.6-3.4,1.8-3.3,1.8-6.8,0-10h0ZM1222.7,291.2c-2.3.2-4.6,0-6.8-.6-1-.2-1.5-.8-1.4-1.8,0-1.4,0-2.8,0-4.1v-2.8c0-2.7,0-2.8,2.7-3.2,2.4-.4,4.8-1,7.3-.5,2.2.4,3.7,1.7,4.1,3.9,1,4.9-.3,8.7-6,9.2h0Z"></path><path class="cls-2" d="M1060.9,279.5c-1.7-3.1-4.8-3.5-8-3.2-2,.2-4,.6-6,1-.6,0-1.1.3-1.6-.1-1.3-1-1.6-.2-1.6,1v18.8c0,.6,0,1.4.9,1.3.8,0,.8-.7.8-1.2,0-1,0-2.1,0-3.1,0-1.3.3-1.9,1.8-1.5,1.3.4,2.6.6,3.9.6,3.6,0,7.2,0,9.5-3.4,2.1-3.2,2-6.8.2-10h0ZM1053.6,291.3c-2.3.2-4.5-.1-6.7-.6-1-.2-1.5-.7-1.4-1.8,0-1.4,0-2.8,0-4.1s0-2.5,0-3.8c0-1.3.5-1.9,1.7-2,2.8-.5,5.5-1.2,8.4-.7,2.4.4,3.9,1.8,4.2,4.2.8,4.8-.2,8.4-6.2,8.9h0Z"></path><path class="cls-2" d="M1158.4,285.1c2.2,0,4.5,0,6.7,0h0c2.2,0,4.5,0,6.7,0,.9,0,1.3-.4,1.3-1.3.1-3.5-1.8-6.2-5.1-7.1-2-.5-4-.7-6-.4-4.8.8-7.3,3.8-7.1,8.6.1,4.4,2.3,7.2,6.1,7.8,3.4.5,6.8,0,10.1-.5.6-.1,1.4-.2,1.2-1.1-.2-1.1-1-.5-1.5-.5-3.1.4-6.2,1-9.3.4-2.6-.5-4.1-1.9-4.6-4.3-.2-1.1.1-1.6,1.3-1.6h0ZM1157.3,282.2c.4-1.9,1.6-3.2,3.4-3.8,2.4-.8,4.8-.7,7.2,0,1.6.5,2.7,1.5,3.1,3.2.3,1.2.1,1.9-1.3,1.9-1.8,0-3.7,0-5.5,0s-3.9,0-5.9,0c-.9,0-1.2-.4-1-1.3h0Z"></path><path class="cls-2" d="M1123.4,285.1c2.2,0,4.5,0,6.8,0h0c2.2,0,4.5,0,6.8,0,.8,0,1.4-.2,1.3-1.1-.2-3.5-1.2-6-4.6-7.1-2.8-.9-5.6-.9-8.3-.1-2.6.7-4.1,2.4-4.8,5-.6,2-.6,4.1,0,6.1.8,2.8,2.7,4.5,5.7,4.9,3.4.5,6.8,0,10.1-.5.6-.1,1.4-.2,1.2-1.1-.2-1-1-.5-1.5-.5-3.1.4-6.2,1-9.3.4-2.6-.5-4.1-1.9-4.5-4.3-.2-1.1.1-1.6,1.3-1.6h0ZM1122.3,281.9c.7-2.5,2.8-3.9,6.2-4,4.2-.2,6.6.9,7.4,3.4.6,1.7.3,2.1-1.4,2.1-1.8,0-3.7,0-5.5,0s-3.7,0-5.5,0c-1.2,0-1.3-.5-1.1-1.5h0Z"></path><path class="cls-2" d="M1077.7,276.3c-.6,0-1.2,0-1.6-.1-1.7,0-3.3.2-4.8.6-2.9.8-4.6,2.6-5.2,5.6-.3,1.6-.3,3.2,0,4.8.5,2.5,1.9,4.2,4.3,5,3.5,1.2,7,1.2,10.5,0,2.5-.8,4-2.6,4.5-5.2,1.2-6.4-1.4-10-7.8-10.8h0ZM1083.4,287.7c-.6,1.8-2,2.8-3.8,3.2-2.4.6-4.8.6-7.2,0-3.2-.8-4.6-3-4.5-7,.1-3.3,1.6-5.1,4.8-5.7,1-.2,1.9-.2,2.9-.4h0c.5.1,1,0,1.6.1,5.4.5,7.9,4.6,6.1,9.7h0Z"></path></g><g><path class="cls-2" d="M62.5,82.8V1.7c0-1.5,0-1.5,1.6-1.5h19.3c1.4,0,1.4,0,1.5,1.5v161.4c0,2.9.3,2.5-2.6,2.5-5.9,0-11.8,0-17.8,0s-.8,0-1.2,0c-.6,0-.8-.3-.8-.9v-81.8h0Z"></path><path class="cls-2" d="M439.6,83v80.3c0,2.6.2,2.3-2.3,2.3-5,0-9.9,0-14.9,0-1.5,0-1.5,0-1.5-1.5,0-.4,0-.8,0-1.2V2.9c0-3.2-.3-2.7,2.7-2.7,4.7,0,9.4,0,14,0,2,0,2-.2,2,1.9v81h0Z"></path><path class="cls-2" d="M476.2,82.9v80.4c0,2.4.2,2.2-2.2,2.2-5,0-9.9,0-14.9,0s-1.5,0-1.6-1.6V3c0-3.3-.3-2.8,2.8-2.8,4.7,0,9.5,0,14.2,0,1.6,0,1.6,0,1.6,1.7v81.1h0Z"></path><path class="cls-2" d="M288.3,265.2v-45.3c0-2.5-.1-2.2,2.2-2.2h63.9c2.5,0,2.2-.3,2.2,2.3,0,2.5,0,5,0,7.4,0,1.3,0,1.3-1.4,1.4-.5,0-1,0-1.4,0h-51.5c-1.5,0-1.5,0-1.6,1.6v25.7c0,1.7,0,1.7,1.8,1.7h41.2c2.7,0,5.3,0,8,0,1.3,0,1.3,0,1.3,1.3,0,2.8,0,5.7,0,8.5,0,1.2,0,1.2-1.3,1.3-.5,0-1,0-1.4,0h-47.4c-2.4,0-2.2-.2-2.2,2.2v27.9c0,.4,0,.8,0,1.2,0,.7.3,1,1,.9.5,0,1,0,1.4,0h54c1.7,0,1.7,0,1.8,1.8,0,2.7,0,5.4,0,8.2,0,.9-.3,1.3-1.2,1.2-.4,0-.8,0-1.2,0h-66.4c-1.7,0-1.8,0-1.8-1.8v-45.4h0Z"></path><path class="cls-2" d="M120.6,82.8V2.9c0-.5,0-1,0-1.4,0-1.3,0-1.4,1.4-1.4,4.9,0,9.8,0,14.7,0,1.2,0,1.2,0,1.3,1.3,0,.5,0,.9,0,1.4v160c0,1.8-.9,2.7-2.8,2.7h-13c-1.7,0-1.7,0-1.8-1.8v-80.9h0Z"></path><path class="cls-2" d="M359.8,82.8v80.4c0,2.6.2,2.3-2.2,2.3-4.6,0-9.1,0-13.7,0-1.5,0-1.5,0-1.5-1.5V2.7c0-2.9-.4-2.6,2.5-2.6,4.5,0,9,0,13.5,0,1.4,0,1.4,0,1.4,1.4,0,.5,0,.9,0,1.4v79.9h0Z"></path><path class="cls-2" d="M365.1,82.9V2.5c0-2.5-.3-2.3,2.2-2.3,3.4,0,6.7,0,10.1,0,1.3,0,1.3,0,1.4,1.4v161.5c0,2.8.3,2.5-2.4,2.5-3.3,0-6.6,0-9.9,0-1.3,0-1.3,0-1.4-1.4,0-.5,0-.9,0-1.4v-79.9h0Z"></path><path class="cls-2" d="M102.8,82.8V2.9c0-.5,0-1,0-1.4,0-1.3,0-1.4,1.4-1.4,2.8,0,5.7,0,8.5,0,1.2,0,1.2,0,1.3,1.3,0,.4,0,.8,0,1.2v160.3c0,2.9.4,2.5-2.6,2.5-2.5,0-5,0-7.5,0-.9,0-1.3-.4-1.2-1.2,0-.5,0-1.1,0-1.6v-79.9h0Z"></path><path class="cls-2" d="M234.4,82.8v80.4c0,2.6.3,2.3-2.3,2.3-2.5,0-5.1,0-7.6,0-1.3,0-1.3,0-1.3-1.3,0-.4,0-.8,0-1.2V2.7c0-3-.3-2.5,2.5-2.6,2.5,0,5,0,7.5,0,.9,0,1.3.3,1.2,1.2,0,.5,0,1,0,1.4v80.1h0Z"></path><path class="cls-2" d="M28.9,82.8V2.1c0-2.1,0-1.9,1.9-1.9s5.3,0,8,0c1.2,0,1.2,0,1.3,1.3,0,.5,0,.9,0,1.4v159.9c0,1.8-.9,2.7-2.7,2.7s-4.8,0-7.3,0c-.9,0-1.3-.4-1.2-1.2,0-.5,0-.9,0-1.4v-80.1h0Z"></path><path class="cls-2" d="M417.6,270.7v39.8q0,1.9-1.9,1.9c-3.1,0-6.1,0-9.2,0-1.3,0-1.3,0-1.3-1.3,0-.5,0-1,0-1.4v-78.5c0-2.4.3-2.3-2.3-2.3h-26.5c-.5,0-1,0-1.4,0-.7,0-1.1-.2-1.1-1,0-3,0-6,0-9.1,0-.7.2-1.1,1-1.1.4,0,.8,0,1.2,0h70.5c2.5,0,2.2-.3,2.2,2.3,0,2.5,0,5,0,7.5,0,1.3,0,1.4-1.4,1.4-5.7,0-11.5,0-17.2,0h-11c-1.6,0-1.7,0-1.7,1.7v40.1h0Z"></path><path class="cls-2" d="M400.4,82.8v80.2c0,2.9.2,2.5-2.4,2.5-2.5,0-5,0-7.5,0-1.2,0-1.2,0-1.3-1.3,0-.4,0-.8,0-1.2V2.8c0-3-.4-2.6,2.7-2.6,2.4,0,4.9,0,7.3,0,.9,0,1.3.3,1.2,1.2,0,.5,0,1.1,0,1.6v79.9h0Z"></path><path class="cls-2" d="M192.6,82.8v80.6c0,2.4.2,2.2-2.2,2.2-2.5,0-5.1,0-7.6,0-1.3,0-1.3,0-1.3-1.3,0-.5,0-.9,0-1.4V2.8c0-3.1-.3-2.6,2.6-2.6,2.4,0,4.9,0,7.3,0,.9,0,1.3.3,1.2,1.2,0,.5,0,1,0,1.4v80h0Z"></path><path class="cls-2" d="M154.8,82.7V2.1c0-1.3.6-1.9,1.9-1.9,2.7,0,5.3,0,8,0,.9,0,1.3.3,1.2,1.2,0,.5,0,.9,0,1.4v160.3c0,2.9.3,2.5-2.5,2.5-2.5,0-5,0-7.4,0-.8,0-1.2-.2-1.2-1.1,0-.5,0-1.1,0-1.6v-80.2h0Z"></path><path class="cls-2" d="M209.1,265v-45.1c0-2.5-.1-2.1,2.2-2.2,3,0,6,0,9.1,0,.9,0,1.3.2,1.2,1.2,0,.5,0,.9,0,1.4v78.4c0,2.8-.3,2.4,2.5,2.4,13.9,0,27.8,0,41.7,0s1,0,1.4,0c.7,0,1,.3,1,.9,0,3.1,0,6.1,0,9.2,0,.6-.2,1-.9,1h-56.4c-1.7,0-1.7,0-1.7-1.8v-45.6h0Z"></path><path class="cls-2" d="M6.4,83.1v80.2c0,2.5.3,2.3-2.3,2.3-1.3,0-2.9.6-3.7-.3-.8-.8-.3-2.4-.3-3.6,0-53,0-106,0-159C.2-.2-.2.2,2.6.2c1.2,0,2.7-.5,3.6.3.8.8.2,2.3.2,3.4,0,26.4,0,52.8,0,79.2h0Z"></path><path class="cls-2" d="M12.6,82.8V2.4C12.6-.1,12.4.2,14.9.2c1,0,2,0,3,0,.7,0,1,.3.9,1,0,.4,0,.8,0,1.2v161c0,2.4.2,2.2-2.2,2.2-1,0-2,0-3,0-.8,0-1.1-.3-1-1.1,0-.5,0-1.1,0-1.6,0-26.7,0-53.4,0-80.1Z"></path><path class="cls-2" d="M492.5,82.8v80.4c0,2.6.3,2.3-2.4,2.4h-3c-.6,0-.9-.2-.9-.9V2.3c0-2.4-.2-2.2,2.2-2.2,1.1,0,2.1,0,3.2,0,.6,0,.9.2.9.9v81.8h0Z"></path><path class="cls-2" d="M261.1,82.8V2.9c0-.5,0-1,0-1.4,0-1.3,0-1.4,1.4-1.4,1.2,0,2.5,0,3.7,0,.9,0,1.2.3,1.1,1.2,0,.4,0,.7,0,1.1v161c0,2.4.2,2.2-2.2,2.2-1,0-2,0-3,0-.8,0-1.1-.3-1-1.1,0-.5,0-1.1,0-1.6v-80.1h0Z"></path><path class="cls-2" d="M218,83v80.2c0,2.6.2,2.3-2.2,2.3-.9,0-1.9,0-2.8,0-1,0-1.3-.4-1.2-1.3,0-.4,0-.8,0-1.2V2.7c0-2.8-.3-2.5,2.4-2.5.9,0,1.8,0,2.7,0,1,0,1.3.4,1.2,1.3,0,.5,0,1,0,1.4v80.2h0Z"></path><path class="cls-2" d="M325.8,82.6V2.4c0-2.5-.2-2.2,2.3-2.3,1,0,2,0,3,0,.7,0,1,.3,1,1,0,.5,0,1,0,1.4v160.8c0,2.5.3,2.2-2.3,2.3-1,0-2,0-3,0-.7,0-1-.3-1-.9,0-.5,0-1.1,0-1.6v-80.4h0Z"></path><path class="cls-2" d="M294.1,82.7V2.4c0-2.5-.3-2.2,2.3-2.3,1,0,1.9,0,2.8,0,.9,0,1.2.4,1.1,1.2,0,.4,0,.7,0,1.1v161c0,2.5.1,2.1-2.2,2.2-1,0-2,0-3,0-.8,0-1.1-.3-1-1.1,0-.5,0-1.1,0-1.6v-80.2h0Z"></path><path class="cls-2" d="M508.6,83V1.7c0-1.5,0-1.5,1.6-1.6,1.2,0,2.4,0,3.6,0,.9,0,1.2.3,1.1,1.2,0,.4,0,.7,0,1.1v161c0,2.4.2,2.2-2.2,2.2-1,0-2,0-3,0-.8,0-1.1-.3-1-1.1,0-.5,0-1.1,0-1.6v-79.9h0Z"></path><path class="cls-2" d="M541.1,83v80.4c0,2.4,0,2.1-2.1,2.1-1.1,0-2.1,0-3.2,0-.7,0-1-.3-1-.9,0-.4,0-.8,0-1.2V2.4c0-2.4-.2-2.2,2.2-2.2,1.1,0,2.1,0,3.2,0,.6,0,.9.3.9.9,0,.6,0,1.2,0,1.8v80.2h0Z"></path><path class="cls-2" d="M289,83v80.1c0,2.9.2,2.4-2.4,2.5-1,0-1.9,0-2.8,0-.7,0-1-.3-1-.9,0-.4,0-.8,0-1.2V2.4c0-2.4-.2-2.2,2.2-2.2,1,0,2,0,3,0,.8,0,1.1.3,1,1,0,.5,0,1.1,0,1.6v80.2h0Z"></path><path class="cls-2" d="M531.1,83v80.2c0,2.7,0,2.3-2.3,2.3-1,0-2,0-3,0-.7,0-1-.3-1-.9,0-.4,0-.8,0-1.2V2.4c0-2.4-.2-2.2,2.2-2.2,1.1,0,2.1,0,3.2,0,.6,0,.9.3.9.9s0,1.2,0,1.8v80.2h0Z"></path><path class="cls-2" d="M171.2,82.8V2.4c0-2.4-.2-2.2,2.2-2.2,1,0,2,0,3,0,.8,0,1.1.3,1,1,0,.5,0,1,0,1.4v160.5c0,2.9.2,2.4-2.5,2.5-.9,0-1.9,0-2.8,0-.7,0-1-.3-.9-1,0-.5,0-1.1,0-1.6v-80.2h0Z"></path><path class="cls-2" d="M97.4,83v80.2c0,2.6.2,2.3-2.2,2.3-1,0-2,0-3,0-.7,0-1-.3-1-.9,0-.5,0-.9,0-1.4V2.6c0-2.8-.1-2.4,2.4-2.4,1,0,2,0,3,0,.6,0,.9.3.9.9v82h0Z"></path><path class="cls-2" d="M50.1,82.9V2.7c0-2.9-.3-2.5,2.6-2.5.8,0,1.7,0,2.5,0,.9,0,1.2.4,1.1,1.2,0,.4,0,.7,0,1.1v160.9c0,2.5.2,2.2-2.3,2.2-1,0-1.9,0-2.8,0-.8,0-1-.3-1-1.1,0-.5,0-1.1,0-1.6v-80h0Z"></path><path class="cls-2" d="M410.5,82.8v80.4c0,2.6.3,2.3-2.4,2.3-1,0-1.9,0-2.8,0-.7,0-1-.3-1-1V2.6c0-2.8-.1-2.4,2.5-2.4,1,0,1.9,0,2.8,0,.6,0,.9.3.9.9v81.8h0Z"></path><path class="cls-2" d="M251.1,82.6V1.7c0-1.5,0-1.5,1.6-1.5,1.2,0,2.4,0,3.6,0,.8,0,1.1.3,1,1,0,.5,0,.9,0,1.4v160.4c0,2.9.3,2.5-2.6,2.5s-2.5.5-3.3-.2c-.9-.8-.3-2.2-.3-3.4,0-26.4,0-52.9,0-79.3h0Z"></path><path class="cls-2" d="M277.5,82.8v79.8c0,1.9-1,2.9-3,2.9s-1.5,0-2.3,0c-.7,0-1-.3-.9-1,0-.4,0-.8,0-1.2V2.4c0-2.5-.2-2.2,2.3-2.2,1,0,1.9,0,2.8,0,.8,0,1.1.3,1,1.1,0,.5,0,1.1,0,1.6v80h0Z"></path><path class="cls-2" d="M79.4,280.9c-1.3-9-6.8-14.9-15.1-18.2-.6-.2-1.2-.5-2-.7.5-.6,1.1-.8,1.6-1.1,8-5,12.2-12.2,11-21.6-1.1-9.3-6.2-16-15.2-19.2-4.6-1.7-9.4-2.4-14.3-2.4-11.6,0-23.2,0-34.8,0-.5,0-.9,0-1.4,0-.7,0-1,.2-1,.9,0,.4,0,.7,0,1.1v90.5c0,2.1-.3,2.1,2.1,2.1h34.6c4.5,0,8.9-.4,13.2-1.3,5.2-1.1,10.1-3,13.9-7,6.2-6.5,8.5-14.4,7.3-23.2h0ZM20.8,250.9v-20.6c0-1.4,0-1.5,1.5-1.5,7,0,13.9,0,20.9,0,3.4,0,6.8.5,10.2,1.2,3.1.7,5.5,2.4,7.1,5.1,2.5,4.1,2.9,8.5,1.6,13-1.4,4.5-4.7,7.1-9.2,8.3-3.2.8-6.4,1.1-9.7,1.1-6.9,0-13.7,0-20.6,0s-.6,0-.9,0c-.8,0-1-.3-1-1.1,0-1.8,0-3.7,0-5.5h0ZM65.8,290.8c-1.9,5.5-6,8.4-11.5,9.7-2,.5-4.1.7-6.2.7-8.6,0-17.3,0-25.9,0s-1.5,0-1.5-1.5c0-5,0-9.9,0-14.9v-14.4c0-1.9,0-1.9,1.8-1.9,7.5,0,14.9,0,22.3,0s6.8.5,10.2,1.2c5.7,1.2,11.1,5.8,11.7,14,.2,2.4-.2,4.7-1,7h0Z"></path><path class="cls-2" d="M185.4,245.7c-3.9-11.5-11.1-20.1-22.1-25.3-10.1-4.7-20.7-5.7-31.5-3.1-13,3.1-22.2,11-28.3,22.8-7.5,14.5-7.1,35.9.2,50.1,4.6,9,11.4,15.8,20.7,19.9,11.8,5.2,23.8,5.3,35.8.9,11.6-4.2,19.7-12.2,24.3-23.6,2.9-7.1,4.2-14.5,4.2-22.2,0-6.7-1-13.2-3.1-19.5h0ZM169,289.9c-4.2,6.4-10,10.5-17.4,12.4-8.8,2.2-17.3,1.2-25.1-3.6-6.4-3.9-10.4-9.7-13.1-16.5-1.8-4.4-2.6-9.1-2.6-13.9,0-2.5-.1-5,0-7.5.3-9.2,3.4-17.4,9.4-24.4,3.5-4.1,8.1-6.7,13.3-8.2,11.1-3.1,21.3-1.6,30.4,5.9,3.9,3.2,6.6,7.2,8.4,11.9,2.2,5.6,3.4,11.4,3.4,17.5v2.1c.4,8.8-1.8,16.9-6.6,24.2h0Z"></path><path class="cls-2" d="M547.9,245.7c-3.9-11.4-11-20-22-25.2-10.2-4.8-20.9-5.7-31.9-3.1-8.4,1.9-15.7,6.1-21.3,12.7-8.5,9.9-12.4,21.5-12.2,34.5v2.8c0,6.1,1.2,12,3.3,17.7,4.8,13.1,13.7,22.2,27,26.7,10.7,3.6,21.4,3.1,32-.8,11.1-4.2,19.1-11.8,23.7-22.8,2.5-5.8,3.9-11.9,4.3-18.2.6-8.2-.3-16.3-3-24.1h0ZM536.5,279.3c-1.6,6-4.6,11.4-9.2,15.8-5.7,5.4-12.6,8-20.4,8.2-8.9.2-16.7-2.5-23-8.7-4.4-4.4-7.3-9.7-9-15.7-1-3.5-1.5-7.2-1.4-10.9,0-1.1,0-2.1,0-3.2-.5-8.3,1.4-15.9,5.5-23.1,3.7-6.4,9-10.8,16-13,12.4-3.9,23.6-2,33.2,7.2,2.4,2.3,4.3,4.9,5.6,7.9,5.1,11.5,6.1,23.4,2.8,35.5h0Z"></path></g></g><g><g><path class="cls-1" d="M1529.6,213.5c-1.8,2.6-4.3,3.1-7.3,3.1-6.5-.2-12.9.2-19.4-.2-12.2-.8-22.8-5.2-31.5-13.7-17.9-17.7-35.6-35.5-53.4-53.3-3.6-3.6-7.7-5.2-12.7-3.9-2.5.6-4.4,2.1-6.2,3.9-17.4,17.4-34.8,34.7-52.1,52.1-8,8-17.4,12.9-28.6,14.7-2.3.4-4.7.6-7.1.5-7.5,0-15,0-22.5,0-3.8,0-6.2-2.1-6.2-5.5,0-3.3,2.4-5.6,6.1-5.6,7.3,0,14.7,0,22,0,10.9,0,20.2-3.9,27.9-11.5,17.6-17.5,35.2-35.1,52.8-52.7,5-5,10.9-7.6,18-7.4,6.4.2,11.7,2.8,16.2,7.3,17.4,17.4,34.9,34.8,52.3,52.2,6.4,6.4,13.9,10.4,22.9,11.6,3.8.5,7.6.5,11.4.4,3.5,0,7.1.1,10.6,0,2.8-.1,5.2.5,7,2.9v5.2h0Z"></path><path class="cls-1" d="M1529.6,55.7c-1.7,2.4-4,3.2-6.9,3.1-5.6-.1-11.2,0-16.8,0-10.9,0-20.2,4-27.8,11.6-17.5,17.4-35,34.9-52.4,52.3-3.7,3.7-8,6.3-13.2,7.1-7.5,1.2-14.2-.7-19.8-5.9-2.1-1.9-4-4-6-6-15.7-15.7-31.4-31.4-47.1-47.1-6.3-6.3-13.7-10.5-22.6-11.9-2.1-.3-4.1-.5-6.2-.5-7.3,0-14.7,0-22,0-3.8,0-6.2-2.1-6.2-5.5,0-3.3,2.4-5.6,6.1-5.6,7.1,0,14.2,0,21.3,0,14.4,0,26.7,5.1,36.9,15.2,17.5,17.5,34.9,34.9,52.4,52.4,2.4,2.4,5.2,3.9,8.7,4.1,3.9.1,7-1.4,9.7-4.1,17.2-17.2,34.4-34.3,51.5-51.5,8.7-8.8,19.1-14.2,31.4-15.6,1.9-.2,3.8-.2,5.7-.2,5.7,0,11.3,0,17,0,2.8,0,4.8.8,6.2,3.2v4.8h0Z"></path><path class="cls-1" d="M702.5,102.8c4.4,0,8.9-.1,13.3.6,6.5,1,12,3.9,16.7,8.5,14.3,14.3,28.7,28.6,43,42.9,4.3,4.4,9.4,7,15.6,7.1,6,0,11.1-2,15.3-6.2,14.3-14.3,28.7-28.6,43-42.9,6.5-6.5,14.2-9.8,23.4-9.7,5.3,0,10.6.3,15.9-.2.8,0,1.2.4,1.6.8,11.2,11.2,22.5,22.2,33.5,33.6,16.6,17.3,16.3,44.5-.5,61.6-10.9,11.1-21.9,21.9-32.9,32.9-.7.7-1.4.9-2.4.8-5.3-.1-10.6,0-15.9-.1-7,0-13.4-2.1-19-6.4-1.2-1-2.3-2.1-3.5-3.1-14.2-14.2-28.4-28.4-42.6-42.6-7.5-7.4-18.5-8.7-27.2-3.3-1.5.9-2.8,2.1-4,3.3-14.1,14.1-28.2,28.1-42.2,42.2-6.7,6.8-14.6,10.2-24.2,10-5.5-.1-11.1-.3-16.6,0-2.5.2-3.9-.7-5.5-2.3-10.6-10.7-21.4-21.3-32-32.1-15.6-15.9-16.3-42.2-1.8-59,1-1.1,2-2.2,3-3.3,10.7-10.7,21.4-21.4,32.1-32.1.8-.8,1.6-1.1,2.9-1.1,3.7.2,7.4,0,11.1,0h0Z"></path><path class="cls-1" d="M702.9,90c.3-.9.8-1.3,1.2-1.7,17.8-17.8,35.6-35.6,53.4-53.3,9.2-9.1,20.2-13.8,33.2-13.5,11.5.3,21.6,4.4,29.8,12.5,18.4,18.2,36.6,36.5,54.9,54.8.3.3,1,.7.8,1.2-.2.6-.9.3-1.4.3-5.3-.1-10.6.2-15.8,1.8-7.1,2.2-13.2,6-18.4,11.3-14.2,14.2-28.3,28.3-42.5,42.4-4.5,4.5-8.9,4.4-13.4,0-14.2-14.2-28.5-28.4-42.7-42.7-6.8-6.8-15-11.1-24.5-12.6-4.1-.6-8.2-.5-12.3-.5h-2.2,0Z"></path><path class="cls-1" d="M876.1,245.6c-.3.8-.8,1.2-1.3,1.6-17.8,17.8-35.7,35.6-53.5,53.5-8.5,8.5-18.7,13.1-30.6,13.4-11.8.3-22.6-3.3-31.1-11.6-18.8-18.4-37.3-37.1-55.9-55.7-.3-.3-.9-.6-.6-1.1.2-.4.8-.2,1.3-.2,4.9-.1,9.8.2,14.7-.7,8.6-1.7,16.1-5.6,22.3-11.8,14.4-14.4,28.8-28.8,43.2-43.2,4.4-4.4,9-4.4,13.4,0,14,13.9,28,27.8,41.8,41.9,9.2,9.3,20.2,13.9,33.2,13.7,1,0,1.9-.2,3,.2h0Z"></path><path class="cls-1" d="M1002.5,201.3c0-30.1-.3-60.1,0-90.1.2-18.9,8.1-34.7,22.2-47.3,10.6-9.4,23-14.6,37-16,2.3-.2,4.6-.2,6.9-.2,17.5,0,35,0,52.5,0,32.5.1,59.5,23.3,64.7,55.4.6,3.5.8,7.1.8,10.7,0,12.3,0,24.6,0,36.8,0,18.2-6.3,34-19.1,47-11,11.1-24.4,17.4-40,19-2.2.2-4.5.3-6.7.3-24.8,0-49.5,0-74.3,0-1.5,0-2.9-.2-4.1-1.1-1.7-1.3-2.6-3.6-2.1-5.7.6-2.4,2.4-4,4.9-4.3.7,0,1.5,0,2.2,0,24.7,0,49.3.1,73.9,0,25.5-.2,47-17.6,52.7-42.4.9-4,1.4-8.1,1.4-12.2,0-12.6,0-25.3,0-37.9-.1-27.5-19.6-50-46.8-54.1-1.8-.3-3.6-.5-5.3-.5-18.9,0-37.8-.2-56.6,0-27.4.2-50.4,21.7-53,48.9-.2,2.5-.3,4.9-.3,7.4v176.5c0,1.1,0,2.3-.3,3.4-.9,2.5-3.3,4.1-5.9,3.8-2.7-.4-4.6-2.4-4.8-5.1,0-.8,0-1.5,0-2.2v-90.1h0,0Z"></path><path class="cls-1" d="M1249.4,144.5v66.1c0,1.1,0,2.2-.3,3.3-.7,2.5-3.2,4.3-5.8,4-2.8-.2-4.8-2.4-5-5.1,0-.9,0-1.7,0-2.6V79c0-5.7-1.6-10.7-5.7-14.7-3.6-3.6-7.9-5.5-13-5.5-7.2,0-14.3,0-21.5,0-1,0-2.1,0-3.1-.2-2.7-.5-4.4-2.7-4.4-5.4s1.8-4.9,4.4-5.4c.2,0,.3,0,.5,0,9.4-.1,18.9-1,28.2.4,15.3,2.2,25.7,14.7,25.7,30.1,0,22.1,0,44.2,0,66.3h0Z"></path><path class="cls-1" d="M1260.6,17.1c0,1.8-.6,3.4-1.8,4.7-3.5,3.5-7,7-10.5,10.5-2.8,2.7-6.6,2.7-9.3,0-3.5-3.5-7.1-7-10.5-10.5-2.6-2.6-2.6-6.6,0-9.2,3.5-3.6,7-7.1,10.6-10.6,2.7-2.6,6.5-2.6,9.2,0,3.6,3.5,7.1,7.1,10.7,10.6,1.2,1.2,1.8,2.8,1.8,4.5h0Z"></path><path class="cls-1" d="M1409.2,270.6c1.8,0,3.6,0,5.3.3,1.8.2,1,1.6,1.2,2.6.2,1.1-.6,1.4-1.5,1.3-2.9-.2-5.9-.5-8.8,0-2.5.5-4.6,1.5-5.3,4.1-.8,3-.9,6,1.3,8.5,1.1,1.2,2.6,1.6,4.2,1.7,3,.1,5.9-.3,8.8-.8.6-.1,1.6-.5,1.6.6,0,1,.8,2.6-.8,3-4.8,1.1-9.6,2.1-14.5.5-1.1-.3-2.1-.8-2.8-1.6-3.3-3.3-3.7-7.4-2.9-11.7.7-3.9,3.1-6.5,7-7.6,2.4-.7,4.8-.8,7.2-.7h0Z"></path><path class="cls-1" d="M1316.7,284.5v-5.5c0-2.2,1.6-3.2,3.4-2,.8.5,1.4.5,2.2.3,2.3-.5,4.6-1,7-1,4.7,0,6.8,2.2,6.8,6.8,0,2.6,0,5.2,0,7.8,0,1.8-1,1.7-2.2,1.7-1.2,0-2.1-.1-2.1-1.7,0-2.2,0-4.5,0-6.7-.1-3.1-1.2-4.1-4.3-4.1-6.1,0-6.4.2-6.4,6.2s0,3.2,0,4.8c0,1.1-.4,1.5-1.5,1.6-2.9.1-3,.1-3-2.9v-5.2h0Z"></path><path class="cls-1" d="M1443.7,284.5v-5.7c0-2,1.6-3,3.2-1.9.9.7,1.7.5,2.5.3,2.8-.6,5.6-1.3,8.6-.8,3.1.6,4.8,2.2,5,5.3.2,3.2,0,6.3,0,9.5,0,.9-.4,1.2-1.3,1.3-2.9.3-3.2,0-3.2-2.8s0-3.8,0-5.7c0-2.9-1.2-4-4.2-4-1.6,0-3.2.3-4.8.5-1.2.2-1.8.8-1.7,2.1,0,2.7,0,5.4,0,8.1,0,1.7-.8,1.8-2.2,1.8s-2.3,0-2.2-1.8c.1-2.1,0-4.1,0-6.2h0Z"></path><path class="cls-1" d="M1471.8,272c1.6-.3,2,.5,2,1.9,0,2.7,0,2.7,2.8,2.7.5,0,1,0,1.6,0,1.2,0,1.9.3,1.9,1.7,0,1.5-.7,1.7-1.9,1.7-4.4,0-4.4,0-4.4,4.4v1c0,3.5,1.2,4.5,4.8,4.1.8,0,1.7-.4,1.8.9,0,1.1.1,2.1-1.4,2.3-.8,0-1.5.2-2.2.3-4.4.5-7-1.6-7.3-6-.1-1.8,0-3.6,0-5.4,0-1.2-.4-1.8-1.6-1.6-1.2.1-1.6-.4-1.6-1.6,0-1.1.2-1.9,1.5-1.7,2.1.2,1.9-1.5,2-2.7,0-1.6.7-2.2,2.2-2h0Z"></path><path class="cls-1" d="M1350.8,276.2c1.2.1,2.4.3,3.6.3,1.8,0,1.7,1.1,1.7,2.3,0,1.6-1.1,1.1-2,1.1-2-.2-4-.3-6,.2-2.2.6-3.3,2.2-3.3,4.9,0,2.8,1.1,4.1,3.5,4.5,2.2.4,4.2-.1,6.4-.4.6,0,1.7-.6,1.7.7,0,.9.5,2.2-1.1,2.5-3,.5-6,1.1-9.1.6-3.1-.5-5.1-2.4-5.7-5.5-1.5-7.2,2.2-11.1,10.3-11.1h0Z"></path><path class="cls-1" d="M1096.3,289.7c1.5-3.3,2.9-6.5,4.4-9.8.3-.6.6-1.3.8-1.9.3-.7.5-1.4,1.5-1.4.9,0,1.1.7,1.4,1.4,1.6,3.5,3.2,6.9,4.7,10.4.2.4.4.8.7,1.3.7-.4.8-1.1,1-1.6,1.3-3.3,2.6-6.5,3.9-9.8.2-.5.4-1,.7-1.4s.8-.4,1.3-.2c.5.2.3.7.1,1-1.9,4.6-3.8,9.2-5.7,13.7-.2.6-.6.9-1.3.9s-1.1-.5-1.4-1.1c-1.6-3.3-3.1-6.7-4.7-10-.2-.5-.3-1.4-.9-1.4s-.8.9-1,1.4c-1.5,3.2-3,6.5-4.5,9.7-.3.6-.5,1.3-1.4,1.3-1,0-1.2-.7-1.5-1.4-1.8-4.3-3.5-8.5-5.3-12.8-.2-.5-.9-1.2,0-1.6.9-.3,1.4.2,1.7,1,1.4,3.4,2.8,6.8,4.2,10.2.2.6.3,1.2,1.1,1.7h0Z"></path><path class="cls-1" d="M1484.3,284.6v-5.7c0-2.2,1.6-3.2,3.4-2,.8.5,1.4.5,2.2.3,1.7-.5,3.4-.7,5.1-1,1.3-.2,1.6.5,1.6,1.6,0,1,.2,2.2-1.4,2.1-1.6,0-3.1.2-4.6.5-1.3.2-1.9.8-1.8,2.2,0,2.7,0,5.4,0,8.1,0,1.9-1.1,1.7-2.4,1.8-1.3,0-2.2-.2-2.1-1.8,0-2,0-4,0-6h0Z"></path><path class="cls-1" d="M1523,281.2c0-3.2,0-6.3,0-9.5,0-1.7.9-1.8,2.2-1.8,1.3,0,2.2,0,2.2,1.8,0,6.3,0,12.7,0,19,0,1.7-.9,1.8-2.2,1.8s-2.2-.1-2.2-1.8c0-3.2,0-6.3,0-9.5h0Z"></path><path class="cls-1" d="M1235.8,298.7c-.6-.3-2.1.6-2.1-.9,0-1.4,1.4-.7,2.2-.8,2.6-.1,4.3-1.3,5.2-3.8.3-.8,0-1.5-.4-2.1-2.2-4.2-4.4-8.5-6.6-12.7-.3-.5-1.2-1.2-.2-1.7.8-.4,1.5,0,1.9.9,1.9,3.8,3.9,7.5,5.8,11.2.2.4.5,1,.8,1.1.6,0,.7-.7.9-1.1,1.8-3.5,3.5-7,5.2-10.5.2-.5.4-1,.8-1.3.4-.4,1-.5,1.4-.2.6.3.2.8,0,1.2-3,5.9-5.9,11.7-8.9,17.6-1.2,2.3-3.2,3.4-6.1,3.2h0Z"></path><path class="cls-1" d="M1143.5,284.5c0-2.1,0-4.1,0-6.2,0-1.7.3-1.9,1.7-1.1.6.4,1.1,0,1.6,0,1.7-.3,3.4-.7,5.1-1,.6-.1,1.4-.1,1.4.8,0,.8-.6.9-1.2.9-1.7.2-3.4.5-5.1.9-1.2.3-1.6.8-1.6,2,0,3.3,0,6.5,0,9.8,0,.8.2,1.8-1.1,1.7-1.1,0-.9-1-.9-1.7,0-2.1,0-4.1,0-6.2h0Z"></path><path class="cls-1" d="M1287.6,286.4c0-1.9-.9-3.3-2.6-4.2-.4-.2-1-.3-1.4-.8,1.3-1,2.6-2,2.8-3.9.4-3.4-1.4-5.6-5.2-6.2-4.6-.7-9.3-.2-14-.4-1.2,0-1.2.8-1.2,1.6,0,6,0,12.1,0,18.1,0,1.2.4,1.8,1.7,1.7,4.3,0,8.5,0,12.8-.1,1.7,0,3.3-.5,4.8-1.3,1.8-1,2.4-2.7,2.3-4.7h0ZM1270.9,275.4c.2-.6.5-.9,1.1-.9,2.5,0,4.9-.2,7.4.2,1.5.3,2.4,1.1,2.3,2.7,0,1.6-1.1,2.2-2.4,2.4-1.3.2-2.6.2-3.9.2h0c-.3,0-.6,0-.9,0-3.6,0-4.4-1.1-3.5-4.7h0ZM1280.4,288.8c-1.5.2-3,.2-4.5.3h0c-.5,0-1.1,0-1.6,0-1.1-.1-2.6.6-3.2-.5-.7-1.2-.3-2.8-.2-4.2,0-.6.5-.7,1-.7,2.8,0,5.7-.2,8.5.3,1.4.2,2.3.9,2.4,2.5,0,1.7-.9,2.4-2.4,2.6h0Z"></path><path class="cls-1" d="M1311,286.8c0-1.4,0-2.9,0-4.3-.2-3.7-1.8-5.4-5.5-6-3.3-.5-6.6-.2-9.8,0-1.2,0-1.1.9-1.1,1.7,0,.9.2,1.4,1.3,1.4,2,0,4,0,6.1,0,1.1,0,2.2,0,3.2.6.9.5,1.6,1.2,1.4,2.2-.2,1.1-1.3.6-2,.6-2.8-.3-5.5-.3-8.3.3-2.7.6-4.1,2.4-4,4.9,0,2.5,1.6,4.1,4.3,4.6,3,.6,6-.2,8.9-.7.8-.2,1.6-.2,2.4.2,2.1,1,3.2.1,3.2-2.2v-3.3h0,0ZM1305,289.3c-1.9.2-3.8.8-5.8.6-1.2-.1-2.7-.3-2.7-2.1,0-1.6,1.3-1.8,2.5-2,1.3-.2,2.5-.2,3.8,0h1.9c.9.1,1.9,0,1.9,1.4,0,1.2-.2,2-1.6,2.1Z"></path><path class="cls-1" d="M1374,276.7c-1.5-.3-3-.5-4.5-.5-1.8,0-3.6.1-5.3.7-3.6,1.1-5.4,3.7-5.3,7.9,0,4.1,1.8,6.7,5.5,7.6,3.3.9,6.6.9,9.9.1,4.2-1,5.8-3.5,5.7-8.4,0-4.2-2-6.6-6-7.5h0ZM1375.5,285.9c0,.5-.2,1-.4,1.5-1.2,2.3-6.5,3.1-9.5,1.5-2.1-1.2-2.8-5.1-1.3-7.3,1.3-2,3.4-1.9,5-2,4.9,0,6.8,2.1,6.2,6.3h0Z"></path><path class="cls-1" d="M1517.2,286.5c0-1.2,0-2.4,0-3.6,0-4-1.8-5.8-5.8-6.4-3.1-.4-6.1-.2-9.1,0-1.3,0-1.4.8-1.4,1.8s.5,1.4,1.5,1.4c2,0,4,0,6.1,0s2.1.2,3,.7c.8.5,1.4,1.2,1.2,2.1-.2,1.1-1.2.7-1.9.6-2.8-.3-5.5-.3-8.3.3-2.7.6-4.1,2.4-4,5,0,2.5,1.6,4,4.3,4.5,2.9.5,5.7-.1,8.6-.7.9-.2,1.8-.4,2.8.2,2,1,3.1,0,3.1-2.2v-3.6h0ZM1511.8,289.2c-2.1.5-4.3.9-6.5.7-1.2-.1-2.5-.5-2.6-2,0-1.6,1.2-1.9,2.5-2.1.7-.1,1.5-.2,1.8-.2,1.8.1,3.1.2,4.4.2.8,0,1.3.3,1.3,1.2,0,.8.3,1.9-.9,2.1h0Z"></path><path class="cls-1" d="M1425.4,285.6c2,0,4,0,6.1,0h0c2,0,4,0,6.1,0s1.4-.1,1.4-1.1c0-3.3-1-6.4-4.8-7.5-3.2-1-6.5-1-9.7,0-3.6,1.1-5.5,4.5-5.1,8.6.5,4.5,2.6,6.8,6.7,7.3,3.5.5,7-.2,10.5-.5,1.6-.2,1.9-1,1.7-2.3-.2-1.6-1.4-.8-2.2-.8-3,.2-5.9.8-8.9.2-1.2-.2-2.2-.8-2.7-1.9-.6-1.2-.3-1.9,1.1-1.9h0ZM1424.4,281c.5-.8,1.2-1.3,2-1.5,1.9-.6,3.8-.6,5.8,0,.6.2,1.2.5,1.6,1,.4.5.8,1.1.5,1.7-.3.7-1,.5-1.5.5-1.2,0-2.4,0-3.6,0-1.3,0-2.5,0-3.8,0-1.3,0-1.6-.6-.9-1.7h0Z"></path><path class="cls-1" d="M1195.4,281.4v-10c0-.6,0-1.4-.9-1.3-.8,0-.8.7-.8,1.3,0,1.5,0,3,0,4.5,0,1.1-.4,1.4-1.5,1.1-1.9-.5-3.8-.8-5.8-.7-7.2.4-10.5,4.5-9,11.3.7,3,2.6,4.8,5.7,5.3,3.1.5,6.1-.3,9.1-.8.6-.1,1.1-.4,1.7,0,1.5,1,1.6,0,1.6-1.1,0-3.2,0-6.3,0-9.5h0ZM1193.7,284.5h0c0,1.4,0,2.9,0,4.3,0,.8-.3,1.3-1.1,1.5-2.9.6-5.8,1.2-8.7.8-2.2-.3-3.8-1.5-4.3-3.6-1.2-5.1.2-9,6.2-9.5,2.2-.2,4.4.1,6.5.6,1.1.2,1.5.8,1.5,1.9,0,1.3,0,2.6,0,4h0Z"></path><path class="cls-1" d="M1229.7,279.3c-1.8-3-5-3.3-8.1-3-1.8.2-3.7.5-5.4.9-1.2.2-1.7,0-1.7-1.3,0-1.4,0-2.9,0-4.3,0-.6.2-1.5-.8-1.6-1.1,0-.9.9-.9,1.5,0,3.2,0,6.5,0,9.7s0,6.5,0,9.7c0,.6-.2,1.7.9,1.4.9-.3,1.7,0,2.5.1,2.7.6,5.4.8,8.1.3,2.3-.4,4.4-1.2,5.6-3.4,1.8-3.3,1.8-6.8,0-10h0ZM1222.7,291.2c-2.3.2-4.6,0-6.8-.6-1-.2-1.5-.8-1.4-1.8,0-1.4,0-2.8,0-4.1v-2.8c0-2.7,0-2.8,2.7-3.2,2.4-.4,4.8-1,7.3-.5,2.2.4,3.7,1.7,4.1,3.9,1,4.9-.3,8.7-6,9.2h0Z"></path><path class="cls-1" d="M1060.9,279.5c-1.7-3.1-4.8-3.5-8-3.2-2,.2-4,.6-6,1-.6,0-1.1.3-1.6-.1-1.3-1-1.6-.2-1.6,1v18.8c0,.6,0,1.4.9,1.3.8,0,.8-.7.8-1.2,0-1,0-2.1,0-3.1,0-1.3.3-1.9,1.8-1.5,1.3.4,2.6.6,3.9.6,3.6,0,7.2,0,9.5-3.4,2.1-3.2,2-6.8.2-10h0ZM1053.6,291.3c-2.3.2-4.5-.1-6.7-.6-1-.2-1.5-.7-1.4-1.8,0-1.4,0-2.8,0-4.1s0-2.5,0-3.8c0-1.3.5-1.9,1.7-2,2.8-.5,5.5-1.2,8.4-.7,2.4.4,3.9,1.8,4.2,4.2.8,4.8-.2,8.4-6.2,8.9h0Z"></path><path class="cls-1" d="M1158.4,285.1c2.2,0,4.5,0,6.7,0h0c2.2,0,4.5,0,6.7,0,.9,0,1.3-.4,1.3-1.3.1-3.5-1.8-6.2-5.1-7.1-2-.5-4-.7-6-.4-4.8.8-7.3,3.8-7.1,8.6.1,4.4,2.3,7.2,6.1,7.8,3.4.5,6.8,0,10.1-.5.6-.1,1.4-.2,1.2-1.1-.2-1.1-1-.5-1.5-.5-3.1.4-6.2,1-9.3.4-2.6-.5-4.1-1.9-4.6-4.3-.2-1.1.1-1.6,1.3-1.6h0ZM1157.3,282.2c.4-1.9,1.6-3.2,3.4-3.8,2.4-.8,4.8-.7,7.2,0,1.6.5,2.7,1.5,3.1,3.2.3,1.2.1,1.9-1.3,1.9-1.8,0-3.7,0-5.5,0s-3.9,0-5.9,0c-.9,0-1.2-.4-1-1.3h0Z"></path><path class="cls-1" d="M1123.4,285.1c2.2,0,4.5,0,6.8,0h0c2.2,0,4.5,0,6.8,0,.8,0,1.4-.2,1.3-1.1-.2-3.5-1.2-6-4.6-7.1-2.8-.9-5.6-.9-8.3-.1-2.6.7-4.1,2.4-4.8,5-.6,2-.6,4.1,0,6.1.8,2.8,2.7,4.5,5.7,4.9,3.4.5,6.8,0,10.1-.5.6-.1,1.4-.2,1.2-1.1-.2-1-1-.5-1.5-.5-3.1.4-6.2,1-9.3.4-2.6-.5-4.1-1.9-4.5-4.3-.2-1.1.1-1.6,1.3-1.6h0ZM1122.3,281.9c.7-2.5,2.8-3.9,6.2-4,4.2-.2,6.6.9,7.4,3.4.6,1.7.3,2.1-1.4,2.1-1.8,0-3.7,0-5.5,0s-3.7,0-5.5,0c-1.2,0-1.3-.5-1.1-1.5h0Z"></path><path class="cls-1" d="M1077.7,276.3c-.6,0-1.2,0-1.6-.1-1.7,0-3.3.2-4.8.6-2.9.8-4.6,2.6-5.2,5.6-.3,1.6-.3,3.2,0,4.8.5,2.5,1.9,4.2,4.3,5,3.5,1.2,7,1.2,10.5,0,2.5-.8,4-2.6,4.5-5.2,1.2-6.4-1.4-10-7.8-10.8h0ZM1083.4,287.7c-.6,1.8-2,2.8-3.8,3.2-2.4.6-4.8.6-7.2,0-3.2-.8-4.6-3-4.5-7,.1-3.3,1.6-5.1,4.8-5.7,1-.2,1.9-.2,2.9-.4h0c.5.1,1,0,1.6.1,5.4.5,7.9,4.6,6.1,9.7h0Z"></path></g><g><path class="cls-1" d="M62.5,82.8V1.7c0-1.5,0-1.5,1.6-1.5h19.3c1.4,0,1.4,0,1.5,1.5v161.4c0,2.9.3,2.5-2.6,2.5-5.9,0-11.8,0-17.8,0s-.8,0-1.2,0c-.6,0-.8-.3-.8-.9v-81.8h0Z"></path><path class="cls-1" d="M439.6,83v80.3c0,2.6.2,2.3-2.3,2.3-5,0-9.9,0-14.9,0-1.5,0-1.5,0-1.5-1.5,0-.4,0-.8,0-1.2V2.9c0-3.2-.3-2.7,2.7-2.7,4.7,0,9.4,0,14,0,2,0,2-.2,2,1.9v81h0Z"></path><path class="cls-1" d="M476.2,82.9v80.4c0,2.4.2,2.2-2.2,2.2-5,0-9.9,0-14.9,0s-1.5,0-1.6-1.6V3c0-3.3-.3-2.8,2.8-2.8,4.7,0,9.5,0,14.2,0,1.6,0,1.6,0,1.6,1.7v81.1h0Z"></path><path class="cls-1" d="M288.3,265.2v-45.3c0-2.5-.1-2.2,2.2-2.2h63.9c2.5,0,2.2-.3,2.2,2.3,0,2.5,0,5,0,7.4,0,1.3,0,1.3-1.4,1.4-.5,0-1,0-1.4,0h-51.5c-1.5,0-1.5,0-1.6,1.6v25.7c0,1.7,0,1.7,1.8,1.7h41.2c2.7,0,5.3,0,8,0,1.3,0,1.3,0,1.3,1.3,0,2.8,0,5.7,0,8.5,0,1.2,0,1.2-1.3,1.3-.5,0-1,0-1.4,0h-47.4c-2.4,0-2.2-.2-2.2,2.2v27.9c0,.4,0,.8,0,1.2,0,.7.3,1,1,.9.5,0,1,0,1.4,0h54c1.7,0,1.7,0,1.8,1.8,0,2.7,0,5.4,0,8.2,0,.9-.3,1.3-1.2,1.2-.4,0-.8,0-1.2,0h-66.4c-1.7,0-1.8,0-1.8-1.8v-45.4h0Z"></path><path class="cls-1" d="M120.6,82.8V2.9c0-.5,0-1,0-1.4,0-1.3,0-1.4,1.4-1.4,4.9,0,9.8,0,14.7,0,1.2,0,1.2,0,1.3,1.3,0,.5,0,.9,0,1.4v160c0,1.8-.9,2.7-2.8,2.7h-13c-1.7,0-1.7,0-1.8-1.8v-80.9h0Z"></path><path class="cls-1" d="M359.8,82.8v80.4c0,2.6.2,2.3-2.2,2.3-4.6,0-9.1,0-13.7,0-1.5,0-1.5,0-1.5-1.5V2.7c0-2.9-.4-2.6,2.5-2.6,4.5,0,9,0,13.5,0,1.4,0,1.4,0,1.4,1.4,0,.5,0,.9,0,1.4v79.9h0Z"></path><path class="cls-1" d="M365.1,82.9V2.5c0-2.5-.3-2.3,2.2-2.3,3.4,0,6.7,0,10.1,0,1.3,0,1.3,0,1.4,1.4v161.5c0,2.8.3,2.5-2.4,2.5-3.3,0-6.6,0-9.9,0-1.3,0-1.3,0-1.4-1.4,0-.5,0-.9,0-1.4v-79.9h0Z"></path><path class="cls-1" d="M102.8,82.8V2.9c0-.5,0-1,0-1.4,0-1.3,0-1.4,1.4-1.4,2.8,0,5.7,0,8.5,0,1.2,0,1.2,0,1.3,1.3,0,.4,0,.8,0,1.2v160.3c0,2.9.4,2.5-2.6,2.5-2.5,0-5,0-7.5,0-.9,0-1.3-.4-1.2-1.2,0-.5,0-1.1,0-1.6v-79.9h0Z"></path><path class="cls-1" d="M234.4,82.8v80.4c0,2.6.3,2.3-2.3,2.3-2.5,0-5.1,0-7.6,0-1.3,0-1.3,0-1.3-1.3,0-.4,0-.8,0-1.2V2.7c0-3-.3-2.5,2.5-2.6,2.5,0,5,0,7.5,0,.9,0,1.3.3,1.2,1.2,0,.5,0,1,0,1.4v80.1h0Z"></path><path class="cls-1" d="M28.9,82.8V2.1c0-2.1,0-1.9,1.9-1.9s5.3,0,8,0c1.2,0,1.2,0,1.3,1.3,0,.5,0,.9,0,1.4v159.9c0,1.8-.9,2.7-2.7,2.7s-4.8,0-7.3,0c-.9,0-1.3-.4-1.2-1.2,0-.5,0-.9,0-1.4v-80.1h0Z"></path><path class="cls-1" d="M417.6,270.7v39.8q0,1.9-1.9,1.9c-3.1,0-6.1,0-9.2,0-1.3,0-1.3,0-1.3-1.3,0-.5,0-1,0-1.4v-78.5c0-2.4.3-2.3-2.3-2.3h-26.5c-.5,0-1,0-1.4,0-.7,0-1.1-.2-1.1-1,0-3,0-6,0-9.1,0-.7.2-1.1,1-1.1.4,0,.8,0,1.2,0h70.5c2.5,0,2.2-.3,2.2,2.3,0,2.5,0,5,0,7.5,0,1.3,0,1.4-1.4,1.4-5.7,0-11.5,0-17.2,0h-11c-1.6,0-1.7,0-1.7,1.7v40.1h0Z"></path><path class="cls-1" d="M400.4,82.8v80.2c0,2.9.2,2.5-2.4,2.5-2.5,0-5,0-7.5,0-1.2,0-1.2,0-1.3-1.3,0-.4,0-.8,0-1.2V2.8c0-3-.4-2.6,2.7-2.6,2.4,0,4.9,0,7.3,0,.9,0,1.3.3,1.2,1.2,0,.5,0,1.1,0,1.6v79.9h0Z"></path><path class="cls-1" d="M192.6,82.8v80.6c0,2.4.2,2.2-2.2,2.2-2.5,0-5.1,0-7.6,0-1.3,0-1.3,0-1.3-1.3,0-.5,0-.9,0-1.4V2.8c0-3.1-.3-2.6,2.6-2.6,2.4,0,4.9,0,7.3,0,.9,0,1.3.3,1.2,1.2,0,.5,0,1,0,1.4v80h0Z"></path><path class="cls-1" d="M154.8,82.7V2.1c0-1.3.6-1.9,1.9-1.9,2.7,0,5.3,0,8,0,.9,0,1.3.3,1.2,1.2,0,.5,0,.9,0,1.4v160.3c0,2.9.3,2.5-2.5,2.5-2.5,0-5,0-7.4,0-.8,0-1.2-.2-1.2-1.1,0-.5,0-1.1,0-1.6v-80.2h0Z"></path><path class="cls-1" d="M209.1,265v-45.1c0-2.5-.1-2.1,2.2-2.2,3,0,6,0,9.1,0,.9,0,1.3.2,1.2,1.2,0,.5,0,.9,0,1.4v78.4c0,2.8-.3,2.4,2.5,2.4,13.9,0,27.8,0,41.7,0s1,0,1.4,0c.7,0,1,.3,1,.9,0,3.1,0,6.1,0,9.2,0,.6-.2,1-.9,1h-56.4c-1.7,0-1.7,0-1.7-1.8v-45.6h0Z"></path><path class="cls-1" d="M6.4,83.1v80.2c0,2.5.3,2.3-2.3,2.3-1.3,0-2.9.6-3.7-.3-.8-.8-.3-2.4-.3-3.6,0-53,0-106,0-159C.2-.2-.2.2,2.6.2c1.2,0,2.7-.5,3.6.3.8.8.2,2.3.2,3.4,0,26.4,0,52.8,0,79.2h0Z"></path><path class="cls-1" d="M12.6,82.8V2.4C12.6-.1,12.4.2,14.9.2c1,0,2,0,3,0,.7,0,1,.3.9,1,0,.4,0,.8,0,1.2v161c0,2.4.2,2.2-2.2,2.2-1,0-2,0-3,0-.8,0-1.1-.3-1-1.1,0-.5,0-1.1,0-1.6,0-26.7,0-53.4,0-80.1Z"></path><path class="cls-1" d="M492.5,82.8v80.4c0,2.6.3,2.3-2.4,2.4h-3c-.6,0-.9-.2-.9-.9V2.3c0-2.4-.2-2.2,2.2-2.2,1.1,0,2.1,0,3.2,0,.6,0,.9.2.9.9v81.8h0Z"></path><path class="cls-1" d="M261.1,82.8V2.9c0-.5,0-1,0-1.4,0-1.3,0-1.4,1.4-1.4,1.2,0,2.5,0,3.7,0,.9,0,1.2.3,1.1,1.2,0,.4,0,.7,0,1.1v161c0,2.4.2,2.2-2.2,2.2-1,0-2,0-3,0-.8,0-1.1-.3-1-1.1,0-.5,0-1.1,0-1.6v-80.1h0Z"></path><path class="cls-1" d="M218,83v80.2c0,2.6.2,2.3-2.2,2.3-.9,0-1.9,0-2.8,0-1,0-1.3-.4-1.2-1.3,0-.4,0-.8,0-1.2V2.7c0-2.8-.3-2.5,2.4-2.5.9,0,1.8,0,2.7,0,1,0,1.3.4,1.2,1.3,0,.5,0,1,0,1.4v80.2h0Z"></path><path class="cls-1" d="M325.8,82.6V2.4c0-2.5-.2-2.2,2.3-2.3,1,0,2,0,3,0,.7,0,1,.3,1,1,0,.5,0,1,0,1.4v160.8c0,2.5.3,2.2-2.3,2.3-1,0-2,0-3,0-.7,0-1-.3-1-.9,0-.5,0-1.1,0-1.6v-80.4h0Z"></path><path class="cls-1" d="M294.1,82.7V2.4c0-2.5-.3-2.2,2.3-2.3,1,0,1.9,0,2.8,0,.9,0,1.2.4,1.1,1.2,0,.4,0,.7,0,1.1v161c0,2.5.1,2.1-2.2,2.2-1,0-2,0-3,0-.8,0-1.1-.3-1-1.1,0-.5,0-1.1,0-1.6v-80.2h0Z"></path><path class="cls-1" d="M508.6,83V1.7c0-1.5,0-1.5,1.6-1.6,1.2,0,2.4,0,3.6,0,.9,0,1.2.3,1.1,1.2,0,.4,0,.7,0,1.1v161c0,2.4.2,2.2-2.2,2.2-1,0-2,0-3,0-.8,0-1.1-.3-1-1.1,0-.5,0-1.1,0-1.6v-79.9h0Z"></path><path class="cls-1" d="M541.1,83v80.4c0,2.4,0,2.1-2.1,2.1-1.1,0-2.1,0-3.2,0-.7,0-1-.3-1-.9,0-.4,0-.8,0-1.2V2.4c0-2.4-.2-2.2,2.2-2.2,1.1,0,2.1,0,3.2,0,.6,0,.9.3.9.9,0,.6,0,1.2,0,1.8v80.2h0Z"></path><path class="cls-1" d="M289,83v80.1c0,2.9.2,2.4-2.4,2.5-1,0-1.9,0-2.8,0-.7,0-1-.3-1-.9,0-.4,0-.8,0-1.2V2.4c0-2.4-.2-2.2,2.2-2.2,1,0,2,0,3,0,.8,0,1.1.3,1,1,0,.5,0,1.1,0,1.6v80.2h0Z"></path><path class="cls-1" d="M531.1,83v80.2c0,2.7,0,2.3-2.3,2.3-1,0-2,0-3,0-.7,0-1-.3-1-.9,0-.4,0-.8,0-1.2V2.4c0-2.4-.2-2.2,2.2-2.2,1.1,0,2.1,0,3.2,0,.6,0,.9.3.9.9s0,1.2,0,1.8v80.2h0Z"></path><path class="cls-1" d="M171.2,82.8V2.4c0-2.4-.2-2.2,2.2-2.2,1,0,2,0,3,0,.8,0,1.1.3,1,1,0,.5,0,1,0,1.4v160.5c0,2.9.2,2.4-2.5,2.5-.9,0-1.9,0-2.8,0-.7,0-1-.3-.9-1,0-.5,0-1.1,0-1.6v-80.2h0Z"></path><path class="cls-1" d="M97.4,83v80.2c0,2.6.2,2.3-2.2,2.3-1,0-2,0-3,0-.7,0-1-.3-1-.9,0-.5,0-.9,0-1.4V2.6c0-2.8-.1-2.4,2.4-2.4,1,0,2,0,3,0,.6,0,.9.3.9.9v82h0Z"></path><path class="cls-1" d="M50.1,82.9V2.7c0-2.9-.3-2.5,2.6-2.5.8,0,1.7,0,2.5,0,.9,0,1.2.4,1.1,1.2,0,.4,0,.7,0,1.1v160.9c0,2.5.2,2.2-2.3,2.2-1,0-1.9,0-2.8,0-.8,0-1-.3-1-1.1,0-.5,0-1.1,0-1.6v-80h0Z"></path><path class="cls-1" d="M410.5,82.8v80.4c0,2.6.3,2.3-2.4,2.3-1,0-1.9,0-2.8,0-.7,0-1-.3-1-1V2.6c0-2.8-.1-2.4,2.5-2.4,1,0,1.9,0,2.8,0,.6,0,.9.3.9.9v81.8h0Z"></path><path class="cls-1" d="M251.1,82.6V1.7c0-1.5,0-1.5,1.6-1.5,1.2,0,2.4,0,3.6,0,.8,0,1.1.3,1,1,0,.5,0,.9,0,1.4v160.4c0,2.9.3,2.5-2.6,2.5s-2.5.5-3.3-.2c-.9-.8-.3-2.2-.3-3.4,0-26.4,0-52.9,0-79.3h0Z"></path><path class="cls-1" d="M277.5,82.8v79.8c0,1.9-1,2.9-3,2.9s-1.5,0-2.3,0c-.7,0-1-.3-.9-1,0-.4,0-.8,0-1.2V2.4c0-2.5-.2-2.2,2.3-2.2,1,0,1.9,0,2.8,0,.8,0,1.1.3,1,1.1,0,.5,0,1.1,0,1.6v80h0Z"></path><path class="cls-1" d="M79.4,280.9c-1.3-9-6.8-14.9-15.1-18.2-.6-.2-1.2-.5-2-.7.5-.6,1.1-.8,1.6-1.1,8-5,12.2-12.2,11-21.6-1.1-9.3-6.2-16-15.2-19.2-4.6-1.7-9.4-2.4-14.3-2.4-11.6,0-23.2,0-34.8,0-.5,0-.9,0-1.4,0-.7,0-1,.2-1,.9,0,.4,0,.7,0,1.1v90.5c0,2.1-.3,2.1,2.1,2.1h34.6c4.5,0,8.9-.4,13.2-1.3,5.2-1.1,10.1-3,13.9-7,6.2-6.5,8.5-14.4,7.3-23.2h0ZM20.8,250.9v-20.6c0-1.4,0-1.5,1.5-1.5,7,0,13.9,0,20.9,0,3.4,0,6.8.5,10.2,1.2,3.1.7,5.5,2.4,7.1,5.1,2.5,4.1,2.9,8.5,1.6,13-1.4,4.5-4.7,7.1-9.2,8.3-3.2.8-6.4,1.1-9.7,1.1-6.9,0-13.7,0-20.6,0s-.6,0-.9,0c-.8,0-1-.3-1-1.1,0-1.8,0-3.7,0-5.5h0ZM65.8,290.8c-1.9,5.5-6,8.4-11.5,9.7-2,.5-4.1.7-6.2.7-8.6,0-17.3,0-25.9,0s-1.5,0-1.5-1.5c0-5,0-9.9,0-14.9v-14.4c0-1.9,0-1.9,1.8-1.9,7.5,0,14.9,0,22.3,0s6.8.5,10.2,1.2c5.7,1.2,11.1,5.8,11.7,14,.2,2.4-.2,4.7-1,7h0Z"></path><path class="cls-1" d="M185.4,245.7c-3.9-11.5-11.1-20.1-22.1-25.3-10.1-4.7-20.7-5.7-31.5-3.1-13,3.1-22.2,11-28.3,22.8-7.5,14.5-7.1,35.9.2,50.1,4.6,9,11.4,15.8,20.7,19.9,11.8,5.2,23.8,5.3,35.8.9,11.6-4.2,19.7-12.2,24.3-23.6,2.9-7.1,4.2-14.5,4.2-22.2,0-6.7-1-13.2-3.1-19.5h0ZM169,289.9c-4.2,6.4-10,10.5-17.4,12.4-8.8,2.2-17.3,1.2-25.1-3.6-6.4-3.9-10.4-9.7-13.1-16.5-1.8-4.4-2.6-9.1-2.6-13.9,0-2.5-.1-5,0-7.5.3-9.2,3.4-17.4,9.4-24.4,3.5-4.1,8.1-6.7,13.3-8.2,11.1-3.1,21.3-1.6,30.4,5.9,3.9,3.2,6.6,7.2,8.4,11.9,2.2,5.6,3.4,11.4,3.4,17.5v2.1c.4,8.8-1.8,16.9-6.6,24.2h0Z"></path><path class="cls-1" d="M547.9,245.7c-3.9-11.4-11-20-22-25.2-10.2-4.8-20.9-5.7-31.9-3.1-8.4,1.9-15.7,6.1-21.3,12.7-8.5,9.9-12.4,21.5-12.2,34.5v2.8c0,6.1,1.2,12,3.3,17.7,4.8,13.1,13.7,22.2,27,26.7,10.7,3.6,21.4,3.1,32-.8,11.1-4.2,19.1-11.8,23.7-22.8,2.5-5.8,3.9-11.9,4.3-18.2.6-8.2-.3-16.3-3-24.1h0ZM536.5,279.3c-1.6,6-4.6,11.4-9.2,15.8-5.7,5.4-12.6,8-20.4,8.2-8.9.2-16.7-2.5-23-8.7-4.4-4.4-7.3-9.7-9-15.7-1-3.5-1.5-7.2-1.4-10.9,0-1.1,0-2.1,0-3.2-.5-8.3,1.4-15.9,5.5-23.1,3.7-6.4,9-10.8,16-13,12.4-3.9,23.6-2,33.2,7.2,2.4,2.3,4.3,4.9,5.6,7.9,5.1,11.5,6.1,23.4,2.8,35.5h0Z"></path></g></g></g></g></g></svg>