<svg xmlns="http://www.w3.org/2000/svg" viewBox="0 0 861.1 214.6"><defs><style>      .cls-1 {        fill: #fff;      }      .cls-2 {        fill: #1d1d1b;      }    </style></defs><g><g id="Camada_2"><g id="Camada_1-2"><g><g><g><g><polygon class="cls-1" points="94.5 72.8 76.7 72.8 87.8 4.4 105.6 4.4 94.5 72.8"></polygon><path class="cls-1" d="M61.8,4.4l-17,47-2-10.1h0l-6-30.7s-.7-6.2-8.4-6.2H.3l-.3,1.2s8.6,1.8,18.6,7.8l15.5,59.4h18.5L80.9,4.4h-19.2Z"></path><path class="cls-1" d="M201.7,72.8h16.3l-14.2-68.3h-14.3c-6.6,0-8.2,5.1-8.2,5.1l-26.5,63.2h18.5l3.7-10.2h22.6l2.1,10.2h0ZM182.1,48.6l9.4-25.6,5.3,25.6h-14.6Z"></path><path class="cls-1" d="M156.1,20.9l2.5-14.7s-7.8-3-16-3-29.8,3.9-29.8,22.6,24.6,17.9,24.6,27.1-22.1,7.6-29.3,1.8l-2.7,15.3s7.9,3.9,20.1,3.9,30.5-6.3,30.5-23.4-24.8-19.4-24.8-27.1,17.3-6.7,24.9-2.5h0Z"></path></g><path class="cls-1" d="M42.8,41.3l-6-30.7s-.7-6.2-8.4-6.2H.3l-.3,1.2s13.5,2.8,26.4,13.3c12.4,10,16.4,22.5,16.4,22.5h0Z"></path></g><g><path class="cls-1" d="M486.2,52h0c-.4,0-.4,0-.5.3-.1.6-.3,1.3-.4,1.9,0,.1,0,.2.1.2.9.3,1.8.5,2.7.5,1,.1,2,0,3-.3.3,0,.5-.2.8-.3-.6.4-1.3.5-2,.6-1.5.2-3,0-4.5-.5-.2,0-.2-.1-.2-.3.2-.8.3-1.5.5-2.3,0-.2.1-.3.3-.1,0,0,.1,0,.2.1h0Z"></path><path class="cls-1" d="M494.3,54.5s0,0,0,0c0,.2,0,.3.3.3.8,0,1.7,0,2.5,0,.2,0,.3,0,.4-.3.1-.4.3-.9.5-1.3,0,0,0-.2.1-.2-.2.6-.4,1.1-.6,1.7,0,.1,0,.2-.2.2h-3c-.1,0-.2,0-.1-.2,0,0,0-.2.1-.3h0Z"></path><path class="cls-1" d="M472,53c.2.2.2.5.2.8,0,.3.2.6.2.9,0,.2.1.2.3.2h2.8c.1,0,.2,0,.3,0,0,0-.1,0-.2,0h-3.1c-.1,0-.2,0-.2-.1-.1-.6-.3-1.2-.5-1.8h0Z"></path><path class="cls-1" d="M477,52.3c0-.3.1-.5.2-.7.2-.5.4-1,.6-1.5,0,0,0-.2.1-.2-.3.8-.6,1.6-1,2.4Z"></path><path class="cls-1" d="M490.1,52.4c0,.1-.1.1-.2.2-.7.2-1.4.2-2.1,0,0,0,0,0,0,0,.2,0,.5,0,.7,0,.6,0,1.1,0,1.6-.2h0Z"></path><path class="cls-1" d="M493.9,52.7c0,0,0-.2,0-.3.2-.4.3-.9.3-1.4v-.6c.1.2,0,.4,0,.5,0,.6-.1,1.2-.4,1.7Z"></path><path class="cls-1" d="M496.1,50.4c0,.2,0,.3-.1.5-.1.4-.3.7-.5,1.1,0,0,0,.2-.2.2.2-.6.5-1.2.7-1.8h0Z"></path><path class="cls-1" d="M476,54.8c0,0,0-.2,0-.3.1-.3.3-.6.4-.9,0,0,0-.1.1-.1-.1.4-.3.9-.5,1.3Z"></path><path class="cls-1" d="M476.5,53.5c0,0,0-.1,0-.2.1-.3.2-.5.3-.8,0,0,0-.2.1-.2-.1.4-.3.8-.5,1.2Z"></path><path class="cls-1" d="M490.8,50.9c.3.2.3.7,0,.9.1-.3.1-.6,0-.9Z"></path><path class="cls-1" d="M487.3,52.4c-.4,0-.7-.1-1-.4.3.1.7.2,1,.4Z"></path><path class="cls-1" d="M495.1,52.7c0,.2,0,.5-.3.6,0-.2.1-.4.3-.6Z"></path><path class="cls-1" d="M493.6,53.2c0-.2.1-.4.3-.5,0,.2-.2.4-.3.5Z"></path><path class="cls-1" d="M494.8,53.3c0,.2,0,.4-.2.6,0-.2.1-.4.2-.6Z"></path><path class="cls-1" d="M494.6,53.9c0,.2,0,.4-.2.6,0-.2.1-.4.2-.6Z"></path><path class="cls-1" d="M489.5,49.9c.1,0,.3,0,.3.2-.1,0-.2,0-.3-.2Z"></path><path class="cls-1" d="M489.8,50.1c.1,0,.2,0,.3.2-.1,0-.2,0-.3-.2Z"></path><path class="cls-1" d="M490.4,52.2c0,.2-.1.2-.3.2,0,0,.2,0,.3-.2Z"></path><path class="cls-1" d="M493.4,53.4c0-.2,0-.2.2-.2,0,0-.1.2-.2.2Z"></path><path class="cls-1" d="M487.7,52.5c0,0-.2,0-.2,0,0,0,.2,0,.2,0Z"></path><path class="cls-1" d="M496.2,50.1c0,.1,0,.2-.1.2,0,0,0-.2.1-.2Z"></path><path class="cls-1" d="M474.5,50.8c0,0,0,.1,0,.2,0,0,0,0,0,0,0,0,0,0,0-.1h0Z"></path><path class="cls-1" d="M492.8,54c0,0,0-.2.2-.1,0,0,0,.1-.2.1Z"></path><path class="cls-1" d="M490.7,50.7c.1,0,.1,0,.1.2,0,0,0-.1-.1-.2Z"></path><path class="cls-1" d="M495.2,52.5c0,0,0,.2,0,.2,0,0,0-.2,0-.2Z"></path><path class="cls-1" d="M492.4,54.2c0-.1,0-.1.2-.1,0,0-.1,0-.2.1Z"></path><path class="cls-1" d="M492.1,54.5c0-.1.1-.1.2,0,0,0-.1,0-.2,0Z"></path><path class="cls-1" d="M490.8,51.8c0,0,0,.2,0,.1,0,0,0,0,0-.1Z"></path><path class="cls-1" d="M487.5,52.5c0,0-.1,0-.1,0,0,0,.1,0,.1,0Z"></path><path class="cls-1" d="M490.1,50.3c0,0,.1,0,.1,0,0,0-.1,0-.1,0Z"></path><path class="cls-1" d="M492.3,54.3c0,0,0-.1.1,0,0,0,0,0-.1,0Z"></path><path class="cls-1" d="M495.3,52.2c0,0,0,.2,0,.2,0,0,0-.2,0-.2Z"></path><path class="cls-1" d="M492.6,54.1c0,0,0,0,.1,0,0,0,0,0-.1,0Z"></path><path class="cls-1" d="M490.2,50.4c0,0,.1,0,.1.1,0,0,0,0-.1-.1Z"></path><path class="cls-1" d="M490.5,52.2c0,0,0,.1-.1,0,0,0,0,0,.1,0Z"></path><path class="cls-1" d="M490.5,50.5c0,0,.1,0,.1,0,0,0,0,0-.1,0Z"></path><path class="cls-1" d="M495.2,52.3c0,0,0,.1,0,.1,0,0,0-.1,0-.1Z"></path><path class="cls-1" d="M489.4,49.8s0,0,.1,0c0,0,0,0-.1,0Z"></path><path class="cls-1" d="M493.3,53.5s0,0,0,0c0,0,0,0,0,0Z"></path><path class="cls-1" d="M493,53.8c0,0,0,0,0,0,0,0,0,0,0,0Z"></path><path class="cls-1" d="M492,54.5c0,0,0,0,.1,0,0,0,0,0-.1,0Z"></path><path class="cls-1" d="M475.9,54.9s0,0,0,0c0,0,0,0,0,0Z"></path><path class="cls-1" d="M486.3,52s0,0-.1,0c0,0,0,0,.1,0Z"></path><path class="cls-1" d="M490.6,52c0,0,0,0,0,0,0,0,0,0,0,0Z"></path><path class="cls-1" d="M490.7,51.9s0,0,0,0c0,0,0,0,0,0Z"></path><path class="cls-1" d="M490.7,52s0,0,0,0c0,0,0,0,0,0Z"></path><path class="cls-1" d="M493.4,53.5s0,0,0,0c0,0,0,0,0,0Z"></path><path class="cls-1" d="M489.3,49.8s0,0,0,0c0,0,0,0,0,0Z"></path><path class="cls-1" d="M493.2,53.6s0,0,0,0c0,0,0,0,0,0Z"></path><path class="cls-1" d="M493.1,53.7s0,0,0,0c0,0,0,0,0,0Z"></path><path class="cls-1" d="M493.1,53.7s0,0,0,0c0,0,0,0,0,0Z"></path><path class="cls-1" d="M493,53.8s0,0,0,0c0,0,0,0,0,0Z"></path><path class="cls-1" d="M490.4,50.5s0,0,0,0c0,0,0,0,0,0Z"></path><path class="cls-1" d="M479.8,54.9s0,0,0,0h0s0,0,0,0h0Z"></path><path class="cls-1" d="M490.6,50.6s0,0,0,0c0,0,0,0,0,0Z"></path><path class="cls-1" d="M490.5,50.5s0,0,0,0c0,0,0,0,0,0Z"></path><path class="cls-1" d="M446.7,65.3c-.2,0-.3.1-.4.2-4.6,4.1-9.9,6.8-15.9,8.2-1.9.4-3.8.7-5.7.8-1.6,0-3.3,0-4.9,0-3.9-.3-7.7-1.2-11.3-2.8-4.5-1.9-8.4-4.7-11.8-8.3-3.5-3.7-6.1-7.9-7.8-12.7-.9-2.4-1.5-4.9-1.8-7.4-.3-2.1-.4-4.3-.3-6.4.3-5.5,1.7-10.7,4.4-15.6,2.5-4.5,5.8-8.3,9.8-11.4,4.1-3.2,8.8-5.3,13.9-6.4,3.3-.7,6.6-1,9.9-.8,4.9.3,9.6,1.6,13.9,3.8,2.8,1.5,5.4,3.3,7.8,5.4-.1.1-.3.3-.4.4-1,1-2,2-2.9,3.1,0,0-.2.1-.1.3.2,0,.4,0,.5,0h6.1c.3,0,.5,0,.6.3.8,1,1.6,2.1,2.3,3.2,0,0,.2.2,0,.3h-12c-.4,0-.6.1-.8.5-.5,1-1.1,1.9-1.6,3,0,.1-.2.2,0,.4.2,0,.4,0,.6,0h15.6c.4,0,.5.1.7.5.4,1,.8,1.9,1.1,2.9,0,.1.1.3,0,.4-.2,0-.4,0-.6,0h-18.1c-.2,0-.5,0-.7,0-.3,0-.4,0-.5.3-.3,1-.6,2-.8,2.9,0,.2-.1.3,0,.5.2,0,.4,0,.6,0h20.6c.1,0,.3,0,.4,0,.2,0,.3,0,.3.3,0,.4.1.7.2,1.1-.2,0-.3,0-.5,0-1,0-2,0-3,.3-.9.2-1.8.6-2.6,1.2-1.1,1-1.5,2.2-1.5,3.6,0,1.6.9,2.6,2.1,3.4.5.3,1.1.6,1.7.8.4.2.8.4,1.2.6.7.4.5,1.5,0,1.8-.2.1-.5.2-.7.3-1,.2-1.9.1-2.9,0-.8,0-1.5-.2-2.2-.4-.2,0-.3,0-.4.2-.1.9-.3,1.8-.5,2.8,0,.4,0,.4.3.4,1.4.3,2.9.4,4.4.4,1.4,0,2.7-.2,4.1-.6-.1.9-.5,1.7-.7,2.6,0,.2-.1.2-.3.2h-19.2c-.4,0-.4,0-.3.4.3,1,.8,2,1.2,3,.1.4.4.5.7.5,5.2,0,10.4,0,15.6,0s.4,0,.5,0c0,.2,0,.3-.1.5-.5,1-1,1.9-1.5,2.9-.2.4-.4.5-.9.5-3.8,0-7.7,0-11.5,0-.2,0-.4,0-.5,0,.1.2.2.3.3.5.6,1,1.4,2,2.1,2.9.2.3.5.4.8.4,2,0,4.1,0,6.1,0,.1,0,.3,0,.5,0,0,0-.1.2-.2.2-.9,1.1-1.9,2.1-2.9,3.1-.1.1-.3.2-.4.4h0ZM405.4,33.9c0,.2,0,.3,0,.4,0,.7,0,1.4.1,2.2.1,2.1.2,4.3.4,6.4,0,1.4.1,2.9.2,4.3,0,.3,0,.3.4.3h2.9q.8,0,1.1-.7c1.8-4.1,3.5-8.2,5.3-12.3,0-.2.1-.3.3-.5,0,.1,0,.2,0,.4-.1.5-.2,1.1-.3,1.6-.7,3.7-1.4,7.4-2.1,11.1,0,.4,0,.4.3.4h3.6c.4,0,.5,0,.5-.4.3-1.4.5-2.8.8-4.2.8-4.3,1.7-8.7,2.5-13q.1-.5-.4-.5h-6.1c-.8,0-.6-.1-.9.6-1.5,3.4-3,6.8-4.4,10.2,0,0,0,.2-.2.3,0-.9,0-1.7-.1-2.6,0-1.7,0-3.4-.1-5.1,0-1,0-2,0-3,0-.4,0-.5-.4-.5h-6.2q-.4,0-.5.4c-.3,1.7-.7,3.5-1,5.2-.6,3.3-1.2,6.5-1.9,9.8-.2.9-.3,1.8-.5,2.8,0,0,.1,0,.2,0,1.2,0,2.4,0,3.6,0,.3,0,.3-.2.3-.4.1-.7.2-1.3.4-2,.5-2.7,1-5.4,1.5-8.1.2-1.1.4-2.1.6-3.2h0ZM422.5,36.5c.2,0,.4,0,.6-.1,1.5-.4,2.9-.5,4.4-.5.6,0,1.2,0,1.7.3.6.2.8.7.8,1.3,0,.2,0,.3-.1.5,0,.2-.1.2-.3.2-.4,0-.9,0-1.3,0-1.5,0-3.1.1-4.5.7-2.3.9-3.6,2.8-3.5,5.2.1,2.2,1.5,3.6,3.4,3.8.7,0,1.3,0,2,0,1.2-.2,2.2-.6,3.1-1.4,0,0,.1-.2.2-.2,0,.4,0,.7,0,1.1s0,.3.3.3h3.1c.2,0,.3,0,.3-.3.4-2.8,1-5.6,1.4-8.4.1-.9.3-1.9.2-2.8-.1-.8-.4-1.5-1-2.1-.7-.7-1.7-1.1-2.7-1.3-1.2-.2-2.4-.2-3.6-.1-1.2.1-2.3.3-3.5.6-.3,0-.4.2-.5.5,0,.5-.2,1.1-.3,1.6,0,.4-.1.9-.2,1.3h0ZM447.9,43.6c-.2,0-.4,0-.5.1-1.4.5-2.9.8-4.4.7-.8,0-1.5-.1-2.2-.5-.9-.4-1.4-1.3-1.3-2.3,0-.2.1-.3.3-.3h8.1c.2,0,.4,0,.5-.3.3-1.4.6-2.7.4-4.1-.2-1.5-.8-2.7-2.1-3.6-1.2-.8-2.5-1.1-3.8-1-2.9,0-5,1.3-6.5,3.7-1.3,2.1-1.6,4.5-1.2,6.9.4,2,1.5,3.5,3.4,4.2.8.3,1.6.5,2.5.6,2,.2,3.9,0,5.8-.5.3,0,.3-.2.4-.5.1-.7.3-1.5.4-2.2,0-.3.2-.7.2-1h0Z"></path><path class="cls-1" d="M446.7,65.3c0-.2.2-.3.4-.4,1-1,2-2,2.9-3.1,0,0,.1-.1.2-.2-.2-.1-.3,0-.5,0-2,0-4.1,0-6.1,0-.4,0-.6-.1-.8-.4-.7-1-1.4-1.9-2.1-2.9,0-.1-.2-.3-.3-.5.2,0,.4,0,.5,0h11.5c.4,0,.6-.1.9-.5.5-.9,1.1-1.9,1.5-2.9,0-.1.2-.3.1-.5-.2,0-.4,0-.5,0h-15.6c-.4,0-.6,0-.7-.5-.4-1-.8-2-1.2-3-.1-.4-.1-.4.3-.4h19.2c.1,0,.2,0,.3-.2.2-.8.5-1.7.7-2.6.2,0,.4-.2.5-.3.7-.3,1.2-.8,1.6-1.4.7-1.1.8-2.3.6-3.6-.1-1-.6-1.8-1.4-2.4-.1,0-.2-.2-.3-.2,0-1.1,0-2.3,0-3.4.6,0,1.2,0,1.8.1.2,0,.3,0,.3-.2.2-1,.4-2,.5-2.9,0-.2,0-.2-.2-.3-.8,0-1.5-.2-2.2-.2-.2,0-.4,0-.6,0,0-.4-.1-.7-.2-1.1,0-.2-.1-.3-.3-.3-.1,0-.3,0-.4,0h-20.6c-.2,0-.4,0-.6,0,0-.2,0-.4,0-.5.2-1,.5-2,.8-2.9,0-.2.2-.4.5-.3.2,0,.5,0,.7,0h18.1c.2,0,.4,0,.6,0,0-.2,0-.3,0-.4-.3-1-.7-2-1.1-2.9-.1-.3-.3-.5-.7-.5-5.2,0-10.4,0-15.6,0s-.4,0-.6,0c0-.1,0-.2,0-.4.5-1,1-2,1.6-3,.2-.3.4-.5.8-.5,3.8,0,7.6,0,11.5,0h.5c.1-.2,0-.2,0-.3-.7-1.1-1.5-2.2-2.3-3.2-.2-.2-.4-.3-.6-.3h-6.1c-.2,0-.4,0-.5,0,0-.1,0-.2.1-.3.9-1.1,1.9-2.1,2.9-3.1.1-.1.3-.3.4-.4.7-.6,1.4-1.2,2.1-1.8,3.8-3,8-5.1,12.6-6.3,2.1-.6,4.2-.9,6.4-1.1,6.4-.5,12.5.6,18.2,3.4,4.8,2.3,8.9,5.5,12.3,9.7,3.9,4.8,6.4,10.2,7.5,16.3.5,2.8.7,5.7.6,8.6-.4,6.9-2.6,13.3-6.6,18.9-3.7,5.2-8.4,9.1-14.2,11.8-3.2,1.5-6.7,2.5-10.2,3-2.5.3-5,.4-7.5.2-8-.7-15.1-3.8-21.1-9.2h0ZM486,47.9c1.1,0,2.1,0,3-.3,2.7-.7,4.6-2.4,5.4-5.1.5-1.5.6-3.1.4-4.7-.4-2.6-2.1-4.6-4.7-5.2-1.7-.4-3.4-.4-5.1,0-2.5.7-4.3,2.2-5.3,4.7-.8,1.8-.9,3.7-.5,5.7.5,2.5,2,4.1,4.5,4.7.8.2,1.6.3,2.2.3h0ZM468.3,29.3h-4.2c-.2,0-.3.1-.3.3-.2,1.3-.5,2.5-.7,3.8-.5,3-1.1,6-1.6,9-.2,1-.4,1.9-.2,2.9.2,1.2,1,2.2,2.2,2.4,1.4.3,2.8,0,4.2-.3.2,0,.2-.2.2-.3.1-.9.3-1.8.5-2.7,0-.1,0-.2,0-.3-.3,0-.6,0-.8,0-.3,0-.6,0-.9,0-.6,0-.9-.5-.9-1s0-.3,0-.4c.4-2,.8-4.1,1.1-6.1,0-.2.1-.3.4-.3.6,0,1.1,0,1.7,0s.3,0,.3-.3c.1-.9.3-1.7.4-2.6.1-.8.1-.7-.6-.8-.5,0-1,0-1.5,0,.2-1.1.4-2.2.6-3.4h0ZM469.4,47.5c0,0,.1,0,.1,0h4c.2,0,.3-.1.3-.3.2-.9.3-1.8.5-2.8.3-1.7.6-3.3,1.2-5,.2-.6.4-1.1.8-1.7.4-.7,1-1,1.8-1,.3,0,.6,0,.8,0,.2,0,.4,0,.5-.3.4-1.2.9-2.4,1.4-3.6.1-.3.1-.3-.2-.4-1.1-.3-2.2-.2-3.1.5-.5.3-1,.8-1.4,1.3,0,.1-.1.3-.3.3,0,0,0,0,0,0,0-.5.2-1,.3-1.5q0-.5-.4-.5h-3.1q-.4,0-.5.4c-.6,3.2-1.2,6.3-1.7,9.5-.3,1.6-.6,3.3-.9,4.9h0ZM495.2,47.5c.6,0,1.2-.5,1.2-1.2,0-.6-.5-1.2-1.2-1.2s-1.2.5-1.1,1.2c0,.6.5,1.2,1.2,1.1h0Z"></path><path class="cls-1" d="M503.9,58.7c0,.6-.5,1.1-1.1,1.1-.6,0-1.2-.5-1.2-1.2,0-.6.6-1.2,1.2-1.1s1.1.6,1.1,1.2h0ZM502.8,59.5c.5,0,.9-.4.9-.9s-.4-.9-.9-.9-.9.4-.9.9.4.9.9.9Z"></path><path class="cls-1" d="M458.4,39.3c-.8-.4-1.6-.8-2.5-1.1-.2,0-.3-.2-.5-.2-.7-.3-.7-1.5,0-1.8.3-.1.5-.2.8-.2.6,0,1.3,0,2,0,0,1.1.1,2.3,0,3.4h0Z"></path><path class="cls-1" d="M495.2,47.5c-.6,0-1.1-.5-1.2-1.1,0-.6.5-1.2,1.1-1.2.6,0,1.1.5,1.2,1.2,0,.6-.5,1.2-1.2,1.2h0ZM496.1,46.4c0-.5-.4-.9-.9-.9s-.9.4-.9.9c0,.5.4.9.9.9s.9-.4.9-.9Z"></path><path class="cls-1" d="M428.2,40.9c.2,0,.3,0,.5,0,.7,0,.7,0,.6.7-.2,1.2-.8,2.3-2,2.8-.3.2-.7.2-1,.2-1.1,0-1.9-.7-1.6-2,.1-.5.5-.9.9-1.2.6-.3,1.2-.4,1.8-.5.3,0,.6,0,.8,0h0Z"></path><path class="cls-1" d="M440,38.4c.2-.9.6-1.7,1.3-2.2.8-.5,1.7-.6,2.6-.2.6.2.9.8,1,1.4.1,1,.1,1-.9,1h-4Z"></path><path class="cls-1" d="M490.1,39.2c0,.5,0,1-.1,1.6-.3,1.4-1.1,2.5-2.3,3.2-1.2.7-2.5.3-3.2-.9-.4-.7-.5-1.4-.5-2.1,0-1.4.4-2.7,1.3-3.8.6-.8,1.4-1.2,2.5-1.2.9,0,1.6.5,2,1.3.3.6.3,1.3.3,2h0Z"></path><path class="cls-1" d="M496.1,46.4c0,.5-.4.9-.9.9-.5,0-.9-.4-.9-.9,0-.5.4-.9.9-.9.5,0,.9.4.9.9ZM495.1,46.5c.2,0,.1.4.4.3.1-.2,0-.3,0-.5.1-.4,0-.5-.4-.5-.1,0-.3,0-.3.1,0,.3-.1.6,0,.9.2,0,0-.3.2-.4h0Z"></path><path class="cls-1" d="M502.7,58.8c-.2,0,0,.4-.2.3-.2,0,0-.2,0-.4v-.2c0-.4.1-.5.5-.4.2,0,.3.2.3.4,0,.2-.1.3,0,.5,0,0,0,.1,0,.2,0,0-.1,0-.2,0,0,0,0-.3-.2-.3h0ZM502.9,58.5c0,0,0,0-.1-.1,0,0-.1,0-.1,0,0,0,0,.1.1.1s.1,0,.1-.1h0Z"></path><path class="cls-1" d="M495.1,46.5c-.2,0,0,.3-.2.4-.2-.3,0-.6,0-.9,0-.2.2-.1.3-.1.4,0,.5.1.4.5,0,.2.1.3,0,.5-.3,0-.2-.3-.4-.3h0ZM495.3,46.3c0-.1,0-.2,0-.2,0,0-.2,0-.2,0,0,0,0,.1,0,.2,0,0,.2,0,.2,0h0Z"></path><path class="cls-1" d="M495.3,46.3s-.1,0-.2,0c0,0-.1,0,0-.2,0,0,.1,0,.2,0,0,0,.1,0,0,.2h0Z"></path></g><g><path class="cls-1" d="M323.3,1.9h7.4q.2.2.4.2c4.6.5,9,1.8,13.2,4.1,7.7,4.1,13.3,10.2,16.8,18.3,1.4,3.4,2.3,6.9,2.7,10.5,0,.1-.1.4.2.4v6.7q-.2.2-.2.4c-.5,4.7-1.9,9.2-4.1,13.3-3.3,6.2-8,11-14.1,14.5-4.5,2.6-9.3,4.2-14.4,4.8-.1,0-.4-.1-.4.2h-7.2c0-.3-.2-.2-.4-.2-.7-.1-1.4-.2-2-.3-7-1.2-13.3-4.1-18.6-8.8.6-.6,1.3-1.1,1.9-1.9h-3.4c-.2,0-.4,0-.6,0-.7-.7-1.3-1.3-1.9-2.1.3-.1.5,0,.7,0h6.6c.2,0,.5,0,.6-.1.5-.6,1-1.2,1.5-2h-10.7c-.2,0-.5,0-.6-.1-.5-.7-.9-1.3-1.3-2,.2-.1.5,0,.7,0h11.9c1.1,0,1.9-.5,2.4-1.4.2-.4,0-.6-.4-.6-4.7,0-9.4,0-14.1,0-1.4,0-2.1-.3-2.5-1.6-.2-.7-.3-.7.4-.7h16.4c1.6,0,1.6,0,2.2-1.6.2-.5.1-.6-.4-.6-6.1,0-12.1,0-18.2,0s-1.9-.5-2.2-1.6c-.1-.4,0-.7.5-.7h19.7c1.6,0,1.6,0,2-1.6.1-.6,0-.6-.5-.6-1.6,0-3.2,0-4.8,0,.1-.8.3-1.5.4-2.3h4.7c.6,1.2,1.4,2.1,2.6,2.7,2,1,4,1,6.1.6,1-.2,1.1-.2,1.3-1.2.1-.8.4-1.6.4-2.5-.9.3-1.8.6-2.7.7-2.2.3-3.9-.9-4.2-3-.1-.7,0-1.5,0-2.2.5-2.9,2.6-4.6,5.4-4.4.9,0,1.8.3,2.6.7.4.2.4,0,.5-.3.1-.9.3-1.8.5-2.7,0-.2,0-.4-.3-.5-1.7-.5-3.5-.9-5.2-.6-2.5.4-4.5,1.6-5.9,3.6,0,0,0-.2,0-.2-.1-1.3,0-1.1-1.2-1.1-7.5,0-15,0-22.5,0,0-.2,0-.3,0-.5.2-.5,0-.6-.5-.5,0,0,0-.2,0-.3.2-1,0-.9,1.1-.9h21c1.5,0,1.5,0,1.2-1.5-.1-.6-.4-.7-1-.7-6.4,0-12.8,0-19.2,0h-2c-.3,0-.4,0-.3-.4.1-.4.3-.8.3-1.1.1-.5.4-.7.9-.7,6.4,0,12.8,0,19.1,0s1.3,0,.9-1.2c-.2-.7-.6-.8-1.2-.8-6,0-11.9,0-17.9,0h-.5c-.3,0-.3-.1-.2-.3.2-.5.4-.9.6-1.4.1-.4.4-.5.9-.5,3.7,0,7.4,0,11.1,0h5.5c.4,0,.5,0,.3-.4-.2-.4-.5-.8-.6-1.2-.2-.6-.6-.8-1.2-.8-4.3,0-8.7,0-13,0s-.6,0-.8,0c-.3,0-.5,0-.2-.4.3-.5.6-.9.9-1.4.2-.4.5-.5.9-.5,3.7,0,7.3,0,11,0,.2,0,.4,0,.7-.1-.4-.5-.7-1-1-1.5-.2-.4-.5-.4-.9-.4-2.7,0-5.4,0-8,0s-.4,0-.7-.1c.5-.6,1-1.2,1.5-1.8.2-.3.5-.4.8-.4,1.4,0,2.9,0,4.3,0s.4,0,.6-.1c-.9-.9-1.7-1.8-2.6-2.6,2.9-2.6,6.2-4.7,9.8-6.2,3.4-1.5,6.9-2.4,10.6-2.8.1,0,.4.1.4-.2h0ZM352.6,46.4c0,.2,0,.3,0,.4-.2.5,0,.7.6.7.8,0,1.7,0,2.5,0,.5,0,.6-.2.7-.6.5-2.5.9-4.9,1.4-7.4.4-2.3.9-4.7,1.3-7,0-.5,0-.6-.5-.6-.8,0-1.6,0-2.5,0-.7,0-.9.2-1,.8-.2,1.2-.4,2.3-.7,3.6-.1-.1-.2-.2-.3-.2-2.1-1.9-4.8-1.9-7,0-2.4,2-3.3,4.7-2.8,7.7.3,2.3,1.9,3.8,4,4.1,1.5.2,2.9-.3,4.2-1.3h0ZM327,38c1.9-.4,3.6-.7,5.5-.5.3,0,.6,0,.8.3.3.3.5,1,.3,1.4-.2.4-.5.2-.8.2-1.5,0-2.9,0-4.3.5-1.6.5-2.8,1.4-3.3,3.1-.6,2,.2,3.8,1.9,4.5.9.4,1.8.4,2.8.2,1-.1,2-.6,2.8-1.3,0,.2,0,.4,0,.5-.1.5,0,.6.5.6.8,0,1.6,0,2.3,0,.4,0,.5-.1.6-.5.4-2.6.9-5.2,1.3-7.8.4-2.4-.8-4.1-3.2-4.5-2.1-.4-4.2-.1-6.3.4-.2,0-.3,0-.4.3-.2.8-.3,1.7-.5,2.6h0ZM342.4,36.3c0-.4.1-.8.2-1.1.1-.4,0-.4-.4-.4-.9,0-1.8,0-2.7,0-.3,0-.5,0-.5.4-.7,4-1.5,8-2.2,11.9,0,.4,0,.5.4.5,1,0,2,0,3,0,.4,0,.5-.1.6-.5.2-1.3.5-2.6.7-3.9.2-1.2.5-2.4,1-3.5.4-.8.9-1.3,1.9-1.2.3,0,.3-.1.4-.3.2-.9.5-1.7.8-2.5.1-.3.5-.8.4-.9-.3-.2-.8-.1-1.2,0-.2,0-.4.2-.6.2-.7.3-1.1.9-1.7,1.3h0ZM359.9,48c1,0,1.8-.8,1.7-1.8,0-1-.8-1.7-1.8-1.7-.9,0-1.7.8-1.7,1.8,0,1,.8,1.7,1.8,1.7h0Z"></path><path class="cls-1" d="M308.5,46.5c1.6,0,3.2,0,4.8,0,.5,0,.7,0,.5.6-.4,1.5-.4,1.6-2,1.6h-19.7c-.5,0-.6.2-.5.7.3,1.1,1.1,1.6,2.2,1.6,6.1,0,12.1,0,18.2,0,.5,0,.6.1.4.6-.6,1.6-.6,1.6-2.2,1.6h-16.4c-.7,0-.6,0-.4.7.4,1.3,1.1,1.7,2.5,1.6,4.7-.1,9.4,0,14.1,0,.5,0,.6.2.4.6-.5,1-1.3,1.4-2.4,1.4h-11.9c-.2,0-.4,0-.7,0,.4.7.9,1.4,1.3,2,.1.2.4.1.6.1h10.7c-.4.8-1,1.4-1.5,2-.2.2-.4.1-.6.1h-6.6c-.2,0-.4,0-.7,0,.6.8,1.2,1.4,1.9,2.1.1.2.4,0,.6,0h3.4c-.6.8-1.3,1.3-1.9,1.9-1,.8-1.9,1.6-2.9,2.3-5.4,3.8-11.3,6.1-17.9,6.8-.2,0-.2,0-.4.2h-7.2c.1-.3-.1-.2-.2-.2-.5,0-.9,0-1.4-.2-7.2-1.1-13.5-4-19-8.8-4-3.5-7.1-7.7-9.3-12.6-1.6-3.5-2.6-7.1-3-10.9,0-.2.1-.4-.2-.5v-7.4c.1-.1.2-.3.2-.5.3-2.5.8-4.8,1.6-7.2,2.3-6.8,6.2-12.4,11.7-17,5.6-4.6,12.1-7.2,19.3-8.1.1,0,.4,0,.4-.2h7.4c.1.2.1.2.5.2,5.1.6,9.8,2.2,14.2,4.7,2.2,1.2,4.2,2.7,6.1,4.4.9.9,1.7,1.8,2.6,2.6-.2.2-.4.1-.6.1-1.4,0-2.9,0-4.3,0-.3,0-.6,0-.8.4-.5.6-1,1.2-1.5,1.8.3.2.5.1.7.1,2.7,0,5.4,0,8,0,.4,0,.7,0,.9.4.3.5.7,1,1,1.5-.2.2-.5.1-.7.1-3.7,0-7.3,0-11,0-.4,0-.7.1-.9.5-.2.5-.6.9-.9,1.4-.2.3-.1.4.2.4.3,0,.6,0,.8,0,4.3,0,8.7,0,13,0,.6,0,1,.2,1.2.8.2.4.4.8.6,1.2.2.4,0,.4-.3.4-1.8,0-3.6,0-5.5,0-3.7,0-7.4,0-11.1,0-.5,0-.7.1-.9.5-.2.5-.4.9-.6,1.4-.1.2,0,.3.2.3h.5c6,0,11.9,0,17.9,0,.7,0,1,.2,1.2.8.4,1.3.5,1.2-.9,1.2-6.4,0-12.8,0-19.1,0-.6,0-.8.1-.9.7,0,.4-.2.8-.3,1.1-.1.3,0,.4.3.4.7,0,1.4,0,2,0,6.4,0,12.8,0,19.2,0,.6,0,.8.1,1,.7.3,1.5.4,1.5-1.2,1.5h-21c-1.1,0-1-.1-1.1.9,0,0,0,.2,0,.3-.9,0-1.9,0-2.8,0-.4,0-.5.1-.6.5-.4,1.8-.8,3.6-1.1,5.4-.4,1.9-.8,3.9-1,5.8-.2,1.9.7,3,2.5,3.2.8.1,1.5,0,2.3-.2.7,0,1.3-.2,1.4-1.1h3c.7.4,1.4.8,2.2,1,1.9.5,3.8.3,5.7,0,.6,0,1.1-.3,1.1-1h1.4c0,.2,0,.4,0,.5-.2.5,0,.6.5.5.7,0,1.4,0,2.1,0s1.3-.4,1.5-1.1h0ZM251,36.3c.2.4.1.6.1.8.1,3.3.2,6.5.3,9.8,0,.5.1.7.7.7.5,0,1,0,1.4,0,.5,0,.7-.1.8-.5,1.4-3.5,2.9-6.9,4.3-10.4,0-.1,0-.3.2-.3,0,.1,0,.2,0,.3-.6,3.5-1.3,7-2,10.5,0,.4,0,.5.4.5,1,0,1.9,0,2.9,0,.5,0,.6-.1.7-.6.9-4.9,1.9-9.8,2.8-14.7,0-.4,0-.5-.4-.5-1.7,0-3.3,0-5,0-.5,0-.7.1-.9.6-1.1,2.8-2.1,5.5-3.2,8.2,0,.2-.1.3-.2.5-.1-.2-.1-.4-.1-.6,0-2.7-.1-5.4-.1-8.1,0-.5-.1-.6-.6-.6-1.5,0-3,0-4.6,0-.4,0-.6,0-.6.5,0,.5-.2,1-.3,1.5-.9,4.4-1.7,8.7-2.6,13.1-.1.5,0,.6.5.6.9,0,1.8,0,2.6,0,.4,0,.5-.1.6-.5.4-2.2.9-4.5,1.3-6.8.3-1.3.5-2.6.8-4h0ZM264.5,38c1-.2,1.8-.4,2.8-.5s1.8-.1,2.8,0c.3,0,.6.1.8.3.5.4.4.9.3,1.4-.1.5-.5.2-.8.2-1.5,0-2.9,0-4.3.5-1.6.6-3,1.5-3.4,3.3-.5,2.2.5,4.1,2.6,4.5,1.6.3,3.1,0,4.4-.9.1-.1.2-.3.5-.3,0,.2,0,.3,0,.4-.1.6.1.7.6.6.7,0,1.4,0,2.1,0,.6,0,.7-.2.8-.7.4-2.5.8-5,1.2-7.6.4-2.5-.8-4.2-3.2-4.6-2.1-.4-4.2,0-6.3.4-.2,0-.4,0-.4.3-.2.9-.3,1.7-.5,2.6h0ZM277.6,47.7c1.2,0,2.3,0,3.4-.2,1.5-.4,2.8-1.1,3.2-2.7.6-2.2-.2-3.9-2.4-4.8-.5-.2-1-.4-1.5-.7-.3-.2-.5-.5-.5-.8,0-.4.3-.7.6-.8.4-.2.8-.2,1.2-.2.9,0,1.8,0,2.6,0,.2,0,.4,0,.4-.3,0-.7.2-1.4.4-2.1.1-.5,0-.6-.5-.6-1.1-.1-2.3-.2-3.5-.1-1.2,0-2.3.3-3.4.8-2.3,1.2-2.7,5-.2,6.3.7.4,1.4.7,2,1,.5.3,1.2.5,1.1,1.2,0,.5-.5.8-1.5.9-1.3.2-2.6,0-3.9-.3-.3,0-.5,0-.5.3,0,.6-.2,1.2-.3,1.8q-.1.7.6.8c.9.1,1.8.2,2.6.2h0Z"></path><path class="cls-1" d="M290.5,44.6c-.4,0-.7,0-1-.1-.4-.2-.6-.5-.5-.9.3-1.8.7-3.6,1-5.4,0-.3.2-.3.4-.3h1.4c.2,0,.4,0,.4-.3.1-.8.2-1.6.4-2.4,0-.3,0-.4-.3-.4-.3,0-.6,0-.9,0-.6,0-.7-.2-.5-.7,0,0,0-.2,0-.3,7.5,0,15,0,22.5,0,1.2,0,1.1-.3,1.2,1.1,0,0,0,.2,0,.2-.9,1.4-1.4,3-1.6,4.7-1,0-2,0-3,0,.4-1.1.9-1.4,2-1.4.2,0,.3,0,.3-.2.2-1.3.7-2.4,1.3-3.6-1.6-.3-2.6.6-3.6,1.7,0-.4,0-.8.2-1.2,0-.3,0-.4-.3-.4-.9,0-1.8,0-2.7,0s-.6.2-.6.5c-.3,1.5-.6,3.1-.9,4.6-.5,0-.9,0-1.4,0,.2-2.3-.7-4.1-2.7-4.9-2.1-.9-4.2-.8-6.2.5-1.6,1.1-2.6,2.6-3.1,4.5-.2,0-.5,0-.7,0-1.7,0-1.8,0-1.5,1.8,0,.3.2.5.5.5.5,0,.9,0,1.4,0,0,.7.1,1.4.3,2.1-.5,0-1,0-1.5,0-.3,0-.4.1-.4.4Z"></path><path class="cls-1" d="M308.9,44.2c.1-.7.2-1.4.5-2.1h3.7c.1.7.3,1.4.6,2.1h-4.7Z"></path><path class="cls-1" d="M359.9,48c-1,0-1.8-.8-1.8-1.7,0-.9.7-1.7,1.7-1.8,1,0,1.8.7,1.8,1.7,0,.9-.8,1.8-1.7,1.8h0ZM361.3,46.3c0-.8-.6-1.5-1.4-1.5-.8,0-1.5.6-1.5,1.4,0,.8.6,1.5,1.4,1.5.8,0,1.5-.6,1.5-1.4Z"></path><path class="cls-1" d="M292.4,44.2c.4.9.9,1.7,1.6,2.3h-3c0-.4,0-.9.2-1.3.1-.5,0-.7-.5-.6,0,0-.1,0-.2,0,0-.3,0-.4.4-.4.5,0,1,0,1.5,0h0Z"></path><path class="cls-1" d="M303.1,46.5c.1-.8.3-1.5.5-2.3.4,0,.9,0,1.3,0,0,.8-.2,1.5-.4,2.3-.5,0-.9,0-1.4,0Z"></path><path class="cls-1" d="M358.1,61.3c0-.9.7-1.7,1.7-1.8,1,0,1.8.7,1.8,1.7,0,.9-.8,1.8-1.7,1.8-.9,0-1.8-.8-1.8-1.8h0ZM361.3,61.3c0-.8-.6-1.4-1.4-1.5-.8,0-1.5.6-1.5,1.4,0,.8.6,1.5,1.4,1.5.8,0,1.5-.6,1.5-1.4h0Z"></path><path class="cls-1" d="M353.5,40.3c0,1.4-.4,2.5-1.3,3.4-.7.7-1.6,1-2.6.6-1-.3-1.2-1.1-1.3-2,0-1.3.1-2.5,1-3.6.5-.6,1.1-.9,1.9-1,1.1,0,1.8.4,2.1,1.5,0,.4.1.8.1,1h0Z"></path><path class="cls-1" d="M332,41.8c1.1,0,1.2,0,.9,1-.4,1.3-1.2,2.1-2.4,2.2-.8,0-1.4-.2-1.6-.8-.2-.7,0-1.5.8-1.9.8-.5,1.6-.5,2.3-.5h0Z"></path><path class="cls-1" d="M313.1,42.1h-3.7c.1-.8.3-1.5.7-2.3,1,.1,2,0,3,0,0,.7,0,1.5,0,2.2h0Z"></path><path class="cls-1" d="M292.4,39.9c-.2.7-.2,1.5-.2,2.2-.5,0-.9,0-1.4,0-.3,0-.5,0-.5-.5-.3-1.7-.3-1.8,1.5-1.8.2,0,.5,0,.7,0Z"></path><path class="cls-1" d="M304,42.1c.1-.8.3-1.5.4-2.3.5,0,.9,0,1.4,0-.1.8-.2,1.5-.4,2.2h-1.3Z"></path><path class="cls-1" d="M304,42.1h1.3c0,.7-.2,1.4-.4,2.1-.4,0-.9,0-1.3,0-.2-.3-.5,0-.7,0h-6c-.3-.2-.6-.5-.7-.8-.4-.9-.2-1.3.8-1.3h6.4c.2,0,.5,0,.6-.1h0Z"></path><path class="cls-1" d="M361.3,46.3c0,.8-.7,1.4-1.5,1.4-.8,0-1.4-.7-1.4-1.5,0-.8.7-1.4,1.5-1.4s1.4.7,1.4,1.5ZM359.1,46.3c0,.2,0,.3,0,.5,0,.1,0,.4.1.4.2,0,.1-.2.2-.4,0-.1,0-.3.2-.3.1,0,.3,0,.4.2,0,.1.2.3.3.4,0,.1.2.2.3.1.1,0,0-.2,0-.3-.2-.2-.4-.4,0-.7.3-.2.1-.5-.2-.7-.6-.3-1.1,0-1.1.7v.2Z"></path><path class="cls-1" d="M269.6,41.8c.2,0,.4,0,.6,0,.2,0,.3,0,.3.3.1,1.5-1.4,3-2.9,2.9-.6,0-1-.2-1.3-.8-.2-.5,0-1.2.5-1.6.7-.6,1.6-.7,2.5-.8.1,0,.2,0,.4,0h0s0,0,0,0Z"></path><path class="cls-1" d="M298.5,39.6h-1.8c-.2,0-.3,0-.2-.3.3-1.4,1.9-2.3,3.3-1.8.7.2,1.1,1.2.9,1.9,0,.3-.2.2-.4.2h-1.8,0Z"></path><path class="cls-1" d="M296.9,44.2h6c-1.6.5-3.2.8-4.8.5-.4,0-.8-.2-1.1-.5Z"></path><path class="cls-1" d="M359.1,46.3v-.2c0-.7.5-1,1.1-.7.3.2.4.5.2.7-.4.3-.2.5,0,.7,0,0,.2.2,0,.3-.1.1-.2,0-.3-.1s-.2-.3-.3-.4c0-.1-.2-.2-.4-.2-.2,0-.1.2-.2.3,0,.1,0,.4-.2.4-.2,0-.1-.3-.1-.4,0-.2,0-.3,0-.5ZM359.8,45.7c-.2,0-.4,0-.4.3,0,.3.2.3.4.3s.4,0,.4-.3c0-.3-.2-.3-.4-.3h0Z"></path><path class="cls-1" d="M359.6,60.4c.4,0,.7,0,.8.3.1.3,0,.5-.3.7-.2.2.2.3.2.5,0,0,.2.2,0,.3-.1.1-.2,0-.3-.1,0-.1-.1-.2-.2-.3-.1-.2-.3-.3-.5-.2-.2,0-.1.2-.1.3,0,.1,0,.3-.1.3-.2,0-.1-.2-.2-.4,0-.3,0-.6,0-.8,0-.5,0-.7.5-.6h0ZM359.8,61.2c.2,0,.4,0,.4-.3s-.2-.3-.4-.3-.4,0-.4.3c0,.3.2.3.4.3h0Z"></path><path class="cls-1" d="M359.8,45.7c.2,0,.4,0,.4.3,0,.3-.2.2-.4.3-.2,0-.4,0-.4-.3,0-.3.2-.3.4-.3h0Z"></path></g><g><path class="cls-1" d="M529.3,35.1c.5-1.2.5-2.5.7-3.8,1.6-7.8,5.5-14.3,11.3-19.7.4-.4.6-.4,1,0,3,3.4,6.1,6.8,9.2,10.1.4.5.3.7,0,1.1-4.2,4-6.6,8.9-6.8,14.6-.2,6.4,2.1,11.8,6.7,16.2.6.5.7.8,0,1.5-3,3.3-6,6.6-9,9.9-.4.5-.6.6-1.2,0-6.5-5.9-10.4-13.2-11.7-21.9,0-.5,0-1-.3-1.5v-6.7h0Z"></path><path class="cls-1" d="M569.1,2.1c1.4.2,2.9.4,4.3.7,14.8,3.4,24.4,12.2,28.5,26.9.3,1.2.3,1.2-.9,1.5-4.2.8-8.5,1.7-12.7,2.5-.6.1-1,0-1.2-.7-3.2-11.8-15.1-18.6-26.9-15.3-.9.2-1.1,0-1.4-.8-1.3-4.1-2.7-8.1-4.2-12.1-.2-.7-.1-.9.6-1.2,2.2-.6,4.5-1.1,6.8-1.4.2,0,.5,0,.7-.2h6.3Z"></path><path class="cls-1" d="M611.3,43c0-11,7.7-20.1,18.4-22,8.2-1.4,19,2.2,23.8,12.5.5,1,.8,1.9,1.3,2.9.3.6.2.9-.5,1.2-7.1,3.1-14.2,6.2-21.2,9.3-5.9,2.6-11.8,5.1-17.7,7.7-.6.3-.8.2-1.1-.4-1.9-3.5-3-7.2-3-11.2h0ZM621.5,43.2c6.7-2.9,13.4-5.8,20.2-8.7-3.2-4.2-8.1-5.3-13.3-3.2-4.8,2-7.6,6.8-6.9,11.9h0Z"></path><path class="cls-1" d="M566,74.8c-3.7,0-7.4-.6-10.9-1.6-.6-.2-.7-.4-.5-.9,1.4-4.2,2.9-8.3,4.3-12.5.2-.7.5-.8,1.2-.6,11.1,3.1,22.7-2.7,26.5-13.3.2-.6.5-1.2.5-1.9.1-.8.5-.9,1.2-.7,2.5.5,5.1,1.1,7.7,1.6,1.8.4,3.7.7,5.5,1.1.5,0,.8.2.6.9-3.4,13.1-11.6,21.7-24.3,26.2-3.8,1.3-7.7,1.8-11.7,1.9h0Z"></path><path class="cls-1" d="M659.7,33.5c0-7.1,0-14.2,0-21.3,0-.7.1-.9.9-.9,2.5,0,5.1,0,7.7,0,.8,0,1,.2,1,1,0,13.6,0,27.3,0,40.9,0,.8.2,1.2,1,1.5,1.7.6,3.3,1.3,5,2,.5.2.7.3.4.9-1.1,2.5-2.2,5.1-3.3,7.7-.2.5-.4.5-.8.3-2.3-1-4.6-1.9-6.8-2.9-3.4-1.6-4.9-4.4-5-8,0-7,0-14.1,0-21.2h0Z"></path><path class="cls-1" d="M676.3,42.1c0-5.2,2.4-10.7,6.9-15.1.5-.5.7-.5,1.2,0,1.9,2.2,3.8,4.3,5.8,6.5.4.5.3.7,0,1.1-4.8,4.8-4.8,12.4,0,17.2.4.4.5.7,0,1.2-2,2.1-3.9,4.3-5.8,6.5-.4.5-.7.5-1.1,0-4.4-4.1-6.9-10-6.9-17.4h0Z"></path><path class="cls-1" d="M698.6,65.7c-2.1,0-4.2-.3-6.2-.9-.6-.2-.8-.3-.6-1,1-2.7,1.9-5.5,2.8-8.3.2-.6.4-.7,1-.5,6.6,1.7,13-2,14.8-8.6.1-.5.3-.7.9-.6,2.9.6,5.8,1.2,8.7,1.8.6.1.7.2.6.8-1.8,8.4-9.5,15.6-18,16.9-1.3.2-2.6.3-3.9.3h0Z"></path><path class="cls-1" d="M710.9,40.7c-.5.1-.4-.4-.5-.6-1.3-4.4-4.1-7.2-8.4-8.6-2.2-.7-4.3-.7-6.5,0-.5.1-.7,0-.9-.5-.9-2.8-1.8-5.6-2.8-8.4-.2-.7,0-.8.5-1,10.5-3.1,21.8,2,26.5,11.9.7,1.5,1.2,3,1.6,4.7,0,.2.2.5-.2.6-3.1.6-6.2,1.2-9.4,1.9Z"></path><path class="cls-1" d="M633.5,65.7c-4.5-.2-8.2-1.4-11.7-3.5-.5-.3-.7-.5-.3-1.1,1.6-2.2,3.1-4.5,4.5-6.8.3-.5.5-.7,1.1-.2,2.8,2.1,6,2.3,9.3,1.4,2.8-.8,5.3-2.3,7-4.8.3-.4.5-.4.9-.2,2.4,1.6,4.8,3.3,7.3,4.9.5.3.3.6,0,.9-3.4,4.8-8.1,7.5-13.7,8.9-1.7.4-3.4.5-4.6.5h0Z"></path></g><g><path class="cls-1" d="M803,32.8c-3.8.4-6.5,3.8-6.1,7.6l12.1-5.2c-1.5-1.8-3.7-2.7-6-2.4Z"></path><path class="cls-1" d="M845.4,7.5c-6.6-4.9-14.6-7.5-22.8-7.5s-15.1,2.3-21.5,6.5c-.4.3-3.5,2.5-3.6,2.6-5,3.8-8.4,4.4-13,3.3-.3,0-1.6-.5-2-.7-14.9-5.6-31.5,1.9-37,16.8-5.6,14.9,1.9,31.5,16.8,37,6.2,2.3,13,2.5,19.2.4,6.9-2.1,10.6-1.5,14.9,1.6.9.6,2.9,1.9,3.4,2.3,17.2,12.6,41.3,8.9,54-8.3s8.9-41.3-8.3-54h0ZM779,51.3l-2.2-.9c-.8-.3-1.4-.9-1.9-1.6-.5-.8-.8-1.8-.8-2.8v-6.5c0-3.8-3.1-6.9-6.9-6.9s-1,0-1.5.2c-1.9.5-3.6,1.7-4.5,3.5-.5,1-.8,2.1-.8,3.2,0,1.2.3,2.3.9,3.3,1.8,3.3,6,4.5,9.3,2.7l1.9,4.4c-1.6.8-3.4,1.2-5.2,1.2-6.4,0-11.6-5.2-11.6-11.6s5.2-11.6,11.6-11.6,11.6,5.2,11.6,11.6v6.5l1.9.8-1.8,4.4h0ZM789.8,51.3l-3.9-1.6c-.8-.3-1.4-.9-1.8-1.6-.5-.8-.8-1.8-.8-2.8v-22.6h4.4v22.5l3.9,1.6-1.8,4.4h0ZM797.6,49.5l2.6-4.1c2.7,1.7,6.2,1.3,8.4-.9l3.4,3.4c-3.9,3.8-9.8,4.4-14.4,1.5ZM794,46c-1.3-2-1.9-4.2-1.9-6.5,0-6.4,5.4-11.6,11.8-11.5,5.3,0,9.9,3.8,11.2,9l-21.1,9h0ZM823.8,51.3l-3.9-1.6c-.8-.3-1.4-.9-1.9-1.6-.5-.8-.8-1.8-.8-2.8v-22.6h4.5v22.5l3.9,1.6-1.8,4.4h0ZM833,50.1c-5.8-2.8-8.3-9.7-5.5-15.5l4.3,2.1c-1.6,3.4-.2,7.5,3.2,9.2,2.5,1.2,5.5.8,7.6-1.1l3.2,3.5c-3.5,3.2-8.6,3.9-12.8,1.9ZM848.5,44.7l-4.3-2.1h0c1.7-3.4.2-7.5-3.2-9.2-2.5-1.2-5.5-.8-7.6,1.1l-3.2-3.5c3.5-3.2,8.6-3.9,12.9-1.9,5.8,2.8,8.3,9.8,5.5,15.6Z"></path></g></g><g><g><g><path class="cls-1" d="M618.8,154c0,6.8,4.3,12.6,10.3,14.9v-29.8c-6,2.3-10.3,8.1-10.3,14.9h0Z"></path><path class="cls-1" d="M640.5,139.1v29.8c6-2.3,10.3-8.1,10.3-14.9,0-6.8-4.3-12.6-10.3-14.9Z"></path><path class="cls-1" d="M647.7,126.6h-13c-15.2,0-27.8,11.3-27.8,27.8s12.6,27.4,27.8,27.3h13c15.1,0,28.8-12.3,28.8-27.3s-13.8-27.8-28.8-27.8ZM634.8,179.2c-13.9,0-25.2-11.3-25.2-25.2,0-13.9,11.3-25.2,25.2-25.2s25.2,11.3,25.2,25.2-11.3,25.2-25.2,25.2Z"></path></g><path class="cls-1" d="M685.3,138.4c0-2.6-1.4-2.4-2.7-2.5v-.8c1.1,0,2.3,0,3.4,0s2.9,0,5,0c7.5,0,11.6,5,11.6,10.1s-1.7,10.1-12,10.1-2.8,0-4.2,0-2.6,0-3.9,0v-.8c1.7-.2,2.6-.2,2.7-2.2v-14h0ZM688.2,152c0,2.2,1.6,2.5,3,2.5,6.3,0,8.3-4.7,8.3-9s-3.5-9.3-9.1-9.3-1.7,0-2.3.1v15.8h0ZM703.7,154.6h.5c.8,0,1.4,0,1.4-1v-7.8c0-1.3-.4-1.4-1.5-2v-.5c1.4-.4,3-.9,3.1-1,.2-.1.4-.1.5-.1s.2.2.2.4v11.1c0,1,.6,1,1.5,1h.5v.8c-1,0-2,0-3,0s-2.1,0-3.2,0v-.8h0ZM706.8,137.7c-.8,0-1.4-.7-1.4-1.4s.7-1.4,1.4-1.4,1.4.6,1.4,1.4-.6,1.4-1.4,1.4ZM712.7,146c0-1.1-.3-1.4-1.7-1.9v-.6c1.2-.4,2.4-.8,3.8-1.4,0,0,.2,0,.2.3v1.9c1.7-1.2,3.1-2.2,5-2.2s3.3,1.8,3.3,4.1v7.5c0,1,.6,1,1.5,1h.5v.8c-1,0-2,0-3.1,0s-2.1,0-3.1,0v-.8h.5c.8,0,1.4,0,1.4-1v-7.5c0-1.6-1-2.5-2.7-2.5s-2.4.8-3.4,1.4v8.6c0,1,.6,1,1.5,1h.5v.8c-1,0-2,0-3.1,0s-2.1,0-3.1,0v-.8h.5c.8,0,1.4,0,1.4-1v-7.7h0ZM727.5,147.4c0,.3,0,.7,0,1.7.2,2.8,1.9,5,4.3,5s2.8-.9,3.9-1.9l.4.4c-1.3,1.8-3,3.3-5.4,3.3-4.6,0-5.5-4.5-5.5-6.3,0-5.7,3.8-7.4,5.9-7.4s4.9,1.5,4.9,4.5c0,.2,0,.4,0,.5l-.3.2h-8.2ZM732.7,146.5c.7,0,.8-.4.8-.7,0-1.5-.9-2.7-2.5-2.7s-3,1.3-3.3,3.4h5,0ZM736.7,154.6h.8c.8,0,1.4,0,1.4-1v-8.1c0-.9-1.1-1.1-1.5-1.3v-.4c2.1-.9,3.3-1.6,3.5-1.6s.3,0,.3.4v2.6h0c.7-1.1,1.9-3,3.7-3s1.7.5,1.7,1.5-.5,1.5-1.4,1.5-.9-.7-1.9-.7-2.1.7-2.1,2.4v6.8c0,1,.6,1,1.4,1h1.6v.8c-1.6,0-2.8,0-4.1,0s-2.4,0-3.5,0v-.8h0ZM747.8,151.4c.4,1.9,1.5,3.5,3.7,3.5s2.3-1,2.3-2.1c0-3.4-6.3-2.3-6.3-7s1.3-3.7,4.5-3.7,2.2.3,3.3.8l.2,2.9h-.7c-.3-1.8-1.3-2.9-3.2-2.9s-2.3.7-2.3,1.9c0,3.4,6.7,2.3,6.7,6.9s-1.5,3.9-5,3.9-2.5-.4-3.5-1l-.3-3.3h.5ZM782.3,140.4h-.7c-.5-3.4-3-4.8-6.2-4.8s-8.2,2.2-8.2,9.2,4.2,10.1,8.6,10.1,5.2-2,5.8-5l.7.2-.7,4.2c-1.2.8-4.5,1.5-6.4,1.5-6.8,0-11.1-4.4-11.1-10.9s5.3-10.2,11-10.2,4.6.8,6.8,1.5l.3,4.1h0ZM783.4,154.6h.5c.8,0,1.4,0,1.4-1v-16.1c0-1.9-.4-1.9-1.5-2.3v-.5c1.2-.4,2.4-.9,3-1.2.3-.2.5-.3.6-.3.2,0,.2.2.2.4v20c0,1,.6,1,1.5,1h.5v.8c-1,0-2,0-3,0s-2.1,0-3.2,0v-.8h0ZM802,153.8c0,.5.3.6.8.6s.8,0,1.2,0v.6c-1.2.1-3.6.7-4.2.9h-.2v-2.4c-1.7,1.4-3.1,2.4-5.1,2.4s-3.2-1-3.2-3.4v-7.4c0-.8-.1-1.5-1.7-1.6v-.6c1,0,3.4-.2,3.7-.2s.3.2.3.8v7.5c0,.9,0,3.4,2.5,3.4s2.3-.8,3.5-1.8v-7.8c0-.6-1.4-.9-2.4-1.2v-.5c2.6-.2,4.2-.4,4.5-.4s.2.2.2.5v10.7h0ZM807.8,144.2c1.2-1,2.7-2.1,4.3-2.1,3.4,0,5.4,2.9,5.4,6.1s-2.8,7.6-6.9,7.6-3.3-.7-4-1l-.9.7-.6-.3c.3-1.7.4-3.4.4-5.1v-12.4c0-1.9-.4-1.9-1.5-2.3v-.5c1.2-.4,2.4-.9,3-1.2.3-.2.5-.3.6-.3.2,0,.2.2.2.4v10.6h0ZM807.8,152.1c0,1.1,1,2.9,3,2.9,3.1,0,4.4-3,4.4-5.6s-2.4-5.7-4.6-5.7-2,.7-2.8,1.4v7h0ZM682.7,172.2h.2c.6,0,1.2,0,1.2-.9v-8.2c0-.8-.6-.9-1.2-.9h-.2v-.5c.6,0,1.6,0,2.3,0s1.7,0,2.5,0v.5h-.2c-.6,0-1.2,0-1.2.9v8.2c0,.8.6.9,1.2.9h.2v.5c-.8,0-1.7,0-2.5,0s-1.7,0-2.3,0v-.5h0ZM698.3,169.6h0v-5.9c0-1.3-.9-1.5-1.4-1.5h-.3v-.5c.7,0,1.5,0,2.2,0s1.3,0,1.9,0v.5h-.2c-.7,0-1.4.1-1.4,2v7.2c0,.6,0,1.1,0,1.6h-.6l-8.1-9v6.5c0,1.4.3,1.8,1.5,1.8h.3v.5c-.7,0-1.4,0-2,0s-1.4,0-2.2,0v-.5h.2c1.1,0,1.4-.7,1.4-2v-6.6c0-.9-.7-1.4-1.4-1.4h-.2v-.5c.6,0,1.2,0,1.8,0s.9,0,1.4,0l7,7.9h0ZM703.1,162.5c-1.2,0-1.2.3-1.5,1.4h-.5c0-.4.1-.9.2-1.3,0-.4,0-.9,0-1.3h.4c.1.5.5.5,1,.5h8.1c.4,0,.8,0,.8-.5h.4c0,.5-.1.9-.2,1.3,0,.4,0,.9,0,1.3l-.5.2c0-.6-.1-1.5-1.2-1.5h-2.6v8.4c0,1.2.5,1.4,1.3,1.4h.3v.5c-.6,0-1.7,0-2.6,0s-2,0-2.7,0v-.5h.3c.9,0,1.3,0,1.3-1.3v-8.4h-2.6ZM712.7,172.2h.2c.6,0,1.2,0,1.2-.9v-8.2c0-.8-.6-.9-1.2-.9h-.2v-.5c1,0,2.6,0,3.9,0s3,0,4,0c0,.7,0,1.7,0,2.4h-.5c0-.9-.3-1.7-1.9-1.7h-2.2v4.1h1.9c1,0,1.2-.5,1.2-1.4h.5c0,.6,0,1.2,0,1.8s0,1.2,0,1.8h-.5c0-.9-.1-1.5-1.2-1.5h-1.9v3.7c0,1,.9,1,1.9,1,1.9,0,2.7-.1,3.2-1.9h.4c-.2.9-.4,1.8-.5,2.6-1,0-2.8,0-4.2,0s-3.3,0-4.2,0v-.5h0ZM723.8,163.4c0-1.1-.6-1.2-1.1-1.2h-.3v-.5c.5,0,1.5,0,2.5,0s1.7,0,2.5,0c2,0,3.8.5,3.8,2.8s-1,2.3-2.2,2.8l2.7,4c.4.7.8.9,1.5.9v.5c-.5,0-1,0-1.5,0s-1,0-1.5,0c-1.2-1.6-2.3-3.3-3.3-5.1h-1v3.4c0,1.2.6,1.3,1.3,1.3h.3v.5c-.9,0-1.8,0-2.7,0s-1.5,0-2.3,0v-.5h.3c.6,0,1.1-.3,1.1-.9v-8h0ZM725.8,167h.8c1.6,0,2.4-.6,2.4-2.5s-.9-2.3-2.3-2.3-.7,0-.9,0v4.7h0ZM743.9,169.6h0v-5.9c0-1.3-.9-1.5-1.4-1.5h-.3v-.5c.7,0,1.5,0,2.2,0s1.3,0,1.9,0v.5h-.2c-.7,0-1.4.1-1.4,2v7.2c0,.6,0,1.1,0,1.6h-.6l-8.1-9v6.5c0,1.4.3,1.8,1.5,1.8h.3v.5c-.7,0-1.4,0-2,0s-1.4,0-2.2,0v-.5h.2c1.1,0,1.4-.7,1.4-2v-6.6c0-.9-.7-1.4-1.4-1.4h-.2v-.5c.6,0,1.2,0,1.8,0s.9,0,1.4,0l7,7.9h0ZM748.9,170.4c-.2.5-.3.9-.3,1.2,0,.5.7.6,1.2.6h.2v.5c-.6,0-1.3,0-1.9,0s-1.1,0-1.7,0v-.5h0c.6,0,1.1-.4,1.4-1l2.5-7.2c.2-.6.5-1.4.6-2,.5-.2,1.1-.5,1.4-.7,0,0,0,0,.1,0s0,0,.1,0c0,.1,0,.3.1.4l2.9,8.2c.2.6.4,1.1.6,1.6.2.4.5.6,1,.6h0v.5c-.7,0-1.4,0-2.2,0s-1.6,0-2.4,0v-.5h.2c.4,0,1,0,1-.5s-.1-.6-.3-1.1l-.6-1.8h-3.6l-.5,1.6h0ZM751.2,163.5h0l-1.5,4.5h3l-1.5-4.5ZM758,162.5c-1.2,0-1.2.3-1.5,1.4h-.5c0-.4.1-.9.2-1.3,0-.4,0-.9,0-1.3h.4c.1.5.5.5,1,.5h8.1c.4,0,.8,0,.8-.5h.4c0,.5-.1.9-.2,1.3,0,.4,0,.9,0,1.3l-.5.2c0-.6-.1-1.5-1.2-1.5h-2.6v8.4c0,1.2.5,1.4,1.3,1.4h.3v.5c-.6,0-1.7,0-2.6,0s-2,0-2.7,0v-.5h.3c.9,0,1.3,0,1.3-1.3v-8.4h-2.6,0ZM767.6,172.2h.2c.6,0,1.2,0,1.2-.9v-8.2c0-.8-.6-.9-1.2-.9h-.2v-.5c.6,0,1.6,0,2.3,0s1.7,0,2.5,0v.5h-.2c-.6,0-1.2,0-1.2.9v8.2c0,.8.6.9,1.2.9h.2v.5c-.8,0-1.7,0-2.5,0s-1.7,0-2.3,0v-.5ZM778.7,161.5c3.4,0,6,2.1,6,5.4s-2.6,6-6,6-5.9-2.3-5.9-5.6,2.5-5.8,5.8-5.8h0ZM778.9,172.2c3.1,0,3.6-2.7,3.6-5s-1.2-5.1-3.9-5.1-3.6,2.5-3.6,4.6,1.3,5.5,3.8,5.5ZM795.4,169.6h0v-5.9c0-1.3-.9-1.5-1.4-1.5h-.3v-.5c.7,0,1.5,0,2.2,0s1.3,0,1.9,0v.5h-.2c-.7,0-1.4.1-1.4,2v7.2c0,.6,0,1.1,0,1.6h-.6l-8.1-9v6.5c0,1.4.3,1.8,1.5,1.8h.3v.5c-.7,0-1.4,0-2,0s-1.4,0-2.2,0v-.5h.2c1.1,0,1.4-.7,1.4-2v-6.6c0-.9-.7-1.4-1.4-1.4h-.2v-.5c.6,0,1.2,0,1.8,0s.9,0,1.4,0l7,7.9h0ZM800.4,170.4c-.2.5-.3.9-.3,1.2,0,.5.7.6,1.2.6h.2v.5c-.6,0-1.3,0-1.9,0s-1.1,0-1.7,0v-.5h0c.6,0,1.1-.4,1.4-1l2.5-7.2c.2-.6.5-1.4.6-2,.5-.2,1.1-.5,1.4-.7,0,0,0,0,.1,0s0,0,.1,0c0,.1,0,.3.1.4l2.9,8.2c.2.6.4,1.1.6,1.6.2.4.5.6,1,.6h0v.5c-.7,0-1.4,0-2.2,0s-1.6,0-2.4,0v-.5h.2c.4,0,1,0,1-.5s-.1-.6-.3-1.1l-.6-1.8h-3.6l-.5,1.6h0ZM802.7,163.5h0l-1.5,4.5h3l-1.5-4.5ZM812.8,171.1c0,.6.4.8.9.9.7,0,1.4,0,2.1,0,.7,0,1.2-.5,1.5-.9.2-.4.4-.8.5-1.1h.5c-.2.9-.4,1.8-.6,2.7-1.4,0-2.8,0-4.2,0s-2.8,0-4.2,0v-.5h.2c.6,0,1.2,0,1.2-1.1v-8.1c0-.8-.6-.9-1.2-.9h-.2v-.5c.8,0,1.7,0,2.5,0s1.6,0,2.4,0v.5h-.4c-.6,0-1.1,0-1.1.9v8.1h0Z"></path></g><g><path class="cls-1" d="M42.9,214.4v-61.5c0,0,.2,0,.3,0h4.9q.5,0,.7-.5c.3-.7.6-1.4.8-2.1,0-.3.2-.4.6-.4.8,0,1.6,0,2.4,0,.3,0,.5.1.6.4.3.8.6,1.5.9,2.2,0,.3.2.4.5.4,0,0,.2,0,.3,0h44.5c.2,0,.3,0,.3-.3v-2.6c.2,0,.3.2.4.3.6.7,1.1,1.4,1.7,2.1.2.3.5.4.9.4,3.4,0,6.9,0,10.3,0,.4,0,1,.2,1.2-.1.3-.3,0-.8,0-1.2,0-.2,0-.5,0-.7.1.1.2.2.3.3,1.4,1.1,2.9,1.7,4.6,1.7,2.7,0,5.3,0,8,0,.3,0,.4-.1.6-.4.3-.8.6-1.5.9-2.2.1-.3.2-.4.5-.4.8,0,1.6,0,2.5,0,.3,0,.4.1.5.4.3.7.6,1.4.9,2.1q.2.5.7.5h10.8c.6,0,.6,0,.6-.6v-2c0-.2,0-.4,0-.6.2,0,.2.2.3.3.5.8,1,1.6,1.5,2.4.2.3.4.5.8.5,2.4,0,4.8,0,7.1,0h.3c.2,0,.3,0,.3-.3v-18.2c0-.5,0-.5-.5-.5h-7.2q-.5,0-.5.5v2.2c0,.1,0,.3-.1.4-.6-.9-1.2-1.8-1.8-2.7-.2-.3-.4-.4-.7-.4-2.4,0-4.8,0-7.1,0s-.6,0-.6.5v4.5c0,.2,0,.3,0,.5-.2-.2-.2-.4-.3-.6-.6-1.5-1.3-2.9-1.9-4.4-.1-.4-.3-.5-.7-.5-4.6,0-9.1,0-13.7,0s-3.9.6-5.6,1.8c0,0-.2.2-.4.1,0-.4,0-.8,0-1.2,0-.9,0-.8-.8-.8h-42.2c0,0-.2,0-.3,0-.3,0-.4.1-.5.4-.4,1.1-.8,2.2-1.2,3.3,0,.1,0,.3-.2.4-.4-1.2-.9-2.4-1.3-3.7-.1-.3-.3-.4-.6-.4-2.9,0-5.9,0-8.8,0s-.5,0-.5.5v4.7c0,.1,0,.3,0,.5-.1-.2-.2-.4-.3-.6-.7-1.5-1.3-3.1-2-4.6-.1-.3-.3-.5-.7-.5-2.3,0-4.6,0-6.8,0-.4,0-.6.1-.7.4-.5,1.4-1.1,2.7-1.7,4-.8,1.8-1.6,3.7-2.4,5.5,0,.1,0,.4-.3.4v-50.7h120.8c0,.2,0,.4,0,.7v63.8c0,.9.1.8-.8.8h-71.2c-.1,0-.3,0-.4,0-.3,0-.6,0-.8.4-.5.7-1,1.3-1.6,2-.1.1-.2.3-.4.4-.6-.7-1.2-1.5-1.7-2.2-.2-.4-.5-.5-1-.5-6.3,0-12.6,0-18.8,0s-.7,0-.7.6v18c0,.2,0,.3.3.3h19.2c.4,0,.6-.1.8-.4.5-.7,1-1.4,1.6-2.1,0-.1.1-.3.4-.3.6.8,1.2,1.6,1.8,2.4.2.2.3.3.6.3h11.2c.4,0,.4,0,.4-.5v-3.4q0-.5.5-.5h2.5c1,0,1.9-.2,2.8-.5,0,0,.2,0,.3,0,0,.2,0,.4,0,.6v4.1c0,.1,0,.2.2.2h7.2c.2,0,.4,0,.6-.1v-2.7c.7.8,1.4,1.5,2,2.3.3.4.6.5,1,.5,13.1,0,26.2,0,39.3,0,1.4,0,2.7-.3,3.9-1,.2,0,.3-.2.6-.2v36.9c0,.6-.3.9-.9.9H43.7c-.3,0-.5,0-.8,0h0Z"></path><path class="cls-1" d="M42.9,144.3c.3,0,.3-.2.3-.4.8-1.8,1.6-3.7,2.4-5.5.6-1.3,1.2-2.7,1.7-4,.1-.4.3-.4.7-.4,2.3,0,4.6,0,6.8,0,.4,0,.5.1.7.5.7,1.5,1.3,3.1,2,4.6,0,.2.2.4.3.6.1-.2,0-.3,0-.5v-4.7c0-.5,0-.5.5-.5h8.8c.3,0,.5.1.6.4.4,1.2.9,2.4,1.3,3.7.2,0,.2-.2.2-.4.4-1.1.8-2.2,1.2-3.3,0-.3.2-.4.5-.4,0,0,.2,0,.3,0h42.2c.8,0,.7-.1.8.8,0,.4,0,.8,0,1.2.2,0,.3,0,.4-.1,1.7-1.2,3.6-1.8,5.6-1.8,4.6,0,9.1,0,13.7,0s.6.1.7.5c.6,1.5,1.2,2.9,1.9,4.4,0,.2.1.4.3.6.1-.2,0-.4,0-.5v-4.5q0-.5.6-.5h7.1c.3,0,.5.1.7.4.6.9,1.2,1.8,1.8,2.7.2,0,.1-.2.1-.4v-2.2c0-.5,0-.5.5-.5h7.2q.5,0,.5.5v18.2c0,.2,0,.3-.3.3h-.3c-2.4,0-4.8,0-7.1,0-.4,0-.6-.1-.8-.5-.5-.8-1-1.6-1.5-2.4,0-.1-.1-.3-.3-.3,0,.2,0,.4,0,.6v2c0,.6,0,.6-.6.6h-10.8q-.5,0-.7-.5c-.3-.7-.6-1.4-.9-2.1-.1-.2-.2-.4-.5-.4-.8,0-1.6,0-2.5,0-.3,0-.4.1-.5.4-.3.8-.6,1.5-.9,2.2,0,.3-.2.4-.6.4-2.7,0-5.3,0-8,0-1.7,0-3.3-.7-4.6-1.7-.1,0-.2-.2-.3-.3-.2.2,0,.5,0,.7,0,.4.2.9,0,1.2-.3.3-.8.1-1.2.1-3.4,0-6.9,0-10.3,0-.4,0-.7-.1-.9-.4-.5-.7-1.1-1.4-1.7-2.1,0-.1-.2-.3-.4-.3v2.6c0,.2,0,.3-.3.3h-44.5c0,0-.2,0-.3,0-.3,0-.4-.1-.5-.4-.3-.8-.6-1.5-.9-2.2,0-.3-.2-.4-.6-.4-.8,0-1.6,0-2.4,0-.3,0-.5.1-.6.4-.3.7-.6,1.4-.8,2.1-.2.5-.2.5-.7.5h-4.9c0,0-.2,0-.3,0v-8.6h0ZM74.3,140.4c.1.3,0,.5,0,.7v9.1c0,.2,0,.3.3.3h2.9c.2,0,.3-.1.3-.3v-13.2c0-.8,0-.6-.7-.6h-4.2c-.9,0-.7-.1-1,.7-.9,2.6-1.8,5.2-2.7,7.8,0,.2,0,.4-.3.6-.1-.3-.2-.5-.3-.8-.9-2.6-1.8-5.1-2.8-7.6-.2-.6,0-.6-.8-.6h-4.7c-.4,0-.4,0-.4.4v13.5c0,.2,0,.3.3.3h3c.2,0,.3,0,.3-.3v-9.9c.2.2.3.4.3.6,1.1,3,2.2,6.1,3.3,9.1.2.6.2.5.7.5h2.1c.6,0,.5,0,.7-.5,1.1-3,2.2-6,3.3-9,0-.2.1-.4.2-.6h0ZM149.6,145c-.2-.2-.3-.4-.4-.6-1.7-2.6-3.3-5.1-5-7.7-.2-.3-.4-.4-.8-.4-1.1,0-2.3,0-3.4,0s-.6,0-.6.6v13.1c0,.3,0,.4.4.4.9,0,1.9,0,2.8,0s.4,0,.4-.3c0-.1,0-.3,0-.4v-7.6c0-.2,0-.4,0-.6.2.1.3.3.4.5,1.7,2.7,3.5,5.4,5.2,8,.1.2.3.4.6.4,1.2,0,2.4,0,3.6,0,.4,0,.4,0,.4-.4v-13.4c0-.2,0-.4-.3-.4h-2.9c-.2,0-.3,0-.3.3v7.7c0,.2,0,.4,0,.7h0ZM103.1,145.3c.2,0,.3,0,.5-.1,1.9-.5,3.2-1.9,3.4-4,.1-1.9-.8-3.6-2.6-4.4-.7-.3-1.5-.5-2.3-.5h-7.2c-.7,0-.6,0-.6.6v13.2c0,.2,0,.4.3.4.9,0,1.9,0,2.8,0,.3,0,.4-.1.4-.4,0-1.3,0-2.5,0-3.8s0-.8.8-.9c.5,0,.8.1,1.1.5,1.1,1.4,2.3,2.8,3.5,4.2.2.3.4.4.8.4,1.1,0,2.2,0,3.4,0,.1,0,.3,0,.4-.1-1.5-1.7-3-3.3-4.5-5.1h0ZM80.4,143.4v6.8c0,.2,0,.3.3.3h10.9c.4,0,.4,0,.4-.4v-2.2c0-.4,0-.4-.4-.4h-7.1c-.3,0-.4-.1-.4-.4,0-.6,0-1.1,0-1.6s0-.5.5-.5h6.9c.4,0,.4,0,.4-.5v-2q0-.5-.5-.5h-6.8c-.4,0-.4,0-.4-.5v-1.5c0-.5,0-.5.5-.5h7c.4,0,.4,0,.4-.5v-2.2q0-.5-.4-.5h-10.9c-.2,0-.3,0-.3.3v6.8h0ZM59.7,150.5c0-.2,0-.2,0-.3-1.9-4.5-3.9-9-5.8-13.5-.1-.3-.3-.4-.6-.4-1.2,0-2.5,0-3.7,0-.4,0-.5.1-.7.5-1.9,4.4-3.8,8.8-5.7,13.2,0,.1-.2.3,0,.5h3.6c.3,0,.3-.2.4-.4.3-.7.6-1.4.8-2.1.1-.3.2-.4.6-.4,1.9,0,3.8,0,5.7,0,.3,0,.5.1.6.4.3.7.6,1.4.8,2.1,0,.2.2.3.4.3,1.2,0,2.4,0,3.7,0h0ZM122.3,150.5h3.6c.2,0,.3-.2.4-.3.3-.7.6-1.4.8-2.1,0-.3.2-.4.6-.4,1.9,0,3.8,0,5.7,0,.3,0,.5.1.6.4.2.7.6,1.4.8,2.1.1.3.2.4.5.4.4,0,.8,0,1.2,0h2.3c0-.2,0-.4-.1-.5-1.9-4.4-3.8-8.8-5.7-13.3-.1-.3-.3-.4-.6-.4-1.2,0-2.4,0-3.6,0-.4,0-.6.1-.8.5-1.9,4.4-3.7,8.7-5.6,13.1,0,.2-.2.3-.1.6h0ZM122.1,147.4c-.5,0-.9,0-1.3,0-1.4-.1-2.5-.6-3.1-2-.5-1.3-.5-2.6,0-3.9.4-.9,1.1-1.5,2.1-1.8.4-.1.8-.1,1.2-.1h3.2c.4,0,.4,0,.4-.5v-2.4q0-.5-.5-.5h-3.4c-.6,0-1.1,0-1.6.1-2.7.5-4.4,2-5.2,4.6-.2.6-.2,1.2-.3,1.9,0,1.5.1,2.9.8,4.3,1.1,2.3,3.2,3.4,5.8,3.3.2,0,.3,0,.3-.2.4-.9.9-1.9,1.4-2.9h0ZM112,143.4v-6.8c0-.2,0-.3-.3-.3h-3c-.2,0-.3.1-.3.3v13.1c0,.1,0,.3,0,.4,0,.3.1.4.4.4.9,0,1.8,0,2.7,0s.5,0,.5-.6v-6.5h0Z"></path><path class="cls-1" d="M163.7,158v.4h.3v-64.3c0,0,0-.2,0-.2.1-.4-.2-.3-.4-.3,0,.2,0,.4,0,.7v63.8h0Z"></path><path class="cls-1" d="M163.6,176.5v.8c0,12.1,0,24.1,0,36.2s-.3.9-.9.9H43.7c-.3,0-.5,0-.8,0,.1.2.4.1.5.1h120.7v-38.2c-.1,0-.3.1-.4.2h0Z"></path><path class="cls-1" d="M66.4,177.1v.4c0,.2,0,.3.3.3h19.2c.4,0,.6-.1.8-.4.5-.7,1-1.4,1.6-2.1,0-.1.1-.3.4-.3.6.8,1.2,1.6,1.8,2.4.2.2.3.3.6.3h11.2c.4,0,.4,0,.4-.5v-3.4q0-.5.5-.5h2.5c1,0,1.9-.2,2.8-.5,0,0,.2,0,.3,0,0,.2,0,.4,0,.6v4.1c0,.1,0,.2.2.2h7.2c.2,0,.4,0,.6-.1v-2.7c.7.8,1.4,1.5,2,2.3.3.4.6.5,1,.5,13.1,0,26.2,0,39.3,0,1.4,0,2.7-.3,3.9-1,.1,0,.3-.2.5-.2.1,0,.3-.1.4-.2v-18h-.3c0,0-.8.4-.8.4h-71.2c-.1,0-.3,0-.4,0-.3,0-.6,0-.8.4-.5.7-1,1.3-1.6,2-.1.1-.2.3-.4.4-.6-.7-1.2-1.5-1.7-2.2-.2-.4-.5-.5-1-.5-6.3,0-12.6,0-18.8,0s-.7,0-.7.6v17.6h0ZM151.5,164.6c.4-1.9,1.7-2.9,3.5-3.3.6-.1,1.2-.2,1.9-.2h6.6c.1,0,.2,0,.4.1,0,.2-.2.4-.3.6-.3.6-.6,1.2-.9,1.9-.2.5-.5.6-1,.6-1.6,0-3.3,0-4.9,0s-.6,0-.8,0c-.6,0-1,.5-1,1.1,0,.6.4,1.1.9,1.2.2,0,.4,0,.6,0h3.4c.7,0,1.4.1,2,.4,1.3.6,2.1,1.6,2.2,3.1,0,.6,0,1.3,0,1.9-.4,1.7-1.6,2.8-3.3,3.1-.4,0-.8.1-1.2.1h-7q-.5,0-.6-.6v-2.1c0-.4,0-.5.5-.5h6.3c.3,0,.6,0,.9,0,.6-.2.9-.6.9-1.1,0-.5-.3-1-.9-1.1-.3,0-.6-.1-.9-.1h-2.8c-.5,0-1,0-1.5-.1-1.6-.4-2.7-1.6-2.9-3.2,0-.6-.1-1.3,0-1.9h0ZM138.5,164.5c.3-1.2,1-2.1,2.1-2.7.7-.4,1.5-.6,2.3-.6,1.6-.1,3.2,0,4.8,0h3.1c-.5,1.1-.9,2-1.4,3,0,.2-.2.2-.4.2h-5.4c-.3,0-.6,0-.8,0-.6.1-.9.5-.9,1,0,.5.2,1,.7,1.2.2.1.5.1.8.1h3.3c.6,0,1.1,0,1.6.2,1.5.4,2.4,1.4,2.6,2.9.2.9.1,1.9-.2,2.8-.6,1.5-1.6,2.3-3.2,2.6-.4,0-.8.1-1.2.1h-7.2c-.2,0-.3,0-.3-.3v-2.5c0-.2,0-.3.2-.3h6.5c.3,0,.6,0,.9-.1.6-.2.9-.6.9-1.1s-.4-1-.9-1.1c-.3,0-.6-.1-.9-.1h-2.9c-.6,0-1.2,0-1.8-.3-1.2-.4-2-1.2-2.4-2.5-.3-.9-.3-1.7,0-2.6h0ZM126.1,161.1h10.7c.2,0,.3,0,.3.3v2.6c0,.2,0,.3-.3.3h-7.4c-.2,0-.3,0-.3.3v1.9c0,.2.1.3.3.3h7q.5,0,.5.5c0,.7,0,1.4,0,2.1,0,.3-.1.4-.4.4-1.6,0-3.1,0-4.7,0h-2.2c-.5,0-.5,0-.5.4v1.8c0,.2,0,.3.3.3h7.4c.2,0,.3,0,.3.2v2.6c0,.2,0,.2-.3.2h-10.7c-.6,0-.6,0-.6-.6v-13c0-.6-.1-.6.6-.6h0ZM111.2,161.6c0-.5,0-.5.5-.5h7.2c.9,0,1.8.1,2.6.5,1.8.9,2.8,2.6,2.5,4.8-.2,1.8-1.6,3.3-3.5,3.6,0,0-.2,0-.2.1,1.5,1.6,3,3.3,4.5,5-.1.2-.3.1-.4.1-1.1,0-2.2,0-3.3,0-.4,0-.6-.1-.8-.4-1.2-1.4-2.3-2.8-3.5-4.2-.3-.4-.6-.6-1.2-.5-.9,0-.8-.1-.8.8v3.7q0,.5-.5.5h-2.6c-.4,0-.4,0-.4-.4v-13.3h0ZM96.8,170.6v-9.3c0-.1,0-.2.2-.2h7.5c.7,0,1.4,0,2.1.3,1.8.6,3,2.2,3.1,4.1,0,.6,0,1.3-.2,1.9-.4,1.4-1.3,2.4-2.7,3-.8.3-1.7.5-2.5.5-1.1,0-2.2,0-3.2,0s-.6,0-.6.6v3.4c0,.5,0,.5-.5.5h-2.7q-.5,0-.5-.5v-4.2h0ZM81.3,161.1h3.5c.3,0,.5.1.7.4.9,1.2,1.8,2.3,2.7,3.4.1.2.3.4.4.6.2,0,.3-.3.4-.4.9-1.2,1.8-2.4,2.7-3.5.2-.3.5-.4.9-.4,1,0,2,0,3.1,0h.7c-.3.4-.5.6-.6.8-1.6,2-3.2,3.9-4.7,5.9-.3.4-.4.3,0,.8,1.6,2,3.2,4,4.8,6.1.1.2.3.3.4.6-.2.1-.4,0-.5,0-1.1,0-2.2,0-3.2,0-.4,0-.6,0-.9-.4-.8-1.2-1.7-2.3-2.6-3.4-.1-.1-.2-.3-.4-.5-.2.1-.2.3-.4.4-.9,1.1-1.7,2.3-2.6,3.5-.2.3-.5.4-.9.4-1.1,0-2.1,0-3.2,0-.2,0-.3,0-.5,0,0-.2.2-.4.4-.6,1.6-2,3.2-3.9,4.8-5.9.4-.5.4-.4,0-.9-1.7-2.1-3.3-4.1-4.9-6.2-.1-.1-.3-.3-.3-.5.1-.1.3,0,.4,0h0ZM68.8,161.7c0-.5,0-.5.5-.5h10.6q.5,0,.5.5c0,.8,0,1.5,0,2.2,0,.3,0,.4-.4.4-1,0-2,0-3,0h-4.1c-.4,0-.5,0-.5.5v1.6c0,.2,0,.3.3.3h7q.6,0,.6.6v1.9q0,.5-.5.5h-6.2c-.2,0-.5,0-.7,0-.3,0-.4.1-.4.4,0,.6,0,1.2,0,1.8,0,.3.1.4.4.4,1.3,0,2.6,0,3.8,0h3.3c.4,0,.4,0,.4.4v2.2c0,.4,0,.4-.4.4h-10.9c-.2,0-.3,0-.3-.3v-13.4h0Z"></path><path class="cls-1" d="M99.9,139.5h1.7c.2,0,.4,0,.6,0,.8.3,1.2.9,1.1,1.6,0,.6-.7,1.2-1.4,1.3-.5,0-1,0-1.5,0h-2.4c-.2,0-.3,0-.3-.3,0-.8,0-1.5,0-2.3,0-.3.1-.4.4-.4.6,0,1.2,0,1.9,0h0Z"></path><path class="cls-1" d="M51.4,139.8c.6,1.6,1.3,3.1,1.9,4.8h-4c.6-1.6,1.3-3.2,1.9-4.8h.1Z"></path><path class="cls-1" d="M132.5,144.6h-4c.6-1.6,1.3-3.2,2-4.8.6,1.6,1.3,3.1,1.9,4.8h0Z"></path><path class="cls-1" d="M117,167.3c-.6,0-1.2,0-1.8,0-.3,0-.4,0-.4-.4,0-.8,0-1.5,0-2.2,0-.3,0-.4.4-.4h3.7c.5,0,.9.2,1.3.6.6.6.5,1.5-.1,2-.3.3-.8.4-1.2.4h-1.8,0Z"></path><path class="cls-1" d="M102.6,164.4c.7,0,1.3,0,1.9,0,1.1,0,1.7,1.1,1.4,2.1-.2.6-.6.9-1.2,1.1-.2,0-.3,0-.5,0h-3.5c-.3,0-.4-.1-.4-.4,0-.8,0-1.6,0-2.5,0-.3.1-.4.4-.4.6,0,1.2,0,1.8,0h0s0,0,0,0Z"></path></g><path class="cls-1" d="M300.9,213.1v-118.8c0-.6,0-.7-.6-.7h-119.8c-.4,0-.4,0-.5.4,0,.3,0,.6,0,.9v119c0,.4,0,.4.5.4.3,0,.6,0,.9,0h118.2c1.5,0,1.3.2,1.3-1.3h0ZM192.2,136.9c2.2-1.5,4.4-2.9,6.6-4.4,3.6-2.4,7.3-4.9,11-7.3,9.9-6.6,19.9-13.3,29.8-19.9.6-.4.8-.6,1-.6s.2,0,.3.2.3.2.6.4c15.7,10.5,31.3,21,46.9,31.5.3.2.6.3.8.7-.3.2-.5.4-.8.6-18.8,12.6-37.5,25.2-56.3,37.8-.1.1-.3.2-.4.3-.2.1-.4.3-.5.3-.2,0-.3,0-.5-.1-.1-.1-.4-.3-.7-.5-2.6-1.8-5.3-3.6-7.9-5.3-.3-.2-.6-.3-.9-.7,1.2-.8,2.3-1.6,3.5-2.4.4-.3.8-.5,1.2-.8,1.5-1.1,3.1-2.1,4.6-3.1,1.6-1.1,3.1-2.1,4.7-3.2,1.6-1.1,3.1-2.1,4.7-3.2,1.6-1.1,3.1-2.1,4.7-3.2,1.5-1,3.1-2.1,4.6-3.1,1.6-1.1,3.1-2.1,4.7-3.2,1.6-1.1,3.1-2.1,4.7-3.2,1-.6,1.9-1.3,2.9-2,.6-.4,1.1-.8,1.7-1.2,1.6-1.1,3.1-2.1,4.7-3.2h0v-.2s0,0,0,0c-9.6-6.5-19.2-13-28.8-19.5-4.5,3.1-9,6.1-13.5,9.1,0,0,0,.2,0,.2,0,.1.2.2.3.2,0,0,.1,0,.2,0,1.8,1.2,3.7,2.4,5.5,3.7,1.1.7,2.2,1.5,3.3,2.2.2.1.3.2.5.3.2.1.3.2.5.3h0s0,0,0,0c0,.1-.1.2-.2.3-.1,0-.2.1-.4.2-4.1,2.8-8.2,5.5-12.3,8.3-3.5,2.3-7,4.7-10.4,7-.2.1-.4.3-.6.4-.2.2-.4.1-.6,0-.1-.1-.3-.2-.5-.3-4.2-2.8-8.3-5.5-12.5-8.3-2.1-1.4-4.2-2.8-6.3-4.2-.2-.1-.4-.2-.5-.4,0,0-.1-.1-.1-.2.2-.3.5-.4.8-.6h0ZM211.2,190.3c-6.6,4.4-13.2,8.7-19.7,13h0c0,0-.2,0-.2,0-.2-.2-.1-.4-.1-.6,0-2,0-4,0-6s0-4,0-6c0-.1,0-.2,0-.3s0-.2,0-.2c0-.1.2-.3.4-.4,3.1-2.1,6.2-4.2,9.3-6.3.1,0,.2-.1.4-.2,0,0,.1,0,.2,0s.1,0,.2.1c3.1,2.2,6.3,4.3,9.4,6.4,0,0,0,0,0,0,0,0,0,0,.1.2h0ZM288.9,170.7c-.1,0-.3.2-.4.3-15.9,10.6-31.8,21.2-47.7,31.8-.7.5-.7.6-1.1.4,0,0-.1,0-.2-.1s-.2-.1-.3-.2c-1.7-1.1-3.4-2.3-5.1-3.4-3.5-2.3-7-4.7-10.5-7-10.5-7-20.9-14-31.4-21.1-.3-.2-.6-.4-.8-.6.3-.3.6-.5.9-.7,2.5-1.7,4.9-3.3,7.4-5,6.1-4.1,12.2-8.2,18.4-12.3,10.2-6.9,20.4-13.7,30.6-20.6.5-.4.7-.5.9-.5s.2,0,.4.2c.1,0,.3.2.5.3,2.7,1.8,5.4,3.6,8.1,5.4,0,0,.2.1.3.2.2.1.3.2.5.4,0,0-.1.2-.2.2-.1.1-.3.2-.4.3,0,0-.1,0-.2.1-4.8,3.2-9.6,6.5-14.3,9.7-10.3,6.9-20.5,13.9-30.8,20.8-.3.2-.6.4-.8.6,0,0,.1.1.2.2.1.1.2.2.4.3,0,0,.1,0,.2.1,9.2,6.2,18.3,12.4,27.5,18.6.1,0,.2.1.2.2.2.1.3.2.5.2s0,0,.1,0c0,0,.2-.1.4-.2,0,0,.2-.1.3-.2,2.4-1.6,4.8-3.2,7.2-4.9,1.6-1.1,3.2-2.2,4.9-3.3.2-.1.4-.2.5-.4,0,0,.1-.1.1-.2,0,0,0-.1-.1-.2h0c-.2-.2-.5-.3-.7-.5-2.9-1.9-5.7-3.8-8.6-5.7-.2-.1-.4-.3-.6-.4,0,0-.1-.1-.1-.1,0-.1,0-.2.1-.3.2-.1.4-.3.6-.4,7.5-5.1,15.1-10.1,22.6-15.2.1,0,.3-.2.4-.3,0,0,.1-.1.2-.1.1,0,.3,0,.5,0,0,0,.2,0,.2.1,1.8,1.2,3.6,2.4,5.4,3.6,4.6,3,9.1,6.1,13.7,9.1,0,0,.1,0,.2.1.1,0,.2.2.4.3,0,0,0,0,0,0,0,0,.1.1.2.2-.1.1-.3.2-.4.3h0ZM289.8,105.8c0,3.1,0,6.2,0,9.4,0,.9,0,1.9,0,2.8h0c0,.2,0,.4-.1.5,0,0,0,.1-.1.2,0,0-.1.1-.2.2-1.8,1.2-3.6,2.4-5.4,3.6-1.2.8-2.5,1.6-3.7,2.5,0,0-.1,0-.2.1-.1,0-.2,0-.4,0,0,0-.1,0-.2,0-3.1-2.2-6.3-4.3-9.4-6.5,0,0,0,0-.1,0,0,0,0,0-.1-.1h0c.1-.1.2-.2.3-.3h0c6.5-4.3,13-8.6,19.5-12.9.2.2.2.4.2.6v.2h0Z"></path><g><path class="cls-1" d="M476.1,94.5h.8c15.8,0,31.6,0,47.4,0,16.4,0,32.8,0,49.1,0,5.5,0,11.1,0,16.6,0,1,0,1,0,.8,1-.7,3.2-1.3,6.3-2,9.5-2.2,10.9-4.5,21.8-6.7,32.7-2.2,10.5-4.3,20.9-6.5,31.4-1.8,8.9-3.7,17.8-5.5,26.7-.9,4.7-3.1,8.7-6.7,11.9-2.3,2-5,3.3-7.8,4.2-4.1,1.3-8.2,1.9-12.5,1.9h-102.9c-25.7,0-51.4,0-77.1,0-15.1,0-30.3,0-45.4,0-1,0-1,0-.8-1,1.2-5.7,2.3-11.4,3.5-17.1,2.1-10.1,4.1-20.1,6.2-30.2,2.2-10.9,4.5-21.9,6.7-32.8,1.3-6.4,2.6-12.7,4-19.1.5-2.7,1.3-5.2,2.7-7.6,1.7-2.9,4.1-5.2,7-7,3.4-2.1,7.2-3.2,11.1-3.9,2.3-.4,4.7-.6,7-.6,28.8,0,57.6,0,86.4,0h24.7s0,0,0,0ZM457.8,146.9s0,0,0,0c.2-1.3.5-2.6.7-3.9,0-.4,0-.6-.5-.6-1.4,0-2.8,0-4.2,0-.5,0-.5.2-.6.6-.7,5.3-1.6,10.6-2.6,15.9-.7,3.9-1.5,7.7-2.3,11.6-.1.5,0,.8.6.8,1.5,0,3,0,4.6,0,.5,0,.7-.1.7-.6.4-4.6,1.3-9.2,2.1-13.8.5-2.6,1.1-5.2,2.8-7.4,1.5-1.9,3.3-3.4,5.9-3.1.9,0,1.8,0,2.6.4.3.1.5.1.5-.3.2-1.1.4-2.3.6-3.4,0-.2,0-.4-.1-.5-1.1-.4-2.2-.8-3.4-.7-2.6.3-4.7,1.5-6.2,3.5-.4.6-.8,1.2-1.3,1.7h0ZM528.1,146.8s0,0,0,0c.2-1.3.4-2.6.6-3.8,0-.4,0-.6-.5-.6-1.3,0-2.6,0-4,0-.5,0-.7.1-.7.6-.7,5-1.5,9.9-2.4,14.9-.8,4.3-1.6,8.6-2.5,12.8,0,.4,0,.5.4.5,1.7,0,3.4,0,5.1,0,.3,0,.5,0,.5-.4,0-1.5.2-3,.5-4.5.7-4.4,1.2-8.9,2.5-13.2.9-3,2.6-5.4,5.6-6.6.2,0,.3-.1.5-.1,1.5,0,3-.2,4.4.4.3.1.5,0,.5-.3,0-1.1.3-2.2.6-3.3,0-.4,0-.5-.4-.6-1.1-.4-2.2-.6-3.4-.5-1.8.1-3.3.8-4.7,2-1,.9-1.8,1.9-2.6,3h0ZM361,147.1v.2c-2.9,0-5.9-.2-8.8-.2-.5,0-.5-.3-.4-.6.9-5.1,1.9-10.1,2.8-15.1,0-.5,0-.6-.5-.6-1.9,0-3.7,0-5.6,0-.4,0-.6.1-.7.6-.6,3.7-1.2,7.3-1.8,11-1,6.7-2.2,13.4-3.6,20.1-.5,2.7-1.1,5.5-1.6,8.2,0,.5,0,.6.5.6,1.9,0,3.7,0,5.6,0,.5,0,.6-.2.6-.6.2-1.2.4-2.4.6-3.6.9-5.1,1.7-10.2,2.6-15.3.1-.5.3-.7.8-.7,5.7,0,11.3,0,17,0,.6,0,.8.1.6.7-.7,3.6-1.4,7.2-2,10.8-.5,2.6-1,5.3-1.5,7.9-.1.5,0,.7.6.7,1.9,0,3.7,0,5.6,0,.4,0,.5-.1.6-.5.7-4.4,1.5-8.9,2.2-13.3,1.5-8.7,3.1-17.4,4.8-26.1.1-.5,0-.5-.4-.5-1.7,0-3.4,0-5.1,0s-1.1,0-1.3,1.1c-.8,4.9-1.7,9.8-2.4,14.7,0,.4-.2.6-.7.6-2.9,0-5.8,0-8.7,0h0ZM555.9,166.8c-.2,1.4-.3,2.7-.5,3.9,0,.4,0,.5.4.5,1.5,0,3,0,4.5,0,.3,0,.5,0,.5-.4,0-2.7.4-5.4.8-8.1.9-6.9,2.2-13.6,3.5-20.4.7-3.9,1.5-7.8,2.3-11.7,0-.5,0-.6-.5-.6-1.6,0-3.2,0-4.8,0-.4,0-.6.1-.6.5-.5,4-1.2,7.9-1.8,11.9,0,.4-.2.5-.6.3-2-.7-4.2-1-6.3-.9-2.7,0-5.2.6-7.7,1.8-2.6,1.4-4.5,3.4-5.9,6-1.8,3.3-2.9,6.9-3.2,10.6-.2,2.4,0,4.8.9,7.1.6,1.4,1.6,2.6,3,3.3,2.8,1.4,5.8,1.5,8.8,1.1,2-.3,3.8-1,5.2-2.4.7-.7,1.2-1.5,1.9-2.4h0ZM396,168.2c.4.3.4.6.6.9.7.9,1.4,1.8,2.5,2.3,1.6.7,3.2.8,4.9.6,4-.3,7.4-1.8,10-4.9,1.8-2.1,2.8-4.6,3.7-7.2,1.2-4,2-8,.8-12.1-.6-1.9-1.7-3.5-3.5-4.5-2.2-1.3-4.7-1.6-7.2-1.4-2.8.2-5.3,1.1-7.5,2.9-.2.1-.4.3-.7.5.2-.8.3-1.4.4-2,.1-.5,0-.8-.6-.8-1.2,0-2.5,0-3.7,0-.5,0-.7.2-.8.7-.9,5.5-1.7,10.9-2.7,16.4-1.4,8-2.9,16.1-4.5,24.1,0,.4,0,.6.5.6,1.6,0,3.2,0,4.9,0,.4,0,.6,0,.7-.6.3-3.1.9-6.1,1.4-9.2.3-2,.6-4.1,1-6.2h0ZM508.9,166.8c0,.2,0,.4,0,.7-.1,1.1-.2,2.1-.3,3.2,0,.4,0,.6.5.5,1.4,0,2.8,0,4.2,0,.4,0,.5-.1.5-.5,0-1.1,0-2.3.2-3.5.5-3.8,1.2-7.6,1.8-11.5.5-2.9,1.3-5.8,1.2-8.8,0-1.8-.9-3-2.3-3.8-2.4-1.4-5.2-1.4-7.9-1.5-3.1,0-6.2.7-9.4.6-.3,0-.5,0-.5.4-.3,1.3-.6,2.6-.9,3.8-.1.4,0,.5.4.4,1.2-.3,2.5-.6,3.8-.8,2.8-.5,5.6-.9,8.4-.2,1.6.4,3,1.3,2.8,3.4,0,.9-.2,1.7-.4,2.6,0,.4-.2.6-.8.6-1.9,0-3.8,0-5.7,0-2.3,0-4.5,0-6.7.8-3.3,1.2-5.7,3.1-7,6.4-.9,2.3-1,4.7-.5,7.1.5,2.2,1.9,3.6,4,4.3,2,.7,4.1.7,6.2.6,1.2,0,2.3-.4,3.4-.8,2.1-.9,3.7-2.4,5.1-4.1h0ZM444,165.8c0,0-.2,0-.2,0-3.3,1.5-6.7,2.2-10.3,2-1.2,0-2.3-.3-3.3-.7-2.3-.9-3.3-2.9-3.5-5.1-.2-1.9,0-3.9.4-5.8,0-.4.2-.5.6-.6,1.6,0,3.2-.1,4.8-.1,4.5,0,9.1,0,13.6.1.3,0,.6,0,.8-.4.5-2.2.9-4.5.8-6.8-.1-2.1-1-3.8-2.8-5-1.5-1-3.3-1.3-5.1-1.6-2.8-.4-5.5,0-8.1.7-3.7,1.1-6.5,3.5-8.2,7.1-2,4.3-3,8.9-2.7,13.6.2,2.2,1,4.2,2.6,5.8,1.8,1.7,4,2.3,6.3,2.6,4.5.5,8.9-.2,13.2-1.2.3,0,.4-.2.4-.5.1-.9.3-1.8.5-2.7,0-.5.3-1,.2-1.5h0ZM486.5,165.9c-3.2,1.5-6.3,2.1-9.7,1.9-1,0-1.9-.4-2.7-1-1.8-1.3-2.3-3.2-2.4-5.3-.1-2.9.3-5.7,1.2-8.4.6-1.7,1.3-3.4,2.5-4.8,1.8-2.2,4.3-2.7,7-2.7,2.4,0,4.8.4,7,1.2.3.1.4,0,.5-.2.2-1.3.4-2.6.6-3.9,0-.4-.1-.5-.5-.5-3-.3-6-.6-9-.4-1.7.1-3.4.3-5,.9-4.3,1.5-6.8,4.8-8.4,8.8-1.3,3.4-2,7-1.9,10.7,0,1.7.3,3.3,1,4.8,1,2.1,2.6,3.6,4.9,4.3,2.4.7,4.9.8,7.3.5,2-.2,4.1-.5,6-1.1.3,0,.6-.1.7-.5.3-1.3.6-2.7.8-4.2h0ZM381.6,171.2c.8,0,1.6,0,2.4,0,.4,0,.6,0,.6-.5.2-2.7.8-5.4,1.2-8.1,1.1-6.6,2.3-13.2,3.7-19.7.1-.5,0-.6-.5-.6-1.5,0-3,0-4.4,0-1,0-1,0-1.1,1-.6,4.2-1.3,8.4-2,12.6-.9,4.9-1.8,9.7-2.8,14.6-.1.5,0,.6.5.6.8,0,1.6,0,2.4,0h0ZM384.9,134.5c0,.2,0,.4,0,.6,0,.8.4,1.7,1.2,2,1.9.7,4.2.1,5-2,.4-.9.3-1.7.4-2.6,0-.9-.4-1.5-1.1-1.9-.6-.4-1.3-.2-2-.2-.9,0-1.6.3-2.2.9-.9.9-1.3,2-1.2,3.3h0Z"></path><path class="cls-1" d="M553.1,145.7c1.8-.3,3.5.2,5.2.8.4.1.5.3.5.7-.9,4.7-1.6,9.4-2.8,14-.6,2.4-1.8,4.5-4.1,5.7-2.3,1.3-5.9,1.6-8.2-.4-.7-.6-1-1.4-1.3-2.3-.5-1.9-.4-3.8-.2-5.8.3-3.2,1.2-6.2,3-8.9,1.3-2,3-3.3,5.4-3.9.8-.2,1.7,0,2.5,0h0Z"></path><path class="cls-1" d="M412.9,153.5c0,4-1.1,7.7-3.2,11.1-1.9,3-5.6,4.1-8.8,3.3-2.3-.6-3.8-2.9-3.6-5.3.3-3.7,1.2-7.3,1.8-10.9.1-.8.4-1.7.5-2.5,0-.5.3-.9.7-1.2,1.9-1.7,4.2-2.6,6.8-2.4,3.6.3,5.8,2,5.9,6.3,0,.6,0,1.1,0,1.7h0Z"></path><path class="cls-1" d="M495.6,163.5c0-2.5,1-4.6,3-6.1,1.2-.9,2.8-1.4,4.3-1.4,2,0,4.1,0,6.2,0s.9,0,.7.9c-.5,2.7-1.1,5.3-2.6,7.7-.9,1.4-2.1,2.3-3.7,2.9-1,.4-2.1.6-3.2.6s-1.4-.1-2.1-.4c-1.3-.4-2-1.2-2.6-2.4-.2-.5,0-1.1-.2-1.8h0Z"></path><path class="cls-1" d="M434.8,152.3c-2.1,0-4.2,0-6.4,0-.5,0-.6-.1-.4-.6.6-1.4,1-2.9,2.2-4.1,1.2-1.2,2.7-1.9,4.3-2.1,1.3-.2,2.6-.2,3.9,0,2.3.4,3.6,2,3.5,4.3,0,.6-.1,1.3-.2,1.9,0,.5-.2.6-.7.5-2.1,0-4.2,0-6.4,0h0s0,0,0,0Z"></path><path class="cls-1" d="M528.1,146.8s0,0,0,0c0,0,0-.1,0-.1,0,0,0,0,0,0Z"></path><path class="cls-1" d="M457.8,146.9c0,0,0,.2,0,.1,0,0,0-.1,0-.2,0,0,0,0,0,0Z"></path></g></g></g><g><g><g><g><polygon class="cls-2" points="94.5 72.8 76.7 72.8 87.8 4.4 105.6 4.4 94.5 72.8"></polygon><path class="cls-2" d="M61.8,4.4l-17,47-2-10.1h0l-6-30.7s-.7-6.2-8.4-6.2H.3l-.3,1.2s8.6,1.8,18.6,7.8l15.5,59.4h18.5L80.9,4.4h-19.2Z"></path><path class="cls-2" d="M201.7,72.8h16.3l-14.2-68.3h-14.3c-6.6,0-8.2,5.1-8.2,5.1l-26.5,63.2h18.5l3.7-10.2h22.6l2.1,10.2h0ZM182.1,48.6l9.4-25.6,5.3,25.6h-14.6Z"></path><path class="cls-2" d="M156.1,20.9l2.5-14.7s-7.8-3-16-3-29.8,3.9-29.8,22.6,24.6,17.9,24.6,27.1-22.1,7.6-29.3,1.8l-2.7,15.3s7.9,3.9,20.1,3.9,30.5-6.3,30.5-23.4-24.8-19.4-24.8-27.1,17.3-6.7,24.9-2.5h0Z"></path></g><path class="cls-2" d="M42.8,41.3l-6-30.7s-.7-6.2-8.4-6.2H.3l-.3,1.2s13.5,2.8,26.4,13.3c12.4,10,16.4,22.5,16.4,22.5h0Z"></path></g><g><path class="cls-2" d="M486.2,52h0c-.4,0-.4,0-.5.3-.1.6-.3,1.3-.4,1.9,0,.1,0,.2.1.2.9.3,1.8.5,2.7.5,1,.1,2,0,3-.3.3,0,.5-.2.8-.3-.6.4-1.3.5-2,.6-1.5.2-3,0-4.5-.5-.2,0-.2-.1-.2-.3.2-.8.3-1.5.5-2.3,0-.2.1-.3.3-.1,0,0,.1,0,.2.1h0Z"></path><path class="cls-2" d="M494.3,54.5s0,0,0,0c0,.2,0,.3.3.3.8,0,1.7,0,2.5,0,.2,0,.3,0,.4-.3.1-.4.3-.9.5-1.3,0,0,0-.2.1-.2-.2.6-.4,1.1-.6,1.7,0,.1,0,.2-.2.2h-3c-.1,0-.2,0-.1-.2,0,0,0-.2.1-.3h0Z"></path><path class="cls-2" d="M472,53c.2.2.2.5.2.8,0,.3.2.6.2.9,0,.2.1.2.3.2h2.8c.1,0,.2,0,.3,0,0,0-.1,0-.2,0h-3.1c-.1,0-.2,0-.2-.1-.1-.6-.3-1.2-.5-1.8h0Z"></path><path class="cls-2" d="M477,52.3c0-.3.1-.5.2-.7.2-.5.4-1,.6-1.5,0,0,0-.2.1-.2-.3.8-.6,1.6-1,2.4Z"></path><path class="cls-2" d="M490.1,52.4c0,.1-.1.1-.2.2-.7.2-1.4.2-2.1,0,0,0,0,0,0,0,.2,0,.5,0,.7,0,.6,0,1.1,0,1.6-.2h0Z"></path><path class="cls-2" d="M493.9,52.7c0,0,0-.2,0-.3.2-.4.3-.9.3-1.4v-.6c.1.2,0,.4,0,.5,0,.6-.1,1.2-.4,1.7Z"></path><path class="cls-2" d="M496.1,50.4c0,.2,0,.3-.1.5-.1.4-.3.7-.5,1.1,0,0,0,.2-.2.2.2-.6.5-1.2.7-1.8h0Z"></path><path class="cls-2" d="M476,54.8c0,0,0-.2,0-.3.1-.3.3-.6.4-.9,0,0,0-.1.1-.1-.1.4-.3.9-.5,1.3Z"></path><path class="cls-2" d="M476.5,53.5c0,0,0-.1,0-.2.1-.3.2-.5.3-.8,0,0,0-.2.1-.2-.1.4-.3.8-.5,1.2Z"></path><path class="cls-2" d="M490.8,50.9c.3.2.3.7,0,.9.1-.3.1-.6,0-.9Z"></path><path class="cls-2" d="M487.3,52.4c-.4,0-.7-.1-1-.4.3.1.7.2,1,.4Z"></path><path class="cls-2" d="M495.1,52.7c0,.2,0,.5-.3.6,0-.2.1-.4.3-.6Z"></path><path class="cls-2" d="M493.6,53.2c0-.2.1-.4.3-.5,0,.2-.2.4-.3.5Z"></path><path class="cls-2" d="M494.8,53.3c0,.2,0,.4-.2.6,0-.2.1-.4.2-.6Z"></path><path class="cls-2" d="M494.6,53.9c0,.2,0,.4-.2.6,0-.2.1-.4.2-.6Z"></path><path class="cls-2" d="M489.5,49.9c.1,0,.3,0,.3.2-.1,0-.2,0-.3-.2Z"></path><path class="cls-2" d="M489.8,50.1c.1,0,.2,0,.3.2-.1,0-.2,0-.3-.2Z"></path><path class="cls-2" d="M490.4,52.2c0,.2-.1.2-.3.2,0,0,.2,0,.3-.2Z"></path><path class="cls-2" d="M493.4,53.4c0-.2,0-.2.2-.2,0,0-.1.2-.2.2Z"></path><path class="cls-2" d="M487.7,52.5c0,0-.2,0-.2,0,0,0,.2,0,.2,0Z"></path><path class="cls-2" d="M496.2,50.1c0,.1,0,.2-.1.2,0,0,0-.2.1-.2Z"></path><path class="cls-2" d="M474.5,50.8c0,0,0,.1,0,.2,0,0,0,0,0,0,0,0,0,0,0-.1h0Z"></path><path class="cls-2" d="M492.8,54c0,0,0-.2.2-.1,0,0,0,.1-.2.1Z"></path><path class="cls-2" d="M490.7,50.7c.1,0,.1,0,.1.2,0,0,0-.1-.1-.2Z"></path><path class="cls-2" d="M495.2,52.5c0,0,0,.2,0,.2,0,0,0-.2,0-.2Z"></path><path class="cls-2" d="M492.4,54.2c0-.1,0-.1.2-.1,0,0-.1,0-.2.1Z"></path><path class="cls-2" d="M492.1,54.5c0-.1.1-.1.2,0,0,0-.1,0-.2,0Z"></path><path class="cls-2" d="M490.8,51.8c0,0,0,.2,0,.1,0,0,0,0,0-.1Z"></path><path class="cls-2" d="M487.5,52.5c0,0-.1,0-.1,0,0,0,.1,0,.1,0Z"></path><path class="cls-2" d="M490.1,50.3c0,0,.1,0,.1,0,0,0-.1,0-.1,0Z"></path><path class="cls-2" d="M492.3,54.3c0,0,0-.1.1,0,0,0,0,0-.1,0Z"></path><path class="cls-2" d="M495.3,52.2c0,0,0,.2,0,.2,0,0,0-.2,0-.2Z"></path><path class="cls-2" d="M492.6,54.1c0,0,0,0,.1,0,0,0,0,0-.1,0Z"></path><path class="cls-2" d="M490.2,50.4c0,0,.1,0,.1.1,0,0,0,0-.1-.1Z"></path><path class="cls-2" d="M490.5,52.2c0,0,0,.1-.1,0,0,0,0,0,.1,0Z"></path><path class="cls-2" d="M490.5,50.5c0,0,.1,0,.1,0,0,0,0,0-.1,0Z"></path><path class="cls-2" d="M495.2,52.3c0,0,0,.1,0,.1,0,0,0-.1,0-.1Z"></path><path class="cls-2" d="M489.4,49.8s0,0,.1,0c0,0,0,0-.1,0Z"></path><path class="cls-2" d="M493.3,53.5s0,0,0,0c0,0,0,0,0,0Z"></path><path class="cls-2" d="M493,53.8c0,0,0,0,0,0,0,0,0,0,0,0Z"></path><path class="cls-2" d="M492,54.5c0,0,0,0,.1,0,0,0,0,0-.1,0Z"></path><path class="cls-2" d="M475.9,54.9s0,0,0,0c0,0,0,0,0,0Z"></path><path class="cls-2" d="M486.3,52s0,0-.1,0c0,0,0,0,.1,0Z"></path><path class="cls-2" d="M490.6,52c0,0,0,0,0,0,0,0,0,0,0,0Z"></path><path class="cls-2" d="M490.7,51.9s0,0,0,0c0,0,0,0,0,0Z"></path><path class="cls-2" d="M490.7,52s0,0,0,0c0,0,0,0,0,0Z"></path><path class="cls-2" d="M493.4,53.5s0,0,0,0c0,0,0,0,0,0Z"></path><path class="cls-2" d="M489.3,49.8s0,0,0,0c0,0,0,0,0,0Z"></path><path class="cls-2" d="M493.2,53.6s0,0,0,0c0,0,0,0,0,0Z"></path><path class="cls-2" d="M493.1,53.7s0,0,0,0c0,0,0,0,0,0Z"></path><path class="cls-2" d="M493.1,53.7s0,0,0,0c0,0,0,0,0,0Z"></path><path class="cls-2" d="M493,53.8s0,0,0,0c0,0,0,0,0,0Z"></path><path class="cls-2" d="M490.4,50.5s0,0,0,0c0,0,0,0,0,0Z"></path><path class="cls-2" d="M479.8,54.9s0,0,0,0h0s0,0,0,0h0Z"></path><path class="cls-2" d="M490.6,50.6s0,0,0,0c0,0,0,0,0,0Z"></path><path class="cls-2" d="M490.5,50.5s0,0,0,0c0,0,0,0,0,0Z"></path><path class="cls-2" d="M446.7,65.3c-.2,0-.3.1-.4.2-4.6,4.1-9.9,6.8-15.9,8.2-1.9.4-3.8.7-5.7.8-1.6,0-3.3,0-4.9,0-3.9-.3-7.7-1.2-11.3-2.8-4.5-1.9-8.4-4.7-11.8-8.3-3.5-3.7-6.1-7.9-7.8-12.7-.9-2.4-1.5-4.9-1.8-7.4-.3-2.1-.4-4.3-.3-6.4.3-5.5,1.7-10.7,4.4-15.6,2.5-4.5,5.8-8.3,9.8-11.4,4.1-3.2,8.8-5.3,13.9-6.4,3.3-.7,6.6-1,9.9-.8,4.9.3,9.6,1.6,13.9,3.8,2.8,1.5,5.4,3.3,7.8,5.4-.1.1-.3.3-.4.4-1,1-2,2-2.9,3.1,0,0-.2.1-.1.3.2,0,.4,0,.5,0h6.1c.3,0,.5,0,.6.3.8,1,1.6,2.1,2.3,3.2,0,0,.2.2,0,.3h-12c-.4,0-.6.1-.8.5-.5,1-1.1,1.9-1.6,3,0,.1-.2.2,0,.4.2,0,.4,0,.6,0h15.6c.4,0,.5.1.7.5.4,1,.8,1.9,1.1,2.9,0,.1.1.3,0,.4-.2,0-.4,0-.6,0h-18.1c-.2,0-.5,0-.7,0-.3,0-.4,0-.5.3-.3,1-.6,2-.8,2.9,0,.2-.1.3,0,.5.2,0,.4,0,.6,0h20.6c.1,0,.3,0,.4,0,.2,0,.3,0,.3.3,0,.4.1.7.2,1.1-.2,0-.3,0-.5,0-1,0-2,0-3,.3-.9.2-1.8.6-2.6,1.2-1.1,1-1.5,2.2-1.5,3.6,0,1.6.9,2.6,2.1,3.4.5.3,1.1.6,1.7.8.4.2.8.4,1.2.6.7.4.5,1.5,0,1.8-.2.1-.5.2-.7.3-1,.2-1.9.1-2.9,0-.8,0-1.5-.2-2.2-.4-.2,0-.3,0-.4.2-.1.9-.3,1.8-.5,2.8,0,.4,0,.4.3.4,1.4.3,2.9.4,4.4.4,1.4,0,2.7-.2,4.1-.6-.1.9-.5,1.7-.7,2.6,0,.2-.1.2-.3.2h-19.2c-.4,0-.4,0-.3.4.3,1,.8,2,1.2,3,.1.4.4.5.7.5,5.2,0,10.4,0,15.6,0s.4,0,.5,0c0,.2,0,.3-.1.5-.5,1-1,1.9-1.5,2.9-.2.4-.4.5-.9.5-3.8,0-7.7,0-11.5,0-.2,0-.4,0-.5,0,.1.2.2.3.3.5.6,1,1.4,2,2.1,2.9.2.3.5.4.8.4,2,0,4.1,0,6.1,0,.1,0,.3,0,.5,0,0,0-.1.2-.2.2-.9,1.1-1.9,2.1-2.9,3.1-.1.1-.3.2-.4.4h0ZM405.4,33.9c0,.2,0,.3,0,.4,0,.7,0,1.4.1,2.2.1,2.1.2,4.3.4,6.4,0,1.4.1,2.9.2,4.3,0,.3,0,.3.4.3h2.9q.8,0,1.1-.7c1.8-4.1,3.5-8.2,5.3-12.3,0-.2.1-.3.3-.5,0,.1,0,.2,0,.4-.1.5-.2,1.1-.3,1.6-.7,3.7-1.4,7.4-2.1,11.1,0,.4,0,.4.3.4h3.6c.4,0,.5,0,.5-.4.3-1.4.5-2.8.8-4.2.8-4.3,1.7-8.7,2.5-13q.1-.5-.4-.5h-6.1c-.8,0-.6-.1-.9.6-1.5,3.4-3,6.8-4.4,10.2,0,0,0,.2-.2.3,0-.9,0-1.7-.1-2.6,0-1.7,0-3.4-.1-5.1,0-1,0-2,0-3,0-.4,0-.5-.4-.5h-6.2q-.4,0-.5.4c-.3,1.7-.7,3.5-1,5.2-.6,3.3-1.2,6.5-1.9,9.8-.2.9-.3,1.8-.5,2.8,0,0,.1,0,.2,0,1.2,0,2.4,0,3.6,0,.3,0,.3-.2.3-.4.1-.7.2-1.3.4-2,.5-2.7,1-5.4,1.5-8.1.2-1.1.4-2.1.6-3.2h0ZM422.5,36.5c.2,0,.4,0,.6-.1,1.5-.4,2.9-.5,4.4-.5.6,0,1.2,0,1.7.3.6.2.8.7.8,1.3,0,.2,0,.3-.1.5,0,.2-.1.2-.3.2-.4,0-.9,0-1.3,0-1.5,0-3.1.1-4.5.7-2.3.9-3.6,2.8-3.5,5.2.1,2.2,1.5,3.6,3.4,3.8.7,0,1.3,0,2,0,1.2-.2,2.2-.6,3.1-1.4,0,0,.1-.2.2-.2,0,.4,0,.7,0,1.1s0,.3.3.3h3.1c.2,0,.3,0,.3-.3.4-2.8,1-5.6,1.4-8.4.1-.9.3-1.9.2-2.8-.1-.8-.4-1.5-1-2.1-.7-.7-1.7-1.1-2.7-1.3-1.2-.2-2.4-.2-3.6-.1-1.2.1-2.3.3-3.5.6-.3,0-.4.2-.5.5,0,.5-.2,1.1-.3,1.6,0,.4-.1.9-.2,1.3h0ZM447.9,43.6c-.2,0-.4,0-.5.1-1.4.5-2.9.8-4.4.7-.8,0-1.5-.1-2.2-.5-.9-.4-1.4-1.3-1.3-2.3,0-.2.1-.3.3-.3h8.1c.2,0,.4,0,.5-.3.3-1.4.6-2.7.4-4.1-.2-1.5-.8-2.7-2.1-3.6-1.2-.8-2.5-1.1-3.8-1-2.9,0-5,1.3-6.5,3.7-1.3,2.1-1.6,4.5-1.2,6.9.4,2,1.5,3.5,3.4,4.2.8.3,1.6.5,2.5.6,2,.2,3.9,0,5.8-.5.3,0,.3-.2.4-.5.1-.7.3-1.5.4-2.2,0-.3.2-.7.2-1h0Z"></path><path class="cls-2" d="M446.7,65.3c0-.2.2-.3.4-.4,1-1,2-2,2.9-3.1,0,0,.1-.1.2-.2-.2-.1-.3,0-.5,0-2,0-4.1,0-6.1,0-.4,0-.6-.1-.8-.4-.7-1-1.4-1.9-2.1-2.9,0-.1-.2-.3-.3-.5.2,0,.4,0,.5,0h11.5c.4,0,.6-.1.9-.5.5-.9,1.1-1.9,1.5-2.9,0-.1.2-.3.1-.5-.2,0-.4,0-.5,0h-15.6c-.4,0-.6,0-.7-.5-.4-1-.8-2-1.2-3-.1-.4-.1-.4.3-.4h19.2c.1,0,.2,0,.3-.2.2-.8.5-1.7.7-2.6.2,0,.4-.2.5-.3.7-.3,1.2-.8,1.6-1.4.7-1.1.8-2.3.6-3.6-.1-1-.6-1.8-1.4-2.4-.1,0-.2-.2-.3-.2,0-1.1,0-2.3,0-3.4.6,0,1.2,0,1.8.1.2,0,.3,0,.3-.2.2-1,.4-2,.5-2.9,0-.2,0-.2-.2-.3-.8,0-1.5-.2-2.2-.2-.2,0-.4,0-.6,0,0-.4-.1-.7-.2-1.1,0-.2-.1-.3-.3-.3-.1,0-.3,0-.4,0h-20.6c-.2,0-.4,0-.6,0,0-.2,0-.4,0-.5.2-1,.5-2,.8-2.9,0-.2.2-.4.5-.3.2,0,.5,0,.7,0h18.1c.2,0,.4,0,.6,0,0-.2,0-.3,0-.4-.3-1-.7-2-1.1-2.9-.1-.3-.3-.5-.7-.5-5.2,0-10.4,0-15.6,0s-.4,0-.6,0c0-.1,0-.2,0-.4.5-1,1-2,1.6-3,.2-.3.4-.5.8-.5,3.8,0,7.6,0,11.5,0h.5c.1-.2,0-.2,0-.3-.7-1.1-1.5-2.2-2.3-3.2-.2-.2-.4-.3-.6-.3h-6.1c-.2,0-.4,0-.5,0,0-.1,0-.2.1-.3.9-1.1,1.9-2.1,2.9-3.1.1-.1.3-.3.4-.4.7-.6,1.4-1.2,2.1-1.8,3.8-3,8-5.1,12.6-6.3,2.1-.6,4.2-.9,6.4-1.1,6.4-.5,12.5.6,18.2,3.4,4.8,2.3,8.9,5.5,12.3,9.7,3.9,4.8,6.4,10.2,7.5,16.3.5,2.8.7,5.7.6,8.6-.4,6.9-2.6,13.3-6.6,18.9-3.7,5.2-8.4,9.1-14.2,11.8-3.2,1.5-6.7,2.5-10.2,3-2.5.3-5,.4-7.5.2-8-.7-15.1-3.8-21.1-9.2h0ZM486,47.9c1.1,0,2.1,0,3-.3,2.7-.7,4.6-2.4,5.4-5.1.5-1.5.6-3.1.4-4.7-.4-2.6-2.1-4.6-4.7-5.2-1.7-.4-3.4-.4-5.1,0-2.5.7-4.3,2.2-5.3,4.7-.8,1.8-.9,3.7-.5,5.7.5,2.5,2,4.1,4.5,4.7.8.2,1.6.3,2.2.3h0ZM468.3,29.3h-4.2c-.2,0-.3.1-.3.3-.2,1.3-.5,2.5-.7,3.8-.5,3-1.1,6-1.6,9-.2,1-.4,1.9-.2,2.9.2,1.2,1,2.2,2.2,2.4,1.4.3,2.8,0,4.2-.3.2,0,.2-.2.2-.3.1-.9.3-1.8.5-2.7,0-.1,0-.2,0-.3-.3,0-.6,0-.8,0-.3,0-.6,0-.9,0-.6,0-.9-.5-.9-1s0-.3,0-.4c.4-2,.8-4.1,1.1-6.1,0-.2.1-.3.4-.3.6,0,1.1,0,1.7,0s.3,0,.3-.3c.1-.9.3-1.7.4-2.6.1-.8.1-.7-.6-.8-.5,0-1,0-1.5,0,.2-1.1.4-2.2.6-3.4h0ZM469.4,47.5c0,0,.1,0,.1,0h4c.2,0,.3-.1.3-.3.2-.9.3-1.8.5-2.8.3-1.7.6-3.3,1.2-5,.2-.6.4-1.1.8-1.7.4-.7,1-1,1.8-1,.3,0,.6,0,.8,0,.2,0,.4,0,.5-.3.4-1.2.9-2.4,1.4-3.6.1-.3.1-.3-.2-.4-1.1-.3-2.2-.2-3.1.5-.5.3-1,.8-1.4,1.3,0,.1-.1.3-.3.3,0,0,0,0,0,0,0-.5.2-1,.3-1.5q0-.5-.4-.5h-3.1q-.4,0-.5.4c-.6,3.2-1.2,6.3-1.7,9.5-.3,1.6-.6,3.3-.9,4.9h0ZM495.2,47.5c.6,0,1.2-.5,1.2-1.2,0-.6-.5-1.2-1.2-1.2s-1.2.5-1.1,1.2c0,.6.5,1.2,1.2,1.1h0Z"></path><path class="cls-2" d="M503.9,58.7c0,.6-.5,1.1-1.1,1.1-.6,0-1.2-.5-1.2-1.2,0-.6.6-1.2,1.2-1.1s1.1.6,1.1,1.2h0ZM502.8,59.5c.5,0,.9-.4.9-.9s-.4-.9-.9-.9-.9.4-.9.9.4.9.9.9Z"></path><path class="cls-2" d="M458.4,39.3c-.8-.4-1.6-.8-2.5-1.1-.2,0-.3-.2-.5-.2-.7-.3-.7-1.5,0-1.8.3-.1.5-.2.8-.2.6,0,1.3,0,2,0,0,1.1.1,2.3,0,3.4h0Z"></path><path class="cls-2" d="M495.2,47.5c-.6,0-1.1-.5-1.2-1.1,0-.6.5-1.2,1.1-1.2.6,0,1.1.5,1.2,1.2,0,.6-.5,1.2-1.2,1.2h0ZM496.1,46.4c0-.5-.4-.9-.9-.9s-.9.4-.9.9c0,.5.4.9.9.9s.9-.4.9-.9Z"></path><path class="cls-2" d="M428.2,40.9c.2,0,.3,0,.5,0,.7,0,.7,0,.6.7-.2,1.2-.8,2.3-2,2.8-.3.2-.7.2-1,.2-1.1,0-1.9-.7-1.6-2,.1-.5.5-.9.9-1.2.6-.3,1.2-.4,1.8-.5.3,0,.6,0,.8,0h0Z"></path><path class="cls-2" d="M440,38.4c.2-.9.6-1.7,1.3-2.2.8-.5,1.7-.6,2.6-.2.6.2.9.8,1,1.4.1,1,.1,1-.9,1h-4Z"></path><path class="cls-2" d="M490.1,39.2c0,.5,0,1-.1,1.6-.3,1.4-1.1,2.5-2.3,3.2-1.2.7-2.5.3-3.2-.9-.4-.7-.5-1.4-.5-2.1,0-1.4.4-2.7,1.3-3.8.6-.8,1.4-1.2,2.5-1.2.9,0,1.6.5,2,1.3.3.6.3,1.3.3,2h0Z"></path><path class="cls-2" d="M496.1,46.4c0,.5-.4.9-.9.9-.5,0-.9-.4-.9-.9,0-.5.4-.9.9-.9.5,0,.9.4.9.9ZM495.1,46.5c.2,0,.1.4.4.3.1-.2,0-.3,0-.5.1-.4,0-.5-.4-.5-.1,0-.3,0-.3.1,0,.3-.1.6,0,.9.2,0,0-.3.2-.4h0Z"></path><path class="cls-2" d="M502.7,58.8c-.2,0,0,.4-.2.3-.2,0,0-.2,0-.4v-.2c0-.4.1-.5.5-.4.2,0,.3.2.3.4,0,.2-.1.3,0,.5,0,0,0,.1,0,.2,0,0-.1,0-.2,0,0,0,0-.3-.2-.3h0ZM502.9,58.5c0,0,0,0-.1-.1,0,0-.1,0-.1,0,0,0,0,.1.1.1s.1,0,.1-.1h0Z"></path><path class="cls-2" d="M495.1,46.5c-.2,0,0,.3-.2.4-.2-.3,0-.6,0-.9,0-.2.2-.1.3-.1.4,0,.5.1.4.5,0,.2.1.3,0,.5-.3,0-.2-.3-.4-.3h0ZM495.3,46.3c0-.1,0-.2,0-.2,0,0-.2,0-.2,0,0,0,0,.1,0,.2,0,0,.2,0,.2,0h0Z"></path><path class="cls-2" d="M495.3,46.3s-.1,0-.2,0c0,0-.1,0,0-.2,0,0,.1,0,.2,0,0,0,.1,0,0,.2h0Z"></path></g><g><path class="cls-2" d="M323.3,1.9h7.4q.2.2.4.2c4.6.5,9,1.8,13.2,4.1,7.7,4.1,13.3,10.2,16.8,18.3,1.4,3.4,2.3,6.9,2.7,10.5,0,.1-.1.4.2.4v6.7q-.2.2-.2.4c-.5,4.7-1.9,9.2-4.1,13.3-3.3,6.2-8,11-14.1,14.5-4.5,2.6-9.3,4.2-14.4,4.8-.1,0-.4-.1-.4.2h-7.2c0-.3-.2-.2-.4-.2-.7-.1-1.4-.2-2-.3-7-1.2-13.3-4.1-18.6-8.8.6-.6,1.3-1.1,1.9-1.9h-3.4c-.2,0-.4,0-.6,0-.7-.7-1.3-1.3-1.9-2.1.3-.1.5,0,.7,0h6.6c.2,0,.5,0,.6-.1.5-.6,1-1.2,1.5-2h-10.7c-.2,0-.5,0-.6-.1-.5-.7-.9-1.3-1.3-2,.2-.1.5,0,.7,0h11.9c1.1,0,1.9-.5,2.4-1.4.2-.4,0-.6-.4-.6-4.7,0-9.4,0-14.1,0-1.4,0-2.1-.3-2.5-1.6-.2-.7-.3-.7.4-.7h16.4c1.6,0,1.6,0,2.2-1.6.2-.5.1-.6-.4-.6-6.1,0-12.1,0-18.2,0s-1.9-.5-2.2-1.6c-.1-.4,0-.7.5-.7h19.7c1.6,0,1.6,0,2-1.6.1-.6,0-.6-.5-.6-1.6,0-3.2,0-4.8,0,.1-.8.3-1.5.4-2.3h4.7c.6,1.2,1.4,2.1,2.6,2.7,2,1,4,1,6.1.6,1-.2,1.1-.2,1.3-1.2.1-.8.4-1.6.4-2.5-.9.3-1.8.6-2.7.7-2.2.3-3.9-.9-4.2-3-.1-.7,0-1.5,0-2.2.5-2.9,2.6-4.6,5.4-4.4.9,0,1.8.3,2.6.7.4.2.4,0,.5-.3.1-.9.3-1.8.5-2.7,0-.2,0-.4-.3-.5-1.7-.5-3.5-.9-5.2-.6-2.5.4-4.5,1.6-5.9,3.6,0,0,0-.2,0-.2-.1-1.3,0-1.1-1.2-1.1-7.5,0-15,0-22.5,0,0-.2,0-.3,0-.5.2-.5,0-.6-.5-.5,0,0,0-.2,0-.3.2-1,0-.9,1.1-.9h21c1.5,0,1.5,0,1.2-1.5-.1-.6-.4-.7-1-.7-6.4,0-12.8,0-19.2,0h-2c-.3,0-.4,0-.3-.4.1-.4.3-.8.3-1.1.1-.5.4-.7.9-.7,6.4,0,12.8,0,19.1,0s1.3,0,.9-1.2c-.2-.7-.6-.8-1.2-.8-6,0-11.9,0-17.9,0h-.5c-.3,0-.3-.1-.2-.3.2-.5.4-.9.6-1.4.1-.4.4-.5.9-.5,3.7,0,7.4,0,11.1,0h5.5c.4,0,.5,0,.3-.4-.2-.4-.5-.8-.6-1.2-.2-.6-.6-.8-1.2-.8-4.3,0-8.7,0-13,0s-.6,0-.8,0c-.3,0-.5,0-.2-.4.3-.5.6-.9.9-1.4.2-.4.5-.5.9-.5,3.7,0,7.3,0,11,0,.2,0,.4,0,.7-.1-.4-.5-.7-1-1-1.5-.2-.4-.5-.4-.9-.4-2.7,0-5.4,0-8,0s-.4,0-.7-.1c.5-.6,1-1.2,1.5-1.8.2-.3.5-.4.8-.4,1.4,0,2.9,0,4.3,0s.4,0,.6-.1c-.9-.9-1.7-1.8-2.6-2.6,2.9-2.6,6.2-4.7,9.8-6.2,3.4-1.5,6.9-2.4,10.6-2.8.1,0,.4.1.4-.2h0ZM352.6,46.4c0,.2,0,.3,0,.4-.2.5,0,.7.6.7.8,0,1.7,0,2.5,0,.5,0,.6-.2.7-.6.5-2.5.9-4.9,1.4-7.4.4-2.3.9-4.7,1.3-7,0-.5,0-.6-.5-.6-.8,0-1.6,0-2.5,0-.7,0-.9.2-1,.8-.2,1.2-.4,2.3-.7,3.6-.1-.1-.2-.2-.3-.2-2.1-1.9-4.8-1.9-7,0-2.4,2-3.3,4.7-2.8,7.7.3,2.3,1.9,3.8,4,4.1,1.5.2,2.9-.3,4.2-1.3h0ZM327,38c1.9-.4,3.6-.7,5.5-.5.3,0,.6,0,.8.3.3.3.5,1,.3,1.4-.2.4-.5.2-.8.2-1.5,0-2.9,0-4.3.5-1.6.5-2.8,1.4-3.3,3.1-.6,2,.2,3.8,1.9,4.5.9.4,1.8.4,2.8.2,1-.1,2-.6,2.8-1.3,0,.2,0,.4,0,.5-.1.5,0,.6.5.6.8,0,1.6,0,2.3,0,.4,0,.5-.1.6-.5.4-2.6.9-5.2,1.3-7.8.4-2.4-.8-4.1-3.2-4.5-2.1-.4-4.2-.1-6.3.4-.2,0-.3,0-.4.3-.2.8-.3,1.7-.5,2.6h0ZM342.4,36.3c0-.4.1-.8.2-1.1.1-.4,0-.4-.4-.4-.9,0-1.8,0-2.7,0-.3,0-.5,0-.5.4-.7,4-1.5,8-2.2,11.9,0,.4,0,.5.4.5,1,0,2,0,3,0,.4,0,.5-.1.6-.5.2-1.3.5-2.6.7-3.9.2-1.2.5-2.4,1-3.5.4-.8.9-1.3,1.9-1.2.3,0,.3-.1.4-.3.2-.9.5-1.7.8-2.5.1-.3.5-.8.4-.9-.3-.2-.8-.1-1.2,0-.2,0-.4.2-.6.2-.7.3-1.1.9-1.7,1.3h0ZM359.9,48c1,0,1.8-.8,1.7-1.8,0-1-.8-1.7-1.8-1.7-.9,0-1.7.8-1.7,1.8,0,1,.8,1.7,1.8,1.7h0Z"></path><path class="cls-2" d="M308.5,46.5c1.6,0,3.2,0,4.8,0,.5,0,.7,0,.5.6-.4,1.5-.4,1.6-2,1.6h-19.7c-.5,0-.6.2-.5.7.3,1.1,1.1,1.6,2.2,1.6,6.1,0,12.1,0,18.2,0,.5,0,.6.1.4.6-.6,1.6-.6,1.6-2.2,1.6h-16.4c-.7,0-.6,0-.4.7.4,1.3,1.1,1.7,2.5,1.6,4.7-.1,9.4,0,14.1,0,.5,0,.6.2.4.6-.5,1-1.3,1.4-2.4,1.4h-11.9c-.2,0-.4,0-.7,0,.4.7.9,1.4,1.3,2,.1.2.4.1.6.1h10.7c-.4.8-1,1.4-1.5,2-.2.2-.4.1-.6.1h-6.6c-.2,0-.4,0-.7,0,.6.8,1.2,1.4,1.9,2.1.1.2.4,0,.6,0h3.4c-.6.8-1.3,1.3-1.9,1.9-1,.8-1.9,1.6-2.9,2.3-5.4,3.8-11.3,6.1-17.9,6.8-.2,0-.2,0-.4.2h-7.2c.1-.3-.1-.2-.2-.2-.5,0-.9,0-1.4-.2-7.2-1.1-13.5-4-19-8.8-4-3.5-7.1-7.7-9.3-12.6-1.6-3.5-2.6-7.1-3-10.9,0-.2.1-.4-.2-.5v-7.4c.1-.1.2-.3.2-.5.3-2.5.8-4.8,1.6-7.2,2.3-6.8,6.2-12.4,11.7-17,5.6-4.6,12.1-7.2,19.3-8.1.1,0,.4,0,.4-.2h7.4c.1.2.1.2.5.2,5.1.6,9.8,2.2,14.2,4.7,2.2,1.2,4.2,2.7,6.1,4.4.9.9,1.7,1.8,2.6,2.6-.2.2-.4.1-.6.1-1.4,0-2.9,0-4.3,0-.3,0-.6,0-.8.4-.5.6-1,1.2-1.5,1.8.3.2.5.1.7.1,2.7,0,5.4,0,8,0,.4,0,.7,0,.9.4.3.5.7,1,1,1.5-.2.2-.5.1-.7.1-3.7,0-7.3,0-11,0-.4,0-.7.1-.9.5-.2.5-.6.9-.9,1.4-.2.3-.1.4.2.4.3,0,.6,0,.8,0,4.3,0,8.7,0,13,0,.6,0,1,.2,1.2.8.2.4.4.8.6,1.2.2.4,0,.4-.3.4-1.8,0-3.6,0-5.5,0-3.7,0-7.4,0-11.1,0-.5,0-.7.1-.9.5-.2.5-.4.9-.6,1.4-.1.2,0,.3.2.3h.5c6,0,11.9,0,17.9,0,.7,0,1,.2,1.2.8.4,1.3.5,1.2-.9,1.2-6.4,0-12.8,0-19.1,0-.6,0-.8.1-.9.7,0,.4-.2.8-.3,1.1-.1.3,0,.4.3.4.7,0,1.4,0,2,0,6.4,0,12.8,0,19.2,0,.6,0,.8.1,1,.7.3,1.5.4,1.5-1.2,1.5h-21c-1.1,0-1-.1-1.1.9,0,0,0,.2,0,.3-.9,0-1.9,0-2.8,0-.4,0-.5.1-.6.5-.4,1.8-.8,3.6-1.1,5.4-.4,1.9-.8,3.9-1,5.8-.2,1.9.7,3,2.5,3.2.8.1,1.5,0,2.3-.2.7,0,1.3-.2,1.4-1.1h3c.7.4,1.4.8,2.2,1,1.9.5,3.8.3,5.7,0,.6,0,1.1-.3,1.1-1h1.4c0,.2,0,.4,0,.5-.2.5,0,.6.5.5.7,0,1.4,0,2.1,0s1.3-.4,1.5-1.1h0ZM251,36.3c.2.4.1.6.1.8.1,3.3.2,6.5.3,9.8,0,.5.1.7.7.7.5,0,1,0,1.4,0,.5,0,.7-.1.8-.5,1.4-3.5,2.9-6.9,4.3-10.4,0-.1,0-.3.2-.3,0,.1,0,.2,0,.3-.6,3.5-1.3,7-2,10.5,0,.4,0,.5.4.5,1,0,1.9,0,2.9,0,.5,0,.6-.1.7-.6.9-4.9,1.9-9.8,2.8-14.7,0-.4,0-.5-.4-.5-1.7,0-3.3,0-5,0-.5,0-.7.1-.9.6-1.1,2.8-2.1,5.5-3.2,8.2,0,.2-.1.3-.2.5-.1-.2-.1-.4-.1-.6,0-2.7-.1-5.4-.1-8.1,0-.5-.1-.6-.6-.6-1.5,0-3,0-4.6,0-.4,0-.6,0-.6.5,0,.5-.2,1-.3,1.5-.9,4.4-1.7,8.7-2.6,13.1-.1.5,0,.6.5.6.9,0,1.8,0,2.6,0,.4,0,.5-.1.6-.5.4-2.2.9-4.5,1.3-6.8.3-1.3.5-2.6.8-4h0ZM264.5,38c1-.2,1.8-.4,2.8-.5s1.8-.1,2.8,0c.3,0,.6.1.8.3.5.4.4.9.3,1.4-.1.5-.5.2-.8.2-1.5,0-2.9,0-4.3.5-1.6.6-3,1.5-3.4,3.3-.5,2.2.5,4.1,2.6,4.5,1.6.3,3.1,0,4.4-.9.1-.1.2-.3.5-.3,0,.2,0,.3,0,.4-.1.6.1.7.6.6.7,0,1.4,0,2.1,0,.6,0,.7-.2.8-.7.4-2.5.8-5,1.2-7.6.4-2.5-.8-4.2-3.2-4.6-2.1-.4-4.2,0-6.3.4-.2,0-.4,0-.4.3-.2.9-.3,1.7-.5,2.6h0ZM277.6,47.7c1.2,0,2.3,0,3.4-.2,1.5-.4,2.8-1.1,3.2-2.7.6-2.2-.2-3.9-2.4-4.8-.5-.2-1-.4-1.5-.7-.3-.2-.5-.5-.5-.8,0-.4.3-.7.6-.8.4-.2.8-.2,1.2-.2.9,0,1.8,0,2.6,0,.2,0,.4,0,.4-.3,0-.7.2-1.4.4-2.1.1-.5,0-.6-.5-.6-1.1-.1-2.3-.2-3.5-.1-1.2,0-2.3.3-3.4.8-2.3,1.2-2.7,5-.2,6.3.7.4,1.4.7,2,1,.5.3,1.2.5,1.1,1.2,0,.5-.5.8-1.5.9-1.3.2-2.6,0-3.9-.3-.3,0-.5,0-.5.3,0,.6-.2,1.2-.3,1.8q-.1.7.6.8c.9.1,1.8.2,2.6.2h0Z"></path><path class="cls-2" d="M290.5,44.6c-.4,0-.7,0-1-.1-.4-.2-.6-.5-.5-.9.3-1.8.7-3.6,1-5.4,0-.3.2-.3.4-.3h1.4c.2,0,.4,0,.4-.3.1-.8.2-1.6.4-2.4,0-.3,0-.4-.3-.4-.3,0-.6,0-.9,0-.6,0-.7-.2-.5-.7,0,0,0-.2,0-.3,7.5,0,15,0,22.5,0,1.2,0,1.1-.3,1.2,1.1,0,0,0,.2,0,.2-.9,1.4-1.4,3-1.6,4.7-1,0-2,0-3,0,.4-1.1.9-1.4,2-1.4.2,0,.3,0,.3-.2.2-1.3.7-2.4,1.3-3.6-1.6-.3-2.6.6-3.6,1.7,0-.4,0-.8.2-1.2,0-.3,0-.4-.3-.4-.9,0-1.8,0-2.7,0s-.6.2-.6.5c-.3,1.5-.6,3.1-.9,4.6-.5,0-.9,0-1.4,0,.2-2.3-.7-4.1-2.7-4.9-2.1-.9-4.2-.8-6.2.5-1.6,1.1-2.6,2.6-3.1,4.5-.2,0-.5,0-.7,0-1.7,0-1.8,0-1.5,1.8,0,.3.2.5.5.5.5,0,.9,0,1.4,0,0,.7.1,1.4.3,2.1-.5,0-1,0-1.5,0-.3,0-.4.1-.4.4Z"></path><path class="cls-2" d="M308.9,44.2c.1-.7.2-1.4.5-2.1h3.7c.1.7.3,1.4.6,2.1h-4.7Z"></path><path class="cls-2" d="M359.9,48c-1,0-1.8-.8-1.8-1.7,0-.9.7-1.7,1.7-1.8,1,0,1.8.7,1.8,1.7,0,.9-.8,1.8-1.7,1.8h0ZM361.3,46.3c0-.8-.6-1.5-1.4-1.5-.8,0-1.5.6-1.5,1.4,0,.8.6,1.5,1.4,1.5.8,0,1.5-.6,1.5-1.4Z"></path><path class="cls-2" d="M292.4,44.2c.4.9.9,1.7,1.6,2.3h-3c0-.4,0-.9.2-1.3.1-.5,0-.7-.5-.6,0,0-.1,0-.2,0,0-.3,0-.4.4-.4.5,0,1,0,1.5,0h0Z"></path><path class="cls-2" d="M303.1,46.5c.1-.8.3-1.5.5-2.3.4,0,.9,0,1.3,0,0,.8-.2,1.5-.4,2.3-.5,0-.9,0-1.4,0Z"></path><path class="cls-2" d="M358.1,61.3c0-.9.7-1.7,1.7-1.8,1,0,1.8.7,1.8,1.7,0,.9-.8,1.8-1.7,1.8-.9,0-1.8-.8-1.8-1.8h0ZM361.3,61.3c0-.8-.6-1.4-1.4-1.5-.8,0-1.5.6-1.5,1.4,0,.8.6,1.5,1.4,1.5.8,0,1.5-.6,1.5-1.4h0Z"></path><path class="cls-2" d="M353.5,40.3c0,1.4-.4,2.5-1.3,3.4-.7.7-1.6,1-2.6.6-1-.3-1.2-1.1-1.3-2,0-1.3.1-2.5,1-3.6.5-.6,1.1-.9,1.9-1,1.1,0,1.8.4,2.1,1.5,0,.4.1.8.1,1h0Z"></path><path class="cls-2" d="M332,41.8c1.1,0,1.2,0,.9,1-.4,1.3-1.2,2.1-2.4,2.2-.8,0-1.4-.2-1.6-.8-.2-.7,0-1.5.8-1.9.8-.5,1.6-.5,2.3-.5h0Z"></path><path class="cls-2" d="M313.1,42.1h-3.7c.1-.8.3-1.5.7-2.3,1,.1,2,0,3,0,0,.7,0,1.5,0,2.2h0Z"></path><path class="cls-2" d="M292.4,39.9c-.2.7-.2,1.5-.2,2.2-.5,0-.9,0-1.4,0-.3,0-.5,0-.5-.5-.3-1.7-.3-1.8,1.5-1.8.2,0,.5,0,.7,0Z"></path><path class="cls-2" d="M304,42.1c.1-.8.3-1.5.4-2.3.5,0,.9,0,1.4,0-.1.8-.2,1.5-.4,2.2h-1.3Z"></path><path class="cls-2" d="M304,42.1h1.3c0,.7-.2,1.4-.4,2.1-.4,0-.9,0-1.3,0-.2-.3-.5,0-.7,0h-6c-.3-.2-.6-.5-.7-.8-.4-.9-.2-1.3.8-1.3h6.4c.2,0,.5,0,.6-.1h0Z"></path><path class="cls-2" d="M361.3,46.3c0,.8-.7,1.4-1.5,1.4-.8,0-1.4-.7-1.4-1.5,0-.8.7-1.4,1.5-1.4s1.4.7,1.4,1.5ZM359.1,46.3c0,.2,0,.3,0,.5,0,.1,0,.4.1.4.2,0,.1-.2.2-.4,0-.1,0-.3.2-.3.1,0,.3,0,.4.2,0,.1.2.3.3.4,0,.1.2.2.3.1.1,0,0-.2,0-.3-.2-.2-.4-.4,0-.7.3-.2.1-.5-.2-.7-.6-.3-1.1,0-1.1.7v.2Z"></path><path class="cls-2" d="M269.6,41.8c.2,0,.4,0,.6,0,.2,0,.3,0,.3.3.1,1.5-1.4,3-2.9,2.9-.6,0-1-.2-1.3-.8-.2-.5,0-1.2.5-1.6.7-.6,1.6-.7,2.5-.8.1,0,.2,0,.4,0h0s0,0,0,0Z"></path><path class="cls-2" d="M298.5,39.6h-1.8c-.2,0-.3,0-.2-.3.3-1.4,1.9-2.3,3.3-1.8.7.2,1.1,1.2.9,1.9,0,.3-.2.2-.4.2h-1.8,0Z"></path><path class="cls-2" d="M296.9,44.2h6c-1.6.5-3.2.8-4.8.5-.4,0-.8-.2-1.1-.5Z"></path><path class="cls-2" d="M359.1,46.3v-.2c0-.7.5-1,1.1-.7.3.2.4.5.2.7-.4.3-.2.5,0,.7,0,0,.2.2,0,.3-.1.1-.2,0-.3-.1s-.2-.3-.3-.4c0-.1-.2-.2-.4-.2-.2,0-.1.2-.2.3,0,.1,0,.4-.2.4-.2,0-.1-.3-.1-.4,0-.2,0-.3,0-.5ZM359.8,45.7c-.2,0-.4,0-.4.3,0,.3.2.3.4.3s.4,0,.4-.3c0-.3-.2-.3-.4-.3h0Z"></path><path class="cls-2" d="M359.6,60.4c.4,0,.7,0,.8.3.1.3,0,.5-.3.7-.2.2.2.3.2.5,0,0,.2.2,0,.3-.1.1-.2,0-.3-.1,0-.1-.1-.2-.2-.3-.1-.2-.3-.3-.5-.2-.2,0-.1.2-.1.3,0,.1,0,.3-.1.3-.2,0-.1-.2-.2-.4,0-.3,0-.6,0-.8,0-.5,0-.7.5-.6h0ZM359.8,61.2c.2,0,.4,0,.4-.3s-.2-.3-.4-.3-.4,0-.4.3c0,.3.2.3.4.3h0Z"></path><path class="cls-2" d="M359.8,45.7c.2,0,.4,0,.4.3,0,.3-.2.2-.4.3-.2,0-.4,0-.4-.3,0-.3.2-.3.4-.3h0Z"></path></g><g><path class="cls-2" d="M529.3,35.1c.5-1.2.5-2.5.7-3.8,1.6-7.8,5.5-14.3,11.3-19.7.4-.4.6-.4,1,0,3,3.4,6.1,6.8,9.2,10.1.4.5.3.7,0,1.1-4.2,4-6.6,8.9-6.8,14.6-.2,6.4,2.1,11.8,6.7,16.2.6.5.7.8,0,1.5-3,3.3-6,6.6-9,9.9-.4.5-.6.6-1.2,0-6.5-5.9-10.4-13.2-11.7-21.9,0-.5,0-1-.3-1.5v-6.7h0Z"></path><path class="cls-2" d="M569.1,2.1c1.4.2,2.9.4,4.3.7,14.8,3.4,24.4,12.2,28.5,26.9.3,1.2.3,1.2-.9,1.5-4.2.8-8.5,1.7-12.7,2.5-.6.1-1,0-1.2-.7-3.2-11.8-15.1-18.6-26.9-15.3-.9.2-1.1,0-1.4-.8-1.3-4.1-2.7-8.1-4.2-12.1-.2-.7-.1-.9.6-1.2,2.2-.6,4.5-1.1,6.8-1.4.2,0,.5,0,.7-.2h6.3Z"></path><path class="cls-2" d="M611.3,43c0-11,7.7-20.1,18.4-22,8.2-1.4,19,2.2,23.8,12.5.5,1,.8,1.9,1.3,2.9.3.6.2.9-.5,1.2-7.1,3.1-14.2,6.2-21.2,9.3-5.9,2.6-11.8,5.1-17.7,7.7-.6.3-.8.2-1.1-.4-1.9-3.5-3-7.2-3-11.2h0ZM621.5,43.2c6.7-2.9,13.4-5.8,20.2-8.7-3.2-4.2-8.1-5.3-13.3-3.2-4.8,2-7.6,6.8-6.9,11.9h0Z"></path><path class="cls-2" d="M566,74.8c-3.7,0-7.4-.6-10.9-1.6-.6-.2-.7-.4-.5-.9,1.4-4.2,2.9-8.3,4.3-12.5.2-.7.5-.8,1.2-.6,11.1,3.1,22.7-2.7,26.5-13.3.2-.6.5-1.2.5-1.9.1-.8.5-.9,1.2-.7,2.5.5,5.1,1.1,7.7,1.6,1.8.4,3.7.7,5.5,1.1.5,0,.8.2.6.9-3.4,13.1-11.6,21.7-24.3,26.2-3.8,1.3-7.7,1.8-11.7,1.9h0Z"></path><path class="cls-2" d="M659.7,33.5c0-7.1,0-14.2,0-21.3,0-.7.1-.9.9-.9,2.5,0,5.1,0,7.7,0,.8,0,1,.2,1,1,0,13.6,0,27.3,0,40.9,0,.8.2,1.2,1,1.5,1.7.6,3.3,1.3,5,2,.5.2.7.3.4.9-1.1,2.5-2.2,5.1-3.3,7.7-.2.5-.4.5-.8.3-2.3-1-4.6-1.9-6.8-2.9-3.4-1.6-4.9-4.4-5-8,0-7,0-14.1,0-21.2h0Z"></path><path class="cls-2" d="M676.3,42.1c0-5.2,2.4-10.7,6.9-15.1.5-.5.7-.5,1.2,0,1.9,2.2,3.8,4.3,5.8,6.5.4.5.3.7,0,1.1-4.8,4.8-4.8,12.4,0,17.2.4.4.5.7,0,1.2-2,2.1-3.9,4.3-5.8,6.5-.4.5-.7.5-1.1,0-4.4-4.1-6.9-10-6.9-17.4h0Z"></path><path class="cls-2" d="M698.6,65.7c-2.1,0-4.2-.3-6.2-.9-.6-.2-.8-.3-.6-1,1-2.7,1.9-5.5,2.8-8.3.2-.6.4-.7,1-.5,6.6,1.7,13-2,14.8-8.6.1-.5.3-.7.9-.6,2.9.6,5.8,1.2,8.7,1.8.6.1.7.2.6.8-1.8,8.4-9.5,15.6-18,16.9-1.3.2-2.6.3-3.9.3h0Z"></path><path class="cls-2" d="M710.9,40.7c-.5.1-.4-.4-.5-.6-1.3-4.4-4.1-7.2-8.4-8.6-2.2-.7-4.3-.7-6.5,0-.5.1-.7,0-.9-.5-.9-2.8-1.8-5.6-2.8-8.4-.2-.7,0-.8.5-1,10.5-3.1,21.8,2,26.5,11.9.7,1.5,1.2,3,1.6,4.7,0,.2.2.5-.2.6-3.1.6-6.2,1.2-9.4,1.9Z"></path><path class="cls-2" d="M633.5,65.7c-4.5-.2-8.2-1.4-11.7-3.5-.5-.3-.7-.5-.3-1.1,1.6-2.2,3.1-4.5,4.5-6.8.3-.5.5-.7,1.1-.2,2.8,2.1,6,2.3,9.3,1.4,2.8-.8,5.3-2.3,7-4.8.3-.4.5-.4.9-.2,2.4,1.6,4.8,3.3,7.3,4.9.5.3.3.6,0,.9-3.4,4.8-8.1,7.5-13.7,8.9-1.7.4-3.4.5-4.6.5h0Z"></path></g><g><path class="cls-2" d="M803,32.8c-3.8.4-6.5,3.8-6.1,7.6l12.1-5.2c-1.5-1.8-3.7-2.7-6-2.4Z"></path><path class="cls-2" d="M845.4,7.5c-6.6-4.9-14.6-7.5-22.8-7.5s-15.1,2.3-21.5,6.5c-.4.3-3.5,2.5-3.6,2.6-5,3.8-8.4,4.4-13,3.3-.3,0-1.6-.5-2-.7-14.9-5.6-31.5,1.9-37,16.8-5.6,14.9,1.9,31.5,16.8,37,6.2,2.3,13,2.5,19.2.4,6.9-2.1,10.6-1.5,14.9,1.6.9.6,2.9,1.9,3.4,2.3,17.2,12.6,41.3,8.9,54-8.3s8.9-41.3-8.3-54h0ZM779,51.3l-2.2-.9c-.8-.3-1.4-.9-1.9-1.6-.5-.8-.8-1.8-.8-2.8v-6.5c0-3.8-3.1-6.9-6.9-6.9s-1,0-1.5.2c-1.9.5-3.6,1.7-4.5,3.5-.5,1-.8,2.1-.8,3.2,0,1.2.3,2.3.9,3.3,1.8,3.3,6,4.5,9.3,2.7l1.9,4.4c-1.6.8-3.4,1.2-5.2,1.2-6.4,0-11.6-5.2-11.6-11.6s5.2-11.6,11.6-11.6,11.6,5.2,11.6,11.6v6.5l1.9.8-1.8,4.4h0ZM789.8,51.3l-3.9-1.6c-.8-.3-1.4-.9-1.8-1.6-.5-.8-.8-1.8-.8-2.8v-22.6h4.4v22.5l3.9,1.6-1.8,4.4h0ZM797.6,49.5l2.6-4.1c2.7,1.7,6.2,1.3,8.4-.9l3.4,3.4c-3.9,3.8-9.8,4.4-14.4,1.5ZM794,46c-1.3-2-1.9-4.2-1.9-6.5,0-6.4,5.4-11.6,11.8-11.5,5.3,0,9.9,3.8,11.2,9l-21.1,9h0ZM823.8,51.3l-3.9-1.6c-.8-.3-1.4-.9-1.9-1.6-.5-.8-.8-1.8-.8-2.8v-22.6h4.5v22.5l3.9,1.6-1.8,4.4h0ZM833,50.1c-5.8-2.8-8.3-9.7-5.5-15.5l4.3,2.1c-1.6,3.4-.2,7.5,3.2,9.2,2.5,1.2,5.5.8,7.6-1.1l3.2,3.5c-3.5,3.2-8.6,3.9-12.8,1.9ZM848.5,44.7l-4.3-2.1h0c1.7-3.4.2-7.5-3.2-9.2-2.5-1.2-5.5-.8-7.6,1.1l-3.2-3.5c3.5-3.2,8.6-3.9,12.9-1.9,5.8,2.8,8.3,9.8,5.5,15.6Z"></path></g></g><g><g><g><path class="cls-2" d="M618.8,154c0,6.8,4.3,12.6,10.3,14.9v-29.8c-6,2.3-10.3,8.1-10.3,14.9h0Z"></path><path class="cls-2" d="M640.5,139.1v29.8c6-2.3,10.3-8.1,10.3-14.9,0-6.8-4.3-12.6-10.3-14.9Z"></path><path class="cls-2" d="M647.7,126.6h-13c-15.2,0-27.8,11.3-27.8,27.8s12.6,27.4,27.8,27.3h13c15.1,0,28.8-12.3,28.8-27.3s-13.8-27.8-28.8-27.8ZM634.8,179.2c-13.9,0-25.2-11.3-25.2-25.2,0-13.9,11.3-25.2,25.2-25.2s25.2,11.3,25.2,25.2-11.3,25.2-25.2,25.2Z"></path></g><path class="cls-2" d="M685.3,138.4c0-2.6-1.4-2.4-2.7-2.5v-.8c1.1,0,2.3,0,3.4,0s2.9,0,5,0c7.5,0,11.6,5,11.6,10.1s-1.7,10.1-12,10.1-2.8,0-4.2,0-2.6,0-3.9,0v-.8c1.7-.2,2.6-.2,2.7-2.2v-14h0ZM688.2,152c0,2.2,1.6,2.5,3,2.5,6.3,0,8.3-4.7,8.3-9s-3.5-9.3-9.1-9.3-1.7,0-2.3.1v15.8h0ZM703.7,154.6h.5c.8,0,1.4,0,1.4-1v-7.8c0-1.3-.4-1.4-1.5-2v-.5c1.4-.4,3-.9,3.1-1,.2-.1.4-.1.5-.1s.2.2.2.4v11.1c0,1,.6,1,1.5,1h.5v.8c-1,0-2,0-3,0s-2.1,0-3.2,0v-.8h0ZM706.8,137.7c-.8,0-1.4-.7-1.4-1.4s.7-1.4,1.4-1.4,1.4.6,1.4,1.4-.6,1.4-1.4,1.4ZM712.7,146c0-1.1-.3-1.4-1.7-1.9v-.6c1.2-.4,2.4-.8,3.8-1.4,0,0,.2,0,.2.3v1.9c1.7-1.2,3.1-2.2,5-2.2s3.3,1.8,3.3,4.1v7.5c0,1,.6,1,1.5,1h.5v.8c-1,0-2,0-3.1,0s-2.1,0-3.1,0v-.8h.5c.8,0,1.4,0,1.4-1v-7.5c0-1.6-1-2.5-2.7-2.5s-2.4.8-3.4,1.4v8.6c0,1,.6,1,1.5,1h.5v.8c-1,0-2,0-3.1,0s-2.1,0-3.1,0v-.8h.5c.8,0,1.4,0,1.4-1v-7.7h0ZM727.5,147.4c0,.3,0,.7,0,1.7.2,2.8,1.9,5,4.3,5s2.8-.9,3.9-1.9l.4.4c-1.3,1.8-3,3.3-5.4,3.3-4.6,0-5.5-4.5-5.5-6.3,0-5.7,3.8-7.4,5.9-7.4s4.9,1.5,4.9,4.5c0,.2,0,.4,0,.5l-.3.2h-8.2ZM732.7,146.5c.7,0,.8-.4.8-.7,0-1.5-.9-2.7-2.5-2.7s-3,1.3-3.3,3.4h5,0ZM736.7,154.6h.8c.8,0,1.4,0,1.4-1v-8.1c0-.9-1.1-1.1-1.5-1.3v-.4c2.1-.9,3.3-1.6,3.5-1.6s.3,0,.3.4v2.6h0c.7-1.1,1.9-3,3.7-3s1.7.5,1.7,1.5-.5,1.5-1.4,1.5-.9-.7-1.9-.7-2.1.7-2.1,2.4v6.8c0,1,.6,1,1.4,1h1.6v.8c-1.6,0-2.8,0-4.1,0s-2.4,0-3.5,0v-.8h0ZM747.8,151.4c.4,1.9,1.5,3.5,3.7,3.5s2.3-1,2.3-2.1c0-3.4-6.3-2.3-6.3-7s1.3-3.7,4.5-3.7,2.2.3,3.3.8l.2,2.9h-.7c-.3-1.8-1.3-2.9-3.2-2.9s-2.3.7-2.3,1.9c0,3.4,6.7,2.3,6.7,6.9s-1.5,3.9-5,3.9-2.5-.4-3.5-1l-.3-3.3h.5ZM782.3,140.4h-.7c-.5-3.4-3-4.8-6.2-4.8s-8.2,2.2-8.2,9.2,4.2,10.1,8.6,10.1,5.2-2,5.8-5l.7.2-.7,4.2c-1.2.8-4.5,1.5-6.4,1.5-6.8,0-11.1-4.4-11.1-10.9s5.3-10.2,11-10.2,4.6.8,6.8,1.5l.3,4.1h0ZM783.4,154.6h.5c.8,0,1.4,0,1.4-1v-16.1c0-1.9-.4-1.9-1.5-2.3v-.5c1.2-.4,2.4-.9,3-1.2.3-.2.5-.3.6-.3.2,0,.2.2.2.4v20c0,1,.6,1,1.5,1h.5v.8c-1,0-2,0-3,0s-2.1,0-3.2,0v-.8h0ZM802,153.8c0,.5.3.6.8.6s.8,0,1.2,0v.6c-1.2.1-3.6.7-4.2.9h-.2v-2.4c-1.7,1.4-3.1,2.4-5.1,2.4s-3.2-1-3.2-3.4v-7.4c0-.8-.1-1.5-1.7-1.6v-.6c1,0,3.4-.2,3.7-.2s.3.2.3.8v7.5c0,.9,0,3.4,2.5,3.4s2.3-.8,3.5-1.8v-7.8c0-.6-1.4-.9-2.4-1.2v-.5c2.6-.2,4.2-.4,4.5-.4s.2.2.2.5v10.7h0ZM807.8,144.2c1.2-1,2.7-2.1,4.3-2.1,3.4,0,5.4,2.9,5.4,6.1s-2.8,7.6-6.9,7.6-3.3-.7-4-1l-.9.7-.6-.3c.3-1.7.4-3.4.4-5.1v-12.4c0-1.9-.4-1.9-1.5-2.3v-.5c1.2-.4,2.4-.9,3-1.2.3-.2.5-.3.6-.3.2,0,.2.2.2.4v10.6h0ZM807.8,152.1c0,1.1,1,2.9,3,2.9,3.1,0,4.4-3,4.4-5.6s-2.4-5.7-4.6-5.7-2,.7-2.8,1.4v7h0ZM682.7,172.2h.2c.6,0,1.2,0,1.2-.9v-8.2c0-.8-.6-.9-1.2-.9h-.2v-.5c.6,0,1.6,0,2.3,0s1.7,0,2.5,0v.5h-.2c-.6,0-1.2,0-1.2.9v8.2c0,.8.6.9,1.2.9h.2v.5c-.8,0-1.7,0-2.5,0s-1.7,0-2.3,0v-.5h0ZM698.3,169.6h0v-5.9c0-1.3-.9-1.5-1.4-1.5h-.3v-.5c.7,0,1.5,0,2.2,0s1.3,0,1.9,0v.5h-.2c-.7,0-1.4.1-1.4,2v7.2c0,.6,0,1.1,0,1.6h-.6l-8.1-9v6.5c0,1.4.3,1.8,1.5,1.8h.3v.5c-.7,0-1.4,0-2,0s-1.4,0-2.2,0v-.5h.2c1.1,0,1.4-.7,1.4-2v-6.6c0-.9-.7-1.4-1.4-1.4h-.2v-.5c.6,0,1.2,0,1.8,0s.9,0,1.4,0l7,7.9h0ZM703.1,162.5c-1.2,0-1.2.3-1.5,1.4h-.5c0-.4.1-.9.2-1.3,0-.4,0-.9,0-1.3h.4c.1.5.5.5,1,.5h8.1c.4,0,.8,0,.8-.5h.4c0,.5-.1.9-.2,1.3,0,.4,0,.9,0,1.3l-.5.2c0-.6-.1-1.5-1.2-1.5h-2.6v8.4c0,1.2.5,1.4,1.3,1.4h.3v.5c-.6,0-1.7,0-2.6,0s-2,0-2.7,0v-.5h.3c.9,0,1.3,0,1.3-1.3v-8.4h-2.6ZM712.7,172.2h.2c.6,0,1.2,0,1.2-.9v-8.2c0-.8-.6-.9-1.2-.9h-.2v-.5c1,0,2.6,0,3.9,0s3,0,4,0c0,.7,0,1.7,0,2.4h-.5c0-.9-.3-1.7-1.9-1.7h-2.2v4.1h1.9c1,0,1.2-.5,1.2-1.4h.5c0,.6,0,1.2,0,1.8s0,1.2,0,1.8h-.5c0-.9-.1-1.5-1.2-1.5h-1.9v3.7c0,1,.9,1,1.9,1,1.9,0,2.7-.1,3.2-1.9h.4c-.2.9-.4,1.8-.5,2.6-1,0-2.8,0-4.2,0s-3.3,0-4.2,0v-.5h0ZM723.8,163.4c0-1.1-.6-1.2-1.1-1.2h-.3v-.5c.5,0,1.5,0,2.5,0s1.7,0,2.5,0c2,0,3.8.5,3.8,2.8s-1,2.3-2.2,2.8l2.7,4c.4.7.8.9,1.5.9v.5c-.5,0-1,0-1.5,0s-1,0-1.5,0c-1.2-1.6-2.3-3.3-3.3-5.1h-1v3.4c0,1.2.6,1.3,1.3,1.3h.3v.5c-.9,0-1.8,0-2.7,0s-1.5,0-2.3,0v-.5h.3c.6,0,1.1-.3,1.1-.9v-8h0ZM725.8,167h.8c1.6,0,2.4-.6,2.4-2.5s-.9-2.3-2.3-2.3-.7,0-.9,0v4.7h0ZM743.9,169.6h0v-5.9c0-1.3-.9-1.5-1.4-1.5h-.3v-.5c.7,0,1.5,0,2.2,0s1.3,0,1.9,0v.5h-.2c-.7,0-1.4.1-1.4,2v7.2c0,.6,0,1.1,0,1.6h-.6l-8.1-9v6.5c0,1.4.3,1.8,1.5,1.8h.3v.5c-.7,0-1.4,0-2,0s-1.4,0-2.2,0v-.5h.2c1.1,0,1.4-.7,1.4-2v-6.6c0-.9-.7-1.4-1.4-1.4h-.2v-.5c.6,0,1.2,0,1.8,0s.9,0,1.4,0l7,7.9h0ZM748.9,170.4c-.2.5-.3.9-.3,1.2,0,.5.7.6,1.2.6h.2v.5c-.6,0-1.3,0-1.9,0s-1.1,0-1.7,0v-.5h0c.6,0,1.1-.4,1.4-1l2.5-7.2c.2-.6.5-1.4.6-2,.5-.2,1.1-.5,1.4-.7,0,0,0,0,.1,0s0,0,.1,0c0,.1,0,.3.1.4l2.9,8.2c.2.6.4,1.1.6,1.6.2.4.5.6,1,.6h0v.5c-.7,0-1.4,0-2.2,0s-1.6,0-2.4,0v-.5h.2c.4,0,1,0,1-.5s-.1-.6-.3-1.1l-.6-1.8h-3.6l-.5,1.6h0ZM751.2,163.5h0l-1.5,4.5h3l-1.5-4.5ZM758,162.5c-1.2,0-1.2.3-1.5,1.4h-.5c0-.4.1-.9.2-1.3,0-.4,0-.9,0-1.3h.4c.1.5.5.5,1,.5h8.1c.4,0,.8,0,.8-.5h.4c0,.5-.1.9-.2,1.3,0,.4,0,.9,0,1.3l-.5.2c0-.6-.1-1.5-1.2-1.5h-2.6v8.4c0,1.2.5,1.4,1.3,1.4h.3v.5c-.6,0-1.7,0-2.6,0s-2,0-2.7,0v-.5h.3c.9,0,1.3,0,1.3-1.3v-8.4h-2.6,0ZM767.6,172.2h.2c.6,0,1.2,0,1.2-.9v-8.2c0-.8-.6-.9-1.2-.9h-.2v-.5c.6,0,1.6,0,2.3,0s1.7,0,2.5,0v.5h-.2c-.6,0-1.2,0-1.2.9v8.2c0,.8.6.9,1.2.9h.2v.5c-.8,0-1.7,0-2.5,0s-1.7,0-2.3,0v-.5ZM778.7,161.5c3.4,0,6,2.1,6,5.4s-2.6,6-6,6-5.9-2.3-5.9-5.6,2.5-5.8,5.8-5.8h0ZM778.9,172.2c3.1,0,3.6-2.7,3.6-5s-1.2-5.1-3.9-5.1-3.6,2.5-3.6,4.6,1.3,5.5,3.8,5.5ZM795.4,169.6h0v-5.9c0-1.3-.9-1.5-1.4-1.5h-.3v-.5c.7,0,1.5,0,2.2,0s1.3,0,1.9,0v.5h-.2c-.7,0-1.4.1-1.4,2v7.2c0,.6,0,1.1,0,1.6h-.6l-8.1-9v6.5c0,1.4.3,1.8,1.5,1.8h.3v.5c-.7,0-1.4,0-2,0s-1.4,0-2.2,0v-.5h.2c1.1,0,1.4-.7,1.4-2v-6.6c0-.9-.7-1.4-1.4-1.4h-.2v-.5c.6,0,1.2,0,1.8,0s.9,0,1.4,0l7,7.9h0ZM800.4,170.4c-.2.5-.3.9-.3,1.2,0,.5.7.6,1.2.6h.2v.5c-.6,0-1.3,0-1.9,0s-1.1,0-1.7,0v-.5h0c.6,0,1.1-.4,1.4-1l2.5-7.2c.2-.6.5-1.4.6-2,.5-.2,1.1-.5,1.4-.7,0,0,0,0,.1,0s0,0,.1,0c0,.1,0,.3.1.4l2.9,8.2c.2.6.4,1.1.6,1.6.2.4.5.6,1,.6h0v.5c-.7,0-1.4,0-2.2,0s-1.6,0-2.4,0v-.5h.2c.4,0,1,0,1-.5s-.1-.6-.3-1.1l-.6-1.8h-3.6l-.5,1.6h0ZM802.7,163.5h0l-1.5,4.5h3l-1.5-4.5ZM812.8,171.1c0,.6.4.8.9.9.7,0,1.4,0,2.1,0,.7,0,1.2-.5,1.5-.9.2-.4.4-.8.5-1.1h.5c-.2.9-.4,1.8-.6,2.7-1.4,0-2.8,0-4.2,0s-2.8,0-4.2,0v-.5h.2c.6,0,1.2,0,1.2-1.1v-8.1c0-.8-.6-.9-1.2-.9h-.2v-.5c.8,0,1.7,0,2.5,0s1.6,0,2.4,0v.5h-.4c-.6,0-1.1,0-1.1.9v8.1h0Z"></path></g><g><path class="cls-2" d="M42.9,214.4v-61.5c0,0,.2,0,.3,0h4.9q.5,0,.7-.5c.3-.7.6-1.4.8-2.1,0-.3.2-.4.6-.4.8,0,1.6,0,2.4,0,.3,0,.5.1.6.4.3.8.6,1.5.9,2.2,0,.3.2.4.5.4,0,0,.2,0,.3,0h44.5c.2,0,.3,0,.3-.3v-2.6c.2,0,.3.2.4.3.6.7,1.1,1.4,1.7,2.1.2.3.5.4.9.4,3.4,0,6.9,0,10.3,0,.4,0,1,.2,1.2-.1.3-.3,0-.8,0-1.2,0-.2,0-.5,0-.7.1.1.2.2.3.3,1.4,1.1,2.9,1.7,4.6,1.7,2.7,0,5.3,0,8,0,.3,0,.4-.1.6-.4.3-.8.6-1.5.9-2.2.1-.3.2-.4.5-.4.8,0,1.6,0,2.5,0,.3,0,.4.1.5.4.3.7.6,1.4.9,2.1q.2.5.7.5h10.8c.6,0,.6,0,.6-.6v-2c0-.2,0-.4,0-.6.2,0,.2.2.3.3.5.8,1,1.6,1.5,2.4.2.3.4.5.8.5,2.4,0,4.8,0,7.1,0h.3c.2,0,.3,0,.3-.3v-18.2c0-.5,0-.5-.5-.5h-7.2q-.5,0-.5.5v2.2c0,.1,0,.3-.1.4-.6-.9-1.2-1.8-1.8-2.7-.2-.3-.4-.4-.7-.4-2.4,0-4.8,0-7.1,0s-.6,0-.6.5v4.5c0,.2,0,.3,0,.5-.2-.2-.2-.4-.3-.6-.6-1.5-1.3-2.9-1.9-4.4-.1-.4-.3-.5-.7-.5-4.6,0-9.1,0-13.7,0s-3.9.6-5.6,1.8c0,0-.2.2-.4.1,0-.4,0-.8,0-1.2,0-.9,0-.8-.8-.8h-42.2c0,0-.2,0-.3,0-.3,0-.4.1-.5.4-.4,1.1-.8,2.2-1.2,3.3,0,.1,0,.3-.2.4-.4-1.2-.9-2.4-1.3-3.7-.1-.3-.3-.4-.6-.4-2.9,0-5.9,0-8.8,0s-.5,0-.5.5v4.7c0,.1,0,.3,0,.5-.1-.2-.2-.4-.3-.6-.7-1.5-1.3-3.1-2-4.6-.1-.3-.3-.5-.7-.5-2.3,0-4.6,0-6.8,0-.4,0-.6.1-.7.4-.5,1.4-1.1,2.7-1.7,4-.8,1.8-1.6,3.7-2.4,5.5,0,.1,0,.4-.3.4v-50.7h120.8c0,.2,0,.4,0,.7v63.8c0,.9.1.8-.8.8h-71.2c-.1,0-.3,0-.4,0-.3,0-.6,0-.8.4-.5.7-1,1.3-1.6,2-.1.1-.2.3-.4.4-.6-.7-1.2-1.5-1.7-2.2-.2-.4-.5-.5-1-.5-6.3,0-12.6,0-18.8,0s-.7,0-.7.6v18c0,.2,0,.3.3.3h19.2c.4,0,.6-.1.8-.4.5-.7,1-1.4,1.6-2.1,0-.1.1-.3.4-.3.6.8,1.2,1.6,1.8,2.4.2.2.3.3.6.3h11.2c.4,0,.4,0,.4-.5v-3.4q0-.5.5-.5h2.5c1,0,1.9-.2,2.8-.5,0,0,.2,0,.3,0,0,.2,0,.4,0,.6v4.1c0,.1,0,.2.2.2h7.2c.2,0,.4,0,.6-.1v-2.7c.7.8,1.4,1.5,2,2.3.3.4.6.5,1,.5,13.1,0,26.2,0,39.3,0,1.4,0,2.7-.3,3.9-1,.2,0,.3-.2.6-.2v36.9c0,.6-.3.9-.9.9H43.7c-.3,0-.5,0-.8,0h0Z"></path><path class="cls-2" d="M42.9,144.3c.3,0,.3-.2.3-.4.8-1.8,1.6-3.7,2.4-5.5.6-1.3,1.2-2.7,1.7-4,.1-.4.3-.4.7-.4,2.3,0,4.6,0,6.8,0,.4,0,.5.1.7.5.7,1.5,1.3,3.1,2,4.6,0,.2.2.4.3.6.1-.2,0-.3,0-.5v-4.7c0-.5,0-.5.5-.5h8.8c.3,0,.5.1.6.4.4,1.2.9,2.4,1.3,3.7.2,0,.2-.2.2-.4.4-1.1.8-2.2,1.2-3.3,0-.3.2-.4.5-.4,0,0,.2,0,.3,0h42.2c.8,0,.7-.1.8.8,0,.4,0,.8,0,1.2.2,0,.3,0,.4-.1,1.7-1.2,3.6-1.8,5.6-1.8,4.6,0,9.1,0,13.7,0s.6.1.7.5c.6,1.5,1.2,2.9,1.9,4.4,0,.2.1.4.3.6.1-.2,0-.4,0-.5v-4.5q0-.5.6-.5h7.1c.3,0,.5.1.7.4.6.9,1.2,1.8,1.8,2.7.2,0,.1-.2.1-.4v-2.2c0-.5,0-.5.5-.5h7.2q.5,0,.5.5v18.2c0,.2,0,.3-.3.3h-.3c-2.4,0-4.8,0-7.1,0-.4,0-.6-.1-.8-.5-.5-.8-1-1.6-1.5-2.4,0-.1-.1-.3-.3-.3,0,.2,0,.4,0,.6v2c0,.6,0,.6-.6.6h-10.8q-.5,0-.7-.5c-.3-.7-.6-1.4-.9-2.1-.1-.2-.2-.4-.5-.4-.8,0-1.6,0-2.5,0-.3,0-.4.1-.5.4-.3.8-.6,1.5-.9,2.2,0,.3-.2.4-.6.4-2.7,0-5.3,0-8,0-1.7,0-3.3-.7-4.6-1.7-.1,0-.2-.2-.3-.3-.2.2,0,.5,0,.7,0,.4.2.9,0,1.2-.3.3-.8.1-1.2.1-3.4,0-6.9,0-10.3,0-.4,0-.7-.1-.9-.4-.5-.7-1.1-1.4-1.7-2.1,0-.1-.2-.3-.4-.3v2.6c0,.2,0,.3-.3.3h-44.5c0,0-.2,0-.3,0-.3,0-.4-.1-.5-.4-.3-.8-.6-1.5-.9-2.2,0-.3-.2-.4-.6-.4-.8,0-1.6,0-2.4,0-.3,0-.5.1-.6.4-.3.7-.6,1.4-.8,2.1-.2.5-.2.5-.7.5h-4.9c0,0-.2,0-.3,0v-8.6h0ZM74.3,140.4c.1.3,0,.5,0,.7v9.1c0,.2,0,.3.3.3h2.9c.2,0,.3-.1.3-.3v-13.2c0-.8,0-.6-.7-.6h-4.2c-.9,0-.7-.1-1,.7-.9,2.6-1.8,5.2-2.7,7.8,0,.2,0,.4-.3.6-.1-.3-.2-.5-.3-.8-.9-2.6-1.8-5.1-2.8-7.6-.2-.6,0-.6-.8-.6h-4.7c-.4,0-.4,0-.4.4v13.5c0,.2,0,.3.3.3h3c.2,0,.3,0,.3-.3v-9.9c.2.2.3.4.3.6,1.1,3,2.2,6.1,3.3,9.1.2.6.2.5.7.5h2.1c.6,0,.5,0,.7-.5,1.1-3,2.2-6,3.3-9,0-.2.1-.4.2-.6h0ZM149.6,145c-.2-.2-.3-.4-.4-.6-1.7-2.6-3.3-5.1-5-7.7-.2-.3-.4-.4-.8-.4-1.1,0-2.3,0-3.4,0s-.6,0-.6.6v13.1c0,.3,0,.4.4.4.9,0,1.9,0,2.8,0s.4,0,.4-.3c0-.1,0-.3,0-.4v-7.6c0-.2,0-.4,0-.6.2.1.3.3.4.5,1.7,2.7,3.5,5.4,5.2,8,.1.2.3.4.6.4,1.2,0,2.4,0,3.6,0,.4,0,.4,0,.4-.4v-13.4c0-.2,0-.4-.3-.4h-2.9c-.2,0-.3,0-.3.3v7.7c0,.2,0,.4,0,.7h0ZM103.1,145.3c.2,0,.3,0,.5-.1,1.9-.5,3.2-1.9,3.4-4,.1-1.9-.8-3.6-2.6-4.4-.7-.3-1.5-.5-2.3-.5h-7.2c-.7,0-.6,0-.6.6v13.2c0,.2,0,.4.3.4.9,0,1.9,0,2.8,0,.3,0,.4-.1.4-.4,0-1.3,0-2.5,0-3.8s0-.8.8-.9c.5,0,.8.1,1.1.5,1.1,1.4,2.3,2.8,3.5,4.2.2.3.4.4.8.4,1.1,0,2.2,0,3.4,0,.1,0,.3,0,.4-.1-1.5-1.7-3-3.3-4.5-5.1h0ZM80.4,143.4v6.8c0,.2,0,.3.3.3h10.9c.4,0,.4,0,.4-.4v-2.2c0-.4,0-.4-.4-.4h-7.1c-.3,0-.4-.1-.4-.4,0-.6,0-1.1,0-1.6s0-.5.5-.5h6.9c.4,0,.4,0,.4-.5v-2q0-.5-.5-.5h-6.8c-.4,0-.4,0-.4-.5v-1.5c0-.5,0-.5.5-.5h7c.4,0,.4,0,.4-.5v-2.2q0-.5-.4-.5h-10.9c-.2,0-.3,0-.3.3v6.8h0ZM59.7,150.5c0-.2,0-.2,0-.3-1.9-4.5-3.9-9-5.8-13.5-.1-.3-.3-.4-.6-.4-1.2,0-2.5,0-3.7,0-.4,0-.5.1-.7.5-1.9,4.4-3.8,8.8-5.7,13.2,0,.1-.2.3,0,.5h3.6c.3,0,.3-.2.4-.4.3-.7.6-1.4.8-2.1.1-.3.2-.4.6-.4,1.9,0,3.8,0,5.7,0,.3,0,.5.1.6.4.3.7.6,1.4.8,2.1,0,.2.2.3.4.3,1.2,0,2.4,0,3.7,0h0ZM122.3,150.5h3.6c.2,0,.3-.2.4-.3.3-.7.6-1.4.8-2.1,0-.3.2-.4.6-.4,1.9,0,3.8,0,5.7,0,.3,0,.5.1.6.4.2.7.6,1.4.8,2.1.1.3.2.4.5.4.4,0,.8,0,1.2,0h2.3c0-.2,0-.4-.1-.5-1.9-4.4-3.8-8.8-5.7-13.3-.1-.3-.3-.4-.6-.4-1.2,0-2.4,0-3.6,0-.4,0-.6.1-.8.5-1.9,4.4-3.7,8.7-5.6,13.1,0,.2-.2.3-.1.6h0ZM122.1,147.4c-.5,0-.9,0-1.3,0-1.4-.1-2.5-.6-3.1-2-.5-1.3-.5-2.6,0-3.9.4-.9,1.1-1.5,2.1-1.8.4-.1.8-.1,1.2-.1h3.2c.4,0,.4,0,.4-.5v-2.4q0-.5-.5-.5h-3.4c-.6,0-1.1,0-1.6.1-2.7.5-4.4,2-5.2,4.6-.2.6-.2,1.2-.3,1.9,0,1.5.1,2.9.8,4.3,1.1,2.3,3.2,3.4,5.8,3.3.2,0,.3,0,.3-.2.4-.9.9-1.9,1.4-2.9h0ZM112,143.4v-6.8c0-.2,0-.3-.3-.3h-3c-.2,0-.3.1-.3.3v13.1c0,.1,0,.3,0,.4,0,.3.1.4.4.4.9,0,1.8,0,2.7,0s.5,0,.5-.6v-6.5h0Z"></path><path class="cls-2" d="M163.7,158v.4h.3v-64.3c0,0,0-.2,0-.2.1-.4-.2-.3-.4-.3,0,.2,0,.4,0,.7v63.8h0Z"></path><path class="cls-2" d="M163.6,176.5v.8c0,12.1,0,24.1,0,36.2s-.3.9-.9.9H43.7c-.3,0-.5,0-.8,0,.1.2.4.1.5.1h120.7v-38.2c-.1,0-.3.1-.4.2h0Z"></path><path class="cls-2" d="M66.4,177.1v.4c0,.2,0,.3.3.3h19.2c.4,0,.6-.1.8-.4.5-.7,1-1.4,1.6-2.1,0-.1.1-.3.4-.3.6.8,1.2,1.6,1.8,2.4.2.2.3.3.6.3h11.2c.4,0,.4,0,.4-.5v-3.4q0-.5.5-.5h2.5c1,0,1.9-.2,2.8-.5,0,0,.2,0,.3,0,0,.2,0,.4,0,.6v4.1c0,.1,0,.2.2.2h7.2c.2,0,.4,0,.6-.1v-2.7c.7.8,1.4,1.5,2,2.3.3.4.6.5,1,.5,13.1,0,26.2,0,39.3,0,1.4,0,2.7-.3,3.9-1,.1,0,.3-.2.5-.2.1,0,.3-.1.4-.2v-18h-.3c0,0-.8.4-.8.4h-71.2c-.1,0-.3,0-.4,0-.3,0-.6,0-.8.4-.5.7-1,1.3-1.6,2-.1.1-.2.3-.4.4-.6-.7-1.2-1.5-1.7-2.2-.2-.4-.5-.5-1-.5-6.3,0-12.6,0-18.8,0s-.7,0-.7.6v17.6h0ZM151.5,164.6c.4-1.9,1.7-2.9,3.5-3.3.6-.1,1.2-.2,1.9-.2h6.6c.1,0,.2,0,.4.1,0,.2-.2.4-.3.6-.3.6-.6,1.2-.9,1.9-.2.5-.5.6-1,.6-1.6,0-3.3,0-4.9,0s-.6,0-.8,0c-.6,0-1,.5-1,1.1,0,.6.4,1.1.9,1.2.2,0,.4,0,.6,0h3.4c.7,0,1.4.1,2,.4,1.3.6,2.1,1.6,2.2,3.1,0,.6,0,1.3,0,1.9-.4,1.7-1.6,2.8-3.3,3.1-.4,0-.8.1-1.2.1h-7q-.5,0-.6-.6v-2.1c0-.4,0-.5.5-.5h6.3c.3,0,.6,0,.9,0,.6-.2.9-.6.9-1.1,0-.5-.3-1-.9-1.1-.3,0-.6-.1-.9-.1h-2.8c-.5,0-1,0-1.5-.1-1.6-.4-2.7-1.6-2.9-3.2,0-.6-.1-1.3,0-1.9h0ZM138.5,164.5c.3-1.2,1-2.1,2.1-2.7.7-.4,1.5-.6,2.3-.6,1.6-.1,3.2,0,4.8,0h3.1c-.5,1.1-.9,2-1.4,3,0,.2-.2.2-.4.2h-5.4c-.3,0-.6,0-.8,0-.6.1-.9.5-.9,1,0,.5.2,1,.7,1.2.2.1.5.1.8.1h3.3c.6,0,1.1,0,1.6.2,1.5.4,2.4,1.4,2.6,2.9.2.9.1,1.9-.2,2.8-.6,1.5-1.6,2.3-3.2,2.6-.4,0-.8.1-1.2.1h-7.2c-.2,0-.3,0-.3-.3v-2.5c0-.2,0-.3.2-.3h6.5c.3,0,.6,0,.9-.1.6-.2.9-.6.9-1.1s-.4-1-.9-1.1c-.3,0-.6-.1-.9-.1h-2.9c-.6,0-1.2,0-1.8-.3-1.2-.4-2-1.2-2.4-2.5-.3-.9-.3-1.7,0-2.6h0ZM126.1,161.1h10.7c.2,0,.3,0,.3.3v2.6c0,.2,0,.3-.3.3h-7.4c-.2,0-.3,0-.3.3v1.9c0,.2.1.3.3.3h7q.5,0,.5.5c0,.7,0,1.4,0,2.1,0,.3-.1.4-.4.4-1.6,0-3.1,0-4.7,0h-2.2c-.5,0-.5,0-.5.4v1.8c0,.2,0,.3.3.3h7.4c.2,0,.3,0,.3.2v2.6c0,.2,0,.2-.3.2h-10.7c-.6,0-.6,0-.6-.6v-13c0-.6-.1-.6.6-.6h0ZM111.2,161.6c0-.5,0-.5.5-.5h7.2c.9,0,1.8.1,2.6.5,1.8.9,2.8,2.6,2.5,4.8-.2,1.8-1.6,3.3-3.5,3.6,0,0-.2,0-.2.1,1.5,1.6,3,3.3,4.5,5-.1.2-.3.1-.4.1-1.1,0-2.2,0-3.3,0-.4,0-.6-.1-.8-.4-1.2-1.4-2.3-2.8-3.5-4.2-.3-.4-.6-.6-1.2-.5-.9,0-.8-.1-.8.8v3.7q0,.5-.5.5h-2.6c-.4,0-.4,0-.4-.4v-13.3h0ZM96.8,170.6v-9.3c0-.1,0-.2.2-.2h7.5c.7,0,1.4,0,2.1.3,1.8.6,3,2.2,3.1,4.1,0,.6,0,1.3-.2,1.9-.4,1.4-1.3,2.4-2.7,3-.8.3-1.7.5-2.5.5-1.1,0-2.2,0-3.2,0s-.6,0-.6.6v3.4c0,.5,0,.5-.5.5h-2.7q-.5,0-.5-.5v-4.2h0ZM81.3,161.1h3.5c.3,0,.5.1.7.4.9,1.2,1.8,2.3,2.7,3.4.1.2.3.4.4.6.2,0,.3-.3.4-.4.9-1.2,1.8-2.4,2.7-3.5.2-.3.5-.4.9-.4,1,0,2,0,3.1,0h.7c-.3.4-.5.6-.6.8-1.6,2-3.2,3.9-4.7,5.9-.3.4-.4.3,0,.8,1.6,2,3.2,4,4.8,6.1.1.2.3.3.4.6-.2.1-.4,0-.5,0-1.1,0-2.2,0-3.2,0-.4,0-.6,0-.9-.4-.8-1.2-1.7-2.3-2.6-3.4-.1-.1-.2-.3-.4-.5-.2.1-.2.3-.4.4-.9,1.1-1.7,2.3-2.6,3.5-.2.3-.5.4-.9.4-1.1,0-2.1,0-3.2,0-.2,0-.3,0-.5,0,0-.2.2-.4.4-.6,1.6-2,3.2-3.9,4.8-5.9.4-.5.4-.4,0-.9-1.7-2.1-3.3-4.1-4.9-6.2-.1-.1-.3-.3-.3-.5.1-.1.3,0,.4,0h0ZM68.8,161.7c0-.5,0-.5.5-.5h10.6q.5,0,.5.5c0,.8,0,1.5,0,2.2,0,.3,0,.4-.4.4-1,0-2,0-3,0h-4.1c-.4,0-.5,0-.5.5v1.6c0,.2,0,.3.3.3h7q.6,0,.6.6v1.9q0,.5-.5.5h-6.2c-.2,0-.5,0-.7,0-.3,0-.4.1-.4.4,0,.6,0,1.2,0,1.8,0,.3.1.4.4.4,1.3,0,2.6,0,3.8,0h3.3c.4,0,.4,0,.4.4v2.2c0,.4,0,.4-.4.4h-10.9c-.2,0-.3,0-.3-.3v-13.4h0Z"></path><path class="cls-2" d="M99.9,139.5h1.7c.2,0,.4,0,.6,0,.8.3,1.2.9,1.1,1.6,0,.6-.7,1.2-1.4,1.3-.5,0-1,0-1.5,0h-2.4c-.2,0-.3,0-.3-.3,0-.8,0-1.5,0-2.3,0-.3.1-.4.4-.4.6,0,1.2,0,1.9,0h0Z"></path><path class="cls-2" d="M51.4,139.8c.6,1.6,1.3,3.1,1.9,4.8h-4c.6-1.6,1.3-3.2,1.9-4.8h.1Z"></path><path class="cls-2" d="M132.5,144.6h-4c.6-1.6,1.3-3.2,2-4.8.6,1.6,1.3,3.1,1.9,4.8h0Z"></path><path class="cls-2" d="M117,167.3c-.6,0-1.2,0-1.8,0-.3,0-.4,0-.4-.4,0-.8,0-1.5,0-2.2,0-.3,0-.4.4-.4h3.7c.5,0,.9.2,1.3.6.6.6.5,1.5-.1,2-.3.3-.8.4-1.2.4h-1.8,0Z"></path><path class="cls-2" d="M102.6,164.4c.7,0,1.3,0,1.9,0,1.1,0,1.7,1.1,1.4,2.1-.2.6-.6.9-1.2,1.1-.2,0-.3,0-.5,0h-3.5c-.3,0-.4-.1-.4-.4,0-.8,0-1.6,0-2.5,0-.3.1-.4.4-.4.6,0,1.2,0,1.8,0h0s0,0,0,0Z"></path></g><path class="cls-2" d="M300.9,213.1v-118.8c0-.6,0-.7-.6-.7h-119.8c-.4,0-.4,0-.5.4,0,.3,0,.6,0,.9v119c0,.4,0,.4.5.4.3,0,.6,0,.9,0h118.2c1.5,0,1.3.2,1.3-1.3h0ZM192.2,136.9c2.2-1.5,4.4-2.9,6.6-4.4,3.6-2.4,7.3-4.9,11-7.3,9.9-6.6,19.9-13.3,29.8-19.9.6-.4.8-.6,1-.6s.2,0,.3.2.3.2.6.4c15.7,10.5,31.3,21,46.9,31.5.3.2.6.3.8.7-.3.2-.5.4-.8.6-18.8,12.6-37.5,25.2-56.3,37.8-.1.1-.3.2-.4.3-.2.1-.4.3-.5.3-.2,0-.3,0-.5-.1-.1-.1-.4-.3-.7-.5-2.6-1.8-5.3-3.6-7.9-5.3-.3-.2-.6-.3-.9-.7,1.2-.8,2.3-1.6,3.5-2.4.4-.3.8-.5,1.2-.8,1.5-1.1,3.1-2.1,4.6-3.1,1.6-1.1,3.1-2.1,4.7-3.2,1.6-1.1,3.1-2.1,4.7-3.2,1.6-1.1,3.1-2.1,4.7-3.2,1.5-1,3.1-2.1,4.6-3.1,1.6-1.1,3.1-2.1,4.7-3.2,1.6-1.1,3.1-2.1,4.7-3.2,1-.6,1.9-1.3,2.9-2,.6-.4,1.1-.8,1.7-1.2,1.6-1.1,3.1-2.1,4.7-3.2h0v-.2s0,0,0,0c-9.6-6.5-19.2-13-28.8-19.5-4.5,3.1-9,6.1-13.5,9.1,0,0,0,.2,0,.2,0,.1.2.2.3.2,0,0,.1,0,.2,0,1.8,1.2,3.7,2.4,5.5,3.7,1.1.7,2.2,1.5,3.3,2.2.2.1.3.2.5.3.2.1.3.2.5.3h0s0,0,0,0c0,.1-.1.2-.2.3-.1,0-.2.1-.4.2-4.1,2.8-8.2,5.5-12.3,8.3-3.5,2.3-7,4.7-10.4,7-.2.1-.4.3-.6.4-.2.2-.4.1-.6,0-.1-.1-.3-.2-.5-.3-4.2-2.8-8.3-5.5-12.5-8.3-2.1-1.4-4.2-2.8-6.3-4.2-.2-.1-.4-.2-.5-.4,0,0-.1-.1-.1-.2.2-.3.5-.4.8-.6h0ZM211.2,190.3c-6.6,4.4-13.2,8.7-19.7,13h0c0,0-.2,0-.2,0-.2-.2-.1-.4-.1-.6,0-2,0-4,0-6s0-4,0-6c0-.1,0-.2,0-.3s0-.2,0-.2c0-.1.2-.3.4-.4,3.1-2.1,6.2-4.2,9.3-6.3.1,0,.2-.1.4-.2,0,0,.1,0,.2,0s.1,0,.2.1c3.1,2.2,6.3,4.3,9.4,6.4,0,0,0,0,0,0,0,0,0,0,.1.2h0ZM288.9,170.7c-.1,0-.3.2-.4.3-15.9,10.6-31.8,21.2-47.7,31.8-.7.5-.7.6-1.1.4,0,0-.1,0-.2-.1s-.2-.1-.3-.2c-1.7-1.1-3.4-2.3-5.1-3.4-3.5-2.3-7-4.7-10.5-7-10.5-7-20.9-14-31.4-21.1-.3-.2-.6-.4-.8-.6.3-.3.6-.5.9-.7,2.5-1.7,4.9-3.3,7.4-5,6.1-4.1,12.2-8.2,18.4-12.3,10.2-6.9,20.4-13.7,30.6-20.6.5-.4.7-.5.9-.5s.2,0,.4.2c.1,0,.3.2.5.3,2.7,1.8,5.4,3.6,8.1,5.4,0,0,.2.1.3.2.2.1.3.2.5.4,0,0-.1.2-.2.2-.1.1-.3.2-.4.3,0,0-.1,0-.2.1-4.8,3.2-9.6,6.5-14.3,9.7-10.3,6.9-20.5,13.9-30.8,20.8-.3.2-.6.4-.8.6,0,0,.1.1.2.2.1.1.2.2.4.3,0,0,.1,0,.2.1,9.2,6.2,18.3,12.4,27.5,18.6.1,0,.2.1.2.2.2.1.3.2.5.2s0,0,.1,0c0,0,.2-.1.4-.2,0,0,.2-.1.3-.2,2.4-1.6,4.8-3.2,7.2-4.9,1.6-1.1,3.2-2.2,4.9-3.3.2-.1.4-.2.5-.4,0,0,.1-.1.1-.2,0,0,0-.1-.1-.2h0c-.2-.2-.5-.3-.7-.5-2.9-1.9-5.7-3.8-8.6-5.7-.2-.1-.4-.3-.6-.4,0,0-.1-.1-.1-.1,0-.1,0-.2.1-.3.2-.1.4-.3.6-.4,7.5-5.1,15.1-10.1,22.6-15.2.1,0,.3-.2.4-.3,0,0,.1-.1.2-.1.1,0,.3,0,.5,0,0,0,.2,0,.2.1,1.8,1.2,3.6,2.4,5.4,3.6,4.6,3,9.1,6.1,13.7,9.1,0,0,.1,0,.2.1.1,0,.2.2.4.3,0,0,0,0,0,0,0,0,.1.1.2.2-.1.1-.3.2-.4.3h0ZM289.8,105.8c0,3.1,0,6.2,0,9.4,0,.9,0,1.9,0,2.8h0c0,.2,0,.4-.1.5,0,0,0,.1-.1.2,0,0-.1.1-.2.2-1.8,1.2-3.6,2.4-5.4,3.6-1.2.8-2.5,1.6-3.7,2.5,0,0-.1,0-.2.1-.1,0-.2,0-.4,0,0,0-.1,0-.2,0-3.1-2.2-6.3-4.3-9.4-6.5,0,0,0,0-.1,0,0,0,0,0-.1-.1h0c.1-.1.2-.2.3-.3h0c6.5-4.3,13-8.6,19.5-12.9.2.2.2.4.2.6v.2h0Z"></path><g><path class="cls-2" d="M476.1,94.5h.8c15.8,0,31.6,0,47.4,0,16.4,0,32.8,0,49.1,0,5.5,0,11.1,0,16.6,0,1,0,1,0,.8,1-.7,3.2-1.3,6.3-2,9.5-2.2,10.9-4.5,21.8-6.7,32.7-2.2,10.5-4.3,20.9-6.5,31.4-1.8,8.9-3.7,17.8-5.5,26.7-.9,4.7-3.1,8.7-6.7,11.9-2.3,2-5,3.3-7.8,4.2-4.1,1.3-8.2,1.9-12.5,1.9h-102.9c-25.7,0-51.4,0-77.1,0-15.1,0-30.3,0-45.4,0-1,0-1,0-.8-1,1.2-5.7,2.3-11.4,3.5-17.1,2.1-10.1,4.1-20.1,6.2-30.2,2.2-10.9,4.5-21.9,6.7-32.8,1.3-6.4,2.6-12.7,4-19.1.5-2.7,1.3-5.2,2.7-7.6,1.7-2.9,4.1-5.2,7-7,3.4-2.1,7.2-3.2,11.1-3.9,2.3-.4,4.7-.6,7-.6,28.8,0,57.6,0,86.4,0h24.7s0,0,0,0ZM457.8,146.9s0,0,0,0c.2-1.3.5-2.6.7-3.9,0-.4,0-.6-.5-.6-1.4,0-2.8,0-4.2,0-.5,0-.5.2-.6.6-.7,5.3-1.6,10.6-2.6,15.9-.7,3.9-1.5,7.7-2.3,11.6-.1.5,0,.8.6.8,1.5,0,3,0,4.6,0,.5,0,.7-.1.7-.6.4-4.6,1.3-9.2,2.1-13.8.5-2.6,1.1-5.2,2.8-7.4,1.5-1.9,3.3-3.4,5.9-3.1.9,0,1.8,0,2.6.4.3.1.5.1.5-.3.2-1.1.4-2.3.6-3.4,0-.2,0-.4-.1-.5-1.1-.4-2.2-.8-3.4-.7-2.6.3-4.7,1.5-6.2,3.5-.4.6-.8,1.2-1.3,1.7h0ZM528.1,146.8s0,0,0,0c.2-1.3.4-2.6.6-3.8,0-.4,0-.6-.5-.6-1.3,0-2.6,0-4,0-.5,0-.7.1-.7.6-.7,5-1.5,9.9-2.4,14.9-.8,4.3-1.6,8.6-2.5,12.8,0,.4,0,.5.4.5,1.7,0,3.4,0,5.1,0,.3,0,.5,0,.5-.4,0-1.5.2-3,.5-4.5.7-4.4,1.2-8.9,2.5-13.2.9-3,2.6-5.4,5.6-6.6.2,0,.3-.1.5-.1,1.5,0,3-.2,4.4.4.3.1.5,0,.5-.3,0-1.1.3-2.2.6-3.3,0-.4,0-.5-.4-.6-1.1-.4-2.2-.6-3.4-.5-1.8.1-3.3.8-4.7,2-1,.9-1.8,1.9-2.6,3h0ZM361,147.1v.2c-2.9,0-5.9-.2-8.8-.2-.5,0-.5-.3-.4-.6.9-5.1,1.9-10.1,2.8-15.1,0-.5,0-.6-.5-.6-1.9,0-3.7,0-5.6,0-.4,0-.6.1-.7.6-.6,3.7-1.2,7.3-1.8,11-1,6.7-2.2,13.4-3.6,20.1-.5,2.7-1.1,5.5-1.6,8.2,0,.5,0,.6.5.6,1.9,0,3.7,0,5.6,0,.5,0,.6-.2.6-.6.2-1.2.4-2.4.6-3.6.9-5.1,1.7-10.2,2.6-15.3.1-.5.3-.7.8-.7,5.7,0,11.3,0,17,0,.6,0,.8.1.6.7-.7,3.6-1.4,7.2-2,10.8-.5,2.6-1,5.3-1.5,7.9-.1.5,0,.7.6.7,1.9,0,3.7,0,5.6,0,.4,0,.5-.1.6-.5.7-4.4,1.5-8.9,2.2-13.3,1.5-8.7,3.1-17.4,4.8-26.1.1-.5,0-.5-.4-.5-1.7,0-3.4,0-5.1,0s-1.1,0-1.3,1.1c-.8,4.9-1.7,9.8-2.4,14.7,0,.4-.2.6-.7.6-2.9,0-5.8,0-8.7,0h0ZM555.9,166.8c-.2,1.4-.3,2.7-.5,3.9,0,.4,0,.5.4.5,1.5,0,3,0,4.5,0,.3,0,.5,0,.5-.4,0-2.7.4-5.4.8-8.1.9-6.9,2.2-13.6,3.5-20.4.7-3.9,1.5-7.8,2.3-11.7,0-.5,0-.6-.5-.6-1.6,0-3.2,0-4.8,0-.4,0-.6.1-.6.5-.5,4-1.2,7.9-1.8,11.9,0,.4-.2.5-.6.3-2-.7-4.2-1-6.3-.9-2.7,0-5.2.6-7.7,1.8-2.6,1.4-4.5,3.4-5.9,6-1.8,3.3-2.9,6.9-3.2,10.6-.2,2.4,0,4.8.9,7.1.6,1.4,1.6,2.6,3,3.3,2.8,1.4,5.8,1.5,8.8,1.1,2-.3,3.8-1,5.2-2.4.7-.7,1.2-1.5,1.9-2.4h0ZM396,168.2c.4.3.4.6.6.9.7.9,1.4,1.8,2.5,2.3,1.6.7,3.2.8,4.9.6,4-.3,7.4-1.8,10-4.9,1.8-2.1,2.8-4.6,3.7-7.2,1.2-4,2-8,.8-12.1-.6-1.9-1.7-3.5-3.5-4.5-2.2-1.3-4.7-1.6-7.2-1.4-2.8.2-5.3,1.1-7.5,2.9-.2.1-.4.3-.7.5.2-.8.3-1.4.4-2,.1-.5,0-.8-.6-.8-1.2,0-2.5,0-3.7,0-.5,0-.7.2-.8.7-.9,5.5-1.7,10.9-2.7,16.4-1.4,8-2.9,16.1-4.5,24.1,0,.4,0,.6.5.6,1.6,0,3.2,0,4.9,0,.4,0,.6,0,.7-.6.3-3.1.9-6.1,1.4-9.2.3-2,.6-4.1,1-6.2h0ZM508.9,166.8c0,.2,0,.4,0,.7-.1,1.1-.2,2.1-.3,3.2,0,.4,0,.6.5.5,1.4,0,2.8,0,4.2,0,.4,0,.5-.1.5-.5,0-1.1,0-2.3.2-3.5.5-3.8,1.2-7.6,1.8-11.5.5-2.9,1.3-5.8,1.2-8.8,0-1.8-.9-3-2.3-3.8-2.4-1.4-5.2-1.4-7.9-1.5-3.1,0-6.2.7-9.4.6-.3,0-.5,0-.5.4-.3,1.3-.6,2.6-.9,3.8-.1.4,0,.5.4.4,1.2-.3,2.5-.6,3.8-.8,2.8-.5,5.6-.9,8.4-.2,1.6.4,3,1.3,2.8,3.4,0,.9-.2,1.7-.4,2.6,0,.4-.2.6-.8.6-1.9,0-3.8,0-5.7,0-2.3,0-4.5,0-6.7.8-3.3,1.2-5.7,3.1-7,6.4-.9,2.3-1,4.7-.5,7.1.5,2.2,1.9,3.6,4,4.3,2,.7,4.1.7,6.2.6,1.2,0,2.3-.4,3.4-.8,2.1-.9,3.7-2.4,5.1-4.1h0ZM444,165.8c0,0-.2,0-.2,0-3.3,1.5-6.7,2.2-10.3,2-1.2,0-2.3-.3-3.3-.7-2.3-.9-3.3-2.9-3.5-5.1-.2-1.9,0-3.9.4-5.8,0-.4.2-.5.6-.6,1.6,0,3.2-.1,4.8-.1,4.5,0,9.1,0,13.6.1.3,0,.6,0,.8-.4.5-2.2.9-4.5.8-6.8-.1-2.1-1-3.8-2.8-5-1.5-1-3.3-1.3-5.1-1.6-2.8-.4-5.5,0-8.1.7-3.7,1.1-6.5,3.5-8.2,7.1-2,4.3-3,8.9-2.7,13.6.2,2.2,1,4.2,2.6,5.8,1.8,1.7,4,2.3,6.3,2.6,4.5.5,8.9-.2,13.2-1.2.3,0,.4-.2.4-.5.1-.9.3-1.8.5-2.7,0-.5.3-1,.2-1.5h0ZM486.5,165.9c-3.2,1.5-6.3,2.1-9.7,1.9-1,0-1.9-.4-2.7-1-1.8-1.3-2.3-3.2-2.4-5.3-.1-2.9.3-5.7,1.2-8.4.6-1.7,1.3-3.4,2.5-4.8,1.8-2.2,4.3-2.7,7-2.7,2.4,0,4.8.4,7,1.2.3.1.4,0,.5-.2.2-1.3.4-2.6.6-3.9,0-.4-.1-.5-.5-.5-3-.3-6-.6-9-.4-1.7.1-3.4.3-5,.9-4.3,1.5-6.8,4.8-8.4,8.8-1.3,3.4-2,7-1.9,10.7,0,1.7.3,3.3,1,4.8,1,2.1,2.6,3.6,4.9,4.3,2.4.7,4.9.8,7.3.5,2-.2,4.1-.5,6-1.1.3,0,.6-.1.7-.5.3-1.3.6-2.7.8-4.2h0ZM381.6,171.2c.8,0,1.6,0,2.4,0,.4,0,.6,0,.6-.5.2-2.7.8-5.4,1.2-8.1,1.1-6.6,2.3-13.2,3.7-19.7.1-.5,0-.6-.5-.6-1.5,0-3,0-4.4,0-1,0-1,0-1.1,1-.6,4.2-1.3,8.4-2,12.6-.9,4.9-1.8,9.7-2.8,14.6-.1.5,0,.6.5.6.8,0,1.6,0,2.4,0h0ZM384.9,134.5c0,.2,0,.4,0,.6,0,.8.4,1.7,1.2,2,1.9.7,4.2.1,5-2,.4-.9.3-1.7.4-2.6,0-.9-.4-1.5-1.1-1.9-.6-.4-1.3-.2-2-.2-.9,0-1.6.3-2.2.9-.9.9-1.3,2-1.2,3.3h0Z"></path><path class="cls-2" d="M553.1,145.7c1.8-.3,3.5.2,5.2.8.4.1.5.3.5.7-.9,4.7-1.6,9.4-2.8,14-.6,2.4-1.8,4.5-4.1,5.7-2.3,1.3-5.9,1.6-8.2-.4-.7-.6-1-1.4-1.3-2.3-.5-1.9-.4-3.8-.2-5.8.3-3.2,1.2-6.2,3-8.9,1.3-2,3-3.3,5.4-3.9.8-.2,1.7,0,2.5,0h0Z"></path><path class="cls-2" d="M412.9,153.5c0,4-1.1,7.7-3.2,11.1-1.9,3-5.6,4.1-8.8,3.3-2.3-.6-3.8-2.9-3.6-5.3.3-3.7,1.2-7.3,1.8-10.9.1-.8.4-1.7.5-2.5,0-.5.3-.9.7-1.2,1.9-1.7,4.2-2.6,6.8-2.4,3.6.3,5.8,2,5.9,6.3,0,.6,0,1.1,0,1.7h0Z"></path><path class="cls-2" d="M495.6,163.5c0-2.5,1-4.6,3-6.1,1.2-.9,2.8-1.4,4.3-1.4,2,0,4.1,0,6.2,0s.9,0,.7.9c-.5,2.7-1.1,5.3-2.6,7.7-.9,1.4-2.1,2.3-3.7,2.9-1,.4-2.1.6-3.2.6s-1.4-.1-2.1-.4c-1.3-.4-2-1.2-2.6-2.4-.2-.5,0-1.1-.2-1.8h0Z"></path><path class="cls-2" d="M434.8,152.3c-2.1,0-4.2,0-6.4,0-.5,0-.6-.1-.4-.6.6-1.4,1-2.9,2.2-4.1,1.2-1.2,2.7-1.9,4.3-2.1,1.3-.2,2.6-.2,3.9,0,2.3.4,3.6,2,3.5,4.3,0,.6-.1,1.3-.2,1.9,0,.5-.2.6-.7.5-2.1,0-4.2,0-6.4,0h0s0,0,0,0Z"></path><path class="cls-2" d="M528.1,146.8s0,0,0,0c0,0,0-.1,0-.1,0,0,0,0,0,0Z"></path><path class="cls-2" d="M457.8,146.9c0,0,0,.2,0,.1,0,0,0-.1,0-.2,0,0,0,0,0,0Z"></path></g></g></g></g></g></g></svg>