<svg xmlns="http://www.w3.org/2000/svg" id="Camada_2" data-name="Camada 2" viewBox="0 0 807.41 216.58"><defs><style>      .cls-1 {        fill: #fff;        stroke-width: 0px;      }    </style></defs><g id="Layer_1" data-name="Layer 1"><g><g><path class="cls-1" d="M209.47,27.02c0,5.68-3.97,9.32-9.75,9.32h-13.47v6.81h-6.55v-25.47h20.02c5.79,0,9.75,3.68,9.75,9.35ZM202.92,27.02c0-3.86-3.06-3.86-5.02-3.86h-11.65v7.68h11.65c1.97,0,5.02,0,5.02-3.82Z"></path><path class="cls-1" d="M211.25,30.37c0-8.44,4.8-13.07,16.01-13.07s16.01,4.66,16.01,13.07-4.84,13.14-16.01,13.14-16.01-4.66-16.01-13.14ZM236.72,30.37c0-5.17-2.62-7.57-9.46-7.57s-9.46,2.37-9.46,7.57,2.66,7.64,9.46,7.64,9.46-2.44,9.46-7.64ZM234.32,7.48v4.29l-14.16,2.91v-4.29l14.16-2.91Z"></path><path class="cls-1" d="M251.39,34.37c0,2.69,2.18,3.93,10.48,3.93,6.88,0,8.95-.76,8.95-2.77,0-2.11-1.46-2.47-9.72-2.87-11.1-.51-15.5-2.26-15.5-7.97s5.71-7.39,15.25-7.39,15.43,2.4,15.43,8.7h-6.55c0-2.8-2.8-3.49-9.61-3.49-6.44,0-7.97.62-7.97,2.51s1.53,2.33,8.95,2.77c10.04.55,16.27,1.09,16.27,7.53,0,6.81-6.44,8.19-15.87,8.19-10.44,0-16.67-1.78-16.67-9.13h6.55Z"></path><path class="cls-1" d="M309.97,28.19v5.17h-29.11v-5.17h29.11Z"></path><path class="cls-1" d="M329.22,29.5h16.16v13.65h-4.84l-.29-4c-2.4,2.62-6.22,4.37-11.65,4.37-9.39,0-15.14-4.66-15.14-13.1s5.75-13.1,16.23-13.1,15.28,3.97,15.69,10.3h-6.66c-.36-1.93-2.11-4.8-9.03-4.8-8.52,0-9.68,4.69-9.68,7.75s1.2,7.9,9.68,7.9c6.33,0,8.88-2.77,9.03-4.69h-9.5v-4.26Z"></path><path class="cls-1" d="M372.16,35.57l4.69,7.57h-7.72l-4.11-6.81h-10.55v6.81h-6.55v-25.47h20.02c5.79,0,9.75,3.68,9.75,9.35,0,4.15-2.11,7.21-5.53,8.55ZM354.48,30.84h11.65c1.97,0,5.02,0,5.02-3.82s-3.06-3.86-5.02-3.86h-11.65v7.68Z"></path><path class="cls-1" d="M403.42,37.72h-15.25l-2.73,5.42h-7.21l13.14-25.47h8.84l13.17,25.47h-7.24l-2.73-5.42ZM400.98,32.84l-5.17-10.34-5.2,10.34h10.37Z"></path><path class="cls-1" d="M445.82,30.41c0,8.66-5.79,12.74-12.37,12.74h-18.49v-25.47h18.49c6.59,0,12.37,4.08,12.37,12.74ZM439.27,30.41c0-6.19-3.35-7.24-8.3-7.24h-9.46v14.48h9.46c4.95,0,8.3-1.06,8.3-7.24Z"></path><path class="cls-1" d="M464.37,43.51c-11.21,0-16.01-4.26-16.01-13.14v-12.7h6.55v12.7c0,3.57.98,7.64,9.46,7.64s9.46-4.11,9.46-7.64v-12.7h6.55v12.7c0,8.84-4.84,13.14-16.01,13.14Z"></path><path class="cls-1" d="M504.66,37.72h-15.25l-2.73,5.42h-7.21l13.14-25.47h8.84l13.17,25.47h-7.24l-2.73-5.42ZM502.22,32.84l-5.17-10.34-5.2,10.34h10.37Z"></path><path class="cls-1" d="M538.17,32.23h6.66c-.62,6.88-5.06,10.74-13.87,11.21l-.44,1.42c2.18-.69,6.44-1.02,6.44,2.51,0,4.15-5.9,4.84-11.5,4.15v-3.09c4.77.69,6.81,0,6.81-1.38,0-.87-.95-1.16-3.78-.51l-2.15-2.11.4-.98c-9.64-.58-13.83-5.17-13.83-13.06,0-8.44,4.8-13.07,16.01-13.07,10.15,0,15.25,3.86,15.9,11.21h-6.66c-.62-4.11-3.78-5.71-9.24-5.71-6.66,0-9.46,2.37-9.46,7.57s2.84,7.64,9.46,7.64c5.42,0,8.62-1.64,9.24-5.79Z"></path><path class="cls-1" d="M568.08,37.72h-15.25l-2.73,5.42h-7.21l13.14-25.47h8.84l13.17,25.47h-7.24l-2.73-5.42ZM555.24,14.72h-5.31c0-4.04,1.6-7.64,5.71-7.64s5.13,3.6,8.04,3.6c1.56,0,2.04-1.16,2.04-3.24h5.31c0,4.04-1.64,7.64-5.71,7.64s-5.17-3.6-8.08-3.6c-1.53,0-2,1.16-2,3.24ZM565.65,32.84l-5.17-10.34-5.2,10.34h10.37Z"></path><path class="cls-1" d="M576.34,30.37c0-8.44,4.8-13.07,16.01-13.07s16.01,4.66,16.01,13.07-4.84,13.14-16.01,13.14-16.01-4.66-16.01-13.14ZM601.82,30.37c0-5.17-2.62-7.57-9.46-7.57s-9.46,2.37-9.46,7.57,2.66,7.64,9.46,7.64,9.46-2.44,9.46-7.64Z"></path></g><g><path class="cls-1" d="M187.1,193.17v5.84h23.02v5.34h-23.02v5.84h23.02v5.88h-30.42v-28.77h30.42v5.88h-23.02Z"></path><path class="cls-1" d="M239.43,193.17v5.84h23.02v5.34h-23.02v5.84h23.02v5.88h-30.42v-28.77h30.42v5.88h-23.02Z"></path><path class="cls-1" d="M272.11,206.15c0,3.04,2.47,4.44,11.84,4.44,7.77,0,10.11-.86,10.11-3.12,0-2.38-1.64-2.8-10.97-3.25-12.54-.58-17.51-2.55-17.51-9s6.45-8.34,17.22-8.34,17.43,2.71,17.43,9.82h-7.4c0-3.16-3.16-3.95-10.85-3.95-7.28,0-9,.7-9,2.84s1.73,2.63,10.11,3.12c11.34.62,18.37,1.23,18.37,8.51,0,7.69-7.28,9.25-17.92,9.25-11.8,0-18.83-2.01-18.83-10.32h7.4Z"></path><path class="cls-1" d="M336.81,193.49h-13.98v22.57h-7.4v-22.57h-13.98v-6.21h35.35v6.21Z"></path><path class="cls-1" d="M346.64,193.17v5.84h23.02v5.34h-23.02v5.84h23.02v5.88h-30.42v-28.77h30.42v5.88h-23.02ZM362.42,180.63l-15.99,3.29v-4.85l15.99-3.29v4.85Z"></path><path class="cls-1" d="M407.02,193.49h-13.98v22.57h-7.4v-22.57h-13.98v-6.21h35.35v6.21Z"></path><path class="cls-1" d="M416.85,216.06h-7.4v-28.77h7.4v28.77Z"></path><path class="cls-1" d="M437.4,186.88c11.47,0,17.22,4.36,17.96,12.66h-7.52c-.7-4.65-4.27-6.45-10.44-6.45-7.52,0-10.69,2.67-10.69,8.55s3.21,8.63,10.69,8.63c6.12,0,9.74-1.85,10.44-6.54h7.52c-.74,8.34-6.49,12.74-17.96,12.74-12.66,0-18.09-5.26-18.09-14.84s5.43-14.76,18.09-14.76Z"></path><path class="cls-1" d="M481.63,209.94h-17.22l-3.08,6.12h-8.14l14.84-28.77h9.99l14.88,28.77h-8.18l-3.08-6.12ZM478.88,204.43l-5.84-11.67-5.88,11.67h11.71Z"></path><path class="cls-1" d="M532.48,186.88c11.47,0,17.22,4.36,17.96,12.66h-7.52c-.7-4.65-4.27-6.45-10.44-6.45-7.52,0-10.69,2.67-10.69,8.55s3.21,8.63,10.69,8.63c6.12,0,9.74-1.85,10.44-6.54h7.52c-.74,8.34-6.49,12.74-17.96,12.74-12.66,0-18.09-5.26-18.09-14.84s5.43-14.76,18.09-14.76Z"></path><path class="cls-1" d="M552.71,201.63c0-9.54,5.43-14.76,18.09-14.76s18.09,5.26,18.09,14.76-5.47,14.84-18.09,14.84-18.09-5.26-18.09-14.84ZM581.48,201.63c0-5.84-2.96-8.55-10.69-8.55s-10.69,2.67-10.69,8.55,3,8.63,10.69,8.63,10.69-2.75,10.69-8.63Z"></path><path class="cls-1" d="M618.93,207.51l5.3,8.55h-8.71l-4.64-7.69h-11.92v7.69h-7.4v-28.77h22.61c6.54,0,11.02,4.15,11.02,10.56,0,4.69-2.38,8.14-6.25,9.66ZM598.96,202.17h13.15c2.22,0,5.67,0,5.67-4.32s-3.45-4.36-5.67-4.36h-13.15v8.67Z"></path><path class="cls-1" d="M661.23,197.85c0,6.41-4.48,10.52-11.02,10.52h-15.21v7.69h-7.4v-28.77h22.61c6.54,0,11.02,4.15,11.02,10.56ZM653.83,197.85c0-4.36-3.45-4.36-5.67-4.36h-13.15v8.67h13.15c2.22,0,5.67,0,5.67-4.32Z"></path><path class="cls-1" d="M663.25,201.63c0-9.54,5.43-14.76,18.09-14.76s18.09,5.26,18.09,14.76-5.47,14.84-18.09,14.84-18.09-5.26-18.09-14.84ZM692.02,201.63c0-5.84-2.96-8.55-10.69-8.55s-10.69,2.67-10.69,8.55,3,8.63,10.69,8.63,10.69-2.75,10.69-8.63Z"></path><path class="cls-1" d="M729.47,207.51l5.3,8.55h-8.71l-4.64-7.69h-11.92v7.69h-7.4v-28.77h22.61c6.54,0,11.02,4.15,11.02,10.56,0,4.69-2.38,8.14-6.25,9.66ZM709.5,202.17h13.15c2.22,0,5.67,0,5.67-4.32s-3.45-4.36-5.67-4.36h-13.15v8.67Z"></path><path class="cls-1" d="M764.78,209.94h-17.22l-3.08,6.12h-8.14l14.84-28.77h9.99l14.88,28.77h-8.18l-3.08-6.12ZM762.03,204.43l-5.84-11.67-5.88,11.67h11.71Z"></path><path class="cls-1" d="M807.41,209.85v6.21h-29.59v-28.77h7.4v22.57h22.2Z"></path></g><g><path class="cls-1" d="M179.7,56.52h25.96c14.96.04,22.44,8.24,22.44,24.59v17.56c0,7.66-3.08,13.08-9.23,16.25,6.15,3.18,9.23,8.59,9.23,16.25v17.62c0,16.31-7.84,24.49-23.52,24.53h-24.88V56.52ZM196.55,73.13v33.46h5.3c2.34,0,3.95-.16,4.82-.48,3.06-1.23,4.58-3.71,4.58-7.44v-17.56c0-5.32-2.44-7.98-7.32-7.98h-7.38ZM196.55,123.26v33.46h7.38c4.88,0,7.32-2.64,7.32-7.92v-17.62c0-3.73-1.53-6.19-4.58-7.38-.87-.36-2.48-.54-4.82-.54h-5.3Z"></path><path class="cls-1" d="M285.34,150.64c0,16.35-8.08,24.55-24.23,24.59-16.11,0-24.17-8.19-24.17-24.59v-71.44c0-16.35,8.06-24.53,24.17-24.53s24.23,8.18,24.23,24.53v71.44ZM268.49,79.21c0-5.24-2.44-7.88-7.32-7.92h-.12c-4.84,0-7.26,2.64-7.26,7.92v71.44c0,5.28,2.44,7.92,7.32,7.92s7.38-2.64,7.38-7.92v-71.44Z"></path><path class="cls-1" d="M295.97,56.52h25.96c14.96.04,22.44,8.24,22.44,24.59v67.69c0,16.31-7.84,24.49-23.52,24.53h-24.88V56.52ZM312.82,73.13v83.58h7.38c4.88,0,7.32-2.64,7.32-7.92v-67.69c0-5.32-2.44-7.98-7.32-7.98h-7.38Z"></path><path class="cls-1" d="M367.5,56.52l11.49,45.54,11.49-45.54h17.86l-20.42,66.26-.48,1.43v49.11h-16.85v-49.11l-.54-1.43-20.42-66.26h17.86Z"></path><path class="cls-1" d="M414.8,56.52h25.96c14.96.04,22.44,8.24,22.44,24.59v17.56c0,7.66-3.08,13.08-9.23,16.25,6.15,3.18,9.23,8.59,9.23,16.25v17.62c0,16.31-7.84,24.49-23.52,24.53h-24.88V56.52ZM431.65,73.13v33.46h5.3c2.34,0,3.95-.16,4.82-.48,3.06-1.23,4.58-3.71,4.58-7.44v-17.56c0-5.32-2.44-7.98-7.32-7.98h-7.38ZM431.65,123.26v33.46h7.38c4.88,0,7.32-2.64,7.32-7.92v-17.62c0-3.73-1.53-6.19-4.58-7.38-.87-.36-2.48-.54-4.82-.54h-5.3Z"></path><path class="cls-1" d="M521.04,150.64c0,16.35-8.08,24.55-24.23,24.59-16.11,0-24.17-8.19-24.17-24.59V56.52h16.85v94.12c0,5.28,2.44,7.92,7.32,7.92s7.38-2.64,7.38-7.92V56.52h16.85v94.12Z"></path><path class="cls-1" d="M532.56,56.52h16.85v116.8h-16.85V56.52Z"></path><path class="cls-1" d="M561.53,173.33V56.52h16.85v100.19h26.85v16.61h-43.7Z"></path><path class="cls-1" d="M611.69,56.52h25.96c14.96.04,22.44,8.24,22.44,24.59v67.69c0,16.31-7.84,24.49-23.52,24.53h-24.88V56.52ZM628.54,73.13v83.58h7.38c4.88,0,7.32-2.64,7.32-7.92v-67.69c0-5.32-2.44-7.98-7.32-7.98h-7.38Z"></path><path class="cls-1" d="M671.02,56.52h16.85v116.8h-16.85V56.52Z"></path><path class="cls-1" d="M699.98,56.52h16.85l15.95,67.75V56.52h15.6v116.8h-16.85l-15.36-65.6v65.6h-16.19V56.52Z"></path><path class="cls-1" d="M807.41,150.64c0,16.35-8.08,24.55-24.23,24.59-16.11,0-24.17-8.19-24.17-24.59v-71.44c0-16.35,8.06-24.53,24.17-24.53s24.23,8.18,24.23,24.53v15.72h-16.85v-15.72c0-5.24-2.44-7.88-7.32-7.92h-.12c-4.84,0-7.26,2.64-7.26,7.92v71.44c0,5.28,2.44,7.92,7.32,7.92s7.38-2.64,7.38-7.92v-27.38h-7.32v-16.67h24.17v44.05Z"></path></g><g><path class="cls-1" d="M99.8,69.07h0c.05-.03.13-.1.15-.09.18.12.23.09.15-.1-.1.06-.2.12-.31.19,0,0,0,0,0,0,0,0,0,0,0,0h0Z"></path><path class="cls-1" d="M101.55,10.77c2.48,3.54,4.98,7.06,7.5,10.57.22.3.42.96,1.03.44,1.15-.98,2.28-1.97,3.42-2.96.3-.26.32-.54.02-.82-.34-.32-.52-.04-.77.16-.76.58-1.71.6-2.59.83-1.2.32-2.18-.08-2.62-1.14-.27-.65-.47-1.34-.4-2.01,0-.18.01-.37.03-.55.04-.32.17-.61.3-.89.14-.28.35-.53.56-.76.1-.12.22-.23.33-.34.06-.07.14-.13.2-.2.12-.19.17-.39,0-.66-1.4-2.25-2.94-4.35-5.42-5.52-.7-.33-1.39-.27-2.01.27-.67.58-.53,1.32-.35,2,.15.56.45,1.1.78,1.57Z"></path><path class="cls-1" d="M118.42,16.91c-.18,2.01.37,3.87,1.09,5.7.39.99,1.22,1.12,2.11.92,2.19-.48,1.49-2,1.22-3.4-.08-.41-.28-.97.19-1.26.34-.21.76-.01,1.08.26.35.29.85.59.53,1.11-1.23,1.99.03,3.79.41,5.64.52,2.53,1.61,3.43,4.14,3.58,1.65.1,3.67-1.35,3.41-2.52-.46-2.04-1.07-4.09-2.58-5.61-1.16-1.17-1.85-2.49-2.12-4.08-.3-1.82-1.16-2.9-2.49-2.55-2.27.23-3.83.37-5.39.55-.97.11-1.52.65-1.61,1.65Z"></path><path class="cls-1" d="M115.54,10.58c.29-.33.04-.59-.09-.88-.97-2.27-1.87-4.57-2.95-6.78-.57-1.17-1.51-2.14-2.76-2.67-1.67-.71-2.88.11-2.84,2.32.4,3.01,2.56,5.63,4.12,8.53.17.31,4.25-.21,4.51-.51Z"></path><path class="cls-1" d="M91.68,55.46h0s.01,0,.02,0c0,0,0-.01,0-.02-.14-.17-.29-.16-.43,0,0,0,0,0,0,.01,0,0,.01,0,.02,0,.14,0,.27,0,.41,0Z"></path><path class="cls-1" d="M169.38,79.07c-.28-.54-.52-.98-.67-1.25-.1.12-.42-2.86-.75-5.4-.03-.37-.08-.76-.15-1.15-.1-.54.24-1.15.27-1.73.02-.29,0-.57-.03-.84.02-3.12-4.62-10.82-6.3-12.11-.22-.17-.62-.49-1.16-.9-.23-.25-.46-.49-.64-.78-2.83-4.56-6.58-8.16-11.03-11.16-3.06-2.07-5.94-4.42-8.43-7.21-.55-.23-.95-.61-1.17-1.17-2.26-1.5-3.91-3.62-5.72-5.58-.42-.45-.98-1.13-1.41-.67-1.67,1.74-3.5.77-5.32.58-.57-.06-2.12-.28-3.71-.39.79-.7,1.02-2.02.77-3.42-.24-1.34-.54-2.27-2.26-1.6-.92.36-1.98.11-2.76-.59-1.79-1.61-1.39-4.01-1.96-6.04-.23-.82.69-1.95,1.54-2.55.97-.69.64-1.23.08-1.88-1.37-1.6-3.15-1.65-5.05-1.4-1.62.21-3.11.91-4.55,1.81-.13.13-.26.26-.38.39-.18.19-.36.4-.49.63-.12.21-.24.46-.27.7-.04.33-.03.67-.03.99,0,.02,0,.04-.01.06.12.47.4.87.98,1.14,1.35.62,2.62.24,3.65-1.03,1.04-1.27,2.27-1.14,3.68.14.87.79,1.02,1.53-.21,2.01-2.22.86-3.39,3.07-5.45,4.12-.55.28-.39.78-.26,1.21.67,2.3,1.36,4.6,2.06,6.95.07.35.15.7.25,1.01-.67.27-1.3.63-1.92,1.02-1.43.9-2.96,1.29-4.65,1.19-1.5-.09-3.02-.15-4.43.53-1.12.54-2.5,1.02-1.99,2.65.48,1.52,1.81,2.19,3.28,1.81,5-1.28,10.17-.92,15.21-1.74,1.5-.24,2.92-.52,4.17-1.16.86,1.62,1.39,2.54,2.43,3.51.74.69,4.51,3.65,7.66,11.79,2.75,7.1,7.85,12.61,12.46,18.44.14.18.28.33.42.46-.4.47-.83.89-1.28,1.13-3.68,1.97-6.67,4.64-8.39,8.51-1.83,4.12-1.31,8.25-.11,12.47.05.18.11.35.17.51-1.75,1.64-3.11,3.16-4.62,3.78-4.06,1.64-6.93,4.68-7.86,9.11-.22,1.07-.6,1.85-1.33,2.57-.4.03-.81.06-1.23.09-2.75.21-4.6.36-6.53,1.12-.3-.68-.79-1.35-1.49-1.97-.83-.74-1.64-1.51-2.47-2.25-1.01-.9-1.29-1.92-1.1-3.32.18-1.29,1.27-2.47.57-3.87,0,0,0-.01,0-.02,0,0,.02-.02.03-.03,0,0,0,0-.01.01l.02-.02s-.01,0-.02,0c.11-.22.21-.44.31-.66.18-.12.4-.21.55-.33,1.52-1.2,1.89-2.78,1.04-4.36-.8-1.48-.93-2.92-.71-4.49.58-4.1-1.04-6.84-4.99-8.19-.65-.22-1.4-.43-1.46-1.37-.2-3.59-2.57-6.04-4.53-8.73-.42-.58-1.12-1.68-1.89-2.64.76.3,1.41.8,1.98,1.54.49-1.66-1.21-2.4-1.68-3.77,1.76.05,3.07,1.1,4.71,1.61-.56-1.44-1.79-2.08-2.53-3.11-.22-.09-.44-.18-.65-.28.28-.28.58-.18.89-.08,1.06.44,2.11.88,3.17,1.33t0,0c.15.02.31.04.46.07-.08-.11-.16-.22-.24-.33-.86-1.74-2.47-2.72-4.24-3.89,2.11-.46,3.89.1,6.1.41-2.72-2.56-5.62-3.42-9-3.21,1.13-1.43,2.66-1.9,3.81-2.99-1.89.05-3.58.58-5.74,1.15.79-.73,1.2-1.1,1.71-1.58-1.01.06-1.82.2-2.64.49-.71.26-1.33,1-2.22.59.11.26.04.49-.23.48-.28,0-.34-.24-.21-.49-1.17-.05-2.42.33-3.02,1.11-2.41,3.15-5.6,2.61-8.83,2.24-.07,0-.16.13-.31.26.86.65,2.16.6,2.73,1.8-2.64-1.65-4.69.84-7.16.71.45.88,1.56.49,1.97,1.4-1.81-.05-3.57-.21-5.24.5.55.64,1.53.4,2.25.98-1.02.7-2.38.03-3.17,1.02.26.44.9,0,1.15.59-.51.66-1.53.1-2.06.75.07.62.94.19,1.06.78-.85.1-1.64.23-2.69.83,1.84-.02,2,.33.87,1.41-1.57,1.52-3.19,3.16-4,5.15-.94,2.31-1.89,4.56-3.62,6.34-1.76,1.81-2.43,4-2.61,6.39-.35,4.71,2.13,8.06,5.4,11.03,4.72,4.27,9.43,8.55,13.4,13.56.45.57.93.91,1.5,1.06.2.32.4.64.61.98.2.33.4.64.6.96-2.38.91-5.83,2.56-8.38,6.26-.05.07-.14.2-.24.35-.34-.25-.68-.49-1.02-.74-2.98-2.19-6.13-3.64-9.45-4.3-1.3-.26-3.22-.26-7.06-.27,0,0-.81,0-2.04.32-.93.24-1.22.45-1.35.64-.48.12-.88.26-1.37.39-.05-.18-.09-.36-.13-.55-.54-2.63-1.98-4.81-3.43-6.98-1.26-1.9-3.03-3.02-5.25-3.47-2.32-.47-4.52-.24-6.66.3-.44-.48-.91-.96-1.41-1.43.1-.46-.02-.98-.02-1.48-.03-2.62,0-5.23,0-7.85,0-.41-.02-.83-.03-1.24-.14-1.87.25-3.6,1.12-5.28,1.45-2.77,2.76-5.61,4.2-8.39.2-.38.33-.74.41-1.09,0,0,0,0,0,0,1.74-1.92,3.53-1.12,4.54-1.04.33.03.67.06.98,0,4.22-.86,8.47.25,12.7-.22.5-.15.9.04,1.26.37.91-.03,1.83-.11,2.74-.06,1.2.06,2.13-.25,2.25-1.57.11-1.26-.65-1.79-1.84-2.07-2.42-.56-4.93-.79-7.28-1.63.07-1.11-.11-2.3-.56-3.28,0-.17-.04-.35-.12-.54-.34-.79-.68-1.57-1.03-2.35.03-.18.09-.35.17-.53.25-.56.6-.9.87-1.32,0,0,0,0,0,0,0,0,0,0,0,0,.23-.35.4-.77.43-1.43,1.21-3.4,3.48-5.54,6.65-6.87.47-.2.9-.53,1.32-.85,1.88-1.43,2.63-3.3,1.59-4.48-1.45-1.65-2.88-.34-4.17.39-2.24,1.27-4.03,3.12-5.86,4.9-.41.39-.78,1.27-1.54.68-.7-.54-.16-1.22.09-1.78.54-1.21,1.46-2.16,2.34-3.13,1.53-1.71,3.14-3.34,4.35-5.31.3-.49.61-1.07.16-1.64-.44-.57-1.06-.41-1.63-.29-.38.08-.75.22-1.1.4-3.91,1.99-7.29,4.49-9.32,8.35-1.53.25-2.89,1.61-3.9,2.71-.14,0-.28,0-.42.05-2.7.77-5.78.73-7.49,3.64-.27.46-.9.77-1.42,1-1.14.51-1.87,1.39-2.48,2.42-.58.99-1.02,2.03-1.43,3.1,0,0,0,.01-.01.02-.04.08-2.25,3.16-3.17,5.74-.05.08-.09.15-.14.24-1.91,3.54-4.34,6.67-7.12,9.58-2.63,2.76-4.38,6.21-6.81,9.12-.19.22-.25.73-.63.74-.15-.03-.28-.06-.32-.07-.7-.11-.89-.41-1.33.27-2.58,3.91-4.41,8.19-5.39,12.74-.66,3.08-1.81,5.81-3.64,8.31-.2.27-.31.39-.07.77,1.06,1.6,2.36,2.85,4.4,3.48.96.65,1.14.94,1.94,2.53.63,1.95,1.77,4.71,3.86,7.75.01.01.02.03.03.04,2.05,3.27,4.62,5.88,7.61,8.12,4.92,3.69,10.56,5.61,16.5,6.82.13,0,.26,0,.39-.03,1.78,1.02,4.72.78,7.63.54,1.02-.08,2.23-.19,3.42-.36,1.16,2.9,2.76,5.56,4.59,8.09.51.7,1.29,1.25,1.41,2.2.35-.07.44.23.58.46.72.53,1.24,1.22,1.59,2.04,6.2,6.11,13,11.37,20.89,15.14.41.2.83.58,1.27.64l.53.52c.71,1.47,1.28,3,1.74,4.51.04.7.09,1.4.15,2.09.37,4.15.71,8.31,1.7,12.35,0,0,0,0,0,0,0,0,0,0,0,.01.3,1.22.66,2.43,1.1,3.62.41,1.12.81,2.3,1.87,3.11.89,1.31,2.06,2.74,3.61,4.23,0,0,0,0,0,0,1.37,2.45,3.33,4.43,5.5,6.2,3.93,3.2,7.4,7.13,13.34,6.93,4.22-.15,7.84-.83,10.21-4.02.54.02,1.08.02,1.61,0,.35.22.61-.06.9-.17,4.15-1.56,8.29-3.12,12.44-4.66.46-.17,1.03-.62,1.45-.22h.14c-.34-.97,1.04-.76,1.55-1.2.29-.24.68-.4,1.04-.53,1.78-.62,2.5-1.71,2.24-3.7-.34-2.61.34-5.09,1.97-7.21,1.52-1.97,3.86-4.46,4.39-6.84,0,0,0,0,0,0,0,.07,0,.13,0,.2,2.79-5.63,5.37-11.32,6.6-17.49,1.06-5.35,3.11-10.3,6.47-14.55,2.78-3.53,3.88-7.48,4.27-11.78.44-4.81-.22-12.15-1.48-16.01-.18-.55-.78-2.29-.75-4.62.02-.99.14-1.84.28-2.48,0-.02.01-.04.02-.07.61-2.95,2.15-5.34,4.44-7.42,3.61-3.29,6.4-7.26,8.11-11.9.26-.71,1.23-3.26,1.49-6.72.56-7.34-2.39-13.32-3.81-16.12ZM11.05,93.53l.31.05s-.16-.02-.31-.05Z"></path><path class="cls-1" d="M51.92,154.74s0-.02,0-.03c-.02,0-.03,0-.05,0l.05.02Z"></path></g></g></g></svg>