<svg xmlns="http://www.w3.org/2000/svg" id="Camada_1" data-name="Camada 1" viewBox="0 0 850.39 283.46"><defs><style>      .cls-1 {        fill: #fff;        fill-rule: evenodd;        stroke-width: 0px;      }    </style></defs><polygon class="cls-1" points="102.16 215.07 92.7 215.07 138.49 68.4 184.42 215.07 174.97 215.07 138.49 99.12 102.16 215.07"></polygon><path class="cls-1" d="M213.97,185.23c1.48,6.06,4.72,10.93,9.6,14.92,5.03,3.84,10.79,5.76,17.28,5.76v9.16c-10.19,0-18.9-3.54-26.14-10.63-7.09-7.24-10.79-15.95-10.79-26.15v-109.89h9.3v54.95h27.62v9.3h-27.62v45.64c0,2.37.16,4.73.75,6.94"></path><path class="cls-1" d="M264.49,185.23c1.48,6.06,4.73,10.93,9.6,14.92,4.88,3.84,10.64,5.76,17.29,5.76v9.16c-10.2,0-18.91-3.54-26.15-10.63-7.09-7.24-10.79-15.95-10.79-26.15v-109.89h9.31v54.95h27.62v9.3h-27.62v45.64c0,2.37.15,4.73.74,6.94"></path><path class="cls-1" d="M369.07,123.35h9.3v54.94c0,10.2-3.54,18.91-10.78,26.15-7.09,7.09-15.81,10.63-26,10.63s-18.76-3.54-25.85-10.63c-7.09-7.24-10.78-15.95-10.78-26.15v-54.94h9.16v54.94c0,2.37.29,4.73.89,6.94,1.47,6.06,4.58,10.93,9.6,14.92,4.88,3.84,10.64,5.76,16.99,5.76s12.11-1.92,17.13-5.76c4.88-3.98,8.13-8.86,9.46-14.92.59-2.21.89-4.43.89-6.94v-54.94Z"></path><path class="cls-1" d="M465.97,196.76c0,2.51.89,4.72,2.51,6.5,1.77,1.77,3.99,2.66,6.65,2.66v9.16c-4.14,0-7.68-1.18-11.08-3.69-3.25-2.52-5.31-5.76-6.49-9.61-7.39,8.87-16.84,13.29-28.22,13.29-10.19,0-18.9-3.54-25.99-10.63-7.09-7.24-10.79-15.95-10.79-26.15v-18.16c0-10.05,3.55-18.76,10.79-26,7.09-7.09,15.8-10.78,25.99-10.78,10.93,0,20.09,4.13,27.33,12.55v-12.55h9.31v73.41ZM409.84,197.79c5.31,5.47,11.81,8.12,19.34,8.12s14.03-2.66,19.35-8.12c5.47-5.32,8.12-11.82,8.12-19.5v-18.16c0-7.53-2.66-14.03-8.12-19.5-5.32-5.32-11.81-7.98-19.35-7.98s-14.03,2.66-19.34,7.98c-5.32,5.47-8.12,11.82-8.12,19.5v18.16c0,7.68,2.8,14.18,8.12,19.5"></path><path class="cls-1" d="M498.31,196.76c0,2.51.89,4.72,2.66,6.5,1.62,1.77,3.84,2.66,6.5,2.66v9.16c-5.02,0-9.31-1.77-13-5.46-3.55-3.55-5.47-7.84-5.47-12.85V68.4h9.3v128.36Z"></path><path class="cls-1" d="M530.66,196.76c0,2.36.89,4.43,2.66,6.35,1.63,1.92,3.84,2.8,6.5,2.8v8.86c-5.02,0-9.3-1.62-13-5.16-3.54-3.55-5.46-7.84-5.46-12.85v-73.71h9.3v73.71ZM521.36,105.03h9.3v13.59h-9.3v-13.59Z"></path><polygon class="cls-1" points="638.78 123.35 572.76 205.91 638.78 205.91 638.78 215.07 553.7 215.07 619.88 132.65 553.7 132.65 553.7 123.35 638.78 123.35"></polygon><path class="cls-1" d="M664.04,134.72c7.53-7.53,16.69-11.37,27.33-11.37s19.79,3.84,27.33,11.37c7.53,7.39,11.38,16.54,11.38,27.18v14.48h-67.51c0,5.61,1.33,10.63,4.13,15.36,2.66,4.14,6.21,7.38,10.49,9.89,4.43,2.52,9.01,3.7,14.18,3.7,8.71,0,15.8-3.25,21.71-9.74h11.67c-3.4,5.9-7.97,10.63-14.03,14.18-5.76,3.54-12.26,5.31-19.35,5.31-10.64,0-19.79-3.69-27.33-11.37-7.53-7.68-11.23-16.7-11.23-27.33v-14.48c0-10.64,3.7-19.65,11.23-27.18M662.57,166.63h57.75v-4.73c0-5.61-1.48-10.79-4.28-15.36-2.52-4.14-6.06-7.38-10.49-9.9-4.29-2.51-9.01-3.84-14.18-3.84s-9.75,1.33-14.18,3.84c-4.29,2.52-7.83,5.76-10.49,9.9-2.66,4.57-4.13,9.74-4.13,15.36h.15l-.15.29v4.43Z"></path><path class="cls-1" d="M750.75,214.48c-4.43,0-6.8-2.21-6.8-6.79s2.21-6.79,6.8-6.79,6.94,2.22,6.94,6.79-2.37,6.79-6.94,6.79"></path></svg>