<svg xmlns="http://www.w3.org/2000/svg" id="Camada_2" data-name="Camada 2" viewBox="0 0 139.24 139.24"><defs><style></style></defs><g id="Camada_1-2" data-name="Camada 1"><g><path class="cls-1" d="M32.58,32.58c2.23-2.23,5.84-2.23,8.07,0,2.23,2.23,2.23,5.84,0,8.07-1.51,1.51-3.66,2-5.58,1.46-11.66,14.61-12.71,34.91-3.13,50.54-1.12.53-2.18,1.26-3.11,2.18-.36.36-.69.74-.99,1.13-11.17-17.67-10.04-40.89,3.4-57.43-.72-2.01-.27-4.35,1.34-5.96M106.66,106.66c-2.23,2.23-5.84,2.23-8.07,0s-2.23-5.84,0-8.07c1.51-1.51,3.66-2,5.58-1.46,11.66-14.61,12.71-34.91,3.13-50.54,1.12-.53,2.18-1.25,3.11-2.18.36-.36.69-.74.99-1.13,11.17,17.67,10.04,40.89-3.4,57.43.72,2.01.27,4.35-1.34,5.96ZM32.58,106.66c-2.23-2.23-2.23-5.84,0-8.07,2.23-2.23,5.84-2.23,8.07,0,1.51,1.51,2,3.66,1.46,5.58,14.61,11.66,34.91,12.71,50.54,3.13.53,1.12,1.25,2.18,2.18,3.11.36.36.74.69,1.13.99-17.67,11.17-40.89,10.04-57.43-3.4-2.01.72-4.35.27-5.96-1.34ZM34.42,34.42c-1.21,1.21-1.21,3.17,0,4.38s3.17,1.21,4.38,0c1.21-1.21,1.21-3.17,0-4.38-1.21-1.21-3.17-1.21-4.38,0ZM104.81,34.42c-1.21-1.21-3.17-1.21-4.38,0-1.21,1.21-1.21,3.17,0,4.38,1.21,1.21,3.17,1.21,4.38,0,1.21-1.21,1.21-3.17,0-4.38ZM104.81,104.81c1.21-1.21,1.21-3.17,0-4.38s-3.17-1.21-4.38,0-1.21,3.17,0,4.38,3.17,1.21,4.38,0ZM34.42,104.81c1.21,1.21,3.17,1.21,4.38,0,1.21-1.21,1.21-3.17,0-4.38-1.21-1.21-3.17-1.21-4.38,0-1.21,1.21-1.21,3.17,0,4.38ZM97.13,35.07c-14.61-11.66-34.91-12.71-50.54-3.13-.53-1.12-1.25-2.18-2.18-3.11-.36-.36-.74-.69-1.13-.99,17.67-11.17,40.88-10.04,57.43,3.4,2.01-.72,4.35-.27,5.96,1.34,2.23,2.23,2.23,5.84,0,8.07-2.23,2.23-5.84,2.23-8.07,0-1.51-1.51-2-3.66-1.46-5.58Z"></path><path class="cls-1" d="M69.62,0c4.19,0,7.59,3.4,7.59,7.59s-3.4,7.59-7.59,7.59c-2.84,0-5.32-1.56-6.62-3.87-24.69,2.77-44.75,20.87-50.44,44.55-1.55-.56-3.23-.87-4.97-.87-.68,0-1.34.05-1.99.14C11.71,28.02,34.58,7.27,62.76,4.34c1.22-2.57,3.83-4.34,6.86-4.34M69.62,139.24c-4.19,0-7.59-3.4-7.59-7.59s3.4-7.59,7.59-7.59c2.84,0,5.32,1.56,6.62,3.87,24.69-2.77,44.75-20.87,50.44-44.55,1.55.56,3.23.87,4.97.87.68,0,1.34-.05,1.99-.14-6.11,27.1-28.99,47.85-57.17,50.78-1.22,2.57-3.83,4.34-6.86,4.34ZM0,69.62c0-4.19,3.4-7.59,7.59-7.59s7.59,3.4,7.59,7.59c0,2.84-1.56,5.32-3.87,6.62,2.77,24.69,20.87,44.75,44.55,50.44-.56,1.55-.87,3.23-.87,4.97,0,.68.05,1.34.14,1.99-27.1-6.11-47.85-28.99-50.78-57.16-2.57-1.22-4.34-3.83-4.34-6.86ZM69.62,3.47c-2.28,0-4.12,1.84-4.12,4.12s1.84,4.12,4.12,4.12,4.12-1.84,4.12-4.12-1.84-4.12-4.12-4.12ZM135.77,69.62c0-2.28-1.84-4.12-4.12-4.12s-4.12,1.84-4.12,4.12,1.84,4.12,4.12,4.12,4.12-1.84,4.12-4.12ZM69.62,135.77c2.28,0,4.12-1.84,4.12-4.12s-1.84-4.12-4.12-4.12-4.12,1.84-4.12,4.12,1.84,4.12,4.12,4.12ZM3.47,69.62c0,2.28,1.84,4.12,4.12,4.12s4.12-1.84,4.12-4.12-1.84-4.12-4.12-4.12-4.12,1.84-4.12,4.12ZM127.94,63c-2.77-24.69-20.86-44.75-44.55-50.44.56-1.55.87-3.23.87-4.97,0-.68-.05-1.34-.14-1.99,27.1,6.11,47.85,28.99,50.78,57.17,2.57,1.22,4.34,3.83,4.34,6.86,0,4.19-3.4,7.59-7.59,7.59s-7.59-3.4-7.59-7.59c0-2.84,1.56-5.32,3.87-6.62Z"></path><path class="cls-1" d="M69.18,106.65c3.34-7.68,6.64-15.04,8.44-18.41.85-1.6,2.2-3.21,3.34-4.66-.83.3-1.84-.02-2.86-.35,3.63,0,4.94-2.48,5.75-5.52-4.61,1.89-10.32-1.42-12.26-5.75-.06.02-.12.05-.18.07-1.19.42-2.42.41-3.61,0-1.18-.41-2.22-1.08-3.06-1.94.25,1.8,1.13,3.58,1.51,5.51.75,3.88-3.62,16.79-8.44,29.14-1.58-.53-3.12-1.17-4.6-1.9,2.01-4.47,3.81-8.34,4.77-10.04,2.83-5.01,6.97-10.37,5.74-16.72-.27-1.37-.77-2.6-1.14-3.89-4.06,3.48-3.17,5.81-5.17,10.24-1.93,4.29-4.99,11.27-8.03,18.21-1.12-.73-2.19-1.52-3.22-2.36,4.49-11.84,8.84-24.81,8.51-29.31-.6-8.09-5.22-17.5-10.12-26.63,3.12-2.87,6.73-5.21,10.69-6.88,6.16,11.06,12.06,22.69,11,24.36,1.08-.5,1.98-.68,3.18-.49-2.75.5-4.64,3.04-4.34,5.81.23,2.1,1.66,3.8,3.55,4.46,3.41,1.18,4.04-3.94,9.34-1.31-1.59-.45-3.31-.08-4.58.99,2.18,10.39,16.89,6.78,15.2-4.07-.7-4.51-4.54-7.86-9.1-7.94,1.12-.56,2.38-.81,3.63-.73-1.87-2.43-8.48-13.31-14.88-23.95.45-.02.9-.03,1.36-.03,3.4,0,6.69.46,9.82,1.32,2.78,5.98,5.61,11.67,7.29,14.7,3.65,6.56,7.18,9.35,6.5,17.97-.36,4.54-2.18,8.81-5.16,12.19-2.98,3.38-3.12,4.18-5.05,8.36-1.79,3.89-5.09,11.46-8.44,19.22-1.62.22-3.28.33-4.96.33-.15,0-.29,0-.44,0"></path></g></g></svg>