<svg xmlns="http://www.w3.org/2000/svg" id="Dimensions" viewBox="0 0 850.39 283.46"><defs><style>      .cls-1 {        fill: #fff;        stroke-width: 0px;      }    </style></defs><g><path class="cls-1" d="M193.11,104.69c-.04,6.68-1.77,10.05-3.92,10.3-1.41.16-3.03-1-4.5-3.42-4.82-7.92-10.11-15.48-15.72-22.9,0-.02,0-.03.01-.05,2.18-11.7,5.66-23.63,11.62-34.01,7.46,15.02,12.6,33.36,12.51,50.07M165.13,104.3c5.27,4.72,6.71,8.49,5.53,10.54-.77,1.35-2.69,1.98-5.51,1.65-9.44-1.11-18.86-1.55-28.39-1.62h0s-.02-.03-.03-.04c-9-10.71-17.14-22.77-22.37-35.8,17.83,4.23,37.13,13.05,50.78,25.26M147.14,128.72c7.04-1.48,10.89-.26,11.75,2.06.57,1.53-.14,3.57-2.13,5.74-6.59,7.19-12.63,14.75-18.43,22.61h-.05c-14.19,1.05-28.95.47-42.8-2.99,14.11-12.5,33.24-23.54,51.67-27.43M155.19,158.85c3.08-6.55,6.36-9.01,8.63-8.33,1.48.45,2.58,2.25,2.97,5.13,1.27,9.11,3.1,18.06,5.33,27.01h0s-.02.03-.03.04c-7.72,10.96-16,21.51-26.4,30.09-1.23-17.71,1.99-37.97,9.49-53.94M181.85,169.6c-2.74-5.99-2.53-10.06-.68-11.46,1.22-.92,3.16-.75,5.42.59,6.9,4.07,14.01,7.88,21.47,10.9h0s0,.03,0,.04c2.68,11.2,4.24,22.96,3.55,34.49-12.41-8.13-23.67-21.22-29.77-34.56M205.33,154.83c-5.68-1.26-8.39-3.8-8.22-6.12.11-1.52,1.44-2.98,3.76-4.01,7.14-3.16,14.19-6.65,20.82-10.82.01,0,.02.01.03.02,8.79,4.49,17.24,10.18,24.03,17.4-12.35,4.81-27.65,6.36-40.43,3.53M209.98,126.97c-4.5,3.93-7.96,4.6-9.47,3-.99-1.05-1.19-3.07-.44-5.68,2.38-8.3,4.24-16.67,5.78-25.19.01,0,.03,0,.04-.02,9.06-4.24,18.16-8.13,28.22-9.18-4.75,13.58-13.37,27.67-24.12,37.07"></path><g><path class="cls-1" d="M180.6,54.63c-5.96,10.37-9.44,22.3-11.62,34,0,.02,0,.03-.01.05-1.49-1.94-3.48-4.29-5.19-6.42-6.51-8.1-13.7-15.68-20.97-23.12,11.94-4.79,25.06-6.36,37.79-4.51M94.7,118.11c11.13-1.36,22.31-2.6,33.39-2.98,2.86-.1,6.11-.24,8.67-.25,0-.01-.02-.03-.03-.04-9-10.71-17.14-22.77-22.37-35.79-9.93,10.97-16.7,24.58-19.66,39.06M116.63,194.22c5.24-9.54,10.75-18.99,16.79-27.9,1.6-2.36,3.4-5.08,4.92-7.18-.02,0-.04,0-.05,0-14.19,1.05-28.95.47-42.8-2.99,3.54,14.28,10.8,27.57,21.14,38.07M183.44,215.76c-3.37-8.49-6.6-17.04-9.17-25.66-.71-2.39-1.56-5.18-2.14-7.43,0,.01-.02.03-.03.04-7.72,10.96-16,21.5-26.39,30.09,12.55,3.67,24.73,5.4,37.74,2.97M235.52,178.65c-7.24-1.83-14.45-3.92-21.37-6.65-1.97-.78-4.27-1.6-6.09-2.38,0,.01,0,.03,0,.04,2.68,11.2,4.24,22.96,3.55,34.49,9.75-6.59,17.93-15.38,23.9-25.51M245.22,116.92c-5.81,4.78-11.78,9.41-18.1,13.45-1.77,1.13-3.77,2.5-5.44,3.51.01,0,.02.01.03.02,8.79,4.49,17.24,10.18,24.03,17.39,1.61-11.92,1.48-22.52-.53-34.38M209.3,65.18c-.53,8.93-1.17,17.88-2.38,26.61-.33,2.37-.7,5.13-1.07,7.31.01,0,.03-.01.04-.02,9.06-4.24,18.16-8.13,28.21-9.18-6.32-9.95-14.79-18.49-24.8-24.72"></path><path class="cls-1" d="M716.33,79.59l-15.43,108.98h-19.64v-12.18c-9.73,9.3-19.83,14.01-30.07,14.01-7.19,0-12.5-2.08-16.25-6.35-5.78-6.59-7.47-18.23-5.18-35.59,4.52-32.54,16.66-39.08,34.8-39.08,7.17,0,15.38.65,22.68,1.73l4.46-31.51h24.64ZM673.98,127.32c-13.68,0-16.6,1.74-19.3,21.72-1.39,10.24-1.79,16.62.24,18.94.84.96,2.26,1.36,4.43,1.27,7.47-.15,13.41-4.09,21.07-10.87l4.33-31.06h-10.77ZM452.14,109.37c-13.94,0-23.47,2.9-30.01,9.11-6.46,6.14-10.28,15.52-12.38,30.41-2.1,14.8-.31,25.24,5.49,31.92,5.59,6.44,15.07,9.57,29,9.57,6.84,0,16.9-.62,25.95-3.6l.64-.21,2.55-18.21-1.63.27c-6.29.9-14.22,1.35-23.56,1.35-6.46,0-9.67-.79-11.47-2.83-2.22-2.52-2.64-7.43-1.45-16.94,2.15-17.63,7.63-20.48,19.91-20.48,4.98,0,23.56.32,23.56.32l2.42-17.27s-10.41-3.43-29.01-3.43M619.23,117.93c3.74,4.32,5,10.37,3.84,18.5-2.39,16.4-13.9,20.48-31.69,21.74l-21.14,1.59c.57,8.89,5.2,10.55,13.93,10.55,7.52,0,25.65-.88,28.61-1.64l1.19-.3.14,1.22c.73,6.43,2.87,13.55,2.89,13.62l.28.93-.89.38c-9.62,4.04-24.78,5.88-34.8,5.88-14.2,0-23.97-3.22-29.87-9.85-6-6.75-8.07-17.3-6.31-32.23,3.53-29.12,14.77-38.94,44.53-38.94,14.71,0,24.29,2.8,29.29,8.56M587.87,142.81c7.18-.57,10.51-1.98,11.35-8.79.21-2.38-.04-3.82-.8-4.65-1.12-1.22-3.76-1.47-7.67-1.47-.72,0-1.49,0-2.31.02-11.54,0-14.39,3.94-16.65,16.41l16.07-1.53ZM548.14,111.5h-4.75c-9.02,0-17.85,4.47-29.23,14.87v-14.87h-19.49l-10.79,77.06h24.67l5.98-44.32c3.11-3.96,11.75-8.62,18.17-8.62h5.26l.18-.84c.02-.1,2.25-10.01,9.05-21.66l.94-1.61ZM289.23,108.01c-2.06,15.9,3.49,25.31,18.59,31.44l19.94,7.93c6.33,2.31,7.73,3.49,6.91,9.76-1.23,8.08-4.37,10.24-18.31,10.24h-33.87l-3.01,21.16h37.87c29.5,0,39.41-6.95,42.4-29.76,1.85-14.4-.65-24.73-18.76-31.75l-18.85-7.18c-7.3-2.73-8.65-3.82-7.68-10.21,1.12-7.12,3.74-8.66,9.21-9.05h40.42l3.01-21.16h-36.07c-24.55,0-38.48,4.55-41.79,28.58M367.28,188.57h24.51l10.79-77.06h-24.51l-10.79,77.06ZM404.1,100.6l2.96-21.16h-24.5l-2.96,21.16h24.51ZM715.92,188.57h24.5l10.79-77.06h-24.51l-10.79,77.06ZM752.74,100.6l2.96-21.16h-24.5l-2.96,21.16h24.51Z"></path></g></g><g><path class="cls-1" d="M278.63,229.39l6.9-25.33h1.86l3.69,22.43,10.87-22.43h1.86l-1.07,25.33h-1.97l1-21.6-10.18,21.6h-1.86l-3.35-21.53-5.76,21.53h-2Z"></path><path class="cls-1" d="M314.24,229.59c-1.77,0-3.21-.24-4.33-.71-1.12-.47-1.93-1.18-2.43-2.12-.51-.94-.76-2.11-.76-3.49,0-.71.03-1.4.1-2.07s.15-1.31.24-1.93c.28-1.82.78-3.36,1.5-4.64.72-1.28,1.73-2.25,3-2.93,1.28-.68,2.87-1.02,4.78-1.02.99,0,1.87.09,2.66.26.78.17,1.45.45,2.02.83s1,.89,1.31,1.52c.31.63.47,1.4.47,2.29,0,1.2-.25,2.19-.74,2.99-.5.79-1.16,1.4-1.98,1.83-.83.43-1.77.72-2.83.9-1.06.17-2.14.26-3.24.26s-2.19-.06-3.11-.17c-.92-.11-1.61-.24-2.07-.38-.05.39-.08.79-.1,1.19-.02.4-.03.8-.03,1.19,0,1.61.47,2.78,1.41,3.52.94.74,2.52,1.1,4.73,1.1h5.49l-.21,1.24c-.67.07-1.54.14-2.6.22-1.07.08-2.16.12-3.26.12ZM313.17,220.24c1.52,0,2.85-.13,4-.38,1.15-.25,2.05-.7,2.71-1.35.66-.64.98-1.55.98-2.73,0-1.27-.39-2.16-1.16-2.69-.77-.53-1.94-.79-3.5-.79s-2.9.3-3.87.9c-.97.6-1.71,1.45-2.24,2.57-.53,1.12-.91,2.48-1.14,4.09.55.09,1.2.18,1.95.26.75.08,1.5.12,2.26.12Z"></path><path class="cls-1" d="M330.98,229.59c-1.56,0-2.86-.51-3.88-1.52s-1.54-2.52-1.54-4.52c0-1.27.12-2.51.35-3.73.34-1.84.82-3.43,1.43-4.78.61-1.35,1.52-2.39,2.74-3.14,1.22-.75,2.9-1.12,5.04-1.12.97,0,1.86.09,2.69.26.83.17,1.63.45,2.42.84l1.42-8.83h2l-4.18,26.33h-1.66v-2c-.53.35-1.16.69-1.88,1.02s-1.51.62-2.35.84c-.84.23-1.71.35-2.61.35ZM331.6,227.9c1.17,0,2.29-.18,3.35-.53,1.06-.36,2.07-.79,3.04-1.29l1.97-12.46c-.69-.39-1.42-.68-2.17-.86-.76-.18-1.64-.28-2.66-.28-1.61,0-2.89.28-3.83.83-.94.55-1.67,1.4-2.17,2.54-.51,1.14-.92,2.6-1.24,4.4-.09.55-.17,1.07-.22,1.55s-.09.94-.09,1.38c0,1.15.18,2.07.55,2.76.37.69.86,1.19,1.47,1.5.61.31,1.28.47,2.02.47Z"></path><path class="cls-1" d="M344.51,229.39l2.9-18.39h2l-2.9,18.39h-2ZM348.3,207.54c-.14,0-.25-.05-.33-.16-.08-.1-.11-.22-.09-.36l.38-2.45c.07-.35.26-.52.59-.52h1.35c.16,0,.27.05.33.14s.07.22.05.38l-.38,2.45c-.05.34-.23.52-.55.52h-1.35Z"></path><path class="cls-1" d="M358.45,229.59c-1.26,0-2.38-.19-3.35-.55-.97-.37-1.72-1.02-2.26-1.97s-.81-2.3-.81-4.07c0-.41.03-.9.1-1.45.07-.55.15-1.14.24-1.76.34-2.18.9-3.93,1.67-5.24.77-1.31,1.73-2.27,2.88-2.86,1.15-.6,2.47-.9,3.97-.9.85,0,1.83.05,2.93.14s2.11.18,3,.28l-.24,1.21h-5.42c-1.15,0-2.18.23-3.09.69-.91.46-1.69,1.26-2.33,2.4-.64,1.14-1.13,2.73-1.45,4.78-.09.53-.16,1.01-.21,1.45-.05.44-.07.82-.07,1.14,0,1.38.19,2.44.57,3.17.38.74.94,1.24,1.69,1.52.75.28,1.65.41,2.71.41h5.56l-.17,1.21c-.74.12-1.59.21-2.57.29-.98.08-2.1.12-3.36.12Z"></path><path class="cls-1" d="M368.14,229.39l2.9-18.39h1.66v2.21c.76-.62,1.63-1.18,2.6-1.67.98-.5,2.05-.74,3.23-.74.46,0,.9.02,1.31.05.41.03.77.11,1.07.22l-.31,2c-.37-.07-.75-.13-1.16-.17s-.84-.07-1.33-.07c-1.1,0-2.13.2-3.07.59-.94.39-1.81.84-2.59,1.35l-2.31,14.63h-2Z"></path><path class="cls-1" d="M389.64,229.59c-1.77,0-3.21-.24-4.33-.71-1.12-.47-1.93-1.18-2.43-2.12-.51-.94-.76-2.11-.76-3.49,0-.71.03-1.4.1-2.07s.15-1.31.24-1.93c.28-1.82.78-3.36,1.5-4.64.72-1.28,1.73-2.25,3-2.93,1.28-.68,2.87-1.02,4.78-1.02.99,0,1.87.09,2.66.26.78.17,1.45.45,2.02.83s1,.89,1.31,1.52c.31.63.47,1.4.47,2.29,0,1.2-.25,2.19-.74,2.99-.5.79-1.16,1.4-1.98,1.83-.83.43-1.77.72-2.83.9-1.06.17-2.14.26-3.24.26s-2.19-.06-3.11-.17c-.92-.11-1.61-.24-2.07-.38-.05.39-.08.79-.1,1.19-.02.4-.03.8-.03,1.19,0,1.61.47,2.78,1.41,3.52.94.74,2.52,1.1,4.73,1.1h5.49l-.21,1.24c-.67.07-1.54.14-2.6.22-1.07.08-2.16.12-3.26.12ZM388.57,220.24c1.52,0,2.85-.13,4-.38,1.15-.25,2.05-.7,2.71-1.35.66-.64.98-1.55.98-2.73,0-1.27-.39-2.16-1.16-2.69-.77-.53-1.94-.79-3.5-.79s-2.9.3-3.87.9c-.97.6-1.71,1.45-2.24,2.57-.53,1.12-.91,2.48-1.14,4.09.55.09,1.2.18,1.95.26.75.08,1.5.12,2.26.12Z"></path><path class="cls-1" d="M406.38,229.59c-1.56,0-2.86-.51-3.88-1.52s-1.54-2.52-1.54-4.52c0-1.27.12-2.51.35-3.73.34-1.84.82-3.43,1.43-4.78.61-1.35,1.52-2.39,2.74-3.14,1.22-.75,2.9-1.12,5.04-1.12.97,0,1.86.09,2.69.26.83.17,1.63.45,2.42.84l1.42-8.83h2l-4.18,26.33h-1.66v-2c-.53.35-1.16.69-1.88,1.02s-1.51.62-2.35.84c-.84.23-1.71.35-2.61.35ZM407,227.9c1.17,0,2.29-.18,3.35-.53,1.06-.36,2.07-.79,3.04-1.29l1.97-12.46c-.69-.39-1.42-.68-2.17-.86-.76-.18-1.64-.28-2.66-.28-1.61,0-2.89.28-3.83.83-.94.55-1.67,1.4-2.17,2.54-.51,1.14-.92,2.6-1.24,4.4-.09.55-.17,1.07-.22,1.55s-.09.94-.09,1.38c0,1.15.18,2.07.55,2.76.37.69.86,1.19,1.47,1.5.61.31,1.28.47,2.02.47Z"></path><path class="cls-1" d="M428.15,229.39l4-25.33h9.45c1.06,0,2,.17,2.83.5.83.33,1.5.9,2,1.69.51.79.76,1.89.76,3.3,0,.3-.03.68-.09,1.14-.06.46-.11.88-.16,1.24-.23,1.56-.62,2.85-1.16,3.85s-1.17,1.78-1.88,2.33c-.71.55-1.48.94-2.31,1.17-.83.23-1.65.34-2.45.34-1.15,0-2.39-.03-3.73-.1-1.33-.07-2.57-.14-3.69-.21l-1.59,10.08h-2ZM431.98,217.79h7.04c.92,0,1.78-.17,2.57-.52.79-.35,1.49-.96,2.09-1.85.6-.89,1.02-2.11,1.28-3.68.04-.32.09-.68.14-1.09.04-.4.07-.72.07-.95,0-1.4-.34-2.4-1.04-2.98-.69-.59-1.64-.88-2.86-.88h-7.38l-1.9,11.94Z"></path><path class="cls-1" d="M448.75,229.39l4-25.33h9.11c.69,0,1.38.08,2.07.24.69.16,1.32.45,1.9.86.58.41,1.04.99,1.38,1.73s.52,1.68.52,2.83c0,.32-.02.65-.05.98-.03.33-.08.69-.12,1.05-.23,1.38-.57,2.49-1.02,3.33-.45.84-.96,1.49-1.54,1.95-.58.46-1.16.78-1.76.97-.6.18-1.14.32-1.62.41l3.59,10.97h-2.04l-3.42-10.73c-.41,0-.93-.01-1.55-.03-.62-.02-1.29-.04-2-.05-.71-.01-1.4-.02-2.05-.03-.66-.01-1.21-.03-1.67-.05l-1.73,10.9h-2ZM452.72,216.96h7.25c.85,0,1.65-.13,2.4-.4.75-.26,1.4-.78,1.95-1.54.55-.76.95-1.91,1.21-3.45.05-.3.07-.59.09-.86.01-.28.02-.53.02-.76,0-1.15-.21-2.01-.62-2.59s-.94-.97-1.57-1.19c-.63-.22-1.28-.33-1.95-.33h-7l-1.76,11.11Z"></path></g></svg>